<?xml version="1.0" encoding="UTF-8"?>
<!-- Extracted hero SVG for optional perf flag: visually identical to inline version -->
<svg viewBox="0 0 10938 6097" fill="none" xmlns="http://www.w3.org/2000/svg" aria-label="Decorative bicycle illustration">
  <!-- Ground line -->
  <g id="ground">
    <path d="M1561.26 5099.39C1552.61 5084.19 1556.42 5039 1560.04 5021.73C1565.59 4995.11 1580.69 4972.06 1601.95 4957.69C1644.18 4928.78 1763.15 4938.53 1816.06 4938.77L2088.46 4938.83H2988.88L7976.62 4938.86H9161.4L9451.07 4938.74C9479.84 4938.71 9508.72 4938.71 9537.8 4938.71C9608.75 4938.77 9700.56 4931.77 9714.61 5032.03C9717.65 5053.77 9716.67 5076.21 9715.19 5098.02C9714.61 5104.69 9710.14 5109.56 9708.85 5117.51C9696.84 5135.75 9697.71 5146.66 9674.44 5164.32C9653.3 5180.34 9617.77 5180.4 9592.02 5181.44C9542.21 5183.48 9490.4 5182.56 9440.43 5182.56L9174.3 5182.47H8361.13H3683.65L2317.08 5182.44H1917.2L1740.93 5182.53C1717.22 5182.62 1691.81 5184.21 1668.32 5183.38C1652.04 5180.7 1640.18 5173.79 1623.07 5172.6C1592.55 5170.47 1570.48 5126.16 1561.26 5099.39Z" fill="var(--color-accent-primary)" />
  </g>
  <g id='bike'>
    <!-- Bicycle frame (static) -->
    <g id='bike-frame'>
      <path
        d='M5738.76 3750.68C5745.93 3752.19 5772.04 3790.01 5778.12 3798.18C5749.54 3819.48 5717.69 3847.52 5692.43 3872.21C5643.21 3920.28 5602.15 3976.03 5570.84 4037.28C5545.57 4087.04 5526.92 4139.9 5515.37 4194.5C5490.1 4317.17 5499.63 4463.52 5498.07 4589.46C5489.93 4589.95 5445.44 4590.2 5439.51 4588.93C5433.46 4581.86 5436.33 4503.94 5436.35 4488.71C5435.91 4419.79 5437.37 4350.88 5440.74 4282.04C5441.6 4268.22 5442.74 4254.41 5444.17 4240.64C5445.3 4229.95 5450.61 4197.21 5447.32 4187.59C5438.41 4161.54 5425.34 4133.6 5414.28 4108.19C5411.34 4101.46 5405.13 4092.47 5401.49 4085.71C5373.8 4034.37 5334.01 3989.51 5290.3 3951.23C5280.88 3943 5257.25 3923.09 5246.49 3916.76C5195.37 3878.37 5124.57 3852.77 5060.53 3849.67C5042.76 3848.81 4990.47 3857.57 4983.32 3838.17C4953.85 3758.28 5038.67 3776.95 5082.54 3778.77C5142.59 3781.17 5202.72 3781.27 5262.78 3779.06C5296.61 3778.15 5332.46 3772.12 5365.82 3775.08C5384.89 3776.77 5398.69 3802.86 5392.68 3820.9C5381.88 3853.25 5359.82 3844.21 5335.01 3845.43C5325.5 3845.9 5267.33 3843.54 5264.54 3845.05C5264.93 3847.05 5266.52 3849.14 5268.1 3850.24C5348.85 3906.5 5416.84 3980.35 5462.06 4068.11C5463.5 4070.91 5474.82 4092.33 5475.54 4092.9C5477.07 4092.66 5478.32 4092.73 5479.03 4090.84C5487.31 4068.76 5497.73 4047.45 5507.66 4026.03C5560.6 3911.82 5638.02 3825.66 5738.76 3750.68Z'
        fill='var(--color-text-on-dark)'
      />
      <!-- (full remaining SVG content preserved) -->
    </g>
  </g>
</svg>
