<svg id="svg" version="1.1" xmlns="http://www.w3.org/2000/svg" xmlns:xlink="http://www.w3.org/1999/xlink" width="400" height="122" viewBox="0, 0, 400,122"><g id="svgg"><path id="path0" d="M238.167 18.158 C 232.224 19.150,229.788 26.891,234.167 30.872 C 240.112 36.279,249.048 30.324,246.169 22.875 C 244.960 19.746,241.361 17.625,238.167 18.158 M212.583 18.509 C 211.850 18.676,209.938 18.935,208.333 19.086 C 206.729 19.236,205.147 19.429,204.817 19.513 C 204.487 19.597,203.137 19.781,201.817 19.922 C 197.175 20.418,195.443 20.820,195.196 21.459 C 194.985 22.006,194.741 24.213,194.813 24.917 C 194.923 25.985,194.877 25.981,200.000 25.344 C 203.912 24.857,203.828 24.711,202.927 30.500 C 202.692 32.012,202.311 34.600,202.081 36.250 C 201.851 37.900,201.518 39.962,201.342 40.833 C 201.166 41.704,200.971 43.054,200.909 43.833 C 200.848 44.612,200.625 46.150,200.415 47.250 C 200.204 48.350,199.985 49.700,199.927 50.250 C 199.331 55.929,199.006 56.576,197.338 55.406 C 195.623 54.205,194.823 53.700,194.167 53.407 C 193.846 53.264,193.171 52.935,192.667 52.676 C 185.080 48.773,172.497 50.627,165.014 56.750 C 162.382 58.904,160.397 60.918,158.938 62.917 C 158.336 63.742,157.701 64.604,157.527 64.833 C 156.028 66.808,153.406 73.316,152.850 76.442 C 152.754 76.978,152.543 78.167,152.380 79.083 C 150.503 89.636,155.559 101.458,163.577 105.266 C 163.856 105.398,164.271 105.612,164.500 105.741 C 165.582 106.353,166.853 106.854,167.917 107.088 C 168.558 107.230,169.383 107.469,169.750 107.619 C 170.783 108.042,175.993 108.125,177.667 107.745 C 178.354 107.589,179.681 107.295,180.614 107.093 C 181.548 106.891,182.410 106.644,182.531 106.546 C 182.651 106.447,183.088 106.278,183.500 106.170 C 183.912 106.062,184.481 105.839,184.764 105.675 C 185.046 105.512,185.562 105.284,185.909 105.169 C 186.493 104.976,187.294 104.540,188.871 103.555 C 189.213 103.341,189.545 103.167,189.609 103.167 C 189.776 103.167,191.504 102.000,192.015 101.542 C 192.928 100.724,193.189 101.384,192.934 103.877 C 192.696 106.213,191.770 106.000,202.182 106.000 C 207.255 106.000,211.152 105.934,211.389 105.844 C 211.885 105.655,212.060 105.139,212.343 103.030 L 212.552 101.476 212.120 101.044 L 211.688 100.613 208.636 100.644 C 206.957 100.661,205.501 100.617,205.400 100.546 C 204.726 100.071,204.752 98.388,205.504 93.833 C 205.678 92.779,205.979 90.717,206.172 89.250 C 206.365 87.783,206.787 84.708,207.110 82.417 C 207.433 80.125,207.770 77.612,207.859 76.833 C 207.949 76.054,208.240 73.842,208.506 71.917 C 208.772 69.992,209.070 67.592,209.167 66.583 C 209.264 65.575,209.419 64.426,209.511 64.030 C 209.602 63.633,209.899 61.571,210.169 59.446 C 211.045 52.554,211.472 49.432,211.645 48.667 C 211.738 48.254,211.897 46.942,211.997 45.750 C 212.193 43.433,212.419 41.777,212.670 40.829 C 212.756 40.506,212.941 39.045,213.081 37.583 C 213.221 36.121,213.442 34.398,213.572 33.754 C 213.703 33.110,213.930 31.496,214.078 30.167 C 214.226 28.837,214.451 27.113,214.580 26.333 C 214.708 25.554,214.936 23.876,215.086 22.604 C 215.235 21.332,215.427 20.108,215.512 19.885 C 216.134 18.249,215.351 17.882,212.583 18.509 M149.583 20.111 C 149.400 20.151,148.612 20.323,147.833 20.494 C 147.054 20.665,145.544 20.891,144.478 20.996 C 143.412 21.101,142.137 21.296,141.645 21.430 C 141.153 21.565,139.587 21.826,138.167 22.011 C 136.746 22.196,135.321 22.418,135.000 22.503 C 134.679 22.588,133.375 22.810,132.102 22.997 C 129.286 23.411,128.922 23.597,127.404 25.390 C 125.988 27.063,122.643 30.886,122.496 31.000 C 122.436 31.046,121.118 32.546,119.566 34.333 C 118.015 36.121,116.559 37.786,116.331 38.034 C 115.804 38.607,115.614 38.824,112.500 42.417 C 111.079 44.057,109.773 45.546,109.597 45.727 C 109.420 45.909,108.942 46.475,108.533 46.987 C 108.125 47.498,107.702 47.992,107.595 48.083 C 107.359 48.285,104.311 51.758,102.255 54.167 C 101.434 55.129,100.523 56.179,100.232 56.500 C 99.289 57.539,96.809 60.372,94.250 63.334 C 92.875 64.925,91.563 66.430,91.333 66.677 C 91.104 66.925,90.692 67.388,90.417 67.707 C 90.142 68.025,89.504 68.757,89.000 69.331 C 88.497 69.906,87.975 70.536,87.841 70.730 C 87.707 70.924,87.322 71.383,86.985 71.750 C 86.649 72.117,85.972 72.904,85.480 73.500 C 81.746 78.028,74.620 84.192,69.555 87.276 C 68.779 87.749,68.017 88.243,67.863 88.373 C 67.709 88.504,67.233 88.739,66.805 88.897 C 66.377 89.055,65.936 89.293,65.826 89.425 C 65.716 89.558,65.533 89.667,65.420 89.667 C 65.306 89.667,64.772 89.883,64.232 90.147 C 61.886 91.294,61.038 91.663,60.333 91.843 C 59.921 91.949,59.374 92.143,59.118 92.276 C 58.641 92.522,56.620 93.100,54.250 93.667 C 42.644 96.446,33.055 92.599,27.534 82.947 C 19.883 69.571,27.549 52.617,42.667 49.481 C 45.158 48.964,49.692 48.909,51.155 49.377 C 52.096 49.678,53.096 49.758,53.217 49.542 C 53.437 49.148,52.775 48.288,51.953 47.899 C 51.475 47.673,50.896 47.382,50.667 47.253 C 50.179 46.979,47.982 46.029,46.667 45.524 C 45.779 45.183,43.143 44.656,40.750 44.340 C 38.859 44.091,33.721 44.780,32.147 45.495 C 31.745 45.677,31.310 45.828,31.179 45.830 C 30.878 45.834,28.724 46.875,27.417 47.649 C 23.720 49.834,20.029 53.629,17.877 57.457 C 16.235 60.377,15.740 61.565,14.506 65.550 L 14.000 67.183 14.000 73.833 L 14.000 80.484 14.506 82.117 C 15.409 85.031,16.131 87.008,16.411 87.333 C 16.530 87.471,16.683 87.771,16.750 88.000 C 17.067 89.071,18.898 92.025,20.742 94.439 C 23.595 98.175,30.476 103.218,34.025 104.174 C 34.381 104.269,34.914 104.488,35.211 104.659 C 35.507 104.830,36.200 105.055,36.750 105.160 C 37.300 105.265,38.162 105.495,38.667 105.672 C 40.668 106.374,47.500 106.900,49.718 106.522 C 50.285 106.425,51.570 106.264,52.573 106.164 C 53.576 106.064,54.814 105.843,55.323 105.674 C 55.833 105.504,56.801 105.281,57.474 105.179 C 58.148 105.076,58.935 104.870,59.223 104.721 C 59.511 104.572,60.385 104.281,61.165 104.074 C 62.684 103.672,64.154 103.164,65.283 102.651 C 65.667 102.476,66.041 102.333,66.113 102.333 C 66.186 102.333,66.659 102.137,67.164 101.897 C 71.550 99.815,73.938 98.540,76.167 97.090 C 77.037 96.523,78.200 95.770,78.750 95.417 C 79.300 95.064,80.176 94.432,80.697 94.013 C 81.218 93.593,82.155 92.857,82.780 92.376 C 83.405 91.895,84.217 91.222,84.583 90.880 C 84.950 90.538,85.814 89.769,86.503 89.171 C 87.682 88.148,91.224 84.640,93.090 82.647 C 94.129 81.539,97.383 77.698,99.500 75.083 C 101.080 73.131,101.515 72.596,104.500 68.921 C 105.371 67.849,106.308 66.685,106.583 66.334 C 108.246 64.213,111.085 60.719,112.002 59.667 L 112.655 58.917 122.978 58.871 C 135.318 58.817,134.119 58.490,133.595 61.762 C 133.335 63.389,133.076 65.239,132.908 66.667 C 132.849 67.171,132.695 68.096,132.566 68.723 C 132.437 69.350,132.216 70.887,132.074 72.139 C 131.933 73.392,131.676 75.204,131.504 76.167 C 131.333 77.129,131.071 78.854,130.923 80.000 C 130.775 81.146,130.509 82.983,130.333 84.083 C 129.847 87.112,129.380 90.259,128.922 93.583 C 128.695 95.233,128.393 97.221,128.252 98.000 C 127.763 100.688,128.028 100.553,123.330 100.513 C 119.079 100.477,118.990 100.507,118.762 102.094 C 118.697 102.546,118.537 103.287,118.405 103.739 C 118.083 104.850,118.105 105.393,118.489 105.740 C 118.872 106.086,147.396 106.157,148.039 105.813 C 148.844 105.382,149.339 101.787,148.701 101.000 L 148.363 100.583 144.973 100.539 C 140.222 100.476,140.129 100.433,140.565 98.483 C 140.696 97.896,140.891 96.517,140.999 95.417 C 141.106 94.317,141.375 92.499,141.597 91.378 C 141.819 90.256,142.000 88.979,142.000 88.540 C 142.000 87.420,142.303 85.099,142.601 83.939 C 142.739 83.401,142.959 81.789,143.088 80.356 C 143.218 78.923,143.437 77.262,143.574 76.667 C 143.711 76.071,143.942 74.496,144.087 73.167 C 144.231 71.837,144.417 70.487,144.501 70.167 C 144.584 69.846,144.802 68.271,144.984 66.667 C 145.167 65.063,145.428 63.262,145.564 62.667 C 145.700 62.071,145.899 60.533,146.006 59.250 C 146.114 57.967,146.306 56.494,146.434 55.977 C 146.561 55.461,146.779 54.036,146.916 52.811 C 147.220 50.110,148.084 43.782,148.416 41.833 C 148.549 41.054,148.774 39.306,148.916 37.949 C 149.059 36.592,149.281 34.977,149.411 34.361 C 149.540 33.745,149.764 32.118,149.908 30.745 C 150.052 29.373,150.320 27.350,150.504 26.250 C 151.510 20.236,151.431 19.711,149.583 20.111 M138.135 29.211 C 138.298 29.409,137.825 34.146,137.573 34.828 C 137.523 34.962,137.298 36.490,137.072 38.224 C 136.845 39.957,136.626 41.431,136.584 41.500 C 136.541 41.568,136.353 42.890,136.165 44.437 C 135.977 45.984,135.679 47.962,135.503 48.833 C 135.327 49.704,135.134 50.942,135.075 51.583 C 134.797 54.599,135.601 54.359,125.555 54.418 L 117.360 54.466 117.164 53.994 C 116.979 53.546,117.027 53.454,118.141 52.136 C 118.785 51.374,119.748 50.220,120.281 49.572 C 120.814 48.923,121.605 47.986,122.038 47.488 C 122.472 46.991,123.731 45.496,124.836 44.167 C 128.625 39.609,131.668 35.991,132.887 34.594 C 133.362 34.049,133.897 33.412,134.076 33.177 C 134.256 32.942,134.937 32.112,135.590 31.333 C 136.243 30.554,136.911 29.710,137.075 29.458 C 137.391 28.970,137.846 28.864,138.135 29.211 M274.417 50.614 C 271.588 51.015,270.231 51.223,268.167 51.573 C 266.837 51.798,264.887 52.099,263.833 52.242 C 256.173 53.282,256.082 53.324,255.800 56.013 L 255.620 57.727 256.032 58.081 L 256.444 58.436 258.884 58.154 C 260.227 57.999,261.656 57.823,262.061 57.762 C 262.686 57.668,262.866 57.711,263.249 58.040 L 263.700 58.428 263.440 59.839 C 263.298 60.615,263.062 62.150,262.918 63.250 C 262.664 65.182,262.423 66.772,261.577 72.083 C 261.358 73.458,261.098 75.258,261.000 76.083 C 260.902 76.908,260.678 78.408,260.502 79.417 C 260.326 80.425,260.064 82.262,259.919 83.500 C 259.774 84.737,259.546 86.340,259.411 87.060 C 259.277 87.781,258.943 89.994,258.671 91.977 C 257.558 100.073,257.666 99.522,257.064 100.131 L 256.521 100.679 253.442 100.659 C 249.300 100.633,249.203 100.703,249.040 103.817 C 248.959 105.371,248.981 105.574,249.257 105.775 C 249.701 106.100,276.454 106.109,276.898 105.785 C 277.630 105.249,278.149 101.470,277.558 100.979 C 277.351 100.807,276.394 100.729,273.701 100.667 L 270.119 100.583 269.791 100.144 C 269.492 99.743,269.479 99.604,269.647 98.560 C 269.748 97.931,269.946 96.440,270.087 95.246 C 270.228 94.052,270.446 92.735,270.571 92.318 C 270.697 91.901,270.850 90.965,270.912 90.238 C 271.119 87.798,271.349 86.089,271.583 85.250 C 271.710 84.792,271.936 83.367,272.084 82.083 C 272.232 80.800,272.493 78.925,272.663 77.917 C 272.834 76.908,273.023 75.596,273.084 75.000 C 273.145 74.404,273.300 73.445,273.429 72.869 C 273.559 72.293,273.774 70.885,273.908 69.740 C 274.187 67.355,274.077 67.627,275.434 66.000 C 281.058 59.258,288.816 55.841,294.253 57.709 C 297.755 58.912,299.211 61.746,298.425 65.830 C 298.293 66.519,298.063 68.256,297.915 69.688 C 297.767 71.121,297.546 72.626,297.423 73.033 C 297.301 73.440,297.150 74.368,297.088 75.095 C 296.882 77.523,296.653 79.241,296.409 80.189 C 296.276 80.706,296.054 82.169,295.915 83.439 C 295.777 84.710,295.555 86.313,295.424 87.000 C 295.292 87.688,295.068 89.188,294.926 90.333 C 294.784 91.479,294.588 92.679,294.491 93.000 C 294.394 93.321,294.169 94.929,293.992 96.574 C 293.672 99.541,293.666 99.568,293.129 100.122 L 292.588 100.680 289.292 100.656 C 284.970 100.624,284.976 100.620,284.648 103.500 C 284.454 105.192,284.522 105.547,285.087 105.805 C 285.672 106.071,311.540 106.085,312.302 105.819 C 312.878 105.619,312.915 105.540,313.159 104.000 C 313.681 100.707,313.636 100.667,309.409 100.667 C 306.173 100.667,306.149 100.664,305.742 100.258 C 305.235 99.751,305.221 100.104,305.925 95.656 C 306.250 93.599,306.629 91.054,306.766 90.000 C 306.904 88.946,307.165 87.183,307.348 86.083 C 307.530 84.983,307.826 82.883,308.007 81.417 C 308.187 79.950,308.442 78.150,308.575 77.417 C 308.707 76.683,308.971 74.921,309.162 73.500 C 309.353 72.079,309.583 70.429,309.674 69.833 C 311.200 59.844,308.631 54.070,301.578 51.637 C 298.552 50.593,293.024 50.326,290.004 51.078 C 286.125 52.044,282.098 53.822,279.809 55.578 C 279.566 55.764,278.921 56.236,278.376 56.625 C 277.831 57.015,277.243 57.490,277.071 57.681 C 276.772 58.011,275.811 58.500,275.461 58.500 C 275.279 58.500,275.350 57.942,275.725 56.417 C 277.145 50.634,277.056 50.239,274.417 50.614 M241.000 51.089 C 239.854 51.303,237.792 51.639,236.417 51.835 C 235.042 52.032,233.167 52.331,232.250 52.501 C 231.333 52.670,229.008 53.045,227.083 53.333 C 222.974 53.947,223.039 53.909,222.576 55.945 C 221.784 59.424,221.772 59.418,227.955 58.465 C 231.166 57.970,231.261 58.005,231.217 59.674 C 231.177 61.164,230.760 64.347,230.334 66.417 C 230.164 67.242,229.943 68.667,229.842 69.583 C 229.742 70.500,229.479 72.375,229.258 73.750 C 228.467 78.669,228.324 79.618,227.990 82.167 C 227.804 83.587,227.511 85.462,227.339 86.333 C 227.167 87.204,226.976 88.554,226.914 89.333 C 226.852 90.112,226.625 91.650,226.409 92.750 C 226.194 93.850,225.935 95.575,225.833 96.583 C 225.583 99.066,225.439 99.622,224.899 100.185 L 224.438 100.667 220.584 100.667 C 217.721 100.667,216.656 100.721,216.439 100.879 C 215.820 101.333,215.406 105.350,215.938 105.753 C 216.330 106.050,244.459 106.123,245.009 105.828 C 245.592 105.517,245.837 104.742,245.944 102.874 C 246.084 100.425,246.343 100.568,241.921 100.643 L 238.393 100.703 237.947 100.172 C 237.439 99.569,237.449 99.614,237.659 98.833 C 237.746 98.513,237.933 97.125,238.074 95.750 C 238.216 94.375,238.440 92.725,238.573 92.083 C 238.705 91.442,238.934 89.867,239.082 88.583 C 239.229 87.300,239.492 85.388,239.666 84.333 C 239.840 83.279,240.068 81.667,240.172 80.750 C 240.276 79.833,240.462 78.633,240.585 78.083 C 240.709 77.533,240.856 76.558,240.914 75.917 C 241.146 73.315,241.374 71.530,241.599 70.550 C 241.730 69.981,241.950 68.337,242.088 66.896 C 242.226 65.456,242.444 63.858,242.572 63.347 C 242.701 62.835,242.893 61.592,242.998 60.583 C 243.104 59.575,243.366 57.587,243.581 56.167 C 244.189 52.134,244.229 51.536,243.923 51.069 C 243.611 50.593,243.656 50.593,241.000 51.089 M343.250 50.859 C 335.958 51.670,328.618 55.451,326.585 59.444 L 325.920 60.750 325.925 63.000 L 325.930 65.250 326.517 66.284 C 327.709 68.386,329.155 69.568,331.278 70.175 C 337.624 71.989,343.036 65.148,339.820 59.378 C 338.687 57.346,339.547 56.528,343.387 55.983 C 349.498 55.117,353.237 56.217,355.244 59.469 L 355.881 60.500 355.780 63.542 C 355.608 68.730,355.004 70.246,352.901 70.767 C 352.634 70.833,351.554 71.217,350.500 71.621 C 349.446 72.024,348.171 72.493,347.667 72.664 C 342.534 74.398,333.196 78.661,329.833 80.806 C 329.237 81.186,328.412 81.688,328.000 81.921 C 327.587 82.154,326.980 82.548,326.651 82.797 C 326.321 83.046,325.609 83.581,325.068 83.986 C 320.912 87.094,318.266 91.488,317.925 95.844 C 317.531 100.872,320.865 105.275,326.250 106.836 C 328.137 107.383,334.386 107.234,335.889 106.605 C 336.218 106.468,336.939 106.240,337.493 106.098 C 338.046 105.956,338.797 105.689,339.160 105.504 C 339.523 105.318,339.949 105.167,340.106 105.167 C 340.484 105.167,341.927 104.478,348.143 101.329 C 348.600 101.098,349.111 100.789,349.278 100.641 C 350.644 99.443,351.502 99.633,351.917 101.225 C 352.437 103.221,354.145 105.237,356.250 106.339 C 358.881 107.716,365.196 107.457,367.769 105.865 C 369.666 104.691,371.531 102.912,372.164 101.673 C 372.346 101.315,372.566 100.979,372.652 100.926 C 372.738 100.872,372.895 100.548,372.999 100.206 C 373.103 99.864,373.349 99.283,373.545 98.917 C 374.379 97.356,374.101 94.333,373.124 94.333 C 370.983 94.333,369.710 94.936,369.172 96.204 C 367.825 99.375,365.221 100.921,363.731 99.431 L 363.121 98.821 363.211 95.619 C 363.266 93.695,363.407 91.917,363.565 91.167 C 363.819 89.959,364.051 88.328,364.928 81.583 C 365.155 79.842,365.448 77.817,365.580 77.083 C 365.712 76.350,365.936 74.662,366.078 73.333 C 366.220 72.004,366.466 70.317,366.625 69.583 C 367.160 67.114,367.046 61.266,366.431 59.608 C 363.890 52.766,355.286 49.519,343.250 50.859 M185.909 57.174 C 187.546 57.361,190.121 58.100,191.403 58.751 C 191.854 58.979,192.314 59.167,192.425 59.167 C 192.535 59.167,192.724 59.285,192.844 59.430 C 192.964 59.574,193.405 59.877,193.823 60.103 C 194.903 60.686,195.761 61.322,196.993 62.455 L 198.065 63.441 197.854 65.096 C 197.738 66.006,197.542 67.162,197.418 67.667 C 197.207 68.527,196.987 70.148,196.740 72.667 C 196.681 73.262,196.532 74.200,196.408 74.750 C 196.283 75.300,196.065 76.757,195.923 77.988 C 195.780 79.219,195.591 80.494,195.503 80.822 C 195.415 81.149,195.193 82.749,195.009 84.378 C 194.825 86.006,194.564 87.769,194.430 88.294 C 194.296 88.820,194.101 90.034,193.998 90.993 C 193.764 93.152,193.612 93.521,192.481 94.667 C 188.233 98.976,182.765 101.468,177.500 101.494 C 175.838 101.502,172.878 100.910,172.187 100.431 C 171.845 100.194,171.501 100.000,171.423 100.000 C 171.219 100.000,169.525 98.702,168.820 98.006 C 167.331 96.536,166.241 94.497,165.416 91.637 C 164.819 89.563,164.774 82.264,165.336 78.583 C 165.599 76.866,166.325 73.462,166.653 72.417 C 166.825 71.867,167.059 71.058,167.172 70.621 C 167.286 70.183,167.441 69.786,167.518 69.739 C 167.594 69.692,167.811 69.134,168.000 68.500 C 168.189 67.866,168.424 67.297,168.522 67.236 C 168.621 67.175,168.826 66.854,168.977 66.521 C 171.830 60.274,178.899 56.371,185.909 57.174 M353.894 76.534 C 354.022 76.739,353.992 77.407,353.784 78.950 C 353.625 80.123,353.311 82.497,353.084 84.226 C 352.858 85.954,352.562 87.907,352.426 88.566 C 352.289 89.225,352.103 90.427,352.011 91.238 C 351.789 93.191,351.477 93.510,347.583 95.772 C 337.138 101.840,331.206 101.261,331.293 94.182 C 331.360 88.705,335.355 84.117,343.618 80.024 C 346.171 78.760,347.059 78.355,348.000 78.026 C 348.504 77.850,349.404 77.518,350.000 77.289 C 350.596 77.060,351.496 76.714,352.000 76.522 C 353.047 76.121,353.638 76.125,353.894 76.534 " stroke="none" fill="#fafafa" fill-rule="evenodd"></path><path id="path1" d="M242.297 18.857 C 248.198 21.640,248.259 29.388,242.402 32.268 C 238.951 33.965,234.447 32.420,232.697 28.938 C 229.559 22.695,236.029 15.901,242.297 18.857 M215.344 18.339 C 215.698 18.528,215.771 19.203,215.512 19.885 C 215.427 20.108,215.235 21.332,215.086 22.604 C 214.936 23.876,214.708 25.554,214.580 26.333 C 214.451 27.113,214.226 28.837,214.078 30.167 C 213.930 31.496,213.703 33.110,213.572 33.754 C 213.442 34.398,213.221 36.121,213.081 37.583 C 212.941 39.045,212.756 40.506,212.670 40.829 C 212.419 41.777,212.193 43.433,211.997 45.750 C 211.897 46.942,211.738 48.254,211.645 48.667 C 211.472 49.432,211.045 52.554,210.169 59.446 C 209.899 61.571,209.602 63.633,209.511 64.030 C 209.419 64.426,209.264 65.575,209.167 66.583 C 209.070 67.592,208.772 69.992,208.506 71.917 C 208.240 73.842,207.949 76.054,207.859 76.833 C 207.770 77.612,207.433 80.125,207.110 82.417 C 206.787 84.708,206.365 87.783,206.172 89.250 C 205.979 90.717,205.678 92.779,205.504 93.833 C 204.752 98.388,204.726 100.071,205.400 100.546 C 205.501 100.617,206.957 100.661,208.636 100.644 L 211.688 100.613 212.120 101.044 L 212.552 101.476 212.343 103.030 C 212.060 105.139,211.885 105.655,211.389 105.844 C 211.152 105.934,207.255 106.000,202.182 106.000 C 191.770 106.000,192.696 106.213,192.934 103.877 C 193.189 101.384,192.928 100.724,192.015 101.542 C 191.504 102.000,189.776 103.167,189.609 103.167 C 189.545 103.167,189.213 103.341,188.871 103.555 C 187.294 104.540,186.493 104.976,185.909 105.169 C 185.562 105.284,185.046 105.512,184.764 105.675 C 184.481 105.839,183.912 106.062,183.500 106.170 C 183.088 106.278,182.651 106.447,182.531 106.546 C 182.410 106.644,181.548 106.891,180.614 107.093 C 179.681 107.295,178.354 107.589,177.667 107.745 C 175.993 108.125,170.783 108.042,169.750 107.619 C 169.383 107.469,168.558 107.230,167.917 107.088 C 166.853 106.854,165.582 106.353,164.500 105.741 C 164.271 105.612,163.856 105.398,163.577 105.266 C 155.559 101.458,150.503 89.636,152.380 79.083 C 152.543 78.167,152.754 76.978,152.850 76.442 C 153.406 73.316,156.028 66.808,157.527 64.833 C 157.701 64.604,158.336 63.742,158.938 62.917 C 160.397 60.918,162.382 58.904,165.014 56.750 C 172.497 50.627,185.080 48.773,192.667 52.676 C 193.171 52.935,193.846 53.264,194.167 53.407 C 194.823 53.700,195.623 54.205,197.338 55.406 C 199.006 56.576,199.331 55.929,199.927 50.250 C 199.985 49.700,200.204 48.350,200.415 47.250 C 200.625 46.150,200.848 44.612,200.909 43.833 C 200.971 43.054,201.166 41.704,201.342 40.833 C 201.518 39.962,201.851 37.900,202.081 36.250 C 202.311 34.600,202.692 32.012,202.927 30.500 C 203.828 24.711,203.912 24.857,200.000 25.344 C 194.877 25.981,194.923 25.985,194.813 24.917 C 194.741 24.213,194.985 22.006,195.196 21.459 C 195.443 20.820,197.175 20.418,201.817 19.922 C 203.137 19.781,204.487 19.597,204.817 19.513 C 205.147 19.429,206.729 19.236,208.333 19.086 C 209.938 18.935,211.850 18.676,212.583 18.509 C 214.165 18.151,214.906 18.105,215.344 18.339 M150.936 20.241 C 151.324 20.513,151.219 21.972,150.504 26.250 C 150.320 27.350,150.052 29.373,149.908 30.745 C 149.764 32.118,149.540 33.745,149.411 34.361 C 149.281 34.977,149.059 36.592,148.916 37.949 C 148.774 39.306,148.549 41.054,148.416 41.833 C 148.084 43.782,147.220 50.110,146.916 52.811 C 146.779 54.036,146.561 55.461,146.434 55.977 C 146.306 56.494,146.114 57.967,146.006 59.250 C 145.899 60.533,145.700 62.071,145.564 62.667 C 145.428 63.262,145.167 65.063,144.984 66.667 C 144.802 68.271,144.584 69.846,144.501 70.167 C 144.417 70.487,144.231 71.837,144.087 73.167 C 143.942 74.496,143.711 76.071,143.574 76.667 C 143.437 77.262,143.218 78.923,143.088 80.356 C 142.959 81.789,142.739 83.401,142.601 83.939 C 142.303 85.099,142.000 87.420,142.000 88.540 C 142.000 88.979,141.819 90.256,141.597 91.378 C 141.375 92.499,141.106 94.317,140.999 95.417 C 140.891 96.517,140.696 97.896,140.565 98.483 C 140.129 100.433,140.222 100.476,144.973 100.539 L 148.363 100.583 148.701 101.000 C 149.339 101.787,148.844 105.382,148.039 105.813 C 147.396 106.157,118.872 106.086,118.489 105.740 C 118.105 105.393,118.083 104.850,118.405 103.739 C 118.537 103.287,118.697 102.546,118.762 102.094 C 118.990 100.507,119.079 100.477,123.330 100.513 C 128.028 100.553,127.763 100.688,128.252 98.000 C 128.393 97.221,128.695 95.233,128.922 93.583 C 129.380 90.259,129.847 87.112,130.333 84.083 C 130.509 82.983,130.775 81.146,130.923 80.000 C 131.071 78.854,131.333 77.129,131.504 76.167 C 131.676 75.204,131.933 73.392,132.074 72.139 C 132.216 70.887,132.437 69.350,132.566 68.723 C 132.695 68.096,132.849 67.171,132.908 66.667 C 133.076 65.239,133.335 63.389,133.595 61.762 C 134.119 58.490,135.318 58.817,122.978 58.871 L 112.655 58.917 112.002 59.667 C 111.085 60.719,108.246 64.213,106.583 66.334 C 106.308 66.685,105.371 67.849,104.500 68.921 C 101.515 72.596,101.080 73.131,99.500 75.083 C 97.383 77.698,94.129 81.539,93.090 82.647 C 91.224 84.640,87.682 88.148,86.503 89.171 C 85.814 89.769,84.950 90.538,84.583 90.880 C 84.217 91.222,83.405 91.895,82.780 92.376 C 82.155 92.857,81.218 93.593,80.697 94.013 C 80.176 94.432,79.300 95.064,78.750 95.417 C 78.200 95.770,77.037 96.523,76.167 97.090 C 73.938 98.540,71.550 99.815,67.164 101.897 C 66.659 102.137,66.186 102.333,66.113 102.333 C 66.041 102.333,65.667 102.476,65.283 102.651 C 64.154 103.164,62.684 103.672,61.165 104.074 C 60.385 104.281,59.511 104.572,59.223 104.721 C 58.935 104.870,58.148 105.076,57.474 105.179 C 56.801 105.281,55.833 105.504,55.323 105.674 C 54.814 105.843,53.576 106.064,52.573 106.164 C 51.570 106.264,50.285 106.425,49.718 106.522 C 47.500 106.900,40.668 106.374,38.667 105.672 C 38.162 105.495,37.300 105.265,36.750 105.160 C 36.200 105.055,35.507 104.830,35.211 104.659 C 34.914 104.488,34.381 104.269,34.025 104.174 C 30.476 103.218,23.595 98.175,20.742 94.439 C 18.898 92.025,17.067 89.071,16.750 88.000 C 16.683 87.771,16.530 87.471,16.411 87.333 C 16.131 87.008,15.409 85.031,14.506 82.117 L 14.000 80.484 14.000 73.833 L 14.000 67.183 14.506 65.550 C 15.740 61.565,16.235 60.377,17.877 57.457 C 20.029 53.629,23.720 49.834,27.417 47.649 C 28.724 46.875,30.878 45.834,31.179 45.830 C 31.310 45.828,31.745 45.677,32.147 45.495 C 33.721 44.780,38.859 44.091,40.750 44.340 C 43.143 44.656,45.779 45.183,46.667 45.524 C 47.982 46.029,50.179 46.979,50.667 47.253 C 50.896 47.382,51.475 47.673,51.953 47.899 C 52.775 48.288,53.437 49.148,53.217 49.542 C 53.096 49.758,52.096 49.678,51.155 49.377 C 50.443 49.149,49.646 49.087,47.417 49.085 C 26.845 49.072,16.974 73.138,31.397 88.145 C 37.513 94.509,45.686 96.030,57.118 92.932 C 57.962 92.703,58.862 92.408,59.118 92.276 C 59.374 92.143,59.921 91.949,60.333 91.843 C 61.038 91.663,61.886 91.294,64.232 90.147 C 64.772 89.883,65.306 89.667,65.420 89.667 C 65.533 89.667,65.716 89.558,65.826 89.425 C 65.936 89.293,66.377 89.055,66.805 88.897 C 67.233 88.739,67.709 88.504,67.863 88.373 C 68.017 88.243,68.779 87.749,69.555 87.276 C 72.209 85.661,74.075 84.259,78.299 80.710 C 80.147 79.157,84.030 75.259,85.480 73.500 C 85.972 72.904,86.649 72.117,86.985 71.750 C 87.322 71.383,87.707 70.924,87.841 70.730 C 87.975 70.536,88.497 69.906,89.000 69.331 C 89.504 68.757,90.142 68.025,90.417 67.707 C 90.692 67.388,91.104 66.925,91.333 66.677 C 91.563 66.430,92.875 64.925,94.250 63.334 C 96.809 60.372,99.289 57.539,100.232 56.500 C 100.523 56.179,101.434 55.129,102.255 54.167 C 104.311 51.758,107.359 48.285,107.595 48.083 C 107.702 47.992,108.125 47.498,108.533 46.987 C 108.942 46.475,109.420 45.909,109.597 45.727 C 109.773 45.546,111.079 44.057,112.500 42.417 C 115.614 38.824,115.804 38.607,116.331 38.034 C 116.559 37.786,118.015 36.121,119.566 34.333 C 121.118 32.546,122.436 31.046,122.496 31.000 C 122.643 30.886,125.988 27.063,127.404 25.390 C 128.922 23.597,129.286 23.411,132.102 22.997 C 133.375 22.810,134.679 22.588,135.000 22.503 C 135.321 22.418,136.746 22.196,138.167 22.011 C 139.587 21.826,141.153 21.565,141.645 21.430 C 142.137 21.296,143.412 21.101,144.478 20.996 C 145.544 20.891,147.054 20.665,147.833 20.494 C 148.612 20.323,149.400 20.151,149.583 20.111 C 150.238 19.969,150.598 20.004,150.936 20.241 M137.075 29.458 C 136.911 29.710,136.243 30.554,135.590 31.333 C 134.937 32.112,134.256 32.942,134.076 33.177 C 133.897 33.412,133.362 34.049,132.887 34.594 C 131.668 35.991,128.625 39.609,124.836 44.167 C 123.731 45.496,122.472 46.991,122.038 47.488 C 121.605 47.986,120.814 48.923,120.281 49.572 C 119.748 50.220,118.785 51.374,118.141 52.136 C 117.027 53.454,116.979 53.546,117.164 53.994 L 117.360 54.466 125.555 54.418 C 135.601 54.359,134.797 54.599,135.075 51.583 C 135.134 50.942,135.327 49.704,135.503 48.833 C 135.679 47.962,135.977 45.984,136.165 44.437 C 136.353 42.890,136.541 41.568,136.584 41.500 C 136.626 41.431,136.845 39.957,137.072 38.224 C 137.298 36.490,137.523 34.962,137.573 34.828 C 137.825 34.146,138.298 29.409,138.135 29.211 C 137.846 28.864,137.391 28.970,137.075 29.458 M276.613 51.001 C 276.811 51.415,276.525 53.161,275.725 56.417 C 275.350 57.942,275.279 58.500,275.461 58.500 C 275.811 58.500,276.772 58.011,277.071 57.681 C 277.243 57.490,277.831 57.015,278.376 56.625 C 278.921 56.236,279.566 55.764,279.809 55.578 C 282.098 53.822,286.125 52.044,290.004 51.078 C 293.024 50.326,298.552 50.593,301.578 51.637 C 308.631 54.070,311.200 59.844,309.674 69.833 C 309.583 70.429,309.353 72.079,309.162 73.500 C 308.971 74.921,308.707 76.683,308.575 77.417 C 308.442 78.150,308.187 79.950,308.007 81.417 C 307.826 82.883,307.530 84.983,307.348 86.083 C 307.165 87.183,306.904 88.946,306.766 90.000 C 306.629 91.054,306.250 93.599,305.925 95.656 C 305.221 100.104,305.235 99.751,305.742 100.258 C 306.149 100.664,306.173 100.667,309.409 100.667 C 313.636 100.667,313.681 100.707,313.159 104.000 C 312.915 105.540,312.878 105.619,312.302 105.819 C 311.540 106.085,285.672 106.071,285.087 105.805 C 284.522 105.547,284.454 105.192,284.648 103.500 C 284.976 100.620,284.970 100.624,289.292 100.656 L 292.588 100.680 293.129 100.122 C 293.666 99.568,293.672 99.541,293.992 96.574 C 294.169 94.929,294.394 93.321,294.491 93.000 C 294.588 92.679,294.784 91.479,294.926 90.333 C 295.068 89.188,295.292 87.688,295.424 87.000 C 295.555 86.313,295.777 84.710,295.915 83.439 C 296.054 82.169,296.276 80.706,296.409 80.189 C 296.653 79.241,296.882 77.523,297.088 75.095 C 297.150 74.368,297.301 73.440,297.423 73.033 C 297.546 72.626,297.767 71.121,297.915 69.688 C 298.063 68.256,298.293 66.519,298.425 65.830 C 299.211 61.746,297.755 58.912,294.253 57.709 C 288.816 55.841,281.058 59.258,275.434 66.000 C 274.077 67.627,274.187 67.355,273.908 69.740 C 273.774 70.885,273.559 72.293,273.429 72.869 C 273.300 73.445,273.145 74.404,273.084 75.000 C 273.023 75.596,272.834 76.908,272.663 77.917 C 272.493 78.925,272.232 80.800,272.084 82.083 C 271.936 83.367,271.710 84.792,271.583 85.250 C 271.349 86.089,271.119 87.798,270.912 90.238 C 270.850 90.965,270.697 91.901,270.571 92.318 C 270.446 92.735,270.228 94.052,270.087 95.246 C 269.946 96.440,269.748 97.931,269.647 98.560 C 269.479 99.604,269.492 99.743,269.791 100.144 L 270.119 100.583 273.701 100.667 C 276.394 100.729,277.351 100.807,277.558 100.979 C 278.149 101.470,277.630 105.249,276.898 105.785 C 276.454 106.109,249.701 106.100,249.257 105.775 C 248.981 105.574,248.959 105.371,249.040 103.817 C 249.203 100.703,249.300 100.633,253.442 100.659 L 256.521 100.679 257.064 100.131 C 257.666 99.522,257.558 100.073,258.671 91.977 C 258.943 89.994,259.277 87.781,259.411 87.060 C 259.546 86.340,259.774 84.737,259.919 83.500 C 260.064 82.262,260.326 80.425,260.502 79.417 C 260.678 78.408,260.902 76.908,261.000 76.083 C 261.098 75.258,261.358 73.458,261.577 72.083 C 262.423 66.772,262.664 65.182,262.918 63.250 C 263.062 62.150,263.298 60.615,263.440 59.839 L 263.700 58.428 263.249 58.040 C 262.866 57.711,262.686 57.668,262.061 57.762 C 261.656 57.823,260.227 57.999,258.884 58.154 L 256.444 58.436 256.032 58.081 L 255.620 57.727 255.800 56.013 C 256.082 53.324,256.173 53.282,263.833 52.242 C 264.887 52.099,266.837 51.798,268.167 51.573 C 270.231 51.223,271.588 51.015,274.417 50.614 C 275.667 50.436,276.406 50.566,276.613 51.001 M243.923 51.069 C 244.229 51.536,244.189 52.134,243.581 56.167 C 243.366 57.587,243.104 59.575,242.998 60.583 C 242.893 61.592,242.701 62.835,242.572 63.347 C 242.444 63.858,242.226 65.456,242.088 66.896 C 241.950 68.337,241.730 69.981,241.599 70.550 C 241.374 71.530,241.146 73.315,240.914 75.917 C 240.856 76.558,240.709 77.533,240.585 78.083 C 240.462 78.633,240.276 79.833,240.172 80.750 C 240.068 81.667,239.840 83.279,239.666 84.333 C 239.492 85.388,239.229 87.300,239.082 88.583 C 238.934 89.867,238.705 91.442,238.573 92.083 C 238.440 92.725,238.216 94.375,238.074 95.750 C 237.933 97.125,237.746 98.513,237.659 98.833 C 237.449 99.614,237.439 99.569,237.947 100.172 L 238.393 100.703 241.921 100.643 C 246.343 100.568,246.084 100.425,245.944 102.874 C 245.837 104.742,245.592 105.517,245.009 105.828 C 244.459 106.123,216.330 106.050,215.938 105.753 C 215.406 105.350,215.820 101.333,216.439 100.879 C 216.656 100.721,217.721 100.667,220.584 100.667 L 224.438 100.667 224.899 100.185 C 225.439 99.622,225.583 99.066,225.833 96.583 C 225.935 95.575,226.194 93.850,226.409 92.750 C 226.625 91.650,226.852 90.112,226.914 89.333 C 226.976 88.554,227.167 87.204,227.339 86.333 C 227.511 85.462,227.804 83.587,227.990 82.167 C 228.324 79.618,228.467 78.669,229.258 73.750 C 229.479 72.375,229.742 70.500,229.842 69.583 C 229.943 68.667,230.164 67.242,230.334 66.417 C 230.760 64.347,231.177 61.164,231.217 59.674 C 231.261 58.005,231.166 57.970,227.955 58.465 C 221.772 59.418,221.784 59.424,222.576 55.945 C 223.039 53.909,222.974 53.947,227.083 53.333 C 229.008 53.045,231.333 52.670,232.250 52.501 C 233.167 52.331,235.042 52.032,236.417 51.835 C 237.792 51.639,239.854 51.303,241.000 51.089 C 243.656 50.593,243.611 50.593,243.923 51.069 M353.202 50.851 C 359.718 51.553,364.652 54.819,366.431 59.608 C 367.046 61.266,367.160 67.114,366.625 69.583 C 366.466 70.317,366.220 72.004,366.078 73.333 C 365.936 74.662,365.712 76.350,365.580 77.083 C 365.448 77.817,365.155 79.842,364.928 81.583 C 364.051 88.328,363.819 89.959,363.565 91.167 C 363.407 91.917,363.266 93.695,363.211 95.619 L 363.121 98.821 363.731 99.431 C 365.221 100.921,367.825 99.375,369.172 96.204 C 369.710 94.936,370.983 94.333,373.124 94.333 C 374.101 94.333,374.379 97.356,373.545 98.917 C 373.349 99.283,373.103 99.864,372.999 100.206 C 372.895 100.548,372.738 100.872,372.652 100.926 C 372.566 100.979,372.346 101.315,372.164 101.673 C 371.531 102.912,369.666 104.691,367.769 105.865 C 365.196 107.457,358.881 107.716,356.250 106.339 C 354.145 105.237,352.437 103.221,351.917 101.225 C 351.502 99.633,350.644 99.443,349.278 100.641 C 349.111 100.789,348.600 101.098,348.143 101.329 C 341.927 104.478,340.484 105.167,340.106 105.167 C 339.949 105.167,339.523 105.318,339.160 105.504 C 338.797 105.689,338.046 105.956,337.493 106.098 C 336.939 106.240,336.218 106.468,335.889 106.605 C 334.386 107.234,328.137 107.383,326.250 106.836 C 315.717 103.782,315.079 91.458,325.068 83.986 C 325.609 83.581,326.321 83.046,326.651 82.797 C 326.980 82.548,327.587 82.154,328.000 81.921 C 328.412 81.688,329.237 81.186,329.833 80.806 C 333.196 78.661,342.534 74.398,347.667 72.664 C 348.171 72.493,349.446 72.024,350.500 71.621 C 351.554 71.217,352.634 70.833,352.901 70.767 C 355.004 70.246,355.608 68.730,355.780 63.542 L 355.881 60.500 355.244 59.469 C 353.237 56.217,349.498 55.117,343.387 55.983 C 339.547 56.528,338.687 57.346,339.820 59.378 C 343.036 65.148,337.624 71.989,331.278 70.175 C 329.155 69.568,327.709 68.386,326.517 66.284 L 325.930 65.250 325.925 63.000 L 325.920 60.750 326.585 59.444 C 329.648 53.430,341.528 49.595,353.202 50.851 M181.436 57.189 C 176.593 57.811,171.063 61.953,168.977 66.521 C 168.826 66.854,168.621 67.175,168.522 67.236 C 168.424 67.297,168.189 67.866,168.000 68.500 C 167.811 69.134,167.594 69.692,167.518 69.739 C 167.441 69.786,167.286 70.183,167.172 70.621 C 167.059 71.058,166.825 71.867,166.653 72.417 C 166.325 73.462,165.599 76.866,165.336 78.583 C 164.774 82.264,164.819 89.563,165.416 91.637 C 166.241 94.497,167.331 96.536,168.820 98.006 C 169.525 98.702,171.219 100.000,171.423 100.000 C 171.501 100.000,171.845 100.194,172.187 100.431 C 172.878 100.910,175.838 101.502,177.500 101.494 C 182.765 101.468,188.233 98.976,192.481 94.667 C 193.612 93.521,193.764 93.152,193.998 90.993 C 194.101 90.034,194.296 88.820,194.430 88.294 C 194.564 87.769,194.825 86.006,195.009 84.378 C 195.193 82.749,195.415 81.149,195.503 80.822 C 195.591 80.494,195.780 79.219,195.923 77.988 C 196.065 76.757,196.283 75.300,196.408 74.750 C 196.532 74.200,196.681 73.262,196.740 72.667 C 196.987 70.148,197.207 68.527,197.418 67.667 C 197.542 67.162,197.738 66.006,197.854 65.096 L 198.065 63.441 196.993 62.455 C 195.761 61.322,194.903 60.686,193.823 60.103 C 193.405 59.877,192.964 59.574,192.844 59.430 C 192.724 59.285,192.535 59.167,192.425 59.167 C 192.314 59.167,191.854 58.979,191.403 58.751 C 188.695 57.377,184.769 56.762,181.436 57.189 M352.000 76.522 C 351.496 76.714,350.596 77.060,350.000 77.289 C 349.404 77.518,348.504 77.850,348.000 78.026 C 346.452 78.568,342.288 80.609,340.082 81.907 C 333.509 85.775,329.907 92.128,331.648 96.783 C 333.353 101.343,338.563 101.012,347.583 95.772 C 351.477 93.510,351.789 93.191,352.011 91.238 C 352.103 90.427,352.289 89.225,352.426 88.566 C 352.562 87.907,352.858 85.954,353.084 84.226 C 353.311 82.497,353.625 80.123,353.784 78.950 C 354.170 76.087,353.944 75.779,352.000 76.522 " stroke="none" fill="#b2b2b2" fill-rule="evenodd"></path></g></svg>