<svg id="svg" version="1.1" xmlns="http://www.w3.org/2000/svg" xmlns:xlink="http://www.w3.org/1999/xlink" width="400" height="123.80952380952381" viewBox="0, 0, 400,123.80952380952381"><g id="svgg"><path id="path0" d="M132.169 50.948 C 131.058 51.009,130.843 51.078,130.197 51.581 C 129.655 52.003,129.235 52.176,128.537 52.263 C 127.750 52.361,127.483 52.490,126.843 53.085 C 126.425 53.472,125.858 53.906,125.583 54.049 C 124.527 54.598,122.660 56.718,122.316 57.760 C 122.140 58.295,121.716 59.137,121.375 59.633 L 120.755 60.533 120.600 63.183 C 120.471 65.398,120.491 66.113,120.723 67.541 C 120.876 68.481,121.001 69.577,121.001 69.976 C 121.000 70.523,121.118 70.852,121.478 71.309 C 121.741 71.643,122.014 72.104,122.085 72.332 C 122.408 73.365,127.076 77.667,127.875 77.667 C 127.997 77.667,128.390 77.817,128.750 78.000 C 129.110 78.183,129.707 78.333,130.077 78.333 C 130.447 78.333,131.162 78.501,131.667 78.706 C 132.480 79.037,132.843 79.075,134.894 79.047 L 137.204 79.015 138.061 78.437 C 138.562 78.099,139.228 77.815,139.667 77.752 C 141.214 77.528,141.540 77.330,143.479 75.436 C 146.016 72.955,146.827 70.929,145.542 70.276 C 142.708 68.836,140.603 68.761,140.137 70.083 C 139.975 70.542,139.672 71.051,139.463 71.214 C 138.141 72.250,137.404 72.678,136.371 73.011 L 135.203 73.387 133.101 73.083 C 131.943 72.915,130.822 72.659,130.605 72.514 C 130.389 72.369,129.910 72.048,129.542 71.802 C 128.996 71.437,127.812 70.086,127.292 69.236 C 126.319 67.646,126.640 62.377,127.801 60.874 C 128.066 60.531,128.406 59.913,128.557 59.500 C 129.412 57.158,134.700 55.956,136.987 57.585 C 137.315 57.818,137.846 58.192,138.167 58.415 C 138.487 58.638,138.905 58.929,139.094 59.062 C 139.283 59.194,139.533 59.628,139.650 60.026 C 140.133 61.675,141.438 62.086,142.801 61.018 C 143.140 60.753,143.717 60.443,144.083 60.329 C 144.450 60.215,145.022 59.985,145.354 59.818 L 145.957 59.515 145.803 58.633 C 145.719 58.147,145.505 57.563,145.329 57.333 C 145.152 57.104,144.773 56.491,144.487 55.970 C 143.717 54.571,141.786 52.765,140.723 52.449 C 140.257 52.311,139.645 52.078,139.363 51.932 C 139.081 51.786,138.562 51.667,138.211 51.667 C 137.859 51.667,137.129 51.511,136.588 51.321 C 135.538 50.952,134.181 50.837,132.169 50.948 M159.936 50.948 C 158.017 51.009,157.933 51.027,157.210 51.547 C 156.799 51.842,156.042 52.233,155.527 52.417 C 154.819 52.668,154.507 52.888,154.253 53.315 C 154.068 53.626,153.333 54.505,152.619 55.268 C 149.879 58.197,150.050 59.719,153.173 60.209 C 155.162 60.521,155.223 60.497,157.083 58.679 C 157.908 57.872,158.846 57.080,159.167 56.917 C 159.487 56.754,160.053 56.405,160.423 56.141 C 161.091 55.664,161.101 55.663,161.923 55.912 C 162.378 56.050,163.102 56.164,163.532 56.165 C 163.962 56.166,164.362 56.245,164.421 56.340 C 164.479 56.435,164.930 56.740,165.423 57.018 C 166.692 57.734,167.155 58.894,166.722 60.268 C 166.305 61.591,165.290 62.167,163.373 62.167 C 162.761 62.167,162.072 62.327,161.224 62.667 C 160.427 62.986,159.678 63.167,159.153 63.167 C 156.983 63.167,154.630 63.693,154.258 64.262 C 154.113 64.482,153.677 64.824,153.289 65.022 C 152.526 65.411,150.836 67.026,150.830 67.371 C 150.828 67.488,150.673 67.921,150.485 68.333 C 149.472 70.565,150.333 74.538,152.225 76.362 C 154.753 78.799,156.096 79.266,160.083 79.096 C 162.677 78.985,162.766 78.969,163.337 78.514 C 163.659 78.256,164.227 77.891,164.598 77.702 C 164.969 77.513,165.370 77.240,165.490 77.096 C 165.984 76.501,167.298 76.749,168.075 77.583 L 168.773 78.333 170.639 78.333 L 172.505 78.333 172.845 77.792 C 173.179 77.260,173.184 77.080,173.125 67.583 C 173.060 56.931,173.109 57.433,171.982 56.061 C 171.671 55.682,171.292 55.143,171.139 54.863 C 170.986 54.583,170.567 54.204,170.209 54.021 C 169.850 53.839,169.113 53.234,168.570 52.679 C 167.668 51.755,167.522 51.669,166.870 51.668 C 166.477 51.667,165.694 51.511,165.130 51.321 C 163.987 50.936,162.856 50.855,159.936 50.948 M243.138 50.976 C 242.167 51.058,241.765 51.169,241.471 51.438 C 240.855 52.000,240.413 52.167,239.534 52.167 C 238.692 52.167,238.112 52.456,236.900 53.480 C 236.615 53.720,236.151 54.042,235.868 54.195 C 235.586 54.347,235.205 54.760,235.023 55.111 C 234.841 55.463,234.193 56.237,233.583 56.833 C 232.120 58.262,231.903 58.726,231.780 60.671 C 231.725 61.545,231.544 62.707,231.376 63.255 C 231.120 64.094,231.104 64.341,231.277 64.833 C 231.389 65.154,231.485 65.773,231.491 66.209 C 231.516 68.385,232.053 70.729,232.685 71.425 C 232.855 71.612,233.143 72.198,233.325 72.725 C 233.636 73.630,235.682 76.000,236.152 76.000 C 236.232 76.000,236.661 76.302,237.107 76.672 C 237.587 77.071,238.289 77.453,238.833 77.611 C 239.338 77.758,239.898 77.980,240.079 78.106 C 240.260 78.231,240.762 78.333,241.196 78.333 C 241.763 78.333,242.158 78.451,242.599 78.750 C 243.581 79.416,248.282 79.253,249.055 78.526 C 249.284 78.312,249.984 77.950,250.610 77.722 C 251.237 77.495,251.975 77.142,252.250 76.937 C 252.525 76.732,253.088 76.370,253.500 76.132 C 254.796 75.383,256.736 73.230,257.074 72.167 C 257.234 71.662,257.511 71.042,257.690 70.788 C 258.148 70.138,258.665 67.984,258.676 66.682 C 258.682 66.078,258.740 65.283,258.806 64.917 C 259.017 63.747,258.289 59.974,257.726 59.320 C 257.601 59.174,257.379 58.705,257.233 58.276 C 257.086 57.844,256.709 57.256,256.387 56.957 C 256.068 56.660,255.669 56.154,255.499 55.833 C 254.845 54.593,252.689 52.723,251.459 52.331 C 250.841 52.133,250.293 51.903,250.241 51.819 C 250.189 51.735,249.812 51.667,249.402 51.667 C 248.992 51.667,248.190 51.507,247.620 51.313 C 246.471 50.920,245.068 50.815,243.138 50.976 M289.083 50.983 C 288.273 51.052,287.260 51.282,286.500 51.569 C 285.813 51.828,285.032 52.120,284.766 52.217 C 284.500 52.315,283.949 52.683,283.541 53.036 C 283.134 53.389,282.451 53.866,282.025 54.096 C 280.348 54.999,279.823 55.491,279.305 56.647 C 279.033 57.254,278.667 57.904,278.492 58.091 C 278.316 58.279,278.020 58.875,277.834 59.416 C 277.648 59.956,277.384 60.569,277.248 60.777 C 277.111 60.985,277.000 61.500,277.000 61.921 C 277.000 62.343,276.878 63.062,276.728 63.519 C 276.372 64.608,276.500 66.085,277.069 67.455 C 277.357 68.148,277.500 68.802,277.500 69.422 C 277.500 70.466,277.753 71.058,278.674 72.167 C 279.017 72.579,279.457 73.217,279.652 73.583 C 280.432 75.052,281.073 75.736,282.012 76.104 C 282.554 76.316,283.326 76.834,283.938 77.395 C 284.790 78.177,285.061 78.333,285.569 78.333 C 285.903 78.333,286.628 78.485,287.179 78.671 C 289.398 79.418,294.060 79.314,295.092 78.493 C 295.419 78.233,296.172 77.859,296.766 77.661 C 297.359 77.464,298.048 77.132,298.297 76.925 C 298.546 76.717,299.012 76.412,299.333 76.248 C 300.735 75.528,301.144 75.032,301.600 73.495 C 301.730 73.057,302.134 72.339,302.498 71.898 C 303.242 70.998,303.833 69.401,303.833 68.293 C 303.833 67.896,303.983 67.145,304.167 66.623 C 304.696 65.118,304.633 63.000,304.011 61.367 C 303.743 60.661,303.370 59.556,303.184 58.911 C 302.926 58.015,302.726 57.650,302.340 57.364 C 302.061 57.159,301.725 56.730,301.592 56.413 C 301.214 55.508,299.813 54.217,298.797 53.837 C 298.198 53.613,297.615 53.206,297.002 52.586 L 296.095 51.667 294.531 51.667 C 293.197 51.667,292.894 51.614,292.463 51.307 C 291.883 50.894,291.047 50.814,289.083 50.983 M322.594 50.947 C 321.597 51.007,321.331 51.095,320.655 51.592 C 320.225 51.908,319.821 52.167,319.758 52.167 C 319.695 52.167,319.316 52.392,318.917 52.667 C 318.185 53.170,316.500 53.406,316.500 53.006 C 316.500 52.917,316.235 52.579,315.911 52.256 L 315.322 51.667 313.562 51.667 C 312.046 51.667,311.734 51.715,311.315 52.013 C 310.293 52.741,310.333 52.199,310.333 65.151 L 310.333 76.986 310.974 77.660 L 311.615 78.333 313.469 78.333 L 315.322 78.333 315.911 77.744 L 316.500 77.156 316.517 74.036 C 316.563 65.353,316.666 62.613,316.989 61.417 C 317.163 60.775,317.353 59.968,317.410 59.623 C 317.680 58.018,320.494 56.658,323.109 56.868 C 325.744 57.080,326.633 57.708,327.438 59.927 L 327.833 61.015 327.833 69.027 L 327.833 77.039 328.480 77.686 L 329.127 78.333 330.903 78.333 C 332.919 78.333,334.086 77.926,334.467 77.089 C 334.843 76.265,334.728 61.284,334.339 60.250 C 334.166 59.792,333.792 58.688,333.507 57.798 C 333.223 56.908,332.817 55.971,332.606 55.715 C 332.395 55.459,332.005 54.848,331.741 54.357 C 331.184 53.321,330.209 52.423,329.351 52.156 C 329.020 52.053,328.153 51.744,327.424 51.469 C 326.027 50.943,324.829 50.813,322.594 50.947 M351.167 50.976 C 350.135 51.065,349.786 51.175,349.167 51.609 C 348.754 51.897,348.021 52.261,347.536 52.415 C 347.052 52.570,346.452 52.867,346.203 53.076 C 345.954 53.284,345.412 53.626,345.000 53.835 C 343.568 54.562,341.333 57.030,341.333 57.885 C 341.333 58.013,341.146 58.470,340.917 58.901 C 340.688 59.332,340.500 59.954,340.500 60.284 C 340.500 60.614,340.303 61.286,340.063 61.777 C 339.302 63.331,339.768 69.414,340.750 70.750 C 340.952 71.025,341.251 71.512,341.415 71.833 C 341.579 72.154,341.889 72.627,342.103 72.883 C 342.317 73.140,342.624 73.627,342.784 73.966 C 343.283 75.017,345.415 77.110,346.306 77.423 C 346.733 77.573,347.346 77.815,347.667 77.961 C 347.988 78.106,348.662 78.282,349.167 78.352 C 349.671 78.421,350.646 78.638,351.333 78.833 C 353.205 79.364,356.495 79.127,357.937 78.356 C 358.476 78.068,359.336 77.682,359.849 77.497 C 361.111 77.044,364.738 73.430,364.923 72.442 C 365.174 71.106,364.200 70.148,362.204 69.768 L 361.017 69.542 360.217 70.092 C 359.777 70.395,358.967 71.105,358.417 71.669 C 357.154 72.966,356.454 73.333,355.251 73.333 C 354.741 73.333,354.053 73.446,353.724 73.583 C 352.893 73.931,351.734 73.903,351.192 73.523 C 350.949 73.353,350.337 73.081,349.833 72.920 C 348.755 72.574,348.148 72.060,347.470 70.917 C 347.197 70.458,346.793 69.828,346.571 69.517 C 346.281 69.111,346.167 68.729,346.167 68.168 C 346.167 66.751,345.591 66.833,355.468 66.833 C 364.759 66.833,365.242 66.793,365.672 65.991 C 365.909 65.547,365.869 64.476,365.583 63.667 C 365.446 63.277,365.331 62.536,365.327 62.021 C 365.316 60.364,364.947 58.939,364.274 57.963 C 363.936 57.471,363.585 56.810,363.494 56.493 C 363.314 55.865,361.564 53.934,360.748 53.463 C 360.474 53.306,359.725 52.840,359.083 52.429 C 358.242 51.889,357.741 51.679,357.286 51.674 C 356.940 51.670,356.194 51.511,355.630 51.321 C 354.472 50.931,353.005 50.817,351.167 50.976 M193.670 51.599 C 193.046 52.093,192.831 52.167,192.014 52.167 C 190.914 52.167,190.672 52.303,189.154 53.782 C 187.807 55.094,187.554 55.005,186.947 53.000 L 186.569 51.750 184.094 51.750 L 181.619 51.750 181.268 52.220 C 180.606 53.105,180.574 77.254,181.234 77.983 C 182.023 78.853,186.247 78.262,186.815 77.202 C 186.904 77.035,187.012 74.145,187.060 70.660 C 187.183 61.659,187.123 62.157,188.255 60.750 C 188.550 60.383,188.911 59.849,189.056 59.562 C 189.405 58.875,190.378 58.485,192.103 58.339 C 193.529 58.218,195.797 57.328,196.271 56.704 C 196.537 56.355,196.580 53.369,196.332 52.500 C 195.937 51.115,194.777 50.723,193.670 51.599 M210.083 51.187 C 209.900 51.297,209.538 51.562,209.279 51.777 C 208.916 52.077,208.605 52.167,207.925 52.167 C 206.812 52.167,205.730 52.543,205.084 53.155 C 204.809 53.416,204.321 53.761,204.000 53.922 C 203.159 54.345,201.751 55.895,201.526 56.647 C 201.420 56.999,201.109 57.570,200.833 57.917 C 200.314 58.570,200.252 58.750,199.678 61.258 C 199.266 63.058,199.219 65.586,199.579 66.583 C 199.711 66.950,199.822 67.672,199.826 68.187 C 199.836 69.405,200.210 70.440,200.905 71.167 C 201.212 71.487,201.578 71.975,201.719 72.250 C 202.129 73.053,203.519 74.297,204.322 74.580 C 204.729 74.723,205.445 75.136,205.913 75.497 C 206.852 76.222,208.530 76.828,209.604 76.831 C 209.982 76.832,210.610 76.946,211.000 77.083 C 212.219 77.514,213.515 77.418,214.237 76.844 C 214.576 76.574,215.318 76.197,215.885 76.005 C 216.452 75.814,217.207 75.437,217.563 75.168 C 219.200 73.929,220.041 77.347,218.653 79.603 C 218.463 79.911,218.333 80.425,218.333 80.866 C 218.333 81.687,218.041 82.065,217.000 82.587 C 216.679 82.748,216.207 83.055,215.951 83.269 C 214.893 84.152,210.044 84.339,209.053 83.535 C 208.795 83.326,208.120 82.934,207.554 82.664 C 206.897 82.352,206.483 82.042,206.409 81.808 C 206.300 81.464,205.533 80.555,204.441 79.472 C 203.811 78.847,203.104 78.855,201.006 79.506 L 199.377 80.012 199.587 80.631 C 199.702 80.972,199.851 81.727,199.917 82.310 C 200.024 83.256,200.121 83.466,200.810 84.253 C 201.235 84.739,201.733 85.384,201.917 85.687 C 202.341 86.388,203.126 86.915,204.221 87.236 C 204.701 87.377,205.434 87.780,205.876 88.147 C 207.213 89.257,208.288 89.500,211.856 89.500 C 215.050 89.500,218.191 88.858,218.843 88.071 C 218.964 87.926,219.442 87.616,219.906 87.383 C 221.474 86.594,224.500 83.417,224.500 82.560 C 224.500 82.133,224.658 81.553,224.898 81.103 C 225.638 79.710,225.694 78.499,225.637 65.137 C 225.573 50.262,225.857 51.776,223.115 51.703 L 221.349 51.656 219.847 52.410 L 218.346 53.164 217.565 52.749 C 217.135 52.520,216.679 52.333,216.552 52.333 C 216.424 52.333,216.026 52.183,215.667 52.000 C 215.294 51.810,214.684 51.667,214.248 51.667 C 213.828 51.667,213.247 51.544,212.958 51.395 C 212.287 51.048,210.529 50.921,210.083 51.187 M355.141 56.477 C 355.384 56.647,355.851 56.874,356.178 56.980 C 358.176 57.627,359.784 60.859,358.579 61.807 C 358.117 62.170,348.778 62.348,347.256 62.021 C 344.869 61.510,347.955 56.852,350.700 56.824 C 351.186 56.819,351.921 56.677,352.333 56.508 C 353.347 56.093,354.575 56.080,355.141 56.477 M214.407 56.920 C 216.074 57.239,216.616 57.554,217.281 58.590 C 217.573 59.045,218.034 59.642,218.305 59.917 C 219.209 60.834,219.250 61.020,219.250 64.167 C 219.250 67.849,219.157 68.132,217.367 69.874 C 215.908 71.294,215.518 71.461,213.333 71.606 C 210.708 71.780,209.698 71.421,206.994 69.357 C 206.472 68.958,206.000 67.534,206.000 66.355 C 206.000 65.879,205.887 65.220,205.750 64.891 C 205.435 64.136,205.435 62.684,205.750 62.267 C 205.881 62.093,206.153 61.460,206.352 60.860 C 206.803 59.506,208.754 57.486,209.911 57.176 C 212.043 56.605,212.598 56.574,214.407 56.920 M292.926 57.093 C 293.444 57.228,294.195 57.602,294.661 57.957 C 295.113 58.302,295.721 58.733,296.014 58.917 C 296.409 59.164,296.641 59.516,296.914 60.279 C 297.116 60.845,297.481 61.544,297.724 61.833 C 298.264 62.474,298.381 65.518,297.917 66.833 C 297.779 67.223,297.667 67.891,297.667 68.318 C 297.667 69.042,297.603 69.156,296.731 70.006 C 296.216 70.507,295.544 71.303,295.237 71.774 C 294.586 72.774,293.329 73.327,291.676 73.341 C 291.167 73.345,290.525 73.444,290.251 73.561 C 289.820 73.745,289.681 73.732,289.235 73.469 C 288.950 73.301,288.335 73.050,287.867 72.911 C 287.399 72.772,286.774 72.454,286.479 72.204 C 286.184 71.954,285.599 71.525,285.180 71.250 C 284.362 70.714,284.500 71.008,282.961 66.531 C 282.818 66.115,282.820 65.743,282.969 65.021 C 283.078 64.494,283.167 63.814,283.167 63.510 C 283.167 63.206,283.355 62.436,283.584 61.799 C 285.083 57.645,288.478 55.934,292.926 57.093 M247.375 57.221 C 247.719 57.365,248.244 57.668,248.542 57.894 C 248.840 58.120,249.410 58.436,249.810 58.595 C 250.438 58.845,250.603 59.022,251.025 59.900 C 251.293 60.459,251.630 61.130,251.773 61.391 C 252.818 63.295,252.719 67.681,251.601 69.010 C 251.379 69.274,251.071 69.868,250.917 70.331 C 250.760 70.806,250.460 71.299,250.230 71.461 C 250.005 71.620,249.557 71.952,249.234 72.198 C 248.143 73.030,246.685 73.387,244.770 73.289 C 241.488 73.122,240.691 72.753,239.464 70.830 C 238.216 68.872,237.955 68.220,237.830 66.750 C 237.768 66.017,237.603 65.148,237.462 64.819 C 237.283 64.401,237.255 64.133,237.369 63.930 C 237.459 63.769,237.679 62.921,237.858 62.045 C 238.252 60.115,238.497 59.611,239.300 59.070 C 242.541 56.887,242.751 56.807,245.000 56.892 C 246.075 56.933,246.991 57.059,247.375 57.221 M166.573 66.822 C 166.948 67.214,167.019 67.403,166.927 67.770 C 166.863 68.022,166.753 68.924,166.681 69.774 C 166.527 71.601,166.153 72.238,164.805 72.967 C 164.347 73.214,163.706 73.623,163.380 73.875 C 162.682 74.415,161.568 74.490,160.235 74.085 C 159.785 73.949,159.063 73.836,158.631 73.835 C 157.699 73.833,157.238 73.305,156.670 71.588 L 156.338 70.583 156.961 69.345 C 157.649 67.975,157.564 68.046,159.388 67.339 C 160.258 67.002,161.006 66.829,161.638 66.821 C 162.158 66.814,163.183 66.710,163.917 66.591 C 165.917 66.264,166.049 66.276,166.573 66.822 M266.721 70.561 C 266.462 70.777,265.950 71.108,265.583 71.296 C 264.045 72.084,263.419 73.167,263.681 74.587 C 264.119 76.956,265.153 78.333,266.493 78.333 C 266.909 78.333,267.655 78.487,268.149 78.675 L 269.048 79.017 269.649 78.545 C 269.980 78.286,270.450 77.947,270.693 77.793 C 270.941 77.636,271.226 77.233,271.339 76.881 C 271.450 76.534,271.676 76.025,271.842 75.750 C 272.036 75.427,272.092 75.159,272.001 74.995 C 271.923 74.856,271.730 74.106,271.572 73.329 C 271.292 71.944,270.954 71.167,270.634 71.167 C 270.545 71.167,269.910 70.942,269.224 70.667 C 267.717 70.064,267.335 70.047,266.721 70.561 " stroke="none" fill="#f1f1f3" fill-rule="evenodd"></path><path id="path1" d="M52.400 31.651 C 51.483 32.067,51.500 31.975,51.500 36.540 L 51.500 40.552 51.925 41.109 C 52.870 42.349,55.303 42.608,57.165 41.667 C 58.318 41.085,58.500 40.816,58.500 39.690 C 58.500 39.036,58.593 38.748,58.937 38.339 L 59.374 37.820 71.979 37.868 C 80.953 37.903,84.703 37.971,85.000 38.106 C 85.229 38.211,86.932 39.797,88.785 41.633 C 93.318 46.123,92.833 44.098,92.833 58.554 C 92.833 73.669,93.027 72.445,90.608 72.628 C 88.951 72.753,88.835 72.985,88.834 76.179 C 88.833 79.633,88.390 79.377,94.222 79.306 C 98.582 79.253,98.833 79.233,99.280 78.899 L 99.750 78.547 99.792 61.112 L 99.835 43.676 93.928 37.770 C 88.285 32.127,87.981 31.852,87.110 31.598 C 85.597 31.158,53.377 31.207,52.400 31.651 M38.413 44.738 L 38.000 45.152 38.002 62.617 L 38.003 80.083 38.401 80.917 C 38.826 81.807,47.656 90.759,49.150 91.815 L 49.883 92.333 67.424 92.333 L 84.965 92.333 85.482 91.850 L 86.000 91.366 86.000 72.296 C 86.000 51.056,85.970 50.359,85.018 49.167 C 84.761 48.846,84.419 48.321,84.257 48.000 C 83.746 46.987,83.014 46.365,81.897 45.993 C 81.322 45.802,80.677 45.508,80.464 45.340 C 79.253 44.388,80.025 44.422,58.538 44.372 L 38.826 44.325 38.413 44.738 M132.417 50.617 C 130.867 50.685,130.659 50.743,129.950 51.307 C 129.559 51.617,128.976 51.860,128.302 51.993 C 127.487 52.153,127.147 52.318,126.741 52.748 C 126.456 53.051,125.908 53.459,125.524 53.655 C 124.441 54.207,122.369 56.410,122.156 57.235 C 122.059 57.610,121.943 58.046,121.897 58.205 C 121.851 58.363,121.562 58.794,121.254 59.162 C 120.653 59.881,120.333 60.968,120.333 62.290 C 120.333 62.715,120.243 63.500,120.133 64.034 C 119.964 64.852,119.977 65.219,120.216 66.377 C 120.373 67.132,120.547 68.462,120.603 69.333 C 120.693 70.721,120.762 70.989,121.163 71.503 C 121.415 71.826,121.780 72.401,121.974 72.782 C 122.585 73.980,126.238 77.459,127.179 77.738 C 128.114 78.016,128.626 78.266,129.083 78.668 C 129.309 78.866,129.822 78.993,130.667 79.059 C 131.354 79.113,132.329 79.234,132.833 79.329 C 133.648 79.482,136.505 79.429,137.431 79.244 C 137.622 79.205,138.061 78.949,138.407 78.675 C 138.752 78.400,139.308 78.130,139.643 78.074 C 141.605 77.747,141.818 77.618,143.938 75.465 C 146.083 73.287,146.111 73.237,146.394 71.128 C 146.502 70.325,146.124 70.013,144.304 69.407 C 143.564 69.161,142.762 68.856,142.521 68.731 C 141.200 68.041,140.115 68.476,139.805 69.818 C 139.601 70.703,139.485 70.841,138.167 71.758 C 137.042 72.541,136.454 72.732,134.966 72.800 C 133.091 72.885,131.296 72.587,130.702 72.090 C 130.453 71.883,129.968 71.569,129.623 71.394 C 129.007 71.080,128.090 69.947,127.583 68.872 C 126.739 67.083,126.900 62.636,127.851 61.453 C 128.154 61.076,128.524 60.389,128.674 59.926 C 128.871 59.318,129.105 58.977,129.515 58.703 C 129.828 58.493,130.233 58.197,130.416 58.044 C 131.822 56.870,135.719 56.906,137.047 58.106 C 137.411 58.435,138.022 58.843,138.405 59.012 C 139.025 59.286,139.134 59.423,139.397 60.256 C 139.962 62.050,142.140 62.521,143.316 61.104 C 143.431 60.965,144.003 60.693,144.587 60.499 C 145.171 60.304,145.835 59.999,146.063 59.820 L 146.477 59.494 146.175 58.403 C 146.009 57.804,145.722 57.149,145.538 56.948 C 145.355 56.748,145.035 56.246,144.829 55.833 C 144.121 54.421,142.096 52.545,140.889 52.183 C 140.311 52.009,139.607 51.672,139.323 51.434 C 138.931 51.104,138.622 50.999,138.029 50.997 C 137.600 50.995,136.650 50.885,135.917 50.753 C 135.183 50.620,134.358 50.524,134.083 50.538 C 133.808 50.553,133.058 50.588,132.417 50.617 M159.917 50.657 C 157.740 50.750,157.530 50.799,156.916 51.348 C 156.733 51.513,156.096 51.821,155.502 52.033 C 154.573 52.363,154.349 52.528,153.911 53.196 C 153.631 53.624,152.835 54.568,152.141 55.295 C 150.837 56.659,150.696 56.956,150.441 58.858 C 150.316 59.794,150.790 60.134,152.604 60.410 C 153.418 60.533,154.280 60.685,154.519 60.746 C 155.333 60.955,156.297 60.557,156.649 59.867 C 157.058 59.066,158.570 57.639,159.512 57.167 C 159.918 56.963,160.438 56.621,160.667 56.407 L 161.084 56.017 161.810 56.342 C 162.210 56.520,162.894 56.667,163.331 56.667 C 165.406 56.667,166.942 58.494,166.355 60.263 C 165.998 61.339,165.331 61.681,163.257 61.849 C 161.785 61.968,160.807 62.206,160.363 62.555 C 160.242 62.650,159.567 62.779,158.863 62.842 C 155.525 63.139,154.810 63.323,154.000 64.089 C 153.587 64.479,153.087 64.847,152.888 64.906 C 152.232 65.102,150.839 66.589,150.570 67.381 C 150.430 67.790,150.133 68.297,149.908 68.508 C 149.361 69.022,149.298 71.778,149.810 72.798 C 149.981 73.138,150.255 73.829,150.419 74.333 C 150.786 75.460,151.097 75.955,151.521 76.090 C 151.700 76.147,152.032 76.474,152.259 76.818 C 152.487 77.161,152.956 77.601,153.303 77.796 C 153.650 77.991,154.074 78.305,154.244 78.494 C 155.275 79.632,162.468 79.870,163.629 78.804 C 165.149 77.409,166.760 77.090,167.599 78.017 C 169.130 79.710,173.084 79.365,173.484 77.504 C 173.717 76.415,173.717 63.929,173.484 61.500 C 173.092 57.424,173.025 56.748,173.013 56.718 C 173.006 56.701,172.699 56.339,172.331 55.914 C 171.963 55.489,171.553 54.930,171.420 54.673 C 171.287 54.416,170.857 54.014,170.464 53.782 C 170.071 53.549,169.265 52.865,168.671 52.262 C 167.910 51.489,167.469 51.166,167.171 51.165 C 166.940 51.164,165.897 51.014,164.855 50.832 C 163.813 50.649,162.763 50.514,162.522 50.532 C 162.281 50.550,161.108 50.606,159.917 50.657 M243.159 50.644 C 241.906 50.741,241.646 50.820,241.001 51.294 C 240.412 51.727,240.108 51.833,239.459 51.833 C 238.547 51.833,237.927 52.105,237.032 52.896 C 236.693 53.195,236.134 53.610,235.788 53.819 C 235.442 54.028,235.037 54.435,234.889 54.724 C 234.740 55.013,234.039 55.850,233.331 56.583 C 231.701 58.270,231.647 58.383,231.501 60.407 C 231.414 61.610,231.257 62.388,230.948 63.154 L 230.517 64.221 230.842 64.935 C 231.020 65.327,231.167 65.990,231.167 66.407 C 231.167 67.058,231.501 69.447,231.754 70.612 C 231.798 70.811,232.023 71.200,232.255 71.475 C 232.487 71.751,232.821 72.396,232.997 72.908 C 233.335 73.890,234.818 75.551,236.021 76.295 C 236.333 76.488,236.770 76.839,236.992 77.075 C 237.235 77.334,237.845 77.638,238.524 77.841 C 239.145 78.025,239.873 78.362,240.142 78.588 C 240.491 78.882,240.831 79.000,241.326 79.000 C 241.708 79.000,242.399 79.124,242.861 79.275 C 244.279 79.739,248.646 79.409,249.293 78.789 C 249.552 78.540,250.321 78.148,251.000 77.917 C 251.679 77.686,252.426 77.320,252.659 77.105 C 252.893 76.889,253.440 76.539,253.876 76.326 C 255.086 75.737,256.907 73.770,257.220 72.715 C 257.520 71.706,257.764 71.206,258.180 70.747 C 258.548 70.342,258.993 67.960,259.017 66.270 C 259.026 65.617,259.087 64.896,259.152 64.667 C 259.217 64.438,259.214 63.950,259.146 63.583 C 259.078 63.217,258.905 62.181,258.761 61.282 C 258.552 59.969,258.406 59.527,258.018 59.032 C 257.753 58.694,257.451 58.148,257.348 57.819 C 257.244 57.491,256.934 57.006,256.659 56.743 C 256.384 56.479,255.946 55.885,255.684 55.422 C 254.996 54.202,253.012 52.381,252.214 52.236 C 251.467 52.100,250.482 51.630,250.177 51.262 C 250.026 51.080,249.671 51.000,249.020 51.000 C 248.504 51.000,247.827 50.927,247.517 50.838 C 246.694 50.602,244.792 50.518,243.159 50.644 M288.917 50.669 C 286.620 50.833,284.457 51.676,282.971 52.986 C 282.542 53.364,281.936 53.780,281.624 53.910 C 281.312 54.041,280.956 54.269,280.832 54.418 C 280.709 54.567,280.391 54.801,280.126 54.938 C 279.796 55.108,279.496 55.513,279.178 56.219 C 278.922 56.786,278.552 57.393,278.355 57.568 C 278.159 57.743,277.846 58.397,277.661 59.020 C 277.475 59.643,277.148 60.362,276.933 60.618 C 276.536 61.091,276.488 61.363,276.227 64.630 C 276.124 65.921,276.299 66.911,276.844 68.106 C 277.028 68.511,277.167 69.179,277.167 69.664 C 277.167 70.653,277.536 71.470,278.473 72.552 C 278.830 72.964,279.288 73.646,279.492 74.067 C 279.696 74.489,279.915 74.833,279.979 74.833 C 280.043 74.833,280.232 75.065,280.399 75.349 C 280.602 75.692,281.044 76.019,281.727 76.331 C 282.422 76.648,283.096 77.151,283.829 77.899 C 284.873 78.965,284.934 79.000,285.745 79.003 C 286.206 79.005,287.221 79.122,288.000 79.264 C 289.099 79.464,289.997 79.497,292.000 79.410 C 294.656 79.294,294.953 79.227,295.667 78.584 C 295.896 78.377,296.581 78.045,297.189 77.847 C 297.797 77.648,298.422 77.345,298.579 77.172 C 298.735 76.999,299.265 76.661,299.757 76.421 C 300.896 75.863,301.415 75.240,301.758 74.018 C 301.922 73.436,302.258 72.782,302.593 72.396 C 304.204 70.542,304.732 68.454,304.737 63.917 C 304.740 61.853,304.715 61.695,304.223 60.583 C 303.939 59.942,303.582 59.032,303.430 58.563 C 303.259 58.034,302.934 57.509,302.578 57.184 C 302.261 56.896,301.893 56.399,301.759 56.080 C 301.434 55.302,299.948 53.924,299.148 53.661 C 298.783 53.540,297.987 52.971,297.313 52.349 C 295.938 51.079,295.842 51.039,294.146 51.017 C 293.447 51.007,292.556 50.887,292.167 50.750 C 291.777 50.612,291.261 50.511,291.021 50.525 C 290.780 50.538,289.833 50.603,288.917 50.669 M322.636 50.645 C 321.497 50.728,321.089 50.829,320.720 51.120 C 318.888 52.565,317.374 52.888,316.542 52.013 C 314.992 50.380,311.233 50.622,310.214 52.420 L 309.839 53.083 309.839 65.000 L 309.839 76.917 310.214 77.580 C 311.324 79.540,315.607 79.597,316.741 77.667 C 317.069 77.108,317.088 76.756,317.183 69.417 C 317.290 61.191,317.451 59.338,318.101 58.877 C 320.352 57.279,320.433 57.250,322.583 57.250 C 324.724 57.250,325.077 57.328,325.753 57.952 C 327.302 59.383,327.333 59.602,327.333 69.104 C 327.333 77.880,327.297 77.573,328.445 78.450 C 329.432 79.204,332.208 79.231,333.465 78.499 C 335.081 77.558,334.999 78.066,334.999 68.993 C 335.000 60.769,334.942 59.959,334.259 58.686 C 334.130 58.446,333.816 57.653,333.560 56.923 C 333.305 56.193,332.965 55.465,332.804 55.304 C 332.643 55.143,332.325 54.643,332.097 54.193 C 330.846 51.725,327.105 50.322,322.636 50.645 M351.167 50.654 C 349.768 50.749,349.250 50.914,348.852 51.394 C 348.740 51.529,348.096 51.841,347.420 52.088 C 346.744 52.334,346.054 52.663,345.887 52.818 C 345.720 52.974,345.193 53.314,344.715 53.573 C 343.234 54.379,341.428 56.390,341.084 57.616 C 340.922 58.195,340.622 58.807,340.398 59.018 C 340.088 59.309,340.000 59.565,340.000 60.175 C 340.000 60.607,339.877 61.250,339.727 61.605 C 339.492 62.163,339.469 62.724,339.560 65.750 C 339.676 69.616,339.803 70.315,340.540 71.155 C 340.816 71.469,341.142 71.966,341.265 72.259 C 341.387 72.553,341.667 73.008,341.887 73.272 C 342.107 73.535,342.417 74.012,342.577 74.333 C 343.211 75.606,345.315 77.479,346.511 77.836 C 347.146 78.026,347.769 78.338,347.998 78.581 C 348.317 78.921,348.552 79.001,349.237 79.003 C 349.703 79.005,350.711 79.117,351.477 79.253 C 354.034 79.705,357.493 79.333,358.436 78.505 C 358.742 78.236,359.276 77.965,359.621 77.903 C 361.166 77.623,364.841 74.103,365.183 72.577 C 365.613 70.655,365.009 70.010,362.250 69.444 C 360.737 69.133,360.310 69.336,358.216 71.354 L 356.682 72.833 355.799 72.836 C 355.314 72.837,354.467 72.947,353.917 73.080 C 352.791 73.352,351.565 73.406,351.431 73.190 C 351.382 73.111,350.888 72.919,350.332 72.763 C 349.106 72.419,348.295 71.747,347.721 70.598 C 347.488 70.132,347.151 69.591,346.972 69.396 C 346.718 69.118,346.659 68.849,346.699 68.146 L 346.750 67.250 356.000 67.167 C 361.087 67.121,365.384 67.018,365.548 66.938 C 366.349 66.548,366.596 64.669,366.000 63.500 C 365.799 63.106,365.667 62.518,365.667 62.018 C 365.667 60.316,365.012 58.017,364.363 57.439 C 364.171 57.268,363.892 56.762,363.744 56.316 C 363.596 55.869,363.279 55.350,363.040 55.162 C 362.801 54.974,362.440 54.577,362.238 54.280 C 362.036 53.983,361.600 53.593,361.269 53.415 C 360.938 53.237,360.667 53.034,360.667 52.965 C 360.667 52.896,360.273 52.642,359.792 52.402 C 359.310 52.161,358.716 51.776,358.470 51.546 C 358.112 51.210,357.766 51.099,356.720 50.987 C 356.003 50.910,354.967 50.769,354.417 50.674 C 353.867 50.580,353.229 50.514,353.000 50.530 C 352.771 50.545,351.946 50.601,351.167 50.654 M194.082 50.872 C 193.900 50.972,193.548 51.220,193.302 51.424 C 192.942 51.722,192.710 51.779,192.123 51.712 C 191.153 51.603,190.221 52.083,189.110 53.264 C 187.947 54.499,187.636 54.357,187.174 52.383 C 186.879 51.127,186.799 51.092,184.078 51.026 L 181.707 50.970 181.290 51.526 C 180.259 52.903,180.319 51.996,180.370 65.460 C 180.406 75.069,180.463 77.831,180.630 78.123 C 181.235 79.182,184.146 79.386,185.832 78.487 C 187.374 77.666,187.312 78.009,187.388 69.833 C 187.459 62.251,187.471 62.147,188.336 61.250 C 188.601 60.975,188.992 60.419,189.206 60.015 C 189.689 59.102,190.307 58.846,192.471 58.666 C 194.301 58.514,195.989 57.788,196.534 56.920 C 196.978 56.212,196.917 52.322,196.450 51.610 C 196.013 50.944,194.701 50.535,194.082 50.872 M209.917 50.852 C 209.733 50.958,209.431 51.183,209.245 51.350 C 209.039 51.537,208.521 51.695,207.912 51.759 C 206.383 51.919,205.437 52.278,204.851 52.922 C 204.563 53.239,204.080 53.601,203.779 53.727 C 203.035 54.038,201.632 55.548,201.370 56.320 C 201.252 56.666,201.021 57.093,200.856 57.270 C 200.239 57.933,200.010 58.458,199.683 59.963 C 199.498 60.813,199.231 61.673,199.090 61.875 C 198.681 62.459,198.731 65.737,199.163 66.690 C 199.363 67.130,199.494 67.783,199.496 68.345 C 199.501 69.608,199.920 70.765,200.535 71.217 C 200.809 71.419,201.186 71.883,201.372 72.250 C 201.867 73.225,203.165 74.455,204.014 74.755 C 204.416 74.897,204.934 75.185,205.164 75.396 C 206.268 76.406,208.242 77.270,209.750 77.404 C 213.612 77.747,213.697 77.743,214.385 77.194 C 214.734 76.915,215.506 76.526,216.099 76.328 C 216.692 76.131,217.401 75.781,217.675 75.551 C 218.326 75.003,218.585 75.132,218.822 76.121 C 219.089 77.232,218.826 78.843,218.256 79.590 C 217.947 79.995,217.833 80.348,217.833 80.900 C 217.833 81.638,217.070 82.500,216.416 82.500 C 216.321 82.500,215.971 82.724,215.638 82.998 C 214.328 84.078,210.411 84.188,209.158 83.180 C 208.768 82.867,208.142 82.505,207.766 82.376 C 206.991 82.109,206.500 81.724,206.500 81.383 C 206.500 81.255,206.162 80.809,205.750 80.390 C 205.338 79.972,205.000 79.562,205.000 79.479 C 205.000 78.760,203.208 78.504,201.526 78.982 C 200.916 79.156,200.094 79.385,199.700 79.492 C 198.857 79.719,198.676 80.048,199.041 80.684 C 199.187 80.938,199.436 81.732,199.594 82.448 C 199.826 83.497,199.987 83.850,200.423 84.264 C 200.721 84.547,201.120 85.072,201.310 85.431 C 201.923 86.590,202.811 87.333,203.583 87.333 C 203.974 87.333,204.827 87.806,205.552 88.424 C 207.311 89.925,213.764 90.719,215.798 89.686 C 216.138 89.513,216.897 89.237,217.484 89.073 C 218.070 88.909,218.867 88.534,219.253 88.239 C 219.639 87.945,220.133 87.647,220.351 87.578 C 221.402 87.244,224.966 83.355,225.055 82.444 C 225.101 81.971,225.332 80.871,225.567 80.000 L 225.995 78.417 225.997 65.667 C 225.998 51.870,225.998 51.872,225.115 51.313 C 224.111 50.677,221.562 50.943,219.775 51.871 L 218.346 52.613 217.135 52.218 C 216.469 52.000,215.735 51.646,215.504 51.431 C 215.073 51.028,214.895 50.999,211.333 50.738 C 210.669 50.689,210.121 50.733,209.917 50.852 M136.588 51.321 C 137.129 51.511,137.859 51.667,138.211 51.667 C 138.562 51.667,139.081 51.786,139.363 51.932 C 139.645 52.078,140.257 52.311,140.723 52.449 C 141.786 52.765,143.717 54.571,144.487 55.970 C 144.773 56.491,145.152 57.104,145.329 57.333 C 145.505 57.563,145.719 58.147,145.803 58.633 L 145.957 59.515 145.354 59.818 C 145.022 59.985,144.450 60.215,144.083 60.329 C 143.717 60.443,143.140 60.753,142.801 61.018 C 141.438 62.086,140.133 61.675,139.650 60.026 C 139.533 59.628,139.283 59.194,139.094 59.062 C 138.905 58.929,138.487 58.638,138.167 58.415 C 137.846 58.192,137.315 57.818,136.987 57.585 C 134.700 55.956,129.412 57.158,128.557 59.500 C 128.406 59.913,128.066 60.531,127.801 60.874 C 126.640 62.377,126.319 67.646,127.292 69.236 C 127.812 70.086,128.996 71.437,129.542 71.802 C 129.910 72.048,130.389 72.369,130.605 72.514 C 130.822 72.659,131.943 72.915,133.101 73.083 L 135.203 73.387 136.371 73.011 C 137.404 72.678,138.141 72.250,139.463 71.214 C 139.672 71.051,139.975 70.542,140.137 70.083 C 140.603 68.761,142.708 68.836,145.542 70.276 C 146.827 70.929,146.016 72.955,143.479 75.436 C 141.540 77.330,141.214 77.528,139.667 77.752 C 139.228 77.815,138.562 78.099,138.061 78.437 L 137.204 79.015 134.894 79.047 C 132.843 79.075,132.480 79.037,131.667 78.706 C 131.162 78.501,130.447 78.333,130.077 78.333 C 129.707 78.333,129.110 78.183,128.750 78.000 C 128.390 77.817,127.997 77.667,127.875 77.667 C 127.076 77.667,122.408 73.365,122.085 72.332 C 122.014 72.104,121.741 71.643,121.478 71.309 C 121.118 70.852,121.000 70.523,121.001 69.976 C 121.001 69.577,120.876 68.481,120.723 67.541 C 120.491 66.113,120.471 65.398,120.600 63.183 L 120.755 60.533 121.375 59.633 C 121.716 59.137,122.140 58.295,122.316 57.760 C 122.660 56.718,124.527 54.598,125.583 54.049 C 125.858 53.906,126.425 53.472,126.843 53.085 C 127.483 52.490,127.750 52.361,128.537 52.263 C 129.235 52.176,129.655 52.003,130.197 51.581 C 131.262 50.751,134.582 50.616,136.588 51.321 M165.130 51.321 C 165.694 51.511,166.477 51.667,166.870 51.668 C 167.522 51.669,167.668 51.755,168.570 52.679 C 169.113 53.234,169.850 53.839,170.209 54.021 C 170.567 54.204,170.986 54.583,171.139 54.863 C 171.292 55.143,171.671 55.682,171.982 56.061 C 173.109 57.433,173.060 56.931,173.125 67.583 C 173.184 77.080,173.179 77.260,172.845 77.792 L 172.505 78.333 170.639 78.333 L 168.773 78.333 168.075 77.583 C 167.298 76.749,165.984 76.501,165.490 77.096 C 165.370 77.240,164.969 77.513,164.598 77.702 C 164.227 77.891,163.659 78.256,163.337 78.514 C 162.766 78.969,162.677 78.985,160.083 79.096 C 156.096 79.266,154.753 78.799,152.225 76.362 C 150.333 74.538,149.472 70.565,150.485 68.333 C 150.673 67.921,150.828 67.488,150.830 67.371 C 150.836 67.026,152.526 65.411,153.289 65.022 C 153.677 64.824,154.113 64.482,154.258 64.262 C 154.630 63.693,156.983 63.167,159.153 63.167 C 159.678 63.167,160.427 62.986,161.224 62.667 C 162.072 62.327,162.761 62.167,163.373 62.167 C 165.290 62.167,166.305 61.591,166.722 60.268 C 167.155 58.894,166.692 57.734,165.423 57.018 C 164.930 56.740,164.479 56.435,164.421 56.340 C 164.362 56.245,163.962 56.166,163.532 56.165 C 163.102 56.164,162.378 56.050,161.923 55.912 C 161.101 55.663,161.091 55.664,160.423 56.141 C 160.053 56.405,159.487 56.754,159.167 56.917 C 158.846 57.080,157.908 57.872,157.083 58.679 C 155.223 60.497,155.162 60.521,153.173 60.209 C 150.050 59.719,149.879 58.197,152.619 55.268 C 153.333 54.505,154.068 53.626,154.253 53.315 C 154.507 52.888,154.819 52.668,155.527 52.417 C 156.042 52.233,156.799 51.842,157.210 51.547 C 158.320 50.749,163.034 50.615,165.130 51.321 M247.620 51.313 C 248.190 51.507,248.992 51.667,249.402 51.667 C 249.812 51.667,250.189 51.735,250.241 51.819 C 250.293 51.903,250.841 52.133,251.459 52.331 C 252.689 52.723,254.845 54.593,255.499 55.833 C 255.669 56.154,256.068 56.660,256.387 56.957 C 256.709 57.256,257.086 57.844,257.233 58.276 C 257.379 58.705,257.601 59.174,257.726 59.320 C 258.289 59.974,259.017 63.747,258.806 64.917 C 258.740 65.283,258.682 66.078,258.676 66.682 C 258.665 67.984,258.148 70.138,257.690 70.788 C 257.511 71.042,257.234 71.662,257.074 72.167 C 256.736 73.230,254.796 75.383,253.500 76.132 C 253.088 76.370,252.525 76.732,252.250 76.937 C 251.975 77.142,251.237 77.495,250.610 77.722 C 249.984 77.950,249.284 78.312,249.055 78.526 C 248.282 79.253,243.581 79.416,242.599 78.750 C 242.158 78.451,241.763 78.333,241.196 78.333 C 240.762 78.333,240.260 78.231,240.079 78.106 C 239.898 77.980,239.338 77.758,238.833 77.611 C 238.289 77.453,237.587 77.071,237.107 76.672 C 236.661 76.302,236.232 76.000,236.152 76.000 C 235.682 76.000,233.636 73.630,233.325 72.725 C 233.143 72.198,232.855 71.612,232.685 71.425 C 232.053 70.729,231.516 68.385,231.491 66.209 C 231.485 65.773,231.389 65.154,231.277 64.833 C 231.104 64.341,231.120 64.094,231.376 63.255 C 231.544 62.707,231.725 61.545,231.780 60.671 C 231.903 58.726,232.120 58.262,233.583 56.833 C 234.193 56.237,234.841 55.463,235.023 55.111 C 235.205 54.760,235.586 54.347,235.868 54.195 C 236.151 54.042,236.615 53.720,236.900 53.480 C 238.112 52.456,238.692 52.167,239.534 52.167 C 240.413 52.167,240.855 52.000,241.471 51.438 C 242.197 50.774,245.828 50.700,247.620 51.313 M292.463 51.307 C 292.894 51.614,293.197 51.667,294.531 51.667 L 296.095 51.667 297.002 52.586 C 297.615 53.206,298.198 53.613,298.797 53.837 C 299.813 54.217,301.214 55.508,301.592 56.413 C 301.725 56.730,302.061 57.159,302.340 57.364 C 302.726 57.650,302.926 58.015,303.184 58.911 C 303.370 59.556,303.743 60.661,304.011 61.367 C 304.633 63.000,304.696 65.118,304.167 66.623 C 303.983 67.145,303.833 67.896,303.833 68.293 C 303.833 69.401,303.242 70.998,302.498 71.898 C 302.134 72.339,301.730 73.057,301.600 73.495 C 301.144 75.032,300.735 75.528,299.333 76.248 C 299.012 76.412,298.546 76.717,298.297 76.925 C 298.048 77.132,297.359 77.464,296.766 77.661 C 296.172 77.859,295.419 78.233,295.092 78.493 C 294.060 79.314,289.398 79.418,287.179 78.671 C 286.628 78.485,285.903 78.333,285.569 78.333 C 285.061 78.333,284.790 78.177,283.938 77.395 C 283.326 76.834,282.554 76.316,282.012 76.104 C 281.073 75.736,280.432 75.052,279.652 73.583 C 279.457 73.217,279.017 72.579,278.674 72.167 C 277.753 71.058,277.500 70.466,277.500 69.422 C 277.500 68.802,277.357 68.148,277.069 67.455 C 276.500 66.085,276.372 64.608,276.728 63.519 C 276.878 63.062,277.000 62.343,277.000 61.921 C 277.000 61.500,277.111 60.985,277.248 60.777 C 277.384 60.569,277.648 59.956,277.834 59.416 C 278.020 58.875,278.316 58.279,278.492 58.091 C 278.667 57.904,279.033 57.254,279.305 56.647 C 279.823 55.491,280.348 54.999,282.025 54.096 C 282.451 53.866,283.134 53.389,283.541 53.036 C 283.949 52.683,284.500 52.315,284.766 52.217 C 285.032 52.120,285.813 51.828,286.500 51.569 C 288.556 50.793,291.556 50.661,292.463 51.307 M327.424 51.469 C 328.153 51.744,329.020 52.053,329.351 52.156 C 330.209 52.423,331.184 53.321,331.741 54.357 C 332.005 54.848,332.395 55.459,332.606 55.715 C 332.817 55.971,333.223 56.908,333.507 57.798 C 333.792 58.688,334.166 59.792,334.339 60.250 C 334.728 61.284,334.843 76.265,334.467 77.089 C 334.086 77.926,332.919 78.333,330.903 78.333 L 329.127 78.333 328.480 77.686 L 327.833 77.039 327.833 69.027 L 327.833 61.015 327.438 59.927 C 326.633 57.708,325.744 57.080,323.109 56.868 C 320.494 56.658,317.680 58.018,317.410 59.623 C 317.353 59.968,317.163 60.775,316.989 61.417 C 316.666 62.613,316.563 65.353,316.517 74.036 L 316.500 77.156 315.911 77.744 L 315.322 78.333 313.469 78.333 L 311.615 78.333 310.974 77.660 L 310.333 76.986 310.333 65.151 C 310.333 52.199,310.293 52.741,311.315 52.013 C 311.734 51.715,312.046 51.667,313.562 51.667 L 315.322 51.667 315.911 52.256 C 316.235 52.579,316.500 52.917,316.500 53.006 C 316.500 53.406,318.185 53.170,318.917 52.667 C 319.316 52.392,319.695 52.167,319.758 52.167 C 319.821 52.167,320.225 51.908,320.655 51.592 C 321.920 50.664,325.132 50.605,327.424 51.469 M355.630 51.321 C 356.194 51.511,356.940 51.670,357.286 51.674 C 357.741 51.679,358.242 51.889,359.083 52.429 C 359.725 52.840,360.474 53.306,360.748 53.463 C 361.564 53.934,363.314 55.865,363.494 56.493 C 363.585 56.810,363.936 57.471,364.274 57.963 C 364.947 58.939,365.316 60.364,365.327 62.021 C 365.331 62.536,365.446 63.277,365.583 63.667 C 365.869 64.476,365.909 65.547,365.672 65.991 C 365.242 66.793,364.759 66.833,355.468 66.833 C 345.591 66.833,346.167 66.751,346.167 68.168 C 346.167 68.729,346.281 69.111,346.571 69.517 C 346.793 69.828,347.197 70.458,347.470 70.917 C 348.148 72.060,348.755 72.574,349.833 72.920 C 350.337 73.081,350.949 73.353,351.192 73.523 C 351.734 73.903,352.893 73.931,353.724 73.583 C 354.053 73.446,354.741 73.333,355.251 73.333 C 356.454 73.333,357.154 72.966,358.417 71.669 C 358.967 71.105,359.777 70.395,360.217 70.092 L 361.017 69.542 362.204 69.768 C 364.200 70.148,365.174 71.106,364.923 72.442 C 364.738 73.430,361.111 77.044,359.849 77.497 C 359.336 77.682,358.476 78.068,357.937 78.356 C 356.495 79.127,353.205 79.364,351.333 78.833 C 350.646 78.638,349.671 78.421,349.167 78.352 C 348.662 78.282,347.988 78.106,347.667 77.961 C 347.346 77.815,346.733 77.573,346.306 77.423 C 345.415 77.110,343.283 75.017,342.784 73.966 C 342.624 73.627,342.317 73.140,342.103 72.883 C 341.889 72.627,341.579 72.154,341.415 71.833 C 341.251 71.512,340.952 71.025,340.750 70.750 C 340.103 69.869,339.945 68.926,339.726 64.627 C 339.630 62.752,339.644 62.633,340.063 61.777 C 340.303 61.286,340.500 60.614,340.500 60.284 C 340.500 59.954,340.688 59.332,340.917 58.901 C 341.146 58.470,341.333 58.013,341.333 57.885 C 341.333 57.030,343.568 54.562,345.000 53.835 C 345.412 53.626,345.954 53.284,346.203 53.076 C 346.452 52.867,347.052 52.570,347.536 52.415 C 348.021 52.261,348.754 51.897,349.167 51.609 C 350.360 50.773,353.578 50.630,355.630 51.321 M76.021 51.277 C 76.422 51.430,77.192 51.598,77.731 51.652 C 79.471 51.826,79.333 50.346,79.333 68.933 C 79.333 84.890,79.332 84.957,78.988 85.394 L 78.642 85.833 65.846 85.833 L 53.050 85.833 52.400 85.352 C 50.998 84.313,45.358 78.589,45.095 77.938 C 44.744 77.071,44.720 53.135,45.069 52.167 C 45.497 50.980,44.962 51.019,61.021 51.009 C 73.938 51.001,75.361 51.026,76.021 51.277 M196.026 51.700 C 196.524 52.474,196.703 56.135,196.271 56.704 C 195.797 57.328,193.529 58.218,192.103 58.339 C 190.378 58.485,189.405 58.875,189.056 59.562 C 188.911 59.849,188.550 60.383,188.255 60.750 C 187.123 62.157,187.183 61.659,187.060 70.660 C 187.012 74.145,186.904 77.035,186.815 77.202 C 186.247 78.262,182.023 78.853,181.234 77.983 C 180.574 77.254,180.606 53.105,181.268 52.220 L 181.619 51.750 184.094 51.750 L 186.569 51.750 186.947 53.000 C 187.554 55.005,187.807 55.094,189.154 53.782 C 190.672 52.303,190.914 52.167,192.014 52.167 C 192.831 52.167,193.046 52.093,193.670 51.599 C 194.421 51.005,195.612 51.056,196.026 51.700 M212.958 51.395 C 213.247 51.544,213.828 51.667,214.248 51.667 C 214.684 51.667,215.294 51.810,215.667 52.000 C 216.026 52.183,216.424 52.333,216.552 52.333 C 216.679 52.333,217.135 52.520,217.565 52.749 L 218.346 53.164 219.847 52.410 L 221.349 51.656 223.115 51.703 C 225.857 51.776,225.573 50.262,225.637 65.137 C 225.694 78.499,225.638 79.710,224.898 81.103 C 224.658 81.553,224.500 82.133,224.500 82.560 C 224.500 83.417,221.474 86.594,219.906 87.383 C 219.442 87.616,218.964 87.926,218.843 88.071 C 218.191 88.858,215.050 89.500,211.856 89.500 C 208.288 89.500,207.213 89.257,205.876 88.147 C 205.434 87.780,204.701 87.377,204.221 87.236 C 203.126 86.915,202.341 86.388,201.917 85.687 C 201.733 85.384,201.235 84.739,200.810 84.253 C 200.121 83.466,200.024 83.256,199.917 82.310 C 199.851 81.727,199.702 80.972,199.587 80.631 L 199.377 80.012 201.006 79.506 C 203.104 78.855,203.811 78.847,204.441 79.472 C 205.533 80.555,206.300 81.464,206.409 81.808 C 206.483 82.042,206.897 82.352,207.554 82.664 C 208.120 82.934,208.795 83.326,209.053 83.535 C 210.044 84.339,214.893 84.152,215.951 83.269 C 216.207 83.055,216.679 82.748,217.000 82.587 C 218.041 82.065,218.333 81.687,218.333 80.866 C 218.333 80.425,218.463 79.911,218.653 79.603 C 220.041 77.347,219.200 73.929,217.563 75.168 C 217.207 75.437,216.452 75.814,215.885 76.005 C 215.318 76.197,214.576 76.574,214.237 76.844 C 213.515 77.418,212.219 77.514,211.000 77.083 C 210.610 76.946,209.982 76.832,209.604 76.831 C 208.530 76.828,206.852 76.222,205.913 75.497 C 205.445 75.136,204.729 74.723,204.322 74.580 C 203.519 74.297,202.129 73.053,201.719 72.250 C 201.578 71.975,201.212 71.487,200.905 71.167 C 200.210 70.440,199.836 69.405,199.826 68.187 C 199.822 67.672,199.711 66.950,199.579 66.583 C 199.219 65.586,199.266 63.058,199.678 61.258 C 200.252 58.750,200.314 58.570,200.833 57.917 C 201.109 57.570,201.420 56.999,201.526 56.647 C 201.751 55.895,203.159 54.345,204.000 53.922 C 204.321 53.761,204.809 53.416,205.084 53.155 C 205.730 52.543,206.812 52.167,207.925 52.167 C 208.605 52.167,208.916 52.077,209.279 51.777 C 209.538 51.562,209.900 51.297,210.083 51.187 C 210.529 50.921,212.287 51.048,212.958 51.395 M52.333 54.196 L 51.583 54.583 51.540 62.499 C 51.503 69.203,51.535 70.529,51.748 71.154 C 51.887 71.560,52.000 72.304,52.000 72.807 C 52.000 74.362,54.395 77.232,56.268 77.921 C 56.717 78.086,57.505 78.393,58.020 78.603 C 60.042 79.429,74.649 79.750,76.292 79.004 L 77.000 78.683 77.000 76.204 C 77.000 73.845,76.982 73.708,76.625 73.383 C 75.844 72.672,75.784 72.667,68.365 72.667 C 60.671 72.667,60.264 72.627,59.364 71.786 C 58.487 70.967,58.500 71.106,58.500 62.512 L 58.500 54.508 58.066 54.223 C 57.292 53.716,53.298 53.697,52.333 54.196 M352.333 56.508 C 351.921 56.677,351.186 56.819,350.700 56.824 C 347.955 56.852,344.869 61.510,347.256 62.021 C 348.778 62.348,358.117 62.170,358.579 61.807 C 359.088 61.407,359.089 59.846,358.582 59.062 C 358.119 58.347,356.757 57.168,356.178 56.980 C 355.851 56.874,355.384 56.647,355.141 56.477 C 354.575 56.080,353.347 56.093,352.333 56.508 M211.250 56.848 C 209.445 57.249,209.238 57.358,207.977 58.562 C 206.880 59.610,206.668 59.910,206.352 60.860 C 206.153 61.460,205.881 62.093,205.750 62.267 C 205.435 62.684,205.435 64.136,205.750 64.891 C 205.887 65.220,206.000 65.879,206.000 66.355 C 206.000 67.534,206.472 68.958,206.994 69.357 C 209.698 71.421,210.708 71.780,213.333 71.606 C 215.518 71.461,215.908 71.294,217.367 69.874 C 219.157 68.132,219.250 67.849,219.250 64.167 C 219.250 61.020,219.209 60.834,218.305 59.917 C 218.034 59.642,217.573 59.045,217.281 58.590 C 216.320 57.093,213.637 56.318,211.250 56.848 M288.632 56.920 C 286.997 57.258,284.993 58.775,284.195 60.279 C 283.779 61.061,283.167 62.986,283.167 63.510 C 283.167 63.814,283.078 64.494,282.969 65.021 C 282.820 65.743,282.818 66.115,282.961 66.531 C 284.500 71.008,284.362 70.714,285.180 71.250 C 285.599 71.525,286.184 71.954,286.479 72.204 C 286.774 72.454,287.399 72.772,287.867 72.911 C 288.335 73.050,288.950 73.301,289.235 73.469 C 289.681 73.732,289.820 73.745,290.251 73.561 C 290.525 73.444,291.167 73.345,291.676 73.341 C 293.329 73.327,294.586 72.774,295.237 71.774 C 295.544 71.303,296.216 70.507,296.731 70.006 C 297.603 69.156,297.667 69.042,297.667 68.318 C 297.667 67.891,297.779 67.223,297.917 66.833 C 298.381 65.518,298.264 62.474,297.724 61.833 C 297.481 61.544,297.116 60.845,296.914 60.279 C 296.641 59.516,296.409 59.164,296.014 58.917 C 295.721 58.733,295.113 58.302,294.661 57.957 C 293.299 56.918,290.754 56.480,288.632 56.920 M354.903 56.810 C 354.951 56.890,355.344 57.053,355.776 57.174 C 357.729 57.721,359.443 60.635,358.338 61.530 C 357.340 62.338,346.667 61.852,346.667 60.999 C 346.667 59.707,349.222 57.173,350.545 57.154 C 351.024 57.147,351.979 57.043,352.667 56.922 C 354.203 56.652,354.787 56.623,354.903 56.810 M242.500 57.138 C 241.821 57.420,241.132 57.836,239.300 59.070 C 238.497 59.611,238.252 60.115,237.858 62.045 C 237.679 62.921,237.459 63.769,237.369 63.930 C 237.255 64.133,237.283 64.401,237.462 64.819 C 237.603 65.148,237.768 66.017,237.830 66.750 C 238.069 69.568,240.149 72.536,242.214 73.006 C 244.952 73.628,247.786 73.302,249.234 72.198 C 249.557 71.952,250.005 71.620,250.230 71.461 C 250.460 71.299,250.760 70.806,250.917 70.331 C 251.071 69.868,251.379 69.274,251.601 69.010 C 252.719 67.681,252.818 63.295,251.773 61.391 C 251.630 61.130,251.293 60.459,251.025 59.900 C 250.603 59.022,250.438 58.845,249.810 58.595 C 249.410 58.436,248.840 58.120,248.542 57.894 C 247.211 56.884,244.059 56.489,242.500 57.138 M215.000 57.347 C 215.828 57.537,216.624 58.197,217.294 59.250 C 217.527 59.617,217.987 60.152,218.317 60.439 L 218.917 60.962 218.917 64.189 C 218.917 67.986,218.970 67.829,217.049 69.695 C 215.502 71.197,215.323 71.256,212.417 71.236 C 210.270 71.220,209.804 71.088,208.884 70.233 C 208.627 69.994,208.075 69.625,207.657 69.413 C 206.746 68.950,206.541 68.467,206.314 66.250 C 206.229 65.425,206.117 64.352,206.063 63.866 C 205.823 61.667,208.219 57.830,210.093 57.413 C 210.363 57.353,210.658 57.279,210.750 57.249 C 211.145 57.117,214.316 57.190,215.000 57.347 M247.333 57.494 C 247.563 57.616,247.992 57.926,248.288 58.183 C 248.584 58.440,249.085 58.699,249.402 58.758 C 250.114 58.892,250.467 59.268,250.840 60.291 C 250.999 60.727,251.337 61.571,251.592 62.167 C 252.477 64.237,252.393 67.498,251.424 68.658 C 251.114 69.029,250.808 69.577,250.744 69.875 C 250.593 70.580,250.150 71.333,249.887 71.333 C 249.772 71.333,249.432 71.547,249.131 71.808 C 248.087 72.712,247.314 72.877,244.470 72.803 C 241.261 72.720,240.465 72.335,239.709 70.500 C 239.577 70.179,239.291 69.728,239.074 69.498 C 238.536 68.926,238.167 67.804,238.167 66.737 C 238.167 66.249,238.088 65.484,237.992 65.037 C 237.489 62.688,238.615 59.670,240.313 58.817 C 240.787 58.578,241.346 58.223,241.554 58.028 C 242.444 57.192,246.126 56.852,247.333 57.494 M293.333 57.487 C 293.563 57.608,293.938 57.879,294.167 58.089 C 294.396 58.298,294.946 58.683,295.390 58.943 C 296.115 59.369,296.243 59.539,296.672 60.646 C 296.934 61.322,297.302 62.039,297.491 62.240 C 297.989 62.770,297.995 65.697,297.500 66.667 C 297.303 67.053,297.167 67.649,297.167 68.125 C 297.167 68.873,297.107 68.987,296.317 69.756 C 295.850 70.211,295.247 70.970,294.977 71.443 C 294.400 72.452,293.661 72.833,292.283 72.833 C 291.801 72.833,291.018 72.934,290.545 73.057 C 290.064 73.181,289.588 73.219,289.467 73.143 C 289.348 73.067,288.842 72.885,288.344 72.739 C 287.845 72.592,287.143 72.220,286.783 71.912 C 286.423 71.604,285.816 71.205,285.433 71.025 C 284.792 70.724,284.711 70.610,284.389 69.558 C 284.197 68.930,283.925 68.042,283.785 67.583 C 283.645 67.125,283.433 66.508,283.313 66.212 C 283.120 65.734,283.137 65.591,283.465 64.916 C 283.692 64.449,283.833 63.844,283.833 63.342 C 283.833 61.161,286.100 57.881,287.970 57.355 C 288.837 57.111,292.809 57.209,293.333 57.487 M163.917 66.591 C 163.183 66.710,162.158 66.814,161.638 66.821 C 161.006 66.829,160.258 67.002,159.388 67.339 C 157.564 68.046,157.649 67.975,156.961 69.345 L 156.338 70.583 156.670 71.588 C 157.238 73.305,157.699 73.833,158.631 73.835 C 159.063 73.836,159.785 73.949,160.235 74.085 C 161.568 74.490,162.682 74.415,163.380 73.875 C 163.706 73.623,164.347 73.214,164.805 72.967 C 166.153 72.238,166.527 71.601,166.681 69.774 C 166.753 68.924,166.863 68.022,166.927 67.770 C 167.019 67.403,166.948 67.214,166.573 66.822 C 166.049 66.276,165.917 66.264,163.917 66.591 M166.284 66.995 C 166.514 67.264,166.557 67.618,166.518 68.947 C 166.451 71.236,166.000 71.999,164.167 72.920 C 163.846 73.082,163.371 73.391,163.112 73.607 C 162.515 74.105,161.382 74.128,160.357 73.663 C 159.954 73.480,159.271 73.333,158.824 73.333 C 157.016 73.333,156.384 70.812,157.628 68.561 C 157.762 68.318,158.055 68.171,158.557 68.096 C 158.960 68.036,159.581 67.831,159.937 67.642 C 160.327 67.435,161.145 67.238,162.000 67.147 C 162.779 67.064,163.754 66.931,164.167 66.852 C 165.456 66.605,165.981 66.640,166.284 66.995 M266.916 69.975 C 266.641 70.142,266.314 70.404,266.188 70.556 C 266.062 70.709,265.869 70.833,265.758 70.833 C 265.648 70.833,265.196 71.072,264.755 71.364 C 262.762 72.685,262.817 75.830,264.871 77.938 L 265.866 78.959 267.225 79.074 C 269.379 79.256,269.482 79.245,269.966 78.794 C 270.214 78.563,270.592 78.284,270.807 78.173 C 271.031 78.058,271.375 77.569,271.613 77.028 C 271.841 76.508,272.185 75.914,272.377 75.708 L 272.725 75.333 272.368 74.618 C 272.172 74.225,271.931 73.494,271.833 72.993 C 271.494 71.259,270.519 70.380,268.417 69.913 C 268.142 69.852,267.804 69.773,267.666 69.736 C 267.528 69.700,267.191 69.807,266.916 69.975 M269.224 70.667 C 269.910 70.942,270.545 71.167,270.634 71.167 C 270.954 71.167,271.292 71.944,271.572 73.329 C 271.730 74.106,271.923 74.856,272.001 74.995 C 272.092 75.159,272.036 75.427,271.842 75.750 C 271.676 76.025,271.450 76.534,271.339 76.881 C 271.226 77.233,270.941 77.636,270.693 77.793 C 270.450 77.947,269.980 78.286,269.649 78.545 L 269.048 79.017 268.149 78.675 C 267.655 78.487,266.909 78.333,266.493 78.333 C 265.153 78.333,264.119 76.956,263.681 74.587 C 263.419 73.167,264.045 72.084,265.583 71.296 C 265.950 71.108,266.462 70.777,266.721 70.561 C 267.335 70.047,267.717 70.064,269.224 70.667 " stroke="none" fill="#cd3244" fill-rule="evenodd"></path><path id="path2" d="M87.110 31.598 C 87.981 31.852,88.285 32.127,93.928 37.770 L 99.835 43.676 99.792 61.112 L 99.750 78.547 99.280 78.899 C 98.833 79.233,98.582 79.253,94.222 79.306 C 88.390 79.377,88.833 79.633,88.834 76.179 C 88.835 72.985,88.951 72.753,90.608 72.628 C 93.027 72.445,92.833 73.669,92.833 58.554 C 92.833 44.098,93.318 46.123,88.785 41.633 C 86.932 39.797,85.229 38.211,85.000 38.106 C 84.703 37.971,80.953 37.903,71.979 37.868 L 59.374 37.820 58.937 38.339 C 58.593 38.748,58.500 39.036,58.500 39.690 C 58.500 40.816,58.318 41.085,57.165 41.667 C 55.303 42.608,52.870 42.349,51.925 41.109 L 51.500 40.552 51.500 36.540 C 51.500 31.975,51.483 32.067,52.400 31.651 C 53.377 31.207,85.597 31.158,87.110 31.598 M79.163 44.727 C 79.665 44.897,80.250 45.173,80.464 45.340 C 80.677 45.508,81.322 45.802,81.897 45.993 C 83.014 46.365,83.746 46.987,84.257 48.000 C 84.419 48.321,84.761 48.846,85.018 49.167 C 85.970 50.359,86.000 51.056,86.000 72.296 L 86.000 91.366 85.482 91.850 L 84.965 92.333 67.424 92.333 L 49.883 92.333 49.150 91.815 C 47.656 90.759,38.826 81.807,38.401 80.917 L 38.003 80.083 38.002 62.617 L 38.000 45.152 38.413 44.738 L 38.826 44.325 58.538 44.372 C 77.213 44.416,78.298 44.435,79.163 44.727 M135.917 50.753 C 136.650 50.885,137.600 50.995,138.029 50.997 C 138.622 50.999,138.931 51.104,139.323 51.434 C 139.607 51.672,140.311 52.009,140.889 52.183 C 142.096 52.545,144.121 54.421,144.829 55.833 C 145.035 56.246,145.355 56.748,145.538 56.948 C 145.722 57.149,146.009 57.804,146.175 58.403 L 146.477 59.494 146.063 59.820 C 145.835 59.999,145.171 60.304,144.587 60.499 C 144.003 60.693,143.431 60.965,143.316 61.104 C 142.140 62.521,139.962 62.050,139.397 60.256 C 139.134 59.423,139.025 59.286,138.405 59.012 C 138.022 58.843,137.411 58.435,137.047 58.106 C 135.719 56.906,131.822 56.870,130.416 58.044 C 130.233 58.197,129.828 58.493,129.515 58.703 C 129.105 58.977,128.871 59.318,128.674 59.926 C 128.524 60.389,128.154 61.076,127.851 61.453 C 126.900 62.636,126.739 67.083,127.583 68.872 C 128.090 69.947,129.007 71.080,129.623 71.394 C 129.968 71.569,130.453 71.883,130.702 72.090 C 131.296 72.587,133.091 72.885,134.966 72.800 C 136.454 72.732,137.042 72.541,138.167 71.758 C 139.485 70.841,139.601 70.703,139.805 69.818 C 140.115 68.476,141.200 68.041,142.521 68.731 C 142.762 68.856,143.564 69.161,144.304 69.407 C 146.124 70.013,146.502 70.325,146.394 71.128 C 146.111 73.237,146.083 73.287,143.938 75.465 C 141.818 77.618,141.605 77.747,139.643 78.074 C 139.308 78.130,138.752 78.400,138.407 78.675 C 138.061 78.949,137.622 79.205,137.431 79.244 C 136.505 79.429,133.648 79.482,132.833 79.329 C 132.329 79.234,131.354 79.113,130.667 79.059 C 129.822 78.993,129.309 78.866,129.083 78.668 C 128.626 78.266,128.114 78.016,127.179 77.738 C 126.238 77.459,122.585 73.980,121.974 72.782 C 121.780 72.401,121.415 71.826,121.163 71.503 C 120.762 70.989,120.693 70.721,120.603 69.333 C 120.547 68.462,120.373 67.132,120.216 66.377 C 119.977 65.219,119.964 64.852,120.133 64.034 C 120.243 63.500,120.333 62.715,120.333 62.290 C 120.333 60.968,120.653 59.881,121.254 59.162 C 121.562 58.794,121.851 58.363,121.897 58.205 C 121.943 58.046,122.059 57.610,122.156 57.235 C 122.369 56.410,124.441 54.207,125.524 53.655 C 125.908 53.459,126.456 53.051,126.741 52.748 C 127.147 52.318,127.487 52.153,128.302 51.993 C 128.976 51.860,129.559 51.617,129.950 51.307 C 130.659 50.743,130.867 50.685,132.417 50.617 C 133.058 50.588,133.808 50.553,134.083 50.538 C 134.358 50.524,135.183 50.620,135.917 50.753 M164.855 50.832 C 165.897 51.014,166.940 51.164,167.171 51.165 C 167.469 51.166,167.910 51.489,168.671 52.262 C 169.265 52.865,170.071 53.549,170.464 53.782 C 170.857 54.014,171.287 54.416,171.420 54.673 C 171.553 54.930,171.963 55.489,172.331 55.914 C 172.699 56.339,173.006 56.701,173.013 56.718 C 173.025 56.748,173.092 57.424,173.484 61.500 C 173.717 63.929,173.717 76.415,173.484 77.504 C 173.084 79.365,169.130 79.710,167.599 78.017 C 166.760 77.090,165.149 77.409,163.629 78.804 C 162.468 79.870,155.275 79.632,154.244 78.494 C 154.074 78.305,153.650 77.991,153.303 77.796 C 152.956 77.601,152.487 77.161,152.259 76.818 C 152.032 76.474,151.700 76.147,151.521 76.090 C 151.097 75.955,150.786 75.460,150.419 74.333 C 150.255 73.829,149.981 73.138,149.810 72.798 C 149.298 71.778,149.361 69.022,149.908 68.508 C 150.133 68.297,150.430 67.790,150.570 67.381 C 150.839 66.589,152.232 65.102,152.888 64.906 C 153.087 64.847,153.587 64.479,154.000 64.089 C 154.810 63.323,155.525 63.139,158.863 62.842 C 159.567 62.779,160.242 62.650,160.363 62.555 C 160.807 62.206,161.785 61.968,163.257 61.849 C 165.331 61.681,165.998 61.339,166.355 60.263 C 166.942 58.494,165.406 56.667,163.331 56.667 C 162.894 56.667,162.210 56.520,161.810 56.342 L 161.084 56.017 160.667 56.407 C 160.438 56.621,159.918 56.963,159.512 57.167 C 158.570 57.639,157.058 59.066,156.649 59.867 C 156.297 60.557,155.333 60.955,154.519 60.746 C 154.280 60.685,153.418 60.533,152.604 60.410 C 150.790 60.134,150.316 59.794,150.441 58.858 C 150.696 56.956,150.837 56.659,152.141 55.295 C 152.835 54.568,153.631 53.624,153.911 53.196 C 154.349 52.528,154.573 52.363,155.502 52.033 C 156.096 51.821,156.733 51.513,156.916 51.348 C 157.530 50.799,157.740 50.750,159.917 50.657 C 161.108 50.606,162.281 50.550,162.522 50.532 C 162.763 50.514,163.813 50.649,164.855 50.832 M247.517 50.838 C 247.827 50.927,248.504 51.000,249.020 51.000 C 249.671 51.000,250.026 51.080,250.177 51.262 C 250.482 51.630,251.467 52.100,252.214 52.236 C 253.012 52.381,254.996 54.202,255.684 55.422 C 255.946 55.885,256.384 56.479,256.659 56.743 C 256.934 57.006,257.244 57.491,257.348 57.819 C 257.451 58.148,257.753 58.694,258.018 59.032 C 258.406 59.527,258.552 59.969,258.761 61.282 C 258.905 62.181,259.078 63.217,259.146 63.583 C 259.214 63.950,259.217 64.438,259.152 64.667 C 259.087 64.896,259.026 65.617,259.017 66.270 C 258.993 67.960,258.548 70.342,258.180 70.747 C 257.764 71.206,257.520 71.706,257.220 72.715 C 256.907 73.770,255.086 75.737,253.876 76.326 C 253.440 76.539,252.893 76.889,252.659 77.105 C 252.426 77.320,251.679 77.686,251.000 77.917 C 250.321 78.148,249.552 78.540,249.293 78.789 C 248.646 79.409,244.279 79.739,242.861 79.275 C 242.399 79.124,241.708 79.000,241.326 79.000 C 240.831 79.000,240.491 78.882,240.142 78.588 C 239.873 78.362,239.145 78.025,238.524 77.841 C 237.845 77.638,237.235 77.334,236.992 77.075 C 236.770 76.839,236.333 76.488,236.021 76.295 C 234.818 75.551,233.335 73.890,232.997 72.908 C 232.821 72.396,232.487 71.751,232.255 71.475 C 232.023 71.200,231.798 70.811,231.754 70.612 C 231.501 69.447,231.167 67.058,231.167 66.407 C 231.167 65.990,231.020 65.327,230.842 64.935 L 230.517 64.221 230.948 63.154 C 231.257 62.388,231.414 61.610,231.501 60.407 C 231.647 58.383,231.701 58.270,233.331 56.583 C 234.039 55.850,234.740 55.013,234.889 54.724 C 235.037 54.435,235.442 54.028,235.788 53.819 C 236.134 53.610,236.693 53.195,237.032 52.896 C 237.927 52.105,238.547 51.833,239.459 51.833 C 240.108 51.833,240.412 51.727,241.001 51.294 C 242.021 50.544,245.615 50.293,247.517 50.838 M292.167 50.750 C 292.556 50.887,293.447 51.007,294.146 51.017 C 295.842 51.039,295.938 51.079,297.313 52.349 C 297.987 52.971,298.783 53.540,299.148 53.661 C 299.948 53.924,301.434 55.302,301.759 56.080 C 301.893 56.399,302.261 56.896,302.578 57.184 C 302.934 57.509,303.259 58.034,303.430 58.563 C 303.582 59.032,303.939 59.942,304.223 60.583 C 304.715 61.695,304.740 61.853,304.737 63.917 C 304.732 68.454,304.204 70.542,302.593 72.396 C 302.258 72.782,301.922 73.436,301.758 74.018 C 301.415 75.240,300.896 75.863,299.757 76.421 C 299.265 76.661,298.735 76.999,298.579 77.172 C 298.422 77.345,297.797 77.648,297.189 77.847 C 296.581 78.045,295.896 78.377,295.667 78.584 C 294.953 79.227,294.656 79.294,292.000 79.410 C 289.997 79.497,289.099 79.464,288.000 79.264 C 287.221 79.122,286.206 79.005,285.745 79.003 C 284.934 79.000,284.873 78.965,283.829 77.899 C 283.096 77.151,282.422 76.648,281.727 76.331 C 281.044 76.019,280.602 75.692,280.399 75.349 C 280.232 75.065,280.043 74.833,279.979 74.833 C 279.915 74.833,279.696 74.489,279.492 74.067 C 279.288 73.646,278.830 72.964,278.473 72.552 C 277.536 71.470,277.167 70.653,277.167 69.664 C 277.167 69.179,277.028 68.511,276.844 68.106 C 276.299 66.911,276.124 65.921,276.227 64.630 C 276.488 61.363,276.536 61.091,276.933 60.618 C 277.148 60.362,277.475 59.643,277.661 59.020 C 277.846 58.397,278.159 57.743,278.355 57.568 C 278.552 57.393,278.922 56.786,279.178 56.219 C 279.496 55.513,279.796 55.108,280.126 54.938 C 280.391 54.801,280.709 54.567,280.832 54.418 C 280.956 54.269,281.312 54.041,281.624 53.910 C 281.936 53.780,282.542 53.364,282.971 52.986 C 284.844 51.335,286.693 50.769,291.021 50.525 C 291.261 50.511,291.777 50.612,292.167 50.750 M327.095 50.913 C 329.741 51.662,331.348 52.716,332.097 54.193 C 332.325 54.643,332.643 55.143,332.804 55.304 C 332.965 55.465,333.305 56.193,333.560 56.923 C 333.816 57.653,334.130 58.446,334.259 58.686 C 334.942 59.959,335.000 60.769,334.999 68.993 C 334.999 78.066,335.081 77.558,333.465 78.499 C 332.208 79.231,329.432 79.204,328.445 78.450 C 327.297 77.573,327.333 77.880,327.333 69.104 C 327.333 59.602,327.302 59.383,325.753 57.952 C 325.077 57.328,324.724 57.250,322.583 57.250 C 320.433 57.250,320.352 57.279,318.101 58.877 C 317.451 59.338,317.290 61.191,317.183 69.417 C 317.088 76.756,317.069 77.108,316.741 77.667 C 315.607 79.597,311.324 79.540,310.214 77.580 L 309.839 76.917 309.839 65.000 L 309.839 53.083 310.214 52.420 C 311.233 50.622,314.992 50.380,316.542 52.013 C 317.374 52.888,318.888 52.565,320.720 51.120 C 321.506 50.500,325.209 50.380,327.095 50.913 M354.417 50.674 C 354.967 50.769,356.003 50.910,356.720 50.987 C 357.766 51.099,358.112 51.210,358.470 51.546 C 358.716 51.776,359.310 52.161,359.792 52.402 C 360.273 52.642,360.667 52.896,360.667 52.965 C 360.667 53.034,360.938 53.237,361.269 53.415 C 361.600 53.593,362.036 53.983,362.238 54.280 C 362.440 54.577,362.801 54.974,363.040 55.162 C 363.279 55.350,363.596 55.869,363.744 56.316 C 363.892 56.762,364.171 57.268,364.363 57.439 C 365.012 58.017,365.667 60.316,365.667 62.018 C 365.667 62.518,365.799 63.106,366.000 63.500 C 366.596 64.669,366.349 66.548,365.548 66.938 C 365.384 67.018,361.087 67.121,356.000 67.167 L 346.750 67.250 346.699 68.146 C 346.659 68.849,346.718 69.118,346.972 69.396 C 347.151 69.591,347.488 70.132,347.721 70.598 C 348.295 71.747,349.106 72.419,350.332 72.763 C 350.888 72.919,351.382 73.111,351.431 73.190 C 351.565 73.406,352.791 73.352,353.917 73.080 C 354.467 72.947,355.314 72.837,355.799 72.836 L 356.682 72.833 358.216 71.354 C 360.310 69.336,360.737 69.133,362.250 69.444 C 365.009 70.010,365.613 70.655,365.183 72.577 C 364.841 74.103,361.166 77.623,359.621 77.903 C 359.276 77.965,358.742 78.236,358.436 78.505 C 357.493 79.333,354.034 79.705,351.477 79.253 C 350.711 79.117,349.703 79.005,349.237 79.003 C 348.552 79.001,348.317 78.921,347.998 78.581 C 347.769 78.338,347.146 78.026,346.511 77.836 C 345.315 77.479,343.211 75.606,342.577 74.333 C 342.417 74.012,342.107 73.535,341.887 73.272 C 341.667 73.008,341.387 72.553,341.265 72.259 C 341.142 71.966,340.816 71.469,340.540 71.155 C 339.803 70.315,339.676 69.616,339.560 65.750 C 339.469 62.724,339.492 62.163,339.727 61.605 C 339.877 61.250,340.000 60.607,340.000 60.175 C 340.000 59.565,340.088 59.309,340.398 59.018 C 340.622 58.807,340.922 58.195,341.084 57.616 C 341.428 56.390,343.234 54.379,344.715 53.573 C 345.193 53.314,345.720 52.974,345.887 52.818 C 346.054 52.663,346.744 52.334,347.420 52.088 C 348.096 51.841,348.740 51.529,348.852 51.394 C 349.250 50.914,349.768 50.749,351.167 50.654 C 351.946 50.601,352.771 50.545,353.000 50.530 C 353.229 50.514,353.867 50.580,354.417 50.674 M195.783 51.017 C 196.781 51.384,197.325 55.660,196.534 56.920 C 195.989 57.788,194.301 58.514,192.471 58.666 C 190.307 58.846,189.689 59.102,189.206 60.015 C 188.992 60.419,188.601 60.975,188.336 61.250 C 187.471 62.147,187.459 62.251,187.388 69.833 C 187.312 78.009,187.374 77.666,185.832 78.487 C 184.146 79.386,181.235 79.182,180.630 78.123 C 180.463 77.831,180.406 75.069,180.370 65.460 C 180.319 51.996,180.259 52.903,181.290 51.526 L 181.707 50.970 184.078 51.026 C 186.799 51.092,186.879 51.127,187.174 52.383 C 187.636 54.357,187.947 54.499,189.110 53.264 C 190.221 52.083,191.153 51.603,192.123 51.712 C 192.710 51.779,192.942 51.722,193.302 51.424 C 194.214 50.669,194.643 50.599,195.783 51.017 M213.750 50.928 C 214.826 51.017,215.164 51.114,215.504 51.431 C 215.735 51.646,216.469 52.000,217.135 52.218 L 218.346 52.613 219.775 51.871 C 221.562 50.943,224.111 50.677,225.115 51.313 C 225.998 51.872,225.998 51.870,225.997 65.667 L 225.995 78.417 225.567 80.000 C 225.332 80.871,225.101 81.971,225.055 82.444 C 224.966 83.355,221.402 87.244,220.351 87.578 C 220.133 87.647,219.639 87.945,219.253 88.239 C 218.867 88.534,218.070 88.909,217.484 89.073 C 216.897 89.237,216.138 89.513,215.798 89.686 C 213.764 90.719,207.311 89.925,205.552 88.424 C 204.827 87.806,203.974 87.333,203.583 87.333 C 202.811 87.333,201.923 86.590,201.310 85.431 C 201.120 85.072,200.721 84.547,200.423 84.264 C 199.987 83.850,199.826 83.497,199.594 82.448 C 199.436 81.732,199.187 80.938,199.041 80.684 C 198.676 80.048,198.857 79.719,199.700 79.492 C 200.094 79.385,200.916 79.156,201.526 78.982 C 203.208 78.504,205.000 78.760,205.000 79.479 C 205.000 79.562,205.338 79.972,205.750 80.390 C 206.162 80.809,206.500 81.255,206.500 81.383 C 206.500 81.724,206.991 82.109,207.766 82.376 C 208.142 82.505,208.768 82.867,209.158 83.180 C 210.411 84.188,214.328 84.078,215.638 82.998 C 215.971 82.724,216.321 82.500,216.416 82.500 C 217.070 82.500,217.833 81.638,217.833 80.900 C 217.833 80.348,217.947 79.995,218.256 79.590 C 218.826 78.843,219.089 77.232,218.822 76.121 C 218.585 75.132,218.326 75.003,217.675 75.551 C 217.401 75.781,216.692 76.131,216.099 76.328 C 215.506 76.526,214.734 76.915,214.385 77.194 C 213.697 77.743,213.612 77.747,209.750 77.404 C 208.242 77.270,206.268 76.406,205.164 75.396 C 204.934 75.185,204.416 74.897,204.014 74.755 C 203.165 74.455,201.867 73.225,201.372 72.250 C 201.186 71.883,200.809 71.419,200.535 71.217 C 199.920 70.765,199.501 69.608,199.496 68.345 C 199.494 67.783,199.363 67.130,199.163 66.690 C 198.731 65.737,198.681 62.459,199.090 61.875 C 199.231 61.673,199.498 60.813,199.683 59.963 C 200.010 58.458,200.239 57.933,200.856 57.270 C 201.021 57.093,201.252 56.666,201.370 56.320 C 201.632 55.548,203.035 54.038,203.779 53.727 C 204.080 53.601,204.563 53.239,204.851 52.922 C 205.437 52.278,206.383 51.919,207.912 51.759 C 208.521 51.695,209.039 51.537,209.245 51.350 C 210.070 50.607,209.982 50.615,213.750 50.928 M46.015 51.301 C 44.813 51.763,44.860 51.205,44.846 65.021 C 44.835 75.799,44.865 77.371,45.095 77.938 C 45.358 78.589,50.998 84.313,52.400 85.352 L 53.050 85.833 65.846 85.833 L 78.642 85.833 78.988 85.394 C 79.332 84.957,79.333 84.890,79.333 68.933 C 79.333 50.346,79.471 51.826,77.731 51.652 C 77.192 51.598,76.422 51.430,76.021 51.277 C 74.897 50.850,47.131 50.872,46.015 51.301 M58.066 54.223 L 58.500 54.508 58.500 62.512 C 58.500 73.623,57.571 72.667,68.365 72.667 C 75.784 72.667,75.844 72.672,76.625 73.383 C 76.982 73.708,77.000 73.845,77.000 76.204 L 77.000 78.683 76.292 79.004 C 74.649 79.750,60.042 79.429,58.020 78.603 C 57.505 78.393,56.717 78.086,56.268 77.921 C 54.395 77.232,52.000 74.362,52.000 72.807 C 52.000 72.304,51.887 71.560,51.748 71.154 C 51.535 70.529,51.503 69.203,51.540 62.499 L 51.583 54.583 52.333 54.196 C 53.298 53.697,57.292 53.716,58.066 54.223 M352.667 56.922 C 351.979 57.043,351.024 57.147,350.545 57.154 C 349.222 57.173,346.667 59.707,346.667 60.999 C 346.667 61.852,357.340 62.338,358.338 61.530 C 359.443 60.635,357.729 57.721,355.776 57.174 C 355.344 57.053,354.951 56.890,354.903 56.810 C 354.787 56.623,354.203 56.652,352.667 56.922 M210.750 57.249 C 210.658 57.279,210.363 57.353,210.093 57.413 C 208.219 57.830,205.823 61.667,206.063 63.866 C 206.117 64.352,206.229 65.425,206.314 66.250 C 206.541 68.467,206.746 68.950,207.657 69.413 C 208.075 69.625,208.627 69.994,208.884 70.233 C 209.804 71.088,210.270 71.220,212.417 71.236 C 215.323 71.256,215.502 71.197,217.049 69.695 C 218.970 67.829,218.917 67.986,218.917 64.189 L 218.917 60.962 218.317 60.439 C 217.987 60.152,217.527 59.617,217.294 59.250 C 216.624 58.197,215.828 57.537,215.000 57.347 C 214.316 57.190,211.145 57.117,210.750 57.249 M242.591 57.421 C 242.228 57.560,241.761 57.833,241.554 58.028 C 241.346 58.223,240.787 58.578,240.313 58.817 C 238.615 59.670,237.489 62.688,237.992 65.037 C 238.088 65.484,238.167 66.249,238.167 66.737 C 238.167 67.804,238.536 68.926,239.074 69.498 C 239.291 69.728,239.577 70.179,239.709 70.500 C 240.465 72.335,241.261 72.720,244.470 72.803 C 247.314 72.877,248.087 72.712,249.131 71.808 C 249.432 71.547,249.772 71.333,249.887 71.333 C 250.150 71.333,250.593 70.580,250.744 69.875 C 250.808 69.577,251.114 69.029,251.424 68.658 C 252.393 67.498,252.477 64.237,251.592 62.167 C 251.337 61.571,250.999 60.727,250.840 60.291 C 250.467 59.268,250.114 58.892,249.402 58.758 C 249.085 58.699,248.584 58.440,248.288 58.183 C 247.364 57.380,247.013 57.275,245.083 57.221 C 243.747 57.184,243.071 57.238,242.591 57.421 M287.970 57.355 C 286.100 57.881,283.833 61.161,283.833 63.342 C 283.833 63.844,283.692 64.449,283.465 64.916 C 283.137 65.591,283.120 65.734,283.313 66.212 C 283.433 66.508,283.645 67.125,283.785 67.583 C 283.925 68.042,284.197 68.930,284.389 69.558 C 284.711 70.610,284.792 70.724,285.433 71.025 C 285.816 71.205,286.423 71.604,286.783 71.912 C 287.143 72.220,287.845 72.592,288.344 72.739 C 288.842 72.885,289.348 73.067,289.467 73.143 C 289.588 73.219,290.064 73.181,290.545 73.057 C 291.018 72.934,291.801 72.833,292.283 72.833 C 293.661 72.833,294.400 72.452,294.977 71.443 C 295.247 70.970,295.850 70.211,296.317 69.756 C 297.107 68.987,297.167 68.873,297.167 68.125 C 297.167 67.649,297.303 67.053,297.500 66.667 C 297.995 65.697,297.989 62.770,297.491 62.240 C 297.302 62.039,296.934 61.322,296.672 60.646 C 296.243 59.539,296.115 59.369,295.390 58.943 C 294.946 58.683,294.396 58.298,294.167 58.089 C 293.938 57.879,293.563 57.608,293.333 57.487 C 292.809 57.209,288.837 57.111,287.970 57.355 M164.167 66.852 C 163.754 66.931,162.779 67.064,162.000 67.147 C 161.145 67.238,160.327 67.435,159.937 67.642 C 159.581 67.831,158.960 68.036,158.557 68.096 C 158.055 68.171,157.762 68.318,157.628 68.561 C 156.384 70.812,157.016 73.333,158.824 73.333 C 159.271 73.333,159.954 73.480,160.357 73.663 C 161.382 74.128,162.515 74.105,163.112 73.607 C 163.371 73.391,163.846 73.082,164.167 72.920 C 166.000 71.999,166.451 71.236,166.518 68.947 C 166.585 66.650,166.344 66.435,164.167 66.852 M268.417 69.913 C 270.519 70.380,271.494 71.259,271.833 72.993 C 271.931 73.494,272.172 74.225,272.368 74.618 L 272.725 75.333 272.377 75.708 C 272.185 75.914,271.841 76.508,271.613 77.028 C 271.375 77.569,271.031 78.058,270.807 78.173 C 270.592 78.284,270.214 78.563,269.966 78.794 C 269.482 79.245,269.379 79.256,267.225 79.074 L 265.866 78.959 264.871 77.938 C 262.817 75.830,262.762 72.685,264.755 71.364 C 265.196 71.072,265.648 70.833,265.758 70.833 C 265.869 70.833,266.062 70.709,266.188 70.556 C 266.538 70.133,267.386 69.662,267.666 69.736 C 267.804 69.773,268.142 69.852,268.417 69.913 " stroke="none" fill="#1c2443" fill-rule="evenodd"></path></g></svg>