<svg id="svg" version="1.1" xmlns="http://www.w3.org/2000/svg" xmlns:xlink="http://www.w3.org/1999/xlink" width="400" height="435.34482758620686" viewBox="0, 0, 400,435.34482758620686"><g id="svgg"><path id="path0" d="M103.400 13.610 C 95.455 14.613,87.115 16.535,83.285 18.245 C 82.028 18.806,79.749 19.836,78.219 20.533 C 49.740 33.511,38.497 71.542,56.889 92.687 C 66.875 104.168,80.855 110.777,109.118 117.376 L 115.236 118.805 146.020 118.702 L 176.805 118.600 174.532 115.206 C 170.222 108.768,163.103 102.623,155.501 98.779 C 153.245 97.639,151.220 96.565,151.000 96.394 C 149.281 95.057,139.757 92.520,124.772 89.407 C 93.701 82.951,81.744 73.796,88.016 61.264 C 93.490 50.327,110.977 45.500,124.400 51.220 C 125.610 51.736,126.690 52.258,126.800 52.380 C 126.910 52.502,127.533 52.871,128.184 53.201 C 131.597 54.929,137.199 61.828,138.983 66.500 L 139.709 68.400 159.465 68.400 L 179.222 68.400 178.990 65.700 C 176.132 32.517,141.685 8.779,103.400 13.610 M284.200 13.460 C 283.540 13.537,281.290 13.793,279.200 14.029 C 254.753 16.789,229.932 30.422,215.166 49.200 C 212.159 53.024,206.101 62.061,205.367 63.818 C 205.058 64.557,204.004 66.796,203.025 68.792 C 196.619 81.857,193.549 100.092,195.061 116.100 L 195.316 118.800 215.393 118.800 L 235.470 118.800 234.944 115.300 C 233.683 106.918,234.462 97.130,237.008 89.335 C 238.282 85.437,241.028 78.913,241.611 78.400 C 241.736 78.290,242.354 77.300,242.985 76.200 C 260.650 45.377,306.489 39.701,334.830 64.826 L 337.507 67.200 360.354 67.200 C 372.919 67.200,383.200 67.095,383.200 66.967 C 383.200 66.413,378.113 57.927,376.054 55.046 C 361.574 34.786,337.757 19.821,312.600 15.176 C 303.383 13.475,290.666 12.706,284.200 13.460 M287.200 105.198 L 287.200 118.795 319.500 118.898 L 351.800 119.000 351.902 150.100 C 351.959 167.205,352.108 181.200,352.234 181.200 C 354.440 181.200,373.600 160.562,373.600 158.186 C 373.600 158.037,374.167 157.080,374.860 156.058 C 383.967 142.624,389.358 122.905,389.883 101.100 L 390.112 91.600 338.656 91.600 L 287.200 91.600 287.200 105.198 M45.487 137.500 C 44.704 138.965,47.208 152.713,49.221 158.000 C 50.830 162.228,56.314 172.218,57.565 173.200 C 57.705 173.310,58.770 174.608,59.932 176.085 C 64.863 182.351,72.529 188.317,81.485 192.860 L 86.200 195.251 86.303 166.726 C 86.360 151.037,86.321 137.975,86.216 137.700 C 86.001 137.137,45.786 136.940,45.487 137.500 M352.400 257.400 L 352.400 281.600 369.590 281.600 L 386.780 281.600 386.609 280.500 C 386.515 279.895,386.339 278.098,386.217 276.506 C 385.112 262.062,376.002 247.790,361.941 238.475 C 358.233 236.018,353.249 233.200,352.611 233.200 C 352.495 233.200,352.400 244.090,352.400 257.400 M256.400 290.813 C 256.400 291.040,256.967 292.705,257.661 294.513 C 264.365 311.993,281.396 322.587,315.011 330.188 C 340.442 335.939,349.800 341.403,351.151 351.288 C 353.356 367.409,338.775 379.296,318.607 377.820 C 305.107 376.832,294.031 366.123,291.799 351.900 L 291.564 350.400 272.382 350.400 L 253.200 350.400 253.208 353.300 C 253.285 381.540,279.154 408.545,310.187 412.781 C 348.292 417.983,382.082 398.092,388.580 366.635 C 395.045 335.335,377.154 311.790,341.457 304.623 C 326.437 301.607,318.187 299.493,312.200 297.125 C 305.788 294.589,304.347 293.900,301.696 292.100 L 299.192 290.400 277.796 290.400 C 263.353 290.400,256.400 290.534,256.400 290.813 M50.553 320.161 C 46.061 322.252,44.443 327.175,47.096 330.680 C 48.312 332.288,50.348 333.267,55.317 334.636 C 59.619 335.821,60.127 336.269,59.923 338.697 C 59.611 342.409,52.828 342.778,51.462 339.158 C 51.039 338.038,50.937 338.000,48.312 338.000 C 45.270 338.000,45.047 338.303,46.150 340.942 C 50.100 350.397,66.041 347.898,65.516 337.906 C 65.288 333.559,63.702 332.222,56.400 330.221 C 51.316 328.827,50.114 327.449,52.182 325.382 C 53.798 323.765,56.897 323.966,58.626 325.800 C 59.854 327.103,60.116 327.200,62.386 327.200 C 65.202 327.200,65.515 326.850,64.618 324.704 C 62.606 319.889,55.835 317.702,50.553 320.161 M125.000 319.882 C 109.612 326.138,113.441 346.600,130.000 346.600 C 137.644 346.600,142.759 342.276,143.974 334.787 C 144.690 330.377,145.451 330.800,136.800 330.800 L 129.200 330.800 129.200 332.800 L 129.200 334.800 133.533 334.800 C 138.574 334.800,138.611 334.818,137.583 336.834 C 134.297 343.275,124.863 343.273,121.924 336.831 C 118.232 328.739,127.617 320.815,134.978 325.811 C 136.543 326.873,142.800 327.331,142.800 326.383 C 142.800 325.385,139.018 322.020,136.494 320.771 C 133.206 319.145,127.835 318.729,125.000 319.882 M69.074 319.859 C 68.923 320.010,68.800 326.043,68.800 333.267 L 68.800 346.400 78.000 346.400 L 87.200 346.400 87.200 343.810 L 87.200 341.220 80.900 341.110 L 74.600 341.000 74.600 338.400 L 74.600 335.800 79.700 335.688 L 84.800 335.576 84.800 333.000 L 84.800 330.424 79.700 330.312 L 74.600 330.200 74.600 327.600 L 74.600 325.000 80.919 324.890 L 87.238 324.779 87.119 322.290 L 87.000 319.800 78.174 319.693 C 73.320 319.633,69.225 319.708,69.074 319.859 M90.696 319.837 C 90.533 320.000,90.400 326.043,90.400 333.267 L 90.400 346.400 93.400 346.400 L 96.400 346.400 96.400 341.800 L 96.400 337.200 98.456 337.200 C 99.936 337.200,100.667 337.396,101.067 337.900 C 101.372 338.285,102.894 340.355,104.449 342.500 L 107.275 346.400 110.653 346.400 L 114.031 346.400 111.739 343.300 C 110.478 341.595,109.029 339.750,108.519 339.200 C 107.408 338.002,106.928 336.691,107.528 336.491 C 114.224 334.259,114.270 324.105,107.600 320.547 C 106.133 319.764,91.388 319.145,90.696 319.837 M147.474 319.859 C 147.323 320.010,147.200 326.043,147.200 333.267 L 147.200 346.400 156.419 346.400 L 165.638 346.400 165.519 343.900 L 165.400 341.400 159.100 341.290 L 152.800 341.180 152.800 338.390 L 152.800 335.600 158.000 335.600 L 163.200 335.600 163.200 333.000 L 163.200 330.400 158.000 330.400 L 152.800 330.400 152.800 327.600 L 152.800 324.800 159.219 324.800 L 165.638 324.800 165.519 322.300 L 165.400 319.800 156.574 319.693 C 151.720 319.633,147.625 319.708,147.474 319.859 M105.311 325.300 C 106.725 326.366,107.241 328.535,106.438 330.042 C 105.402 331.986,104.322 332.387,100.100 332.394 L 96.400 332.400 96.400 328.600 L 96.400 324.800 100.524 324.800 C 103.202 324.800,104.880 324.975,105.311 325.300 M55.200 353.634 C 40.235 358.875,43.518 379.744,59.400 380.334 C 68.033 380.654,74.358 374.561,74.394 365.891 L 74.400 364.382 66.900 364.491 L 59.400 364.600 59.400 366.600 L 59.400 368.600 63.923 368.713 C 69.046 368.842,69.179 368.992,66.825 372.000 C 60.654 379.881,47.967 372.513,51.821 363.287 C 53.955 358.179,63.297 355.951,65.774 359.958 C 65.941 360.228,67.452 360.400,69.646 360.400 L 73.245 360.400 72.523 359.144 C 71.710 357.732,68.229 354.800,67.364 354.800 C 67.054 354.800,66.800 354.644,66.800 354.453 C 66.800 353.002,58.647 352.427,55.200 353.634 M78.900 353.493 L 77.200 353.646 77.200 366.823 L 77.200 380.000 80.200 380.000 L 83.200 380.000 83.200 371.376 C 83.200 365.642,83.336 362.837,83.606 363.004 C 84.011 363.254,87.333 367.512,93.400 375.557 L 96.600 379.800 99.300 379.918 L 102.000 380.037 102.000 366.718 L 102.000 353.400 99.900 353.466 C 98.745 353.503,97.575 353.548,97.300 353.566 C 96.917 353.592,96.800 355.560,96.800 361.976 C 96.800 366.599,96.636 370.454,96.435 370.579 C 96.113 370.777,92.007 365.661,85.261 356.655 C 82.879 353.475,82.547 353.185,81.400 353.276 C 80.960 353.311,79.835 353.409,78.900 353.493 M116.690 353.526 C 116.331 353.595,115.921 354.045,115.778 354.526 C 115.635 355.007,114.646 357.290,113.580 359.600 C 112.514 361.910,110.029 367.445,108.058 371.900 L 104.475 380.000 107.739 380.000 L 111.004 380.000 111.939 377.590 L 112.873 375.180 118.908 375.290 L 124.942 375.400 125.768 377.700 L 126.595 380.000 129.853 380.000 L 133.112 380.000 130.311 373.700 C 128.770 370.235,126.840 365.960,126.023 364.200 C 125.205 362.440,123.850 359.335,123.011 357.300 C 121.719 354.164,121.342 353.592,120.543 353.550 C 117.982 353.414,117.292 353.410,116.690 353.526 M160.653 353.529 C 160.065 353.646,160.000 354.967,160.000 366.829 L 160.000 380.000 162.800 380.000 L 165.600 380.000 165.600 376.033 C 165.600 370.939,165.575 370.991,168.047 371.027 L 170.085 371.057 173.451 375.528 L 176.817 380.000 180.032 380.000 C 182.496 380.000,183.178 379.883,182.950 379.500 C 182.786 379.225,181.213 377.122,179.453 374.826 C 176.494 370.966,176.313 370.621,177.027 370.226 C 183.505 366.652,183.711 357.958,177.400 354.464 C 176.284 353.847,162.840 353.096,160.653 353.529 M182.974 353.641 C 182.892 353.773,183.605 355.033,184.557 356.441 C 185.510 357.848,187.574 360.932,189.144 363.293 L 192.000 367.586 192.000 373.793 L 192.000 380.000 194.800 380.000 L 197.600 380.000 197.600 373.679 L 197.600 367.358 202.182 360.479 L 206.763 353.600 203.682 353.609 L 200.600 353.618 197.800 358.000 C 196.260 360.410,194.900 362.386,194.777 362.391 C 194.515 362.402,189.754 355.266,189.388 354.314 C 189.138 353.662,183.334 353.053,182.974 353.641 M135.200 366.800 L 135.200 380.000 142.900 379.991 C 150.908 379.982,152.187 379.750,154.492 377.884 C 157.358 375.563,157.321 368.363,154.434 366.818 C 153.378 366.253,153.386 365.824,154.486 364.279 C 156.715 361.149,154.621 355.517,150.674 354.025 C 150.031 353.783,146.470 353.600,142.374 353.600 L 135.200 353.600 135.200 366.800 M148.711 359.023 C 149.790 359.778,149.909 361.796,148.938 362.869 C 148.387 363.478,147.651 363.600,144.538 363.600 L 140.800 363.600 140.800 361.267 C 140.800 359.983,140.920 358.813,141.067 358.667 C 141.635 358.099,147.802 358.386,148.711 359.023 M175.435 359.722 C 178.449 363.228,175.620 366.120,169.377 365.917 L 165.800 365.800 165.682 362.635 C 165.513 358.100,165.290 358.304,170.237 358.464 C 174.304 358.595,174.509 358.644,175.435 359.722 M120.952 366.000 C 122.899 371.101,123.034 370.800,118.800 370.800 C 114.728 370.800,114.760 370.835,115.962 367.753 C 116.381 366.679,117.127 364.752,117.620 363.472 C 118.726 360.598,118.956 360.773,120.952 366.000 M150.274 369.670 C 153.195 372.414,150.765 374.859,145.261 374.713 L 141.000 374.600 140.882 371.700 L 140.765 368.800 145.057 368.800 C 148.913 368.800,149.442 368.888,150.274 369.670 M51.694 387.568 C 48.194 388.462,45.864 391.195,45.853 394.423 C 45.841 397.620,48.322 399.682,53.800 401.029 C 59.722 402.486,61.635 405.014,59.179 408.136 C 56.954 410.965,50.000 409.831,50.000 406.640 C 50.000 406.131,49.549 406.000,47.800 406.000 C 45.097 406.000,44.953 406.574,46.936 409.451 C 51.755 416.444,64.017 413.835,63.994 405.822 C 63.983 401.999,62.027 400.077,56.830 398.784 C 53.017 397.835,50.616 396.741,50.249 395.784 C 48.568 391.402,55.163 389.002,58.563 392.759 C 59.734 394.053,63.626 394.005,63.302 392.700 C 62.354 388.882,56.568 386.324,51.694 387.568 M209.000 387.762 C 203.062 389.230,199.075 394.297,199.055 400.400 C 199.011 414.128,218.592 418.544,224.759 406.197 C 225.661 404.389,226.718 399.785,226.321 399.388 C 226.151 399.217,218.060 399.090,213.500 399.185 C 212.992 399.196,212.800 399.529,212.800 400.400 L 212.800 401.600 217.400 401.600 C 222.531 401.600,222.540 401.606,221.300 404.284 C 217.011 413.542,203.200 410.421,203.200 400.193 C 203.200 392.864,211.622 388.361,217.961 392.300 C 219.652 393.350,220.470 393.600,222.227 393.600 C 224.824 393.600,224.900 393.284,222.798 391.244 C 219.307 387.857,214.019 386.522,209.000 387.762 M67.467 387.867 C 67.320 388.013,67.200 388.823,67.200 389.667 L 67.200 391.200 70.993 391.200 L 74.787 391.200 74.893 401.900 L 75.000 412.600 77.100 412.721 L 79.200 412.842 79.200 402.021 L 79.200 391.200 83.000 391.200 L 86.800 391.200 86.800 389.400 L 86.800 387.600 77.267 387.600 C 72.023 387.600,67.613 387.720,67.467 387.867 M100.667 387.867 C 100.520 388.013,100.400 393.683,100.400 400.467 L 100.400 412.800 102.600 412.800 L 104.800 412.800 104.800 407.600 L 104.800 402.400 109.800 402.400 L 114.800 402.400 114.800 400.600 L 114.800 398.800 109.785 398.800 L 104.770 398.800 104.885 395.100 L 105.000 391.400 111.100 391.290 L 117.200 391.179 117.200 389.390 L 117.200 387.600 109.067 387.600 C 104.593 387.600,100.813 387.720,100.667 387.867 M121.056 387.877 C 120.915 388.018,120.800 388.817,120.800 389.652 L 120.800 391.171 124.700 391.286 L 128.600 391.400 128.707 402.100 L 128.813 412.800 130.807 412.800 L 132.800 412.800 132.800 402.633 C 132.800 390.109,132.395 391.200,137.043 391.200 L 140.800 391.200 140.800 389.600 L 140.800 388.000 139.100 387.958 C 128.879 387.702,121.265 387.668,121.056 387.877 M144.667 387.867 C 144.183 388.350,144.368 404.800,144.876 406.494 C 147.141 414.057,158.980 415.909,163.672 409.435 C 165.472 406.952,165.650 405.697,165.520 396.400 L 165.400 387.800 163.600 387.800 L 161.800 387.800 161.600 396.631 C 161.405 405.230,161.374 405.500,160.400 406.937 C 158.132 410.283,153.689 410.906,150.862 408.273 C 148.818 406.370,148.615 405.478,148.529 398.000 C 148.485 394.150,148.438 390.235,148.424 389.300 L 148.400 387.600 146.667 387.600 C 145.713 387.600,144.813 387.720,144.667 387.867 M171.200 400.200 L 171.200 412.800 173.200 412.800 L 175.200 412.800 175.200 403.667 C 175.200 393.521,175.231 393.371,176.855 395.613 C 177.487 396.485,178.349 397.604,178.772 398.099 C 179.195 398.595,181.900 402.105,184.783 405.900 L 190.026 412.800 192.219 412.800 L 194.411 412.800 194.306 400.300 L 194.200 387.800 193.052 387.669 C 192.420 387.597,191.475 387.645,190.952 387.776 L 190.000 388.015 190.000 397.423 L 190.000 406.831 188.286 404.716 C 187.343 403.552,185.289 400.890,183.722 398.800 C 175.299 387.569,175.461 387.731,172.500 387.640 L 171.200 387.600 171.200 400.200 M90.800 400.400 L 90.800 412.800 93.000 412.800 L 95.200 412.800 95.200 400.400 L 95.200 388.000 93.000 388.000 L 90.800 388.000 90.800 400.400 " stroke="none" fill="#e3e3e2" fill-rule="evenodd"></path><path id="path1" d="M121.610 13.219 C 131.147 14.396,140.519 17.200,147.854 21.070 C 151.152 22.810,152.554 23.676,157.800 27.207 C 169.400 35.016,179.753 53.959,179.122 66.221 L 179.000 68.600 159.219 68.600 L 139.438 68.600 138.778 66.757 C 136.518 60.439,130.098 53.894,123.400 51.080 C 111.177 45.944,93.289 51.008,88.371 60.998 C 81.845 74.255,95.484 83.790,130.197 90.240 C 146.806 93.326,157.248 97.843,166.800 106.074 C 171.460 110.089,177.938 118.542,176.715 119.011 C 176.430 119.120,162.248 119.163,145.199 119.105 L 114.200 119.000 105.600 116.904 C 78.863 110.388,63.873 102.700,55.089 91.000 C 40.315 71.321,48.366 38.626,71.600 23.950 C 85.293 15.301,104.718 11.133,121.610 13.219 M302.332 13.217 C 317.069 14.806,333.809 20.126,344.432 26.598 C 346.420 27.809,348.130 28.800,348.232 28.800 C 349.878 28.800,362.183 38.864,367.901 44.887 C 374.565 51.907,383.600 64.858,383.600 67.390 C 383.600 67.506,373.244 67.600,360.586 67.600 L 337.572 67.600 334.486 64.962 C 332.789 63.512,329.870 61.328,328.000 60.110 C 326.130 58.891,324.114 57.559,323.520 57.150 C 313.615 50.323,291.804 47.274,278.038 50.791 C 264.797 54.173,248.778 65.616,243.959 75.135 C 243.662 75.721,242.757 77.280,241.948 78.600 C 236.099 88.139,233.186 104.385,235.314 115.600 C 235.627 117.250,235.809 118.735,235.718 118.900 C 235.627 119.065,226.497 119.200,215.429 119.200 L 195.305 119.200 195.045 117.700 C 191.916 99.645,198.070 73.322,209.265 56.876 C 210.659 54.828,212.009 52.779,212.264 52.322 C 212.519 51.866,212.884 51.381,213.074 51.246 C 213.265 51.111,214.041 50.190,214.799 49.200 C 233.746 24.455,269.653 9.694,302.332 13.217 M389.879 102.100 C 389.483 121.762,385.958 136.583,378.372 150.484 C 377.067 152.874,376.000 154.936,376.000 155.067 C 376.000 155.472,371.999 161.241,369.249 164.800 C 365.812 169.248,359.899 175.366,355.400 179.130 L 351.800 182.141 351.698 150.673 L 351.595 119.205 319.298 119.102 L 287.000 119.000 286.895 105.100 L 286.790 91.200 338.444 91.200 L 390.099 91.200 389.879 102.100 M86.354 137.344 C 86.682 137.740,86.777 145.755,86.703 166.724 L 86.600 195.559 84.367 194.651 C 82.347 193.830,81.167 193.201,75.200 189.759 C 67.340 185.226,56.746 174.084,52.609 166.000 C 47.904 156.805,45.205 146.933,45.201 138.900 L 45.200 136.800 65.551 136.800 C 82.225 136.800,85.984 136.898,86.354 137.344 M355.675 234.438 C 374.084 243.694,385.988 260.844,386.884 279.400 L 387.000 281.800 369.500 281.904 L 352.000 282.008 352.000 257.404 C 352.000 243.872,352.094 232.800,352.209 232.800 C 352.324 232.800,353.884 233.537,355.675 234.438 M301.158 291.408 C 307.036 295.631,324.702 301.445,337.600 303.402 C 368.984 308.164,389.142 327.047,389.907 352.400 C 390.531 373.059,381.943 390.048,365.073 401.532 C 357.415 406.744,350.384 409.619,340.000 411.781 C 319.026 416.149,296.223 412.625,282.746 402.933 C 281.727 402.200,280.749 401.600,280.574 401.600 C 278.975 401.600,267.622 390.653,264.262 385.870 C 258.346 377.449,253.734 365.530,253.015 356.800 C 252.879 355.150,252.674 353.035,252.560 352.100 L 252.351 350.400 272.157 350.400 L 291.964 350.400 292.216 351.900 C 295.436 371.074,311.186 381.002,331.200 376.473 C 344.083 373.558,351.715 364.563,351.118 353.000 C 350.533 341.689,344.176 337.837,313.400 330.143 C 277.817 321.247,260.282 309.410,256.453 291.700 L 256.085 290.000 277.642 290.000 L 299.198 290.000 301.158 291.408 M59.164 319.426 C 62.610 320.450,66.513 325.400,65.353 327.276 C 64.644 328.423,59.787 327.584,58.541 326.100 C 56.937 324.189,54.349 323.957,52.632 325.570 C 50.381 327.685,52.860 329.622,59.065 330.597 C 67.338 331.896,68.329 342.945,60.467 346.230 C 53.727 349.046,45.180 344.607,45.198 338.300 C 45.200 337.533,45.131 337.549,48.678 337.461 L 51.157 337.400 51.717 338.825 C 53.105 342.359,58.974 342.309,59.812 338.756 C 60.256 336.876,58.747 335.750,54.200 334.571 C 47.887 332.935,45.604 330.941,45.601 327.060 C 45.597 321.020,52.137 317.339,59.164 319.426 M136.249 320.241 C 138.795 321.445,142.127 324.312,143.045 326.087 L 143.621 327.200 139.834 327.200 C 137.506 327.200,135.942 327.030,135.775 326.759 C 135.625 326.516,134.579 325.888,133.451 325.363 C 124.886 321.375,117.176 331.877,123.731 338.604 C 128.003 342.990,133.111 342.536,136.854 337.440 C 138.491 335.212,138.472 335.200,133.380 335.200 L 128.760 335.200 128.880 332.900 L 129.000 330.600 136.752 330.491 L 144.504 330.382 144.322 333.491 C 143.437 348.632,122.656 352.462,116.389 338.640 C 110.954 326.653,124.086 314.487,136.249 320.241 M87.518 322.090 L 87.636 324.780 81.318 324.890 L 75.000 325.000 74.881 327.488 L 74.762 329.976 79.881 330.088 L 85.000 330.200 85.118 332.888 L 85.236 335.576 80.118 335.688 L 75.000 335.800 74.881 338.290 L 74.762 340.779 81.081 340.890 L 87.400 341.000 87.518 343.700 L 87.637 346.400 78.018 346.400 L 68.400 346.400 68.400 333.067 C 68.400 325.733,68.523 319.610,68.674 319.459 C 68.824 319.309,73.099 319.234,78.174 319.293 L 87.400 319.400 87.518 322.090 M107.800 320.280 C 114.226 323.682,114.694 332.244,108.670 336.191 C 107.156 337.183,106.870 336.673,114.106 345.900 C 114.414 346.293,113.692 346.397,110.749 346.384 L 107.000 346.368 103.800 342.013 L 100.600 337.658 98.700 337.629 L 96.800 337.600 96.800 342.000 L 96.800 346.400 93.600 346.400 L 90.400 346.400 90.400 333.067 C 90.400 325.733,90.535 319.596,90.700 319.428 C 91.449 318.668,106.136 319.399,107.800 320.280 M165.518 322.100 L 165.400 325.000 159.300 324.868 L 153.200 324.735 153.200 327.356 L 153.200 329.976 158.300 330.088 L 163.400 330.200 163.518 332.900 L 163.637 335.600 158.418 335.600 L 153.200 335.600 153.200 338.200 L 153.200 340.800 159.400 340.800 L 165.600 340.800 165.600 343.600 L 165.600 346.400 156.200 346.400 L 146.800 346.400 146.800 333.067 C 146.800 325.733,146.920 319.613,147.067 319.467 C 147.213 319.320,151.451 319.200,156.484 319.200 L 165.635 319.200 165.518 322.100 M96.800 328.400 L 96.800 332.000 100.174 332.000 C 104.318 332.000,105.418 331.610,106.263 329.838 C 107.774 326.669,105.455 324.800,100.013 324.800 L 96.800 324.800 96.800 328.400 M63.939 353.010 C 67.705 353.898,73.600 358.447,73.600 360.466 C 73.600 361.364,66.456 360.814,64.963 359.801 C 56.108 353.791,46.483 365.800,54.413 372.964 C 58.920 377.036,68.000 374.363,68.000 368.964 C 68.000 368.888,65.975 368.775,63.500 368.713 L 59.000 368.600 58.881 366.765 C 58.701 364.002,58.816 363.965,67.252 364.091 L 74.600 364.200 74.543 366.826 C 74.191 383.052,50.274 386.051,45.736 370.438 C 42.666 359.878,52.625 350.343,63.939 353.010 M87.004 358.452 C 89.202 361.341,92.044 365.076,93.320 366.752 C 94.596 368.428,95.811 369.860,96.020 369.933 C 96.252 370.015,96.400 366.785,96.400 361.633 L 96.400 353.200 99.400 353.200 L 102.400 353.200 102.460 361.900 C 102.493 366.685,102.568 372.310,102.627 374.400 C 102.800 380.576,102.864 380.456,99.482 380.317 L 96.635 380.200 94.132 377.000 C 92.756 375.240,89.778 371.344,87.515 368.343 L 83.400 362.887 83.292 371.643 L 83.185 380.400 80.192 380.400 L 77.200 380.400 77.200 366.800 L 77.200 353.200 80.104 353.200 L 83.007 353.200 87.004 358.452 M127.338 366.300 C 134.309 381.857,134.054 380.462,129.904 380.316 L 126.608 380.200 125.737 378.447 C 125.258 377.484,124.777 376.354,124.667 375.936 C 124.483 375.229,124.080 375.185,118.751 375.289 L 113.032 375.400 112.053 377.900 L 111.074 380.400 107.690 380.400 C 104.653 380.400,104.329 380.328,104.520 379.700 C 105.004 378.107,106.395 374.741,108.281 370.600 C 109.383 368.180,111.595 363.275,113.197 359.700 L 116.109 353.200 118.788 353.200 L 121.468 353.200 127.338 366.300 M150.674 353.625 C 154.723 355.155,156.924 361.091,154.664 364.389 L 153.728 365.755 155.043 367.070 C 158.756 370.783,157.387 377.221,152.400 379.503 C 151.273 380.019,149.442 380.149,143.000 380.172 L 135.000 380.200 134.895 366.700 L 134.789 353.200 142.169 353.200 C 146.410 353.200,150.027 353.381,150.674 353.625 M178.449 354.607 C 183.674 358.281,183.649 365.885,178.400 369.515 C 176.426 370.879,176.243 370.286,180.201 375.344 C 184.366 380.666,184.370 380.457,180.100 380.316 L 176.600 380.200 173.400 375.921 L 170.200 371.641 168.100 371.621 L 166.000 371.600 166.000 376.017 L 166.000 380.434 162.900 380.317 L 159.800 380.200 159.695 366.678 L 159.589 353.156 168.161 353.278 L 176.734 353.400 178.449 354.607 M191.400 357.042 C 192.720 359.140,194.005 361.151,194.255 361.511 C 194.696 362.145,195.847 360.624,199.864 354.100 C 200.472 353.113,206.800 352.676,206.800 353.620 C 206.800 353.852,205.043 356.687,202.895 359.920 C 197.691 367.757,198.015 366.843,197.900 374.000 L 197.800 380.200 194.800 380.200 L 191.800 380.200 191.690 373.908 L 191.580 367.617 186.990 360.627 C 184.465 356.783,182.400 353.539,182.400 353.419 C 182.400 353.298,183.885 353.206,185.700 353.213 L 189.000 353.227 191.400 357.042 M141.467 359.067 C 141.320 359.213,141.200 360.293,141.200 361.467 L 141.200 363.600 144.226 363.600 C 148.996 363.600,151.434 361.330,148.711 359.423 C 147.804 358.787,142.030 358.504,141.467 359.067 M166.000 362.200 L 166.000 365.600 169.620 365.600 C 174.668 365.600,176.000 364.838,176.000 361.949 C 176.000 359.543,174.589 358.800,170.018 358.800 L 166.000 358.800 166.000 362.200 M116.913 366.100 L 115.295 370.200 118.698 370.316 C 122.893 370.460,122.686 370.900,120.688 366.088 C 118.630 361.128,118.876 361.128,116.913 366.100 M141.365 369.748 C 141.249 370.049,141.210 371.264,141.277 372.448 L 141.400 374.600 144.200 374.723 C 149.981 374.977,152.978 372.495,150.069 369.862 C 149.094 368.980,141.697 368.883,141.365 369.748 M59.707 388.125 C 61.705 389.295,63.551 391.491,63.700 392.873 C 63.889 394.624,59.721 394.441,57.898 392.618 C 55.532 390.252,51.568 390.779,50.393 393.617 C 49.399 396.017,50.599 396.785,58.527 398.824 C 63.707 400.156,66.005 405.392,63.275 409.642 C 59.105 416.132,46.875 414.255,45.398 406.900 L 45.136 405.600 47.561 405.600 C 49.817 405.600,50.002 405.670,50.237 406.606 C 51.144 410.221,57.963 410.501,59.432 406.985 C 60.602 404.184,58.977 402.542,53.739 401.234 C 47.578 399.695,45.600 397.956,45.600 394.079 C 45.600 388.233,53.909 384.726,59.707 388.125 M217.296 387.632 C 220.414 388.683,225.140 392.315,225.189 393.700 C 225.225 394.702,219.879 393.955,218.072 392.706 C 212.073 388.561,203.600 392.950,203.600 400.204 C 203.600 410.636,218.032 413.115,221.422 403.265 L 221.927 401.800 217.163 401.688 L 212.400 401.575 212.400 400.230 C 212.400 398.440,212.567 398.400,220.045 398.400 C 227.342 398.400,227.038 398.231,226.437 401.961 C 224.584 413.466,210.284 417.801,202.309 409.275 C 192.764 399.071,203.827 383.095,217.296 387.632 M87.121 389.500 L 87.242 391.600 83.427 391.600 L 79.613 391.600 79.507 402.300 L 79.400 413.000 77.000 413.000 L 74.600 413.000 74.493 402.300 L 74.387 391.600 70.593 391.600 L 66.800 391.600 66.800 389.667 C 66.800 387.035,66.193 387.174,77.173 387.293 L 87.000 387.400 87.121 389.500 M95.200 400.200 L 95.200 413.200 92.800 413.200 L 90.400 413.200 90.400 400.467 C 90.400 386.196,90.198 387.200,93.067 387.200 L 95.200 387.200 95.200 400.200 M117.200 389.390 L 117.200 391.579 111.100 391.690 L 105.000 391.800 104.884 395.088 L 104.768 398.376 109.884 398.488 L 115.000 398.600 115.000 400.600 L 115.000 402.600 110.000 402.800 L 105.000 403.000 104.888 408.100 L 104.776 413.200 102.588 413.200 L 100.400 413.200 100.400 400.200 L 100.400 387.200 108.800 387.200 L 117.200 387.200 117.200 389.390 M141.024 388.152 C 141.155 388.675,141.203 389.620,141.131 390.252 L 141.000 391.400 137.107 391.514 L 133.213 391.629 133.107 402.314 L 133.000 413.000 130.700 413.120 L 128.400 413.240 128.400 402.420 L 128.400 391.600 124.600 391.600 L 120.800 391.600 120.800 389.667 C 120.800 387.048,120.168 387.200,131.059 387.200 L 140.785 387.200 141.024 388.152 M148.800 396.200 C 149.017 405.726,149.205 406.602,151.420 408.344 C 153.847 410.254,158.294 409.593,160.105 407.055 C 160.953 405.866,161.011 405.317,161.200 396.600 L 161.400 387.400 163.600 387.400 L 165.800 387.400 165.908 396.128 C 165.970 401.159,165.844 405.496,165.609 406.366 C 163.601 413.823,152.523 416.174,146.917 410.334 C 144.624 407.945,144.273 406.324,144.091 397.271 C 143.883 386.916,143.833 387.125,146.513 387.280 L 148.600 387.400 148.800 396.200 M176.786 389.246 C 177.564 390.261,179.910 393.308,182.000 396.016 C 184.090 398.725,186.742 402.193,187.893 403.723 L 189.985 406.506 190.093 396.953 L 190.200 387.400 192.400 387.400 L 194.600 387.400 194.706 400.300 L 194.811 413.200 192.432 413.200 L 190.052 413.200 186.701 408.900 C 184.858 406.535,181.651 402.358,179.575 399.617 L 175.800 394.634 175.693 403.917 L 175.585 413.200 173.193 413.200 L 170.800 413.200 170.800 400.467 C 170.800 386.284,170.637 387.121,173.370 387.282 C 175.225 387.391,175.475 387.535,176.786 389.246 " stroke="none" fill="#232322" fill-rule="evenodd"></path><path id="path2" d="M102.200 13.397 C 97.693 13.957,93.570 14.697,93.268 14.998 C 92.990 15.276,93.187 15.259,95.645 14.784 C 100.450 13.858,104.177 13.498,111.800 13.225 L 119.800 12.938 113.000 12.919 C 109.260 12.908,104.400 13.124,102.200 13.397 M280.800 13.400 C 275.472 13.991,271.522 14.679,270.275 15.233 C 269.458 15.597,269.467 15.608,270.400 15.400 C 282.103 12.794,297.767 12.571,310.567 14.829 C 312.969 15.252,315.024 15.509,315.134 15.399 C 315.244 15.290,315.258 15.200,315.167 15.199 C 315.075 15.199,313.470 14.917,311.600 14.572 C 302.002 12.803,290.229 12.355,280.800 13.400 M123.000 13.749 C 128.502 14.670,129.986 14.843,128.604 14.401 C 127.031 13.897,125.556 13.663,122.400 13.417 C 119.804 13.214,119.805 13.215,123.000 13.749 M255.600 19.532 C 252.467 20.777,249.111 22.382,250.600 21.923 C 251.478 21.653,259.811 18.301,259.967 18.156 C 260.425 17.728,259.044 18.163,255.600 19.532 M81.197 18.774 C 79.937 19.157,77.600 20.355,77.600 20.618 C 77.600 20.727,78.313 20.453,79.184 20.008 C 80.055 19.564,81.035 19.200,81.360 19.200 C 81.686 19.200,82.064 19.020,82.200 18.800 C 82.336 18.580,82.392 18.415,82.324 18.434 C 82.256 18.453,81.749 18.606,81.197 18.774 M143.739 19.446 C 144.806 20.001,145.776 20.357,145.896 20.238 C 146.103 20.031,142.627 18.380,142.067 18.419 C 141.920 18.429,142.673 18.891,143.739 19.446 M328.778 19.602 C 330.416 20.248,331.819 20.714,331.896 20.638 C 332.085 20.449,326.917 18.397,326.296 18.414 C 326.023 18.421,327.140 18.956,328.778 19.602 M244.748 24.506 C 242.629 25.658,240.469 26.919,239.948 27.309 C 239.426 27.700,239.990 27.466,241.200 26.790 C 242.410 26.115,244.615 24.938,246.100 24.176 C 247.585 23.414,248.800 22.702,248.800 22.595 C 248.800 22.298,248.856 22.272,244.748 24.506 M339.200 24.118 C 341.070 25.046,343.320 26.227,344.200 26.742 C 345.538 27.526,345.636 27.544,344.800 26.855 C 343.732 25.974,336.751 22.389,336.156 22.416 C 335.960 22.424,337.330 23.191,339.200 24.118 M153.000 24.205 C 153.440 24.555,155.510 26.099,157.600 27.636 C 159.690 29.173,161.670 30.757,162.000 31.154 C 162.330 31.552,163.500 32.648,164.600 33.590 C 165.700 34.531,165.032 33.763,163.115 31.882 C 159.923 28.751,157.637 26.961,153.668 24.485 C 152.860 23.981,152.560 23.856,153.000 24.205 M68.015 26.461 C 64.661 28.994,59.978 33.748,57.663 36.971 C 55.818 39.541,56.359 39.256,58.362 36.604 C 61.076 33.009,64.560 29.492,67.879 26.996 C 71.555 24.232,71.837 24.000,71.517 24.000 C 71.384 24.000,69.808 25.107,68.015 26.461 M235.571 30.032 C 233.937 31.149,232.240 32.425,231.800 32.867 C 231.360 33.310,232.356 32.710,234.012 31.536 C 235.669 30.361,237.469 29.094,238.012 28.721 C 238.556 28.348,238.897 28.033,238.771 28.021 C 238.645 28.009,237.205 28.914,235.571 30.032 M348.540 29.324 C 348.948 29.586,350.448 30.572,351.874 31.516 C 353.300 32.460,354.361 33.061,354.231 32.851 C 353.922 32.350,348.518 28.793,348.113 28.824 C 347.941 28.836,348.133 29.061,348.540 29.324 M227.561 36.131 C 225.932 37.524,224.330 39.009,224.000 39.431 C 223.488 40.087,227.748 36.573,230.189 34.326 C 232.117 32.552,230.242 33.840,227.561 36.131 M356.400 34.490 C 356.400 34.577,357.435 35.528,358.700 36.603 C 359.965 37.679,360.640 38.144,360.200 37.636 C 359.364 36.671,356.400 34.217,356.400 34.490 M168.990 39.000 C 171.721 42.669,172.383 43.469,171.802 42.400 C 171.046 41.009,168.026 36.939,167.202 36.200 C 166.711 35.760,167.516 37.020,168.990 39.000 M363.387 40.729 C 364.701 42.088,365.836 43.200,365.910 43.200 C 366.306 43.200,364.697 41.417,362.972 39.943 C 361.086 38.331,361.104 38.366,363.387 40.729 M219.519 43.700 C 217.671 45.735,215.544 48.210,214.791 49.200 C 214.038 50.190,213.192 51.144,212.911 51.320 C 212.630 51.496,212.400 51.821,212.400 52.043 C 212.400 52.736,213.073 52.078,215.010 49.495 C 216.039 48.123,217.803 46.010,218.931 44.800 C 222.020 41.487,223.305 40.000,223.080 40.000 C 222.969 40.000,221.366 41.665,219.519 43.700 M52.664 45.515 C 51.859 47.231,51.205 48.808,51.211 49.018 C 51.217 49.228,51.939 47.887,52.816 46.038 C 53.692 44.189,54.346 42.613,54.269 42.536 C 54.192 42.458,53.470 43.799,52.664 45.515 M370.363 47.900 C 371.768 49.495,372.998 50.800,373.098 50.800 C 373.358 50.800,369.357 46.223,368.515 45.557 C 368.128 45.251,368.959 46.305,370.363 47.900 M174.065 47.000 C 174.060 47.533,176.336 52.314,176.350 51.800 C 176.356 51.580,175.845 50.320,175.215 49.000 C 174.584 47.680,174.067 46.780,174.065 47.000 M109.705 49.087 C 110.314 49.179,111.214 49.177,111.705 49.082 C 112.197 48.987,111.700 48.911,110.600 48.914 C 109.500 48.917,109.097 48.995,109.705 49.087 M113.905 49.083 C 114.402 49.179,115.122 49.175,115.505 49.075 C 115.887 48.975,115.480 48.896,114.600 48.901 C 113.720 48.905,113.407 48.987,113.905 49.083 M288.300 49.089 C 289.015 49.178,290.185 49.178,290.900 49.089 C 291.615 49.001,291.030 48.928,289.600 48.928 C 288.170 48.928,287.585 49.001,288.300 49.089 M293.507 49.090 C 294.226 49.179,295.306 49.177,295.907 49.086 C 296.508 48.995,295.920 48.922,294.600 48.924 C 293.280 48.926,292.788 49.001,293.507 49.090 M96.800 52.424 C 95.590 53.089,94.240 54.024,93.800 54.501 L 93.000 55.370 93.850 54.668 C 94.318 54.282,95.848 53.348,97.250 52.592 C 98.653 51.836,99.620 51.217,99.400 51.216 C 99.180 51.215,98.010 51.759,96.800 52.424 M374.770 53.300 C 375.719 54.565,376.576 55.600,376.673 55.600 C 376.946 55.600,374.315 52.025,373.641 51.482 C 373.313 51.217,373.821 52.035,374.770 53.300 M270.828 52.815 C 269.194 53.457,267.689 54.151,267.484 54.356 C 267.137 54.703,273.999 52.115,274.367 51.761 C 274.763 51.379,273.602 51.725,270.828 52.815 M315.000 53.404 C 319.549 55.238,320.370 55.507,319.000 54.711 C 317.862 54.051,311.547 51.597,311.031 51.615 C 310.794 51.623,312.580 52.428,315.000 53.404 M126.180 52.368 C 126.305 52.571,127.351 53.296,128.504 53.980 L 130.600 55.225 129.215 54.012 C 128.453 53.346,127.598 52.800,127.315 52.800 C 127.032 52.800,126.800 52.620,126.800 52.400 C 126.800 52.180,126.609 52.000,126.376 52.000 C 126.143 52.000,126.055 52.166,126.180 52.368 M176.856 54.000 C 176.856 54.330,177.011 54.960,177.200 55.400 C 177.417 55.904,177.544 55.978,177.544 55.600 C 177.544 55.270,177.389 54.640,177.200 54.200 C 176.983 53.696,176.856 53.622,176.856 54.000 M90.981 56.900 L 89.400 58.600 91.100 57.019 C 92.035 56.149,92.800 55.384,92.800 55.319 C 92.800 55.016,92.452 55.319,90.981 56.900 M132.383 56.900 C 134.041 58.666,134.400 58.984,134.400 58.683 C 134.400 58.619,133.545 57.764,132.500 56.783 L 130.600 55.000 132.383 56.900 M209.298 56.700 C 208.036 58.533,206.723 60.800,206.923 60.800 C 207.026 60.800,207.844 59.630,208.741 58.200 C 210.365 55.609,210.736 54.609,209.298 56.700 M323.400 57.011 C 323.840 57.358,325.820 58.693,327.800 59.979 C 329.780 61.265,332.789 63.506,334.486 64.959 L 337.572 67.600 360.586 67.600 C 373.244 67.600,383.600 67.465,383.600 67.300 C 383.600 67.135,373.232 67.048,360.561 67.106 L 337.522 67.213 334.861 64.886 C 333.397 63.606,331.300 61.915,330.200 61.128 C 328.034 59.579,322.087 55.978,323.400 57.011 M259.927 58.587 C 258.462 59.570,257.147 60.563,257.004 60.793 C 256.777 61.161,261.593 58.000,262.580 57.134 C 263.497 56.329,262.390 56.935,259.927 58.587 M378.951 59.284 C 379.307 59.881,380.245 61.546,381.036 62.984 C 381.826 64.423,382.560 65.600,382.665 65.600 C 382.962 65.600,380.001 60.251,379.104 59.166 L 378.305 58.200 378.951 59.284 M135.615 61.000 C 137.368 63.670,137.934 64.201,136.778 62.091 C 136.263 61.150,135.495 60.070,135.072 59.691 C 134.645 59.308,134.887 59.892,135.615 61.000 M47.859 62.900 C 47.439 66.402,47.604 72.446,48.196 75.200 C 48.742 77.737,48.749 77.746,48.478 75.600 C 48.325 74.390,48.212 70.565,48.227 67.100 C 48.256 60.161,48.227 59.834,47.859 62.900 M252.276 64.900 L 248.537 68.600 251.969 65.419 C 253.856 63.670,255.664 62.005,255.986 61.719 C 256.308 61.434,256.446 61.200,256.293 61.200 C 256.140 61.200,254.333 62.865,252.276 64.900 M86.846 63.639 C 86.222 65.430,86.322 69.567,87.024 71.000 C 87.347 71.660,87.493 71.840,87.347 71.400 C 86.836 69.854,86.722 65.747,87.148 64.204 C 87.676 62.290,87.459 61.882,86.846 63.639 M178.914 64.600 C 178.917 65.700,178.995 66.103,179.087 65.495 C 179.179 64.886,179.177 63.986,179.082 63.495 C 178.987 63.003,178.911 63.500,178.914 64.600 M203.625 66.713 C 202.067 69.853,201.012 72.301,201.362 71.963 C 201.762 71.577,205.238 64.305,205.092 64.159 C 205.019 64.086,204.359 65.235,203.625 66.713 M138.832 66.824 C 138.729 68.858,138.292 68.818,159.400 68.701 L 179.000 68.592 159.333 68.496 L 139.667 68.400 139.265 67.300 C 139.044 66.695,138.849 66.481,138.832 66.824 M247.359 70.100 C 245.607 72.121,245.087 72.800,245.290 72.800 C 245.407 72.800,246.167 71.990,246.979 71.000 C 248.481 69.166,248.779 68.463,247.359 70.100 M90.200 75.600 C 91.283 76.700,92.260 77.600,92.370 77.600 C 92.480 77.600,91.683 76.700,90.600 75.600 C 89.517 74.500,88.540 73.600,88.430 73.600 C 88.320 73.600,89.117 74.500,90.200 75.600 M242.543 76.950 C 242.163 77.748,241.726 78.400,241.573 78.400 C 241.419 78.400,241.199 78.760,241.084 79.200 C 240.969 79.640,240.933 80.000,241.003 80.000 C 241.298 80.000,243.629 75.895,243.440 75.707 C 243.327 75.594,242.923 76.153,242.543 76.950 M95.800 79.814 C 96.772 80.642,102.140 83.204,102.874 83.189 C 103.163 83.183,102.196 82.665,100.724 82.037 C 99.252 81.409,97.362 80.498,96.524 80.013 C 95.614 79.487,95.322 79.406,95.800 79.814 M197.456 82.697 C 196.710 85.253,195.582 90.589,195.632 91.326 C 195.650 91.587,196.281 89.296,197.035 86.236 C 198.431 80.570,198.674 78.527,197.456 82.697 M239.265 83.017 C 238.595 84.488,238.723 84.802,239.447 83.465 C 239.786 82.840,239.988 82.254,239.896 82.163 C 239.805 82.071,239.521 82.456,239.265 83.017 M51.925 86.200 C 52.372 87.080,53.033 88.160,53.394 88.600 C 53.755 89.040,53.559 88.500,52.959 87.400 C 51.616 84.938,50.807 83.999,51.925 86.200 M108.026 84.943 C 108.327 85.265,115.429 87.435,117.200 87.745 C 118.998 88.060,117.941 87.675,113.000 86.215 C 107.871 84.699,107.776 84.675,108.026 84.943 M236.467 91.089 C 235.783 93.460,235.133 96.390,235.023 97.600 C 234.841 99.597,234.874 99.535,235.381 96.918 C 235.689 95.333,236.415 92.479,236.996 90.577 C 237.576 88.674,237.974 87.041,237.881 86.947 C 237.787 86.854,237.151 88.717,236.467 91.089 M133.000 91.078 C 133.440 91.179,135.662 91.712,137.937 92.261 C 142.410 93.340,144.019 93.343,139.906 92.265 C 136.111 91.269,133.886 90.816,133.000 90.856 L 132.200 90.893 133.000 91.078 M286.895 105.100 L 287.000 119.000 319.300 119.102 L 351.600 119.205 351.600 150.616 C 351.600 186.071,351.245 182.861,354.800 179.583 L 356.600 177.924 354.544 179.562 C 353.414 180.463,352.380 181.200,352.247 181.200 C 352.114 181.200,351.959 167.205,351.902 150.100 L 351.800 119.000 319.500 118.898 L 287.200 118.795 287.200 105.199 L 287.200 91.603 338.700 91.500 L 390.200 91.397 338.495 91.298 L 286.790 91.200 286.895 105.100 M56.316 92.607 C 57.236 93.984,61.147 97.683,63.448 99.351 C 64.332 99.992,64.053 99.649,62.800 98.556 C 61.590 97.501,59.455 95.459,58.055 94.018 C 56.655 92.578,55.873 91.943,56.316 92.607 M150.800 96.174 C 150.800 96.451,157.739 99.994,157.923 99.810 C 158.011 99.722,156.445 98.827,154.442 97.821 C 152.439 96.815,150.800 96.074,150.800 96.174 M234.514 101.800 C 234.517 102.900,234.595 103.303,234.687 102.695 C 234.779 102.086,234.777 101.186,234.682 100.695 C 234.587 100.203,234.511 100.700,234.514 101.800 M194.561 106.800 C 194.561 110.210,194.622 111.605,194.697 109.900 C 194.772 108.195,194.772 105.405,194.697 103.700 C 194.622 101.995,194.561 103.390,194.561 106.800 M66.400 101.408 C 66.400 101.492,67.165 102.082,68.100 102.718 C 70.041 104.038,73.912 106.274,73.576 105.881 C 73.246 105.495,66.400 101.228,66.400 101.408 M161.600 102.125 C 161.600 102.224,162.261 102.809,163.068 103.425 C 163.876 104.041,164.411 104.341,164.256 104.091 C 163.940 103.579,161.600 101.847,161.600 102.125 M164.800 104.484 C 164.800 104.574,166.285 105.977,168.100 107.602 C 169.915 109.227,170.950 110.053,170.400 109.438 C 169.295 108.202,164.800 104.225,164.800 104.484 M77.600 107.837 C 80.956 109.437,85.257 111.202,85.755 111.183 C 86.000 111.173,84.760 110.573,83.000 109.850 C 81.240 109.126,79.260 108.257,78.600 107.918 C 77.940 107.579,76.950 107.186,76.400 107.044 C 75.850 106.903,76.390 107.260,77.600 107.837 M389.701 108.200 C 389.705 109.080,389.787 109.393,389.883 108.895 C 389.979 108.398,389.975 107.678,389.875 107.295 C 389.775 106.913,389.696 107.320,389.701 108.200 M234.514 111.000 C 234.517 112.100,234.595 112.503,234.687 111.895 C 234.779 111.286,234.777 110.386,234.682 109.895 C 234.587 109.403,234.511 109.900,234.514 111.000 M92.433 113.362 C 92.741 113.663,100.467 115.666,100.642 115.491 C 100.737 115.396,99.042 114.841,96.874 114.259 C 93.011 113.221,92.099 113.037,92.433 113.362 M174.637 115.300 C 175.449 116.565,176.188 117.600,176.279 117.600 C 176.547 117.600,175.100 115.282,174.090 114.094 C 173.579 113.492,173.825 114.035,174.637 115.300 M234.865 114.200 C 234.855 114.640,234.988 115.853,235.160 116.896 L 235.472 118.793 215.236 118.902 L 195.000 119.011 215.399 119.006 L 235.797 119.000 235.673 117.600 C 235.511 115.786,234.887 113.159,234.865 114.200 M176.568 118.348 C 176.790 118.708,169.378 118.793,145.044 118.709 C 127.545 118.649,113.537 118.722,113.914 118.872 C 114.993 119.300,176.718 119.256,176.983 118.828 C 177.109 118.623,177.002 118.325,176.745 118.166 C 176.449 117.983,176.384 118.050,176.568 118.348 M385.685 131.082 C 384.962 133.624,384.437 135.771,384.520 135.853 C 384.738 136.071,387.287 127.254,387.131 126.823 C 387.059 126.624,386.408 128.541,385.685 131.082 M45.200 137.100 C 45.200 137.265,54.425 137.400,65.700 137.400 L 86.200 137.400 86.404 166.600 L 86.608 195.800 86.704 166.780 C 86.777 144.634,86.686 137.646,86.320 137.280 C 85.777 136.737,45.200 136.559,45.200 137.100 M45.320 140.400 C 45.320 141.610,45.395 142.105,45.487 141.500 C 45.578 140.895,45.578 139.905,45.487 139.300 C 45.395 138.695,45.320 139.190,45.320 140.400 M380.320 146.019 C 379.741 147.329,379.352 148.400,379.456 148.400 C 379.726 148.400,381.713 143.980,381.527 143.794 C 381.442 143.708,380.898 144.710,380.320 146.019 M46.032 147.201 C 45.989 148.008,47.884 155.618,48.209 155.942 C 48.484 156.218,48.465 156.129,47.021 150.400 C 46.494 148.310,46.049 146.870,46.032 147.201 M374.600 156.400 C 374.018 157.322,373.632 158.166,373.742 158.276 C 373.852 158.386,374.418 157.722,375.000 156.800 C 375.582 155.878,375.968 155.034,375.858 154.924 C 375.748 154.814,375.182 155.478,374.600 156.400 M369.200 164.400 C 368.503 165.280,368.023 166.000,368.133 166.000 C 368.243 166.000,368.903 165.280,369.600 164.400 C 370.297 163.520,370.777 162.800,370.667 162.800 C 370.557 162.800,369.897 163.520,369.200 164.400 M52.788 166.300 C 53.467 167.565,54.398 169.050,54.855 169.600 C 55.654 170.561,55.653 170.545,54.828 169.200 C 54.356 168.430,53.523 166.945,52.978 165.900 C 52.433 164.855,51.889 164.000,51.770 164.000 C 51.651 164.000,52.109 165.035,52.788 166.300 M363.387 171.300 L 361.000 173.800 363.500 171.413 C 364.875 170.099,366.000 168.974,366.000 168.913 C 366.000 168.617,365.605 168.978,363.387 171.300 M57.600 173.482 C 57.600 173.710,58.335 174.685,59.234 175.649 L 60.868 177.400 59.348 175.400 C 58.512 174.300,57.777 173.325,57.714 173.233 C 57.651 173.142,57.600 173.254,57.600 173.482 M358.585 176.100 L 356.600 178.200 358.700 176.215 C 359.855 175.123,360.800 174.178,360.800 174.115 C 360.800 173.817,360.429 174.149,358.585 176.100 M63.600 180.600 C 64.795 181.810,65.863 182.800,65.973 182.800 C 66.083 182.800,65.195 181.810,64.000 180.600 C 62.805 179.390,61.737 178.400,61.627 178.400 C 61.517 178.400,62.405 179.390,63.600 180.600 M69.600 185.773 C 69.600 186.053,74.816 189.720,74.971 189.548 C 75.045 189.467,73.866 188.542,72.353 187.493 C 70.839 186.445,69.600 185.670,69.600 185.773 M77.400 191.036 C 78.484 191.869,85.562 195.379,85.734 195.168 C 85.809 195.076,83.784 193.970,81.235 192.710 C 78.686 191.451,76.960 190.698,77.400 191.036 M352.000 257.404 L 352.000 282.008 369.500 281.904 L 387.000 281.800 386.884 279.400 C 386.729 276.195,386.014 271.268,385.554 270.234 C 385.249 269.549,385.218 269.615,385.379 270.600 C 386.003 274.408,386.375 277.267,386.511 279.300 L 386.666 281.600 369.527 281.600 L 352.388 281.600 352.494 257.200 C 352.552 243.780,352.465 232.800,352.300 232.800 C 352.135 232.800,352.000 243.872,352.000 257.404 M358.000 235.720 C 358.000 235.867,359.672 237.021,363.300 239.377 C 363.905 239.770,364.400 239.990,364.400 239.865 C 364.400 239.741,363.185 238.856,361.700 237.899 C 358.169 235.623,358.000 235.523,358.000 235.720 M369.839 244.623 C 371.841 246.590,374.340 249.190,375.393 250.400 L 377.307 252.600 375.788 250.600 C 373.740 247.904,371.482 245.544,368.600 243.090 C 366.948 241.682,367.334 242.160,369.839 244.623 M380.048 257.400 C 380.753 258.720,381.500 259.980,381.708 260.200 C 382.293 260.819,380.148 256.704,379.415 255.800 C 379.058 255.360,379.342 256.080,380.048 257.400 M277.563 290.300 C 294.148 290.381,299.478 290.525,299.963 290.903 C 300.527 291.343,300.537 291.319,300.051 290.700 C 299.538 290.046,298.053 290.006,277.651 290.096 L 255.800 290.193 277.563 290.300 M301.600 292.011 C 302.722 292.997,307.709 295.600,308.479 295.600 C 308.753 295.600,307.655 294.966,306.039 294.192 C 304.423 293.417,302.538 292.412,301.850 291.957 L 300.600 291.131 301.600 292.011 M256.821 293.031 C 256.769 294.117,260.114 301.200,260.679 301.200 C 260.789 301.200,260.483 300.528,259.998 299.707 C 259.513 298.885,258.605 296.950,257.979 295.407 C 257.353 293.863,256.832 292.794,256.821 293.031 M313.600 297.577 C 314.244 298.038,320.390 300.020,321.021 299.970 C 321.374 299.942,315.801 297.932,313.870 297.391 C 313.175 297.196,313.121 297.234,313.600 297.577 M262.940 304.600 C 264.620 306.855,267.463 309.756,270.200 312.007 C 270.860 312.550,269.680 311.286,267.577 309.197 C 265.475 307.109,263.169 304.680,262.454 303.800 C 261.738 302.920,261.957 303.280,262.940 304.600 M333.633 302.960 C 333.891 303.208,346.495 305.638,346.661 305.472 C 346.837 305.297,341.870 304.171,337.400 303.373 C 334.034 302.771,333.360 302.698,333.633 302.960 M354.000 307.692 C 354.383 308.058,363.326 312.007,363.463 311.870 C 363.624 311.709,356.271 308.262,354.800 307.809 C 354.250 307.639,353.890 307.587,354.000 307.692 M271.798 313.196 C 272.092 313.672,276.800 316.919,276.800 316.646 C 276.800 316.545,275.618 315.635,274.173 314.625 C 272.728 313.615,271.659 312.972,271.798 313.196 M366.897 313.833 C 367.027 314.044,367.991 314.832,369.037 315.584 C 370.084 316.335,370.833 316.778,370.703 316.567 C 370.573 316.356,369.609 315.568,368.563 314.816 C 367.516 314.065,366.767 313.622,366.897 313.833 M375.000 320.400 C 376.306 321.720,377.465 322.800,377.575 322.800 C 377.685 322.800,376.706 321.720,375.400 320.400 C 374.094 319.080,372.935 318.000,372.825 318.000 C 372.715 318.000,373.694 319.080,375.000 320.400 M54.307 319.090 C 55.026 319.179,56.106 319.177,56.707 319.086 C 57.308 318.995,56.720 318.922,55.400 318.924 C 54.080 318.926,53.588 319.001,54.307 319.090 M129.107 319.090 C 129.826 319.179,130.906 319.177,131.507 319.086 C 132.108 318.995,131.520 318.922,130.200 318.924 C 128.880 318.926,128.388 319.001,129.107 319.090 M284.000 320.600 C 285.870 321.568,287.580 322.360,287.800 322.360 C 288.020 322.360,286.670 321.568,284.800 320.600 C 282.930 319.632,281.220 318.840,281.000 318.840 C 280.780 318.840,282.130 319.632,284.000 320.600 M68.674 319.459 C 68.523 319.610,68.441 325.778,68.492 333.167 L 68.584 346.600 68.792 333.200 L 69.000 319.800 78.000 319.800 L 87.000 319.800 87.241 322.400 L 87.482 325.000 87.441 322.200 L 87.400 319.400 78.174 319.293 C 73.099 319.234,68.824 319.309,68.674 319.459 M90.661 319.500 C 90.558 319.665,92.572 319.753,95.137 319.695 C 103.740 319.502,104.652 319.355,97.724 319.277 C 93.942 319.235,90.763 319.335,90.661 319.500 M123.727 320.039 C 121.557 320.873,116.779 325.038,116.824 326.056 C 116.838 326.387,117.034 326.286,117.324 325.800 C 118.666 323.545,121.394 321.532,125.600 319.692 C 127.319 318.940,125.904 319.202,123.727 320.039 M134.611 319.953 C 138.048 321.191,142.800 324.933,142.800 326.401 C 142.800 327.338,136.518 326.856,134.962 325.800 C 134.151 325.250,133.288 324.808,133.044 324.818 C 132.800 324.827,133.263 325.186,134.074 325.614 C 134.885 326.042,135.660 326.574,135.798 326.796 C 135.937 327.022,137.718 327.200,139.834 327.200 L 143.621 327.200 143.045 326.087 C 141.688 323.462,135.616 319.169,133.325 319.214 C 132.926 319.222,133.505 319.555,134.611 319.953 M147.067 319.467 C 146.920 319.613,146.841 325.778,146.892 333.167 L 146.984 346.600 147.192 333.200 L 147.400 319.800 156.500 319.800 C 161.505 319.800,165.600 319.665,165.600 319.500 C 165.600 319.129,147.437 319.097,147.067 319.467 M49.346 320.367 C 47.631 321.414,46.048 323.588,45.805 325.233 L 45.603 326.600 46.035 325.200 C 46.643 323.233,48.187 321.332,49.921 320.416 C 50.735 319.987,51.220 319.628,51.000 319.619 C 50.780 319.610,50.036 319.947,49.346 320.367 M60.241 320.114 C 61.927 321.088,63.693 322.846,64.452 324.306 C 64.929 325.223,65.124 325.414,64.957 324.800 C 64.412 322.796,61.228 319.569,59.840 319.614 C 59.598 319.622,59.778 319.847,60.241 320.114 M106.003 319.974 C 108.668 320.784,110.506 322.268,111.735 324.600 C 112.083 325.260,112.375 325.656,112.384 325.480 C 112.479 323.578,107.867 319.532,105.720 319.634 C 105.230 319.658,105.321 319.766,106.003 319.974 M380.406 326.100 C 381.582 327.585,382.612 328.800,382.697 328.800 C 383.000 328.800,380.267 325.216,379.280 324.319 C 378.723 323.813,379.230 324.615,380.406 326.100 M52.182 325.382 C 50.872 326.691,51.343 329.200,52.898 329.200 C 53.147 329.200,52.957 328.833,52.475 328.384 C 51.152 327.152,51.845 325.470,54.000 324.682 C 54.465 324.512,54.439 324.456,53.882 324.432 C 53.487 324.414,52.722 324.842,52.182 325.382 M58.631 326.116 L 59.720 327.633 62.528 327.516 C 64.604 327.430,65.383 327.244,65.518 326.800 C 65.665 326.316,65.598 326.296,65.170 326.700 C 63.982 327.821,59.970 327.325,58.700 325.900 L 57.542 324.600 58.631 326.116 M74.565 325.348 C 74.449 325.649,74.410 326.864,74.477 328.048 L 74.600 330.200 79.682 330.312 L 84.764 330.424 84.912 333.013 L 85.059 335.603 85.030 332.902 L 85.000 330.200 79.866 330.088 L 74.733 329.976 74.866 327.387 C 75.002 324.761,74.943 324.362,74.565 325.348 M96.483 328.536 L 96.400 332.473 100.587 332.336 C 103.973 332.226,104.910 332.062,105.487 331.477 C 106.174 330.781,106.156 330.777,105.000 331.375 C 104.187 331.795,102.677 331.996,100.315 331.998 L 96.830 332.000 96.698 328.300 L 96.566 324.600 96.483 328.536 M104.000 325.086 C 104.330 325.208,104.960 325.474,105.400 325.676 C 106.187 326.038,106.188 326.034,105.424 325.422 C 104.996 325.080,104.366 324.814,104.024 324.832 C 103.485 324.859,103.482 324.893,104.000 325.086 M124.693 325.814 C 123.335 326.737,122.516 327.666,123.700 326.941 C 125.380 325.911,126.859 324.800,126.549 324.800 C 126.349 324.800,125.514 325.256,124.693 325.814 M152.878 327.500 L 152.800 330.400 157.982 330.400 L 163.163 330.400 163.311 333.002 L 163.459 335.603 163.430 332.902 L 163.400 330.200 158.318 330.088 L 153.236 329.976 153.096 327.288 L 152.957 324.600 152.878 327.500 M160.711 325.093 C 161.651 325.178,163.091 325.177,163.911 325.091 C 164.730 325.005,163.960 324.936,162.200 324.937 C 160.440 324.939,159.770 325.009,160.711 325.093 M297.631 325.954 C 299.792 326.799,303.232 327.702,303.452 327.481 C 303.619 327.314,296.765 325.188,296.162 325.219 C 295.963 325.229,296.624 325.560,297.631 325.954 M46.454 330.400 C 47.287 331.723,49.900 333.512,51.400 333.786 C 52.213 333.934,52.036 333.795,50.852 333.353 C 49.890 332.994,48.365 331.958,47.464 331.051 C 46.487 330.067,46.079 329.804,46.454 330.400 M383.528 330.498 C 383.818 330.856,384.852 332.915,385.826 335.075 C 386.800 337.234,387.597 338.772,387.598 338.493 C 387.601 337.642,384.145 330.536,383.554 330.180 C 383.090 329.901,383.086 329.953,383.528 330.498 M57.800 330.578 C 58.020 330.676,58.981 330.958,59.936 331.204 C 60.972 331.470,62.424 332.325,63.536 333.322 C 64.561 334.242,65.040 334.549,64.600 334.004 C 62.956 331.967,61.306 330.977,58.986 330.634 C 58.114 330.504,57.580 330.479,57.800 330.578 M129.067 330.667 C 128.920 330.813,128.800 331.883,128.800 333.043 L 128.800 335.153 133.563 335.276 C 136.182 335.344,138.242 335.265,138.139 335.100 C 138.037 334.935,135.983 334.800,133.576 334.800 L 129.200 334.800 129.200 332.809 L 129.200 330.817 136.900 330.699 L 144.600 330.582 136.967 330.491 C 132.768 330.441,129.213 330.520,129.067 330.667 M318.833 331.366 C 319.112 331.644,325.681 333.252,325.849 333.084 C 325.936 332.998,324.588 332.539,322.855 332.064 C 319.857 331.242,318.467 331.001,318.833 331.366 M144.093 334.400 C 144.093 335.170,144.175 335.485,144.276 335.100 C 144.376 334.715,144.376 334.085,144.276 333.700 C 144.175 333.315,144.093 333.630,144.093 334.400 M59.081 336.561 C 59.477 337.089,59.860 337.465,59.932 337.395 C 60.182 337.156,59.172 335.600,58.767 335.600 C 58.545 335.600,58.686 336.032,59.081 336.561 M74.565 336.148 C 74.449 336.449,74.410 337.664,74.477 338.848 L 74.600 341.000 80.882 341.110 L 87.164 341.220 87.309 343.710 L 87.455 346.200 87.427 343.600 L 87.400 341.000 81.066 340.890 L 74.733 340.779 74.866 338.189 C 75.002 335.561,74.943 335.162,74.565 336.148 M108.100 336.088 C 106.949 336.643,106.967 337.129,108.200 338.800 C 108.750 339.545,109.200 340.023,109.200 339.862 C 109.200 339.700,108.797 339.023,108.305 338.357 L 107.410 337.147 108.405 336.382 C 109.518 335.527,109.433 335.446,108.100 336.088 M152.878 338.281 L 152.800 341.162 159.201 341.281 C 162.721 341.346,165.601 341.265,165.601 341.100 C 165.600 340.935,162.818 340.800,159.418 340.800 L 153.237 340.800 153.097 338.100 L 152.957 335.400 152.878 338.281 M65.714 338.200 C 65.717 339.300,65.795 339.703,65.887 339.095 C 65.979 338.486,65.977 337.586,65.882 337.095 C 65.787 336.603,65.711 337.100,65.714 338.200 M337.372 337.036 C 338.946 337.929,341.200 338.858,341.200 338.613 C 341.200 338.338,338.408 336.958,337.200 336.637 C 336.298 336.397,336.314 336.436,337.372 337.036 M135.800 338.703 C 134.604 340.105,134.469 340.380,135.266 339.790 C 136.146 339.138,137.943 336.768,137.523 336.813 C 137.455 336.820,136.680 337.671,135.800 338.703 M45.599 337.533 C 45.380 337.607,45.225 338.147,45.254 338.733 C 45.303 339.676,45.329 339.695,45.482 338.900 C 45.707 337.736,51.200 337.477,51.200 338.631 C 51.200 339.502,53.377 341.602,54.269 341.591 C 54.735 341.585,54.505 341.338,53.636 340.910 C 52.753 340.475,52.076 339.738,51.714 338.819 L 51.156 337.400 48.577 337.400 C 47.159 337.400,45.819 337.460,45.599 337.533 M96.486 341.900 L 96.571 346.600 96.698 342.120 L 96.826 337.641 98.913 337.494 L 101.000 337.348 98.700 337.274 L 96.400 337.200 96.486 341.900 M122.400 337.847 C 122.400 338.364,124.727 340.607,124.990 340.343 C 125.099 340.234,124.561 339.537,123.794 338.794 C 123.027 338.051,122.400 337.625,122.400 337.847 M101.998 339.718 C 102.748 340.773,103.633 341.853,103.964 342.118 C 104.295 342.383,103.953 341.737,103.202 340.682 C 102.452 339.627,101.567 338.547,101.236 338.282 C 100.905 338.017,101.247 338.663,101.998 339.718 M142.369 339.687 C 142.073 340.409,140.923 341.894,139.815 342.987 C 138.423 344.359,138.202 344.691,139.101 344.059 C 140.891 342.800,143.596 339.063,143.086 338.553 C 142.988 338.455,142.665 338.965,142.369 339.687 M346.600 342.800 C 347.683 343.900,348.660 344.800,348.770 344.800 C 348.880 344.800,348.083 343.900,347.000 342.800 C 345.917 341.700,344.940 340.800,344.830 340.800 C 344.720 340.800,345.517 341.700,346.600 342.800 M118.791 342.548 C 119.920 343.798,123.122 346.008,123.769 345.984 C 124.006 345.975,123.660 345.684,123.000 345.337 C 122.340 344.991,120.900 343.974,119.800 343.079 C 118.547 342.060,118.170 341.861,118.791 342.548 M46.400 342.242 C 46.400 342.462,47.075 343.263,47.899 344.022 L 49.398 345.400 48.202 344.000 C 47.544 343.230,46.870 342.429,46.703 342.220 C 46.515 341.984,46.400 341.992,46.400 342.242 M64.004 343.192 C 63.771 343.628,62.913 344.438,62.097 344.992 C 61.282 345.547,60.774 346.000,60.969 346.000 C 61.550 346.000,63.956 344.030,64.409 343.184 C 64.639 342.753,64.738 342.400,64.628 342.400 C 64.518 342.400,64.237 342.757,64.004 343.192 M112.740 344.716 C 113.233 345.409,113.844 346.104,114.097 346.260 C 114.350 346.417,114.154 345.977,113.660 345.284 C 113.167 344.591,112.556 343.896,112.303 343.740 C 112.050 343.583,112.246 344.023,112.740 344.716 M54.500 347.087 C 55.105 347.178,56.095 347.178,56.700 347.087 C 57.305 346.995,56.810 346.920,55.600 346.920 C 54.390 346.920,53.895 346.995,54.500 347.087 M128.905 347.087 C 129.514 347.179,130.414 347.177,130.905 347.082 C 131.397 346.987,130.900 346.911,129.800 346.914 C 128.700 346.917,128.297 346.995,128.905 347.087 M389.714 349.400 C 389.717 350.500,389.795 350.903,389.887 350.295 C 389.979 349.686,389.977 348.786,389.882 348.295 C 389.787 347.803,389.711 348.300,389.714 349.400 M252.562 352.100 C 252.678 353.035,252.888 355.230,253.028 356.977 C 253.168 358.724,253.449 360.524,253.653 360.977 C 253.975 361.695,253.995 361.673,253.804 360.800 C 253.684 360.250,253.471 357.685,253.332 355.100 C 253.192 352.515,252.914 350.400,252.714 350.400 C 252.515 350.400,252.446 351.165,252.562 352.100 M291.772 351.600 C 292.345 354.614,292.897 356.836,293.039 356.695 C 293.232 356.501,292.020 350.682,291.729 350.409 C 291.607 350.294,291.626 350.830,291.772 351.600 M59.305 352.687 C 59.914 352.779,60.814 352.777,61.305 352.682 C 61.797 352.587,61.300 352.511,60.200 352.514 C 59.100 352.517,58.697 352.595,59.305 352.687 M54.183 353.618 C 50.471 355.046,45.511 360.590,45.628 363.179 C 45.644 363.520,45.907 363.117,46.213 362.283 C 47.626 358.434,51.134 355.058,55.200 353.634 C 56.410 353.210,57.130 352.858,56.800 352.852 C 56.470 352.847,55.293 353.191,54.183 353.618 M65.500 353.665 C 66.215 353.913,66.800 354.270,66.800 354.458 C 66.800 354.646,67.044 354.800,67.342 354.800 C 67.641 354.800,68.766 355.467,69.842 356.282 C 70.919 357.097,71.558 357.463,71.263 357.096 C 70.381 356.000,66.627 353.667,65.370 353.433 C 64.273 353.229,64.282 353.243,65.500 353.665 M77.900 353.482 C 78.395 353.578,79.205 353.578,79.700 353.482 C 80.195 353.387,79.790 353.309,78.800 353.309 C 77.810 353.309,77.405 353.387,77.900 353.482 M96.400 361.643 C 96.400 369.307,96.339 370.062,95.743 369.834 C 95.196 369.624,95.171 369.683,95.589 370.186 C 96.613 371.421,96.800 370.158,96.800 362.006 C 96.800 354.392,96.862 353.643,97.500 353.476 C 98.027 353.338,97.977 353.281,97.300 353.246 L 96.400 353.200 96.400 361.643 M102.000 366.533 L 102.000 380.000 99.526 380.000 C 97.531 380.000,96.853 379.826,96.026 379.100 L 95.000 378.200 95.970 379.300 C 97.195 380.690,102.211 380.998,102.494 379.700 C 102.689 378.806,102.365 353.456,102.156 353.233 C 102.070 353.142,102.000 359.127,102.000 366.533 M134.895 366.700 L 135.000 380.200 142.100 380.214 L 149.201 380.229 142.200 380.105 L 135.200 379.982 135.200 366.791 L 135.200 353.600 142.374 353.600 C 150.161 353.600,151.063 353.777,153.199 355.725 L 154.598 357.000 153.399 355.651 C 151.406 353.408,150.455 353.200,142.208 353.200 L 134.789 353.200 134.895 366.700 M159.695 366.700 L 159.800 380.200 162.900 380.317 L 166.000 380.434 166.000 376.017 L 166.000 371.600 168.100 371.621 L 170.200 371.641 173.400 375.921 L 176.600 380.200 180.100 380.316 C 182.025 380.379,183.600 380.268,183.600 380.068 C 183.600 379.658,179.614 374.400,179.303 374.400 C 179.084 374.400,179.175 374.530,181.266 377.200 C 183.557 380.125,183.612 380.000,180.032 380.000 L 176.817 380.000 173.451 375.528 L 170.085 371.057 168.047 371.027 C 165.575 370.991,165.600 370.939,165.600 376.033 L 165.600 380.000 162.800 380.000 L 160.000 380.000 160.000 366.829 C 160.000 354.622,160.051 353.645,160.700 353.476 C 161.224 353.339,161.172 353.281,160.495 353.246 L 159.589 353.200 159.695 366.700 M168.800 353.583 C 177.666 353.843,179.144 354.435,181.336 358.600 C 181.684 359.260,181.975 359.595,181.984 359.345 C 182.022 358.260,179.306 354.996,177.637 354.123 C 175.964 353.247,175.504 353.204,168.637 353.283 L 161.400 353.365 168.800 353.583 M184.900 353.491 C 185.725 353.578,187.075 353.578,187.900 353.491 C 188.725 353.405,188.050 353.334,186.400 353.334 C 184.750 353.334,184.075 353.405,184.900 353.491 M199.861 354.100 C 199.555 354.595,198.465 356.319,197.440 357.931 C 196.415 359.543,195.749 360.755,195.960 360.625 C 196.171 360.494,197.298 358.867,198.464 357.009 L 200.585 353.629 203.793 353.496 L 207.000 353.363 203.709 353.281 C 200.683 353.207,200.374 353.272,199.861 354.100 M84.839 356.147 C 85.587 357.218,86.795 358.748,87.522 359.547 C 88.250 360.346,87.903 359.740,86.752 358.200 C 84.213 354.802,82.955 353.452,84.839 356.147 M113.883 358.083 C 113.070 359.873,112.467 361.400,112.543 361.477 C 112.619 361.553,113.350 360.153,114.167 358.367 C 114.983 356.580,115.586 355.053,115.507 354.973 C 115.427 354.894,114.697 356.293,113.883 358.083 M191.099 357.202 C 192.550 359.524,194.395 362.023,193.756 360.800 C 193.103 359.552,189.953 354.800,189.779 354.800 C 189.679 354.800,190.273 355.881,191.099 357.202 M389.720 358.800 C 389.720 360.010,389.795 360.505,389.887 359.900 C 389.978 359.295,389.978 358.305,389.887 357.700 C 389.795 357.095,389.720 357.590,389.720 358.800 M185.422 358.300 C 187.529 361.548,188.122 362.400,188.277 362.400 C 188.469 362.400,188.367 362.220,186.510 359.300 C 185.776 358.145,185.070 357.200,184.942 357.200 C 184.813 357.200,185.029 357.695,185.422 358.300 M123.344 358.000 C 123.647 359.123,126.115 364.419,126.265 364.268 C 126.347 364.186,125.687 362.607,124.798 360.759 C 123.909 358.912,123.255 357.670,123.344 358.000 M202.887 359.300 C 201.360 361.556,200.931 362.439,201.965 361.200 C 202.932 360.041,204.452 357.600,204.206 357.600 C 204.114 357.600,203.520 358.365,202.887 359.300 M55.400 359.148 C 52.594 360.891,51.167 363.556,51.257 366.887 L 51.314 369.000 51.587 366.400 C 51.985 362.614,53.233 360.629,56.200 359.065 C 56.860 358.717,57.220 358.425,57.000 358.418 C 56.780 358.410,56.060 358.738,55.400 359.148 M64.074 359.214 C 64.885 359.642,65.660 360.174,65.798 360.396 C 66.106 360.894,73.600 360.941,73.600 360.444 C 73.600 360.249,73.229 359.664,72.776 359.144 L 71.953 358.200 72.622 359.300 L 73.292 360.400 69.864 360.400 C 66.867 360.400,66.250 360.274,64.962 359.400 C 64.151 358.850,63.288 358.408,63.044 358.418 C 62.800 358.427,63.263 358.786,64.074 359.214 M141.067 358.667 C 140.920 358.813,140.830 360.028,140.867 361.367 L 140.934 363.800 141.167 361.400 L 141.400 359.000 144.543 358.882 C 146.884 358.795,147.956 358.928,148.743 359.406 L 149.800 360.047 148.856 359.224 C 147.910 358.398,141.774 357.960,141.067 358.667 M165.769 358.935 C 165.656 359.230,165.617 360.895,165.682 362.635 L 165.800 365.800 169.377 365.917 C 174.477 366.083,176.400 365.056,176.400 362.165 C 176.400 360.952,175.114 358.800,174.389 358.800 C 174.195 358.800,174.478 359.242,175.018 359.782 C 175.984 360.748,176.286 362.391,175.752 363.782 C 175.268 365.041,173.383 365.600,169.620 365.600 L 166.000 365.600 166.000 362.214 L 166.000 358.829 169.900 358.698 L 173.800 358.567 169.887 358.484 C 166.928 358.420,165.925 358.530,165.769 358.935 M117.605 363.386 C 117.105 364.620,116.775 365.708,116.872 365.805 C 116.969 365.902,117.371 365.086,117.764 363.991 C 118.673 361.463,118.806 361.489,119.944 364.425 C 120.461 365.758,120.957 366.776,121.046 366.687 C 121.272 366.462,119.574 362.316,118.993 361.672 C 118.611 361.250,118.333 361.593,117.605 363.386 M92.400 366.000 C 93.740 367.760,94.926 369.200,95.036 369.200 C 95.146 369.200,94.140 367.760,92.800 366.000 C 91.460 364.240,90.274 362.800,90.164 362.800 C 90.054 362.800,91.060 364.240,92.400 366.000 M189.975 365.163 L 191.579 367.526 191.690 373.863 L 191.800 380.200 194.800 380.200 L 197.800 380.200 197.911 373.809 C 197.971 370.295,198.196 367.244,198.411 367.029 C 198.625 366.815,198.794 366.451,198.787 366.220 C 198.780 365.989,198.510 366.149,198.187 366.576 C 197.728 367.183,197.600 368.736,197.600 373.676 L 197.600 380.000 194.800 380.000 L 192.000 380.000 192.000 373.778 L 192.000 367.556 190.385 365.178 C 189.497 363.870,188.680 362.800,188.570 362.800 C 188.460 362.800,189.092 363.863,189.975 365.163 M85.400 365.600 C 86.416 366.920,87.337 368.000,87.447 368.000 C 87.557 368.000,86.816 366.920,85.800 365.600 C 84.784 364.280,83.863 363.200,83.753 363.200 C 83.643 363.200,84.384 364.280,85.400 365.600 M296.000 363.766 C 296.000 364.760,301.179 370.501,303.802 372.415 C 304.243 372.737,303.454 371.929,302.048 370.619 C 300.642 369.310,298.706 367.159,297.746 365.839 C 296.786 364.520,296.000 363.587,296.000 363.766 M45.293 365.200 C 45.293 365.970,45.375 366.285,45.476 365.900 C 45.576 365.515,45.576 364.885,45.476 364.500 C 45.375 364.115,45.293 364.430,45.293 365.200 M59.289 364.471 C 58.759 365.001,58.610 368.234,59.100 368.539 C 59.265 368.642,59.400 367.797,59.400 366.663 L 59.400 364.600 66.959 364.491 L 74.517 364.382 74.266 366.891 C 74.127 368.271,73.916 369.850,73.796 370.400 L 73.577 371.400 74.024 370.400 C 74.269 369.850,74.499 368.230,74.535 366.800 L 74.600 364.200 67.189 364.091 C 61.761 364.012,59.646 364.114,59.289 364.471 M347.031 366.981 C 346.205 368.181,344.690 369.831,343.664 370.649 C 341.162 372.645,340.828 372.987,341.930 372.419 C 343.209 371.760,347.240 367.629,348.123 366.074 C 349.234 364.115,348.698 364.560,347.031 366.981 M110.065 366.617 C 109.395 368.088,109.523 368.402,110.247 367.065 C 110.586 366.440,110.788 365.854,110.696 365.763 C 110.605 365.671,110.321 366.056,110.065 366.617 M179.808 367.900 C 178.949 368.945,178.660 369.440,179.166 369.000 C 180.061 368.222,181.798 366.000,181.512 366.000 C 181.434 366.000,180.667 366.855,179.808 367.900 M155.924 368.600 C 156.126 369.040,156.392 369.670,156.514 370.000 C 156.707 370.518,156.741 370.515,156.768 369.976 C 156.786 369.634,156.520 369.004,156.178 368.576 C 155.566 367.812,155.562 367.813,155.924 368.600 M107.462 372.433 C 106.438 374.656,105.601 376.683,105.603 376.938 C 105.605 377.192,106.504 375.434,107.600 373.031 C 108.697 370.627,109.534 368.601,109.460 368.526 C 109.386 368.452,108.487 370.210,107.462 372.433 M128.097 368.800 C 128.826 370.749,132.938 379.595,133.059 379.474 C 133.225 379.309,128.525 368.776,128.130 368.428 C 127.989 368.302,127.974 368.470,128.097 368.800 M67.650 369.850 C 67.386 370.429,67.262 370.995,67.374 371.107 C 67.486 371.219,67.768 370.811,68.000 370.200 C 68.549 368.757,68.273 368.482,67.650 369.850 M140.800 371.576 C 140.800 373.103,140.935 374.437,141.100 374.539 C 141.265 374.642,141.400 373.527,141.400 372.063 L 141.400 369.400 145.352 369.285 C 149.829 369.154,150.754 369.571,150.860 371.762 L 150.920 373.000 151.091 371.858 C 151.444 369.496,150.088 368.800,145.130 368.800 L 140.800 368.800 140.800 371.576 M51.602 369.661 C 51.601 370.025,52.365 371.116,53.300 372.085 C 54.235 373.054,54.516 373.296,53.924 372.623 C 53.333 371.951,52.569 370.860,52.227 370.200 C 51.863 369.499,51.604 369.275,51.602 369.661 M176.976 370.176 C 176.208 370.745,176.208 370.759,176.978 371.476 C 177.698 372.146,177.716 372.147,177.219 371.487 C 176.757 370.875,176.788 370.694,177.441 370.200 C 177.858 369.884,178.099 369.620,177.976 369.613 C 177.854 369.606,177.404 369.859,176.976 370.176 M45.844 370.800 C 46.673 374.025,51.075 379.206,52.979 379.198 C 53.210 379.197,52.618 378.678,51.662 378.044 C 49.479 376.595,47.850 374.632,46.579 371.917 C 46.033 370.753,45.703 370.250,45.844 370.800 M89.986 371.600 C 90.673 372.590,91.876 374.120,92.661 375.000 L 94.087 376.600 92.744 374.653 C 92.005 373.582,90.801 372.052,90.069 371.253 L 88.739 369.800 89.986 371.600 M116.900 370.694 C 117.945 370.776,119.655 370.776,120.700 370.694 C 121.745 370.612,120.890 370.544,118.800 370.544 C 116.710 370.544,115.855 370.612,116.900 370.694 M156.855 372.200 C 156.815 373.080,156.432 374.572,156.004 375.516 C 155.575 376.460,155.385 377.133,155.581 377.012 C 156.276 376.582,157.258 373.307,157.094 371.964 C 156.930 370.619,156.927 370.622,156.855 372.200 M256.426 370.865 C 256.379 371.346,259.181 377.639,259.838 378.528 C 260.592 379.548,260.566 379.472,258.881 375.800 C 256.879 371.437,256.453 370.580,256.426 370.865 M386.868 372.896 C 386.577 373.833,385.644 376.085,384.795 377.900 C 383.010 381.716,383.013 382.340,384.799 378.801 C 386.304 375.820,387.706 372.118,387.530 371.589 C 387.457 371.371,387.159 371.959,386.868 372.896 M65.775 372.900 L 64.600 374.200 65.900 373.025 C 66.615 372.379,67.200 371.794,67.200 371.725 C 67.200 371.416,66.870 371.688,65.775 372.900 M338.400 374.000 C 337.190 374.639,336.341 375.171,336.513 375.181 C 336.938 375.207,340.800 373.236,340.800 372.993 C 340.800 372.726,340.855 372.703,338.400 374.000 M72.400 373.461 C 72.400 374.195,69.443 377.317,67.615 378.513 C 66.617 379.167,66.155 379.579,66.589 379.429 C 68.655 378.716,73.327 373.993,72.643 373.310 C 72.509 373.176,72.400 373.244,72.400 373.461 M124.822 376.300 C 125.043 376.905,125.313 377.651,125.421 377.957 C 125.530 378.264,125.707 378.426,125.815 378.319 C 126.029 378.104,124.903 375.200,124.605 375.200 C 124.503 375.200,124.601 375.695,124.822 376.300 M311.130 376.234 C 314.134 377.395,317.947 378.003,321.800 377.935 C 324.127 377.894,323.826 377.830,320.019 377.557 C 316.978 377.338,314.380 376.887,312.294 376.214 C 308.355 374.943,307.816 374.953,311.130 376.234 M332.600 376.060 C 331.060 376.474,328.630 376.967,327.200 377.155 C 325.303 377.406,325.010 377.512,326.117 377.549 C 327.918 377.609,333.269 376.553,334.986 375.799 C 336.608 375.086,335.967 375.156,332.600 376.060 M153.656 378.413 C 152.416 379.446,152.975 379.435,154.291 378.400 C 154.850 377.960,155.149 377.606,154.954 377.613 C 154.759 377.621,154.175 377.981,153.656 378.413 M78.711 380.293 C 79.651 380.378,81.091 380.377,81.911 380.291 C 82.730 380.205,81.960 380.136,80.200 380.137 C 78.440 380.139,77.770 380.209,78.711 380.293 M106.112 380.295 C 107.164 380.377,108.784 380.376,109.712 380.292 C 110.640 380.208,109.780 380.141,107.800 380.142 C 105.820 380.143,105.060 380.212,106.112 380.295 M128.300 380.293 C 129.235 380.377,130.765 380.377,131.700 380.293 C 132.635 380.209,131.870 380.140,130.000 380.140 C 128.130 380.140,127.365 380.209,128.300 380.293 M58.700 380.689 C 59.415 380.778,60.585 380.778,61.300 380.689 C 62.015 380.601,61.430 380.528,60.000 380.528 C 58.570 380.528,57.985 380.601,58.700 380.689 M262.039 382.500 C 262.850 384.062,265.897 388.218,266.664 388.809 C 267.256 389.265,267.239 389.183,266.573 388.388 C 266.118 387.845,264.871 386.095,263.802 384.500 C 261.858 381.599,261.161 380.808,262.039 382.500 M382.800 381.882 C 382.800 382.110,381.894 383.715,380.787 385.449 C 379.680 387.182,379.193 388.104,379.704 387.498 C 381.146 385.788,383.340 382.007,383.056 381.722 C 382.915 381.582,382.800 381.654,382.800 381.882 M51.023 387.372 C 48.139 388.445,45.579 391.091,45.618 392.959 C 45.629 393.509,45.821 393.279,46.172 392.296 C 47.962 387.280,55.342 385.596,60.455 389.037 C 61.591 389.801,62.282 390.140,61.992 389.790 C 59.968 387.352,54.388 386.122,51.023 387.372 M209.000 387.360 C 207.022 387.846,205.200 388.644,205.200 389.024 C 205.200 389.132,205.713 388.955,206.339 388.631 C 209.787 386.849,215.446 386.941,219.386 388.844 C 220.429 389.348,220.782 389.416,220.396 389.039 C 218.544 387.235,212.894 386.402,209.000 387.360 M67.073 387.460 C 66.923 387.610,66.800 388.603,66.800 389.667 L 66.800 391.600 70.593 391.600 L 74.387 391.600 74.493 402.300 L 74.600 413.000 77.000 413.000 L 79.400 413.000 79.507 402.300 L 79.613 391.600 83.427 391.600 L 87.242 391.600 87.121 389.500 L 87.000 387.400 77.173 387.293 C 71.769 387.234,67.224 387.309,67.073 387.460 M90.667 387.467 C 90.520 387.613,90.400 393.463,90.400 400.467 L 90.400 413.200 92.900 413.124 L 95.400 413.049 93.100 412.904 L 90.800 412.760 90.800 400.380 L 90.800 388.000 93.000 388.000 C 94.210 388.000,95.200 387.820,95.200 387.600 C 95.200 387.160,91.094 387.039,90.667 387.467 M100.399 387.500 C 100.399 387.665,102.964 387.753,106.099 387.697 C 116.507 387.508,117.500 387.360,108.900 387.279 C 104.225 387.236,100.400 387.335,100.399 387.500 M121.063 387.500 C 120.961 387.665,124.055 387.786,127.939 387.768 C 131.823 387.751,136.305 387.822,137.900 387.926 L 140.800 388.115 140.800 389.643 L 140.800 391.171 137.100 391.307 L 133.400 391.443 137.200 391.422 L 141.000 391.400 141.131 390.252 C 141.203 389.620,141.155 388.675,141.024 388.152 L 140.785 387.200 131.016 387.200 C 125.643 387.200,121.164 387.335,121.063 387.500 M144.250 387.814 C 144.113 388.172,144.039 392.006,144.087 396.333 L 144.175 404.200 144.387 396.000 L 144.600 387.800 146.477 387.679 L 148.354 387.558 148.510 389.279 L 148.665 391.000 148.633 389.200 L 148.600 387.400 146.550 387.281 C 144.951 387.188,144.445 387.305,144.250 387.814 M161.485 387.449 C 161.328 387.605,161.239 391.528,161.288 396.167 L 161.375 404.600 161.588 396.200 L 161.800 387.800 163.600 387.800 L 165.400 387.800 165.615 396.800 L 165.831 405.800 165.815 396.600 L 165.800 387.400 163.785 387.282 C 162.676 387.217,161.641 387.292,161.485 387.449 M171.067 387.467 C 170.920 387.613,170.800 393.463,170.800 400.467 L 170.800 413.200 173.200 413.200 L 175.600 413.200 175.600 403.951 C 175.600 395.378,175.649 394.742,176.264 395.251 C 176.870 395.752,176.881 395.723,176.384 394.926 C 175.360 393.281,175.200 394.457,175.200 403.624 L 175.200 412.800 173.200 412.800 L 171.200 412.800 171.200 400.144 L 171.200 387.489 173.300 387.736 C 174.915 387.926,175.631 388.242,176.400 389.107 C 176.950 389.725,177.229 389.954,177.019 389.616 C 175.674 387.442,172.307 386.227,171.067 387.467 M190.264 387.496 C 190.150 387.680,190.989 387.824,192.129 387.816 L 194.200 387.800 194.306 400.300 L 194.411 412.800 192.337 412.800 C 190.945 412.800,189.990 412.570,189.431 412.100 C 188.601 411.401,188.601 411.401,189.362 412.300 C 189.992 413.044,190.530 413.200,192.468 413.200 L 194.811 413.200 194.706 400.300 L 194.600 387.400 192.536 387.280 C 191.400 387.215,190.378 387.312,190.264 387.496 M86.800 389.400 L 86.800 391.200 83.000 391.200 L 79.200 391.200 79.200 402.021 L 79.200 412.842 77.100 412.721 L 75.000 412.600 74.893 401.900 L 74.787 391.200 70.993 391.200 L 67.200 391.200 67.200 389.667 C 67.200 387.511,66.767 387.600,77.267 387.600 L 86.800 387.600 86.800 389.400 M374.400 393.157 C 372.090 395.528,369.390 398.147,368.400 398.975 L 366.600 400.482 368.600 398.977 C 371.625 396.701,379.640 388.673,378.737 388.823 C 378.662 388.835,376.710 390.786,374.400 393.157 M202.700 390.961 C 201.655 391.925,200.800 392.861,200.800 393.042 C 200.800 393.222,201.700 392.483,202.800 391.400 C 204.632 389.595,204.981 389.192,204.700 389.204 C 204.645 389.207,203.745 389.997,202.700 390.961 M271.000 393.542 C 274.532 397.176,280.225 401.908,280.606 401.527 C 280.712 401.421,279.856 400.723,278.703 399.976 C 277.550 399.229,274.535 396.642,272.003 394.228 C 267.529 389.962,267.501 389.942,271.000 393.542 M54.100 391.076 C 54.485 391.176,55.115 391.176,55.500 391.076 C 55.885 390.975,55.570 390.893,54.800 390.893 C 54.030 390.893,53.715 390.975,54.100 391.076 M62.664 391.200 C 64.479 393.791,60.822 394.867,58.247 392.500 L 57.051 391.400 58.026 392.690 C 59.368 394.466,63.885 394.555,63.687 392.802 C 63.625 392.252,63.275 391.532,62.909 391.202 C 62.321 390.670,62.293 390.670,62.664 391.200 M212.105 391.087 C 212.714 391.179,213.614 391.177,214.105 391.082 C 214.597 390.987,214.100 390.911,213.000 390.914 C 211.900 390.917,211.497 390.995,212.105 391.087 M223.562 391.862 C 224.023 392.556,224.400 393.231,224.400 393.362 C 224.400 393.968,219.868 393.562,218.862 392.866 C 217.402 391.856,216.800 391.522,216.800 391.723 C 216.800 392.648,220.240 394.000,222.591 394.000 C 225.566 394.000,225.627 393.911,223.951 392.000 C 222.775 390.658,222.759 390.652,223.562 391.862 M51.054 392.029 C 50.474 392.485,50.005 393.160,50.012 393.529 C 50.022 394.083,50.101 394.060,50.464 393.400 C 50.706 392.960,51.286 392.289,51.752 391.909 C 52.218 391.529,52.489 391.214,52.354 391.209 C 52.219 391.204,51.634 391.573,51.054 392.029 M105.061 391.500 C 104.958 391.665,106.792 391.753,109.137 391.695 C 116.719 391.508,117.541 391.350,111.324 391.274 C 107.982 391.233,105.163 391.335,105.061 391.500 M124.599 391.492 L 128.400 391.629 128.400 402.434 L 128.400 413.240 130.700 413.120 L 133.000 413.000 133.010 402.400 L 133.021 391.800 132.904 402.300 L 132.787 412.800 130.800 412.800 L 128.813 412.800 128.707 402.100 L 128.600 391.400 124.699 391.377 L 120.798 391.354 124.599 391.492 M207.478 392.391 C 206.445 393.046,205.600 393.689,205.600 393.818 C 205.600 393.948,206.128 393.679,206.773 393.219 C 207.418 392.760,208.543 392.125,209.273 391.808 C 210.003 391.491,210.320 391.224,209.978 391.216 C 209.636 391.207,208.511 391.736,207.478 392.391 M148.493 393.200 C 148.493 393.970,148.575 394.285,148.676 393.900 C 148.776 393.515,148.776 392.885,148.676 392.500 C 148.575 392.115,148.493 392.430,148.493 393.200 M179.954 393.936 C 180.399 394.560,181.083 395.325,181.474 395.636 C 181.865 395.946,181.588 395.435,180.859 394.500 C 179.374 392.596,178.702 392.177,179.954 393.936 M204.899 394.900 C 202.648 397.721,202.771 404.699,205.097 406.136 C 205.305 406.265,205.054 405.537,204.538 404.518 C 203.229 401.931,203.247 398.434,204.582 396.100 C 205.543 394.418,205.672 393.931,204.899 394.900 M148.546 399.400 C 148.547 401.600,148.614 402.449,148.695 401.287 C 148.776 400.124,148.776 398.324,148.693 397.287 C 148.611 396.249,148.545 397.200,148.546 399.400 M46.385 397.487 C 46.789 398.321,49.836 400.406,50.635 400.395 C 50.836 400.393,50.221 399.945,49.268 399.400 C 48.316 398.856,47.181 398.003,46.746 397.505 L 45.955 396.600 46.385 397.487 M52.803 397.536 C 53.135 397.754,54.935 398.312,56.803 398.777 C 63.592 400.466,65.944 404.778,62.790 409.752 C 62.124 410.801,61.762 411.547,61.985 411.409 C 63.348 410.567,64.491 407.526,64.322 405.190 C 64.058 401.537,62.009 399.673,56.847 398.388 C 55.081 397.948,53.313 397.488,52.918 397.364 C 52.329 397.180,52.308 397.211,52.803 397.536 M178.400 397.773 C 178.400 398.142,187.982 410.741,188.511 411.068 C 188.735 411.207,186.877 408.638,184.382 405.360 C 181.888 402.082,179.521 398.971,179.123 398.446 C 178.726 397.921,178.400 397.619,178.400 397.773 M109.799 398.693 L 114.800 398.824 114.800 400.612 L 114.800 402.400 109.800 402.400 C 107.050 402.400,104.800 402.535,104.799 402.700 C 104.799 402.865,107.094 402.910,109.899 402.800 L 115.000 402.600 115.000 400.600 L 115.000 398.600 109.899 398.581 L 104.799 398.563 109.799 398.693 M212.900 398.660 C 212.610 398.780,212.427 399.483,212.464 400.333 L 212.528 401.800 212.689 400.500 C 212.786 399.720,213.081 399.195,213.425 399.187 C 213.741 399.180,216.340 399.174,219.200 399.174 C 222.060 399.174,224.837 399.180,225.372 399.187 C 226.051 399.196,226.402 399.471,226.536 400.100 C 226.664 400.704,226.706 400.606,226.663 399.800 L 226.600 398.600 220.000 398.527 C 216.370 398.486,213.175 398.546,212.900 398.660 M185.636 401.298 C 186.349 402.342,187.297 403.512,187.742 403.898 C 188.829 404.841,187.480 402.891,185.599 400.800 L 184.339 399.400 185.636 401.298 M225.888 403.000 C 225.431 405.681,223.493 408.731,220.869 410.900 C 220.137 411.505,219.669 412.000,219.828 412.000 C 221.915 412.000,226.821 404.509,226.311 402.103 C 226.229 401.716,226.039 402.120,225.888 403.000 M362.789 402.700 C 362.245 403.085,360.360 404.160,358.600 405.088 C 356.840 406.017,355.553 406.782,355.739 406.788 C 356.246 406.806,362.050 403.705,363.200 402.803 C 364.443 401.827,364.132 401.749,362.789 402.700 M58.831 403.501 C 59.364 404.157,59.849 404.654,59.909 404.605 C 60.196 404.369,59.494 403.326,58.723 402.845 C 57.921 402.344,57.929 402.389,58.831 403.501 M282.744 402.932 C 282.987 403.225,284.134 403.973,285.293 404.594 C 287.974 406.030,287.596 405.587,284.602 403.785 C 283.337 403.022,282.500 402.639,282.744 402.932 M148.809 404.720 C 148.745 408.491,156.732 411.823,158.598 408.803 C 158.725 408.597,158.161 408.708,157.344 409.049 C 154.299 410.321,150.973 408.947,149.559 405.831 C 149.151 404.934,148.814 404.434,148.809 404.720 M219.864 405.929 C 218.905 406.989,219.046 407.354,220.033 406.367 C 220.492 405.908,220.791 405.457,220.698 405.364 C 220.605 405.271,220.230 405.525,219.864 405.929 M45.206 406.300 C 45.210 406.770,45.312 406.844,45.515 406.524 C 45.681 406.262,46.804 405.981,48.009 405.898 L 50.200 405.748 47.700 405.674 C 45.556 405.611,45.201 405.700,45.206 406.300 M287.600 405.796 C 287.600 406.070,290.049 407.284,290.232 407.101 C 290.319 407.014,289.762 406.644,288.995 406.278 C 288.228 405.912,287.600 405.695,287.600 405.796 M59.326 407.190 C 58.659 408.959,56.426 409.833,53.887 409.320 C 52.773 409.095,52.126 409.086,52.338 409.298 C 54.177 411.137,60.684 408.651,59.932 406.396 C 59.853 406.159,59.581 406.516,59.326 407.190 M164.836 407.451 C 164.552 408.237,163.604 409.596,162.729 410.471 C 161.855 411.345,161.519 411.858,161.982 411.609 C 163.394 410.854,166.071 406.738,165.513 406.180 C 165.425 406.092,165.121 406.664,164.836 407.451 M45.600 407.884 C 45.600 408.367,47.907 411.600,48.251 411.600 C 48.387 411.600,48.316 411.375,48.095 411.100 C 47.873 410.825,47.221 409.900,46.646 409.044 C 46.071 408.188,45.600 407.666,45.600 407.884 M202.383 409.300 C 203.364 410.345,204.219 411.200,204.283 411.200 C 204.584 411.200,204.266 410.841,202.500 409.183 L 200.600 407.400 202.383 409.300 M291.659 407.793 C 292.112 408.245,300.367 411.152,301.814 411.369 C 303.013 411.549,302.815 411.425,301.000 410.862 C 299.680 410.453,297.081 409.551,295.223 408.859 C 291.833 407.595,291.303 407.436,291.659 407.793 M145.513 408.600 C 145.745 409.040,146.618 410.030,147.453 410.800 C 148.833 412.072,147.657 410.558,145.278 408.000 C 145.175 407.890,145.281 408.160,145.513 408.600 M350.200 408.663 C 349.320 408.975,347.250 409.672,345.600 410.211 C 342.147 411.340,342.816 411.271,347.358 410.029 C 349.094 409.554,350.984 408.910,351.558 408.599 C 352.855 407.893,352.298 407.920,350.200 408.663 M209.400 409.259 C 210.428 409.926,215.390 409.967,216.045 409.314 C 216.427 408.933,216.198 408.920,214.980 409.257 C 213.517 409.661,211.133 409.547,209.382 408.989 C 208.630 408.749,208.631 408.760,209.400 409.259 M101.507 413.090 C 102.226 413.179,103.306 413.177,103.907 413.086 C 104.508 412.995,103.920 412.922,102.600 412.924 C 101.280 412.926,100.788 413.001,101.507 413.090 M313.705 413.487 C 314.314 413.579,315.214 413.577,315.705 413.482 C 316.197 413.387,315.700 413.311,314.600 413.314 C 313.500 413.317,313.097 413.395,313.705 413.487 M326.905 413.487 C 327.514 413.579,328.414 413.577,328.905 413.482 C 329.397 413.387,328.900 413.311,327.800 413.314 C 326.700 413.317,326.297 413.395,326.905 413.487 " stroke="none" fill="#848484" fill-rule="evenodd"></path></g></svg>