<svg id="svg" version="1.1" xmlns="http://www.w3.org/2000/svg" xmlns:xlink="http://www.w3.org/1999/xlink" width="400" height="400" viewBox="0, 0, 400,400"><g id="svgg"><path id="path0" d="M208.600 31.731 C 203.370 33.782,201.268 36.576,198.620 45.000 C 197.790 47.640,196.573 51.330,195.915 53.200 C 195.257 55.070,194.298 58.033,193.784 59.784 C 193.270 61.535,192.319 64.415,191.671 66.184 C 190.000 70.741,188.159 76.264,186.544 81.565 C 185.779 84.076,184.900 86.619,184.591 87.217 C 184.282 87.814,183.665 89.630,183.218 91.251 C 182.772 92.873,181.791 95.910,181.038 98.000 C 179.358 102.660,177.992 106.792,176.156 112.765 C 175.384 115.276,174.505 117.810,174.202 118.396 C 173.899 118.982,173.177 121.148,172.597 123.211 C 172.017 125.273,171.122 127.959,170.608 129.181 C 170.094 130.402,169.381 132.530,169.024 133.908 C 168.667 135.286,167.848 137.806,167.205 139.507 C 166.563 141.208,165.752 143.639,165.404 144.909 C 165.053 146.193,164.260 147.792,163.619 148.509 L 162.466 149.800 126.933 150.093 C 107.390 150.254,81.410 150.524,69.200 150.693 L 47.000 151.000 44.480 152.367 C 39.546 155.042,37.665 157.974,38.084 162.338 C 38.461 166.259,39.685 167.897,48.664 176.500 C 55.503 183.053,54.915 183.971,43.600 184.399 C 30.726 184.887,27.084 187.075,27.029 194.360 C 27.005 197.420,28.268 206.949,29.021 209.400 C 29.359 210.500,29.796 213.470,29.991 216.000 C 30.435 221.738,31.405 228.697,32.418 233.400 C 33.389 237.911,33.871 241.363,34.620 249.154 C 34.945 252.539,35.551 256.679,35.966 258.354 C 36.382 260.029,36.846 262.293,36.998 263.385 C 37.810 269.215,41.977 272.966,48.391 273.640 C 50.046 273.815,66.181 273.967,84.246 273.978 L 117.092 274.000 118.195 274.868 C 119.556 275.938,119.477 279.053,117.989 283.000 C 116.929 285.813,115.613 289.831,113.929 295.400 C 113.264 297.600,112.185 300.930,111.532 302.800 C 110.879 304.670,109.549 308.990,108.576 312.400 C 107.603 315.810,106.444 319.500,106.001 320.600 C 105.557 321.700,104.936 323.950,104.621 325.600 C 104.306 327.250,103.656 329.483,103.178 330.562 C 102.700 331.640,101.906 333.980,101.416 335.762 C 99.673 342.083,97.546 348.943,97.003 349.995 C 96.699 350.581,95.977 352.748,95.397 354.811 C 94.817 356.873,93.924 359.559,93.412 360.780 C 91.430 365.505,90.767 371.631,91.961 374.200 C 94.972 380.681,102.187 383.564,107.352 380.350 C 115.132 375.510,123.023 369.968,126.361 367.000 C 127.599 365.900,129.598 364.378,130.805 363.618 C 132.012 362.858,135.070 360.692,137.600 358.804 C 149.802 349.701,151.564 348.419,153.800 347.011 C 155.120 346.180,157.280 344.569,158.600 343.431 C 162.382 340.170,165.512 337.864,169.400 335.476 C 171.380 334.260,174.522 331.886,176.381 330.200 C 178.241 328.515,180.311 326.854,180.981 326.509 C 183.050 325.443,188.876 321.380,191.400 319.244 C 192.720 318.126,195.013 316.354,196.495 315.306 C 197.977 314.258,201.445 311.743,204.201 309.717 C 210.315 305.224,211.188 304.968,214.119 306.816 C 215.263 307.538,217.413 308.726,218.895 309.457 C 220.378 310.188,222.628 311.736,223.895 312.898 C 227.078 315.815,230.610 318.480,233.641 320.251 C 235.048 321.074,237.190 322.683,238.400 323.828 C 239.610 324.973,242.490 327.126,244.800 328.614 C 247.110 330.101,250.321 332.467,251.935 333.871 C 253.550 335.275,255.986 336.930,257.349 337.548 C 258.712 338.166,261.171 339.833,262.813 341.252 C 267.033 344.899,270.339 347.386,272.206 348.318 C 273.089 348.759,275.154 350.324,276.795 351.796 C 278.437 353.268,281.543 355.555,283.698 356.880 C 285.853 358.204,288.785 360.347,290.215 361.643 C 291.667 362.959,294.231 364.710,296.026 365.613 C 298.426 366.820,300.218 368.165,303.119 370.939 C 307.881 375.492,316.987 380.418,321.208 380.723 C 325.896 381.062,332.400 375.675,332.400 371.453 C 332.400 370.110,329.791 359.339,329.021 357.506 C 328.676 356.684,328.193 355.064,327.948 353.906 C 327.702 352.748,326.895 350.329,326.154 348.531 C 325.413 346.733,324.252 342.781,323.574 339.750 C 322.897 336.719,321.925 333.240,321.414 332.019 C 320.904 330.799,320.267 328.727,319.997 327.415 C 319.728 326.102,318.916 323.672,318.193 322.015 C 317.470 320.357,316.661 317.920,316.394 316.600 C 316.127 315.280,315.382 313.035,314.739 311.610 C 314.095 310.186,313.282 307.761,312.932 306.221 C 312.582 304.682,311.978 302.681,311.589 301.775 C 311.201 300.869,310.666 299.082,310.401 297.804 C 310.136 296.526,309.336 294.112,308.625 292.440 C 306.820 288.200,304.489 277.695,304.947 275.870 C 305.411 274.020,305.461 274.017,342.200 273.906 L 377.000 273.800 379.159 272.687 C 384.612 269.875,385.773 268.019,386.622 260.751 C 386.930 258.115,387.463 255.022,387.806 253.879 C 388.150 252.735,388.590 249.601,388.784 246.913 C 388.978 244.224,389.229 241.876,389.342 241.694 C 389.454 241.512,389.757 239.392,390.015 236.982 C 390.273 234.572,390.813 231.250,391.215 229.600 C 392.048 226.184,392.970 219.612,393.598 212.613 C 393.834 209.980,394.372 206.470,394.794 204.813 C 396.990 196.183,396.745 192.560,393.740 189.217 C 390.367 185.466,388.203 184.808,378.000 184.430 C 369.548 184.117,368.400 183.843,368.400 182.137 C 368.400 180.937,372.390 176.878,376.000 174.406 C 386.464 167.240,387.946 156.970,379.165 152.479 C 374.228 149.954,375.826 150.017,316.660 150.008 C 255.976 149.999,261.026 150.274,258.843 146.863 C 257.373 144.565,256.854 143.226,256.338 140.400 C 256.118 139.190,255.338 136.850,254.606 135.200 C 253.873 133.550,253.056 131.127,252.791 129.815 C 252.525 128.502,251.716 126.072,250.993 124.415 C 250.270 122.757,249.460 120.320,249.192 119.000 C 248.925 117.680,248.201 115.598,247.584 114.374 C 246.967 113.149,246.183 110.794,245.842 109.141 C 245.500 107.487,244.682 104.979,244.023 103.567 C 243.364 102.155,242.578 99.830,242.277 98.400 C 241.975 96.970,241.154 94.497,240.452 92.903 C 239.749 91.310,238.992 89.023,238.770 87.821 C 238.548 86.619,237.830 84.454,237.175 83.010 C 236.521 81.566,235.713 79.173,235.381 77.692 C 235.050 76.211,234.237 73.803,233.576 72.339 C 232.914 70.876,232.113 68.428,231.794 66.900 C 231.475 65.371,230.677 62.969,230.020 61.560 C 229.363 60.152,228.561 57.740,228.239 56.200 C 227.916 54.660,227.102 52.223,226.428 50.785 C 225.755 49.347,225.008 47.097,224.767 45.785 C 223.155 36.992,214.460 29.434,208.600 31.731 M214.827 33.931 C 218.612 36.332,221.971 41.194,223.015 45.785 C 223.364 47.319,224.175 49.839,224.818 51.387 C 225.460 52.934,226.338 55.580,226.768 57.268 C 227.199 58.955,227.919 61.058,228.370 61.940 C 228.820 62.823,229.634 65.262,230.179 67.360 C 230.725 69.458,231.517 71.855,231.940 72.687 C 232.363 73.519,233.175 75.952,233.744 78.094 C 234.313 80.236,235.145 82.708,235.593 83.586 C 236.041 84.464,236.690 86.402,237.036 87.891 C 237.381 89.380,238.255 92.039,238.978 93.799 C 239.701 95.560,240.419 97.720,240.575 98.600 C 240.730 99.480,241.479 101.763,242.238 103.674 C 242.998 105.584,243.964 108.495,244.385 110.141 C 244.806 111.788,245.501 113.825,245.930 114.668 C 246.359 115.510,247.175 117.952,247.744 120.094 C 248.313 122.236,249.145 124.708,249.593 125.586 C 250.041 126.464,250.690 128.402,251.035 129.891 C 251.380 131.381,252.185 133.860,252.824 135.400 C 253.463 136.940,254.338 139.578,254.767 141.262 C 256.054 146.309,257.834 149.232,260.512 150.696 C 261.719 151.356,265.321 151.413,318.000 151.600 L 374.200 151.800 377.800 153.600 C 385.662 157.531,384.880 166.086,376.094 172.262 C 372.220 174.985,366.189 180.577,365.605 181.989 C 364.303 185.131,366.719 185.995,376.816 185.998 C 393.064 186.003,395.694 188.906,393.304 204.200 C 392.823 207.280,392.038 212.590,391.561 216.000 C 391.083 219.410,390.458 223.730,390.172 225.600 C 389.885 227.470,389.440 230.710,389.183 232.800 C 388.926 234.890,388.284 238.503,387.758 240.828 C 387.231 243.154,386.800 246.144,386.800 247.474 C 386.800 248.803,386.611 250.860,386.380 252.045 C 386.150 253.230,385.711 256.408,385.406 259.107 C 384.583 266.393,383.349 268.625,378.800 271.053 C 377.471 271.762,375.575 271.810,341.600 272.000 C 297.601 272.246,301.375 271.296,303.836 281.503 C 304.405 283.866,305.112 286.904,305.405 288.252 C 305.698 289.601,306.403 291.621,306.970 292.741 C 307.538 293.861,308.362 296.323,308.803 298.212 C 309.243 300.101,309.880 302.182,310.219 302.836 C 310.557 303.490,311.201 305.505,311.649 307.313 C 312.098 309.121,312.988 311.794,313.627 313.254 C 314.266 314.714,314.992 316.874,315.241 318.054 C 315.489 319.234,316.293 321.730,317.026 323.600 C 318.778 328.070,322.198 340.131,322.981 344.600 C 323.135 345.480,323.860 347.550,324.593 349.200 C 325.327 350.850,326.136 353.236,326.392 354.502 C 326.648 355.768,327.300 357.893,327.841 359.224 C 328.956 361.969,330.391 368.591,330.396 371.022 C 330.404 374.165,326.493 378.371,322.943 379.037 C 319.123 379.754,310.028 375.209,304.200 369.672 C 301.135 366.760,299.534 365.567,297.350 364.568 C 295.537 363.740,293.425 362.298,291.550 360.608 C 289.927 359.146,286.800 356.840,284.600 355.483 C 282.400 354.126,279.492 351.989,278.138 350.734 C 276.784 349.479,274.781 347.998,273.687 347.444 C 271.606 346.390,267.117 342.967,263.395 339.595 C 262.192 338.506,259.901 336.987,258.304 336.221 C 256.598 335.402,254.203 333.755,252.497 332.228 C 250.901 330.798,248.039 328.678,246.137 327.515 C 244.235 326.353,241.403 324.258,239.843 322.859 C 238.282 321.460,236.169 319.891,235.147 319.373 C 232.831 318.200,228.599 315.002,225.238 311.886 C 223.719 310.478,221.647 309.049,220.150 308.377 C 218.761 307.754,216.658 306.514,215.476 305.622 C 211.952 302.962,210.158 303.341,203.749 308.105 C 201.577 309.719,198.483 311.890,196.872 312.929 C 195.262 313.969,193.102 315.593,192.072 316.538 C 189.358 319.028,185.909 321.567,181.761 324.127 C 179.760 325.362,176.639 327.714,174.825 329.353 C 173.012 330.993,169.879 333.332,167.864 334.552 C 165.849 335.771,162.580 338.127,160.600 339.785 C 158.620 341.444,155.470 343.819,153.600 345.063 C 151.730 346.306,148.760 348.445,147.000 349.816 C 142.245 353.518,134.699 359.022,130.437 361.897 C 128.367 363.293,125.742 365.282,124.603 366.318 C 122.418 368.304,119.760 370.219,112.662 374.925 C 103.961 380.692,103.839 380.736,100.067 379.497 C 92.665 377.067,91.275 370.332,95.805 358.845 C 96.552 356.950,97.444 354.284,97.788 352.919 C 98.131 351.555,98.786 349.575,99.244 348.519 C 99.701 347.464,100.780 344.042,101.642 340.916 C 102.503 337.790,103.722 333.830,104.350 332.116 C 104.978 330.402,105.623 328.100,105.784 327.000 C 105.944 325.900,106.688 323.429,107.438 321.509 C 108.187 319.588,108.800 317.720,108.800 317.356 C 108.800 316.992,109.328 315.144,109.973 313.247 C 110.618 311.351,111.437 308.660,111.792 307.268 C 112.148 305.875,112.877 303.744,113.413 302.532 C 113.949 301.320,114.848 298.499,115.411 296.264 C 115.973 294.029,117.071 290.400,117.850 288.200 C 122.203 275.907,122.160 273.415,117.577 272.432 C 116.222 272.142,104.438 272.000,81.644 272.000 C 44.458 272.000,45.708 272.077,42.239 269.585 C 40.114 268.059,38.988 265.964,38.592 262.800 C 38.441 261.590,37.988 259.160,37.586 257.400 C 36.704 253.540,35.791 247.099,35.204 240.600 C 34.965 237.960,34.437 234.270,34.029 232.400 C 32.577 225.738,31.913 221.328,31.590 216.200 C 31.410 213.340,30.902 209.380,30.460 207.400 C 26.311 188.787,28.166 186.042,44.942 185.968 C 59.307 185.904,59.607 185.014,48.847 174.400 C 37.914 163.615,36.684 159.545,43.041 155.172 C 47.290 152.248,44.096 152.382,126.200 151.699 C 169.220 151.342,165.305 152.167,167.792 142.929 C 168.315 140.988,169.182 138.410,169.719 137.200 C 170.256 135.990,170.904 134.023,171.159 132.828 C 171.414 131.633,172.222 129.113,172.954 127.228 C 173.686 125.343,174.656 122.540,175.109 121.000 C 176.162 117.422,178.146 111.495,179.662 107.400 C 180.314 105.640,181.273 102.670,181.795 100.800 C 182.316 98.930,183.178 96.410,183.709 95.200 C 184.241 93.990,184.985 91.749,185.362 90.221 C 185.740 88.692,186.556 86.250,187.176 84.793 C 187.795 83.337,188.498 81.233,188.737 80.118 C 188.976 79.004,189.697 76.766,190.339 75.146 C 190.982 73.526,191.910 70.761,192.402 69.002 C 192.894 67.243,193.693 64.903,194.178 63.802 C 194.663 62.701,195.370 60.560,195.748 59.044 C 196.127 57.528,196.899 55.191,197.463 53.851 C 198.027 52.511,199.091 49.214,199.828 46.525 C 202.904 35.304,208.965 30.214,214.827 33.931 M209.892 54.900 C 209.132 55.476,206.883 61.102,204.977 67.200 C 203.317 72.512,201.442 78.090,199.929 82.216 C 199.281 83.985,198.330 86.865,197.816 88.616 C 197.302 90.367,196.341 93.330,195.681 95.200 C 193.856 100.370,192.461 104.570,191.031 109.200 C 190.318 111.510,189.158 114.653,188.454 116.184 C 187.750 117.715,186.814 120.378,186.374 122.102 C 185.934 123.826,185.125 126.251,184.577 127.491 C 184.029 128.730,183.229 131.119,182.800 132.800 C 182.371 134.481,181.571 136.870,181.023 138.110 C 180.474 139.350,179.744 141.578,179.401 143.060 C 179.057 144.542,178.165 146.952,177.420 148.416 C 176.674 149.879,175.600 152.589,175.034 154.438 C 172.458 162.846,179.353 161.975,115.000 162.023 C 57.779 162.067,57.532 162.075,57.276 163.873 C 56.886 166.609,65.411 175.163,72.528 179.178 C 73.809 179.900,75.699 181.220,76.728 182.112 C 80.708 185.557,65.318 185.218,212.263 185.102 L 342.600 185.000 344.940 183.648 C 346.227 182.904,348.945 180.834,350.981 179.048 C 358.188 172.723,359.479 171.666,362.492 169.622 C 365.871 167.329,366.800 166.209,366.800 164.428 C 366.800 162.089,369.897 162.217,308.332 162.000 L 251.664 161.800 250.644 160.841 C 250.082 160.314,249.412 159.234,249.154 158.441 C 248.896 157.649,248.177 155.884,247.556 154.519 C 246.935 153.155,246.050 150.564,245.590 148.762 C 245.130 146.960,244.217 144.423,243.561 143.124 C 242.906 141.825,242.079 139.465,241.725 137.881 C 241.371 136.296,240.495 133.650,239.780 132.000 C 239.064 130.350,238.261 127.920,237.994 126.600 C 237.727 125.280,236.979 123.030,236.331 121.600 C 235.683 120.170,234.903 117.821,234.599 116.379 C 234.294 114.938,233.039 111.618,231.809 109.002 C 230.580 106.386,229.288 102.975,228.939 101.423 C 228.589 99.870,227.778 97.435,227.136 96.010 C 226.494 94.586,225.683 92.156,225.334 90.610 C 224.985 89.065,224.093 86.592,223.352 85.115 C 222.611 83.639,221.561 80.720,221.017 78.628 C 220.474 76.537,219.674 74.130,219.240 73.278 C 218.806 72.427,218.065 70.216,217.593 68.365 C 217.122 66.514,216.232 63.830,215.616 62.400 C 215.000 60.970,214.181 58.810,213.795 57.600 C 212.941 54.920,212.556 54.400,211.427 54.400 C 210.946 54.400,210.256 54.625,209.892 54.900 M198.320 202.822 C 192.358 204.092,190.740 205.331,187.607 211.027 C 182.316 220.647,186.701 228.528,199.182 231.830 C 201.062 232.327,203.680 233.091,205.000 233.526 C 206.320 233.961,208.390 234.604,209.600 234.954 C 220.287 238.047,215.471 248.369,203.752 247.484 C 200.056 247.206,198.239 246.246,195.569 243.164 C 189.600 236.275,182.565 239.829,186.347 247.823 C 188.469 252.309,194.559 256.051,201.000 256.828 C 218.248 258.910,229.688 250.395,226.373 237.944 C 223.960 228.880,219.969 226.059,206.400 223.828 C 201.057 222.949,197.207 220.560,196.921 217.945 C 196.184 211.227,207.958 209.266,213.442 215.193 C 219.526 221.769,227.529 218.433,223.769 210.887 C 220.359 204.044,209.192 200.505,198.320 202.822 M67.949 203.193 C 62.993 204.068,63.200 202.960,63.200 228.610 C 63.200 254.870,63.238 255.077,68.248 255.828 C 72.847 256.518,74.006 254.614,74.354 245.800 C 74.725 236.378,74.042 236.912,86.000 236.688 C 94.446 236.529,95.623 236.201,96.664 233.709 C 97.443 231.844,97.088 230.018,95.695 228.719 C 93.590 226.756,93.017 226.635,85.000 226.470 C 76.302 226.290,75.492 226.068,74.770 223.658 C 73.912 220.795,74.427 215.792,75.711 214.506 L 76.816 213.400 86.708 213.200 C 96.012 213.012,96.683 212.948,98.000 212.123 C 101.566 209.888,101.628 205.498,98.118 203.754 C 96.455 202.928,72.024 202.473,67.949 203.193 M127.248 203.218 C 123.628 203.958,122.172 206.289,123.249 209.623 C 124.135 212.365,125.282 212.938,130.419 213.201 C 134.709 213.421,134.840 213.456,136.105 214.720 L 137.400 216.014 137.600 233.507 C 137.795 250.552,137.822 251.042,138.677 252.639 C 140.512 256.069,144.801 256.983,147.307 254.479 L 148.600 253.186 148.800 235.022 C 148.994 217.443,149.027 216.821,149.828 215.729 C 151.076 214.028,153.039 213.201,155.827 213.201 C 161.270 213.199,164.400 211.207,164.400 207.743 C 164.400 203.051,164.253 203.014,145.000 202.930 C 136.200 202.891,128.212 203.021,127.248 203.218 M235.000 203.062 C 234.560 203.155,233.780 203.321,233.266 203.432 C 231.559 203.798,230.400 205.501,230.400 207.640 C 230.400 211.890,231.771 212.833,238.453 213.181 C 245.868 213.567,245.354 212.068,245.600 234.000 C 245.819 253.500,245.816 253.475,248.271 255.083 C 249.818 256.097,253.638 256.049,254.803 255.000 C 256.517 253.457,256.570 252.892,256.789 233.908 L 257.000 215.617 258.092 214.525 C 259.103 213.515,259.496 213.417,263.384 213.201 C 266.731 213.015,267.804 212.804,268.668 212.159 C 272.591 209.230,272.210 204.460,267.963 203.332 C 266.277 202.885,236.974 202.645,235.000 203.062 M328.552 203.150 C 323.510 204.037,323.600 203.571,323.600 228.716 C 323.600 254.257,323.731 254.944,328.783 255.797 C 332.920 256.496,334.797 253.939,334.802 247.600 C 334.806 240.626,335.597 239.167,339.528 238.883 C 343.740 238.578,344.953 239.516,348.481 245.800 C 353.116 254.057,358.254 257.505,362.693 255.337 C 365.222 254.101,364.635 251.017,360.802 245.400 C 358.465 241.977,357.759 239.980,357.940 237.308 C 357.973 236.817,359.107 235.197,360.459 233.708 C 368.087 225.307,366.046 210.278,356.600 205.304 C 352.831 203.320,335.264 201.971,328.552 203.150 M108.885 203.974 C 105.872 205.380,105.960 204.543,106.088 230.650 L 106.200 253.666 107.475 254.805 C 109.884 256.957,114.372 256.682,116.162 254.271 C 117.269 252.780,117.712 208.800,116.646 206.248 C 115.505 203.516,112.040 202.501,108.885 203.974 M289.600 203.482 C 287.008 204.430,283.247 211.344,281.246 218.841 C 280.800 220.514,279.450 223.844,278.247 226.241 C 277.043 228.638,275.516 232.130,274.853 234.000 C 274.190 235.870,273.025 238.840,272.264 240.600 C 266.324 254.341,266.256 255.355,271.242 255.869 C 275.287 256.286,277.533 254.751,280.583 249.487 C 282.369 246.404,282.758 246.307,293.149 246.369 C 303.746 246.431,303.373 246.302,305.421 250.618 C 307.608 255.225,311.410 257.093,315.297 255.469 C 317.849 254.403,317.837 252.208,315.247 246.456 C 314.362 244.492,313.261 241.405,312.799 239.596 C 312.316 237.703,310.856 234.105,309.359 231.118 C 307.734 227.875,306.392 224.515,305.779 222.159 C 304.785 218.333,300.160 208.387,298.105 205.658 C 296.539 203.576,292.305 202.494,289.600 203.482 M209.705 203.982 C 217.409 205.244,224.615 211.576,222.740 215.436 C 221.512 217.966,218.081 217.389,214.801 214.101 C 207.860 207.142,195.200 209.423,195.200 217.633 C 195.200 221.439,197.419 223.329,203.400 224.613 C 217.084 227.552,221.216 229.345,223.190 233.200 C 226.373 239.416,225.436 247.400,221.112 250.921 C 210.218 259.791,186.488 255.130,187.278 244.276 C 187.552 240.518,190.417 240.861,195.027 245.203 C 203.354 253.046,218.039 249.276,217.103 239.535 C 216.749 235.850,214.061 234.283,202.594 231.077 C 190.429 227.675,187.122 224.980,187.034 218.400 C 186.901 208.339,197.019 201.904,209.705 203.982 M97.100 205.196 C 98.488 206.042,98.840 207.630,97.991 209.217 C 97.130 210.826,96.136 210.993,86.181 211.200 C 73.405 211.466,73.037 211.712,73.046 220.000 C 73.054 227.657,73.635 228.085,84.343 228.322 C 92.905 228.513,94.033 228.770,94.702 230.690 C 95.856 234.001,94.504 234.564,84.804 234.812 C 73.385 235.103,73.254 235.209,72.945 244.349 C 72.651 253.023,72.278 254.000,69.254 254.000 C 64.922 254.000,64.800 253.299,64.800 228.483 C 64.800 206.427,64.832 206.079,66.926 205.046 C 69.098 203.976,95.312 204.105,97.100 205.196 M160.999 204.974 C 165.499 206.854,162.480 210.628,155.986 211.239 C 147.157 212.070,147.200 211.959,147.199 233.997 C 147.199 249.004,147.132 250.734,146.499 251.996 C 145.080 254.828,142.023 254.634,140.500 251.615 C 139.610 249.851,139.600 249.641,139.600 233.462 C 139.600 211.680,139.411 211.212,130.600 211.201 C 125.098 211.193,122.599 207.044,126.812 204.912 C 128.350 204.133,159.121 204.189,160.999 204.974 M267.993 204.914 C 270.113 205.987,269.900 209.422,267.644 210.567 C 267.070 210.858,264.852 211.184,262.716 211.292 C 255.239 211.667,255.485 210.931,255.213 233.800 C 254.963 254.936,254.974 254.887,250.465 253.757 C 247.428 252.996,247.427 252.987,247.200 232.600 C 246.952 210.288,247.489 211.681,238.952 211.228 C 235.061 211.021,233.885 210.820,233.260 210.254 C 231.615 208.766,231.876 205.771,233.728 204.875 C 235.072 204.226,266.703 204.262,267.993 204.914 M294.715 205.013 C 297.055 205.949,303.277 217.662,304.657 223.731 C 305.022 225.333,306.514 229.011,308.187 232.426 C 309.994 236.117,311.268 239.295,311.572 240.872 C 311.839 242.262,312.765 244.947,313.629 246.837 C 315.982 251.985,315.578 254.000,312.191 254.000 C 309.870 254.000,307.951 252.345,306.355 248.968 C 304.453 244.941,304.653 245.000,292.977 245.000 C 281.261 245.000,282.136 244.717,278.599 249.647 C 275.913 253.393,274.077 254.656,271.988 254.197 C 268.824 253.502,269.126 251.233,273.665 241.629 C 274.958 238.895,276.293 235.565,276.633 234.229 C 276.973 232.893,278.303 229.640,279.589 227.000 C 281.873 222.312,282.807 219.877,284.192 215.000 C 286.458 207.023,290.397 203.285,294.715 205.013 M352.208 205.664 C 364.579 209.728,367.589 223.253,358.386 233.416 C 354.948 237.211,355.160 239.579,359.545 246.363 C 361.681 249.668,362.351 252.150,361.392 253.208 C 359.008 255.844,353.917 252.146,349.809 244.796 C 346.125 238.205,344.738 237.169,339.572 237.153 C 334.424 237.137,333.536 238.369,333.200 246.000 C 332.934 252.026,332.481 253.364,330.539 253.851 C 328.795 254.289,327.482 253.561,326.500 251.615 L 325.600 249.830 325.614 228.615 C 325.625 211.774,325.738 207.203,326.158 206.444 C 327.209 204.548,327.929 204.429,338.480 204.414 L 348.360 204.400 352.208 205.664 M114.186 205.750 C 115.596 207.160,115.655 208.281,115.522 231.071 C 115.402 251.548,115.384 251.963,114.560 253.071 C 113.121 255.006,109.664 254.857,108.607 252.814 C 107.809 251.270,107.731 209.514,108.523 207.210 C 109.351 204.800,112.440 204.003,114.186 205.750 M338.674 211.563 C 334.658 212.403,333.430 214.444,333.278 220.529 C 333.031 230.424,335.060 232.026,345.320 230.037 C 352.710 228.605,355.731 225.924,355.728 220.800 C 355.724 213.832,347.953 209.623,338.674 211.563 M348.362 213.589 C 356.257 215.853,355.695 226.162,347.579 227.964 C 344.204 228.713,339.422 228.935,337.850 228.416 C 333.196 226.880,333.744 215.026,338.533 213.639 C 340.252 213.141,346.687 213.109,348.362 213.589 M290.452 220.602 C 289.747 221.405,288.954 222.985,288.594 224.302 C 288.249 225.566,287.254 228.432,286.383 230.672 C 283.621 237.775,284.980 239.251,293.777 238.702 C 299.903 238.320,300.601 237.316,299.262 230.814 C 297.320 221.386,293.575 217.045,290.452 220.602 M294.300 222.900 C 295.719 224.421,297.159 227.744,297.657 230.650 C 298.529 235.733,297.535 236.907,292.379 236.884 C 286.530 236.858,286.155 235.883,289.070 228.278 C 291.575 221.744,292.415 220.880,294.300 222.900 M136.155 273.192 C 134.792 273.743,133.679 275.490,133.189 277.851 C 132.938 279.063,132.324 280.987,131.825 282.127 C 131.327 283.267,130.797 284.740,130.649 285.400 C 130.131 287.702,127.520 296.233,125.997 300.600 C 125.153 303.020,123.800 307.340,122.990 310.200 C 122.180 313.060,121.111 316.405,120.614 317.633 C 120.117 318.861,118.871 322.911,117.844 326.633 C 114.923 337.217,113.640 341.500,112.160 345.600 C 106.709 360.703,108.090 365.086,116.011 357.818 C 117.580 356.378,120.604 354.106,122.732 352.769 C 128.555 349.110,135.216 344.445,137.851 342.181 C 141.448 339.090,143.073 337.897,147.200 335.320 C 149.290 334.015,154.960 329.976,159.800 326.344 C 164.640 322.713,170.310 318.666,172.400 317.351 C 174.490 316.037,178.000 313.584,180.200 311.902 C 187.479 306.335,193.759 301.807,196.887 299.871 C 198.585 298.819,201.617 296.663,203.626 295.080 C 210.671 289.524,211.327 289.374,215.200 292.437 C 215.970 293.046,217.829 294.126,219.330 294.837 C 220.941 295.600,223.253 297.210,224.969 298.765 C 226.569 300.214,229.587 302.454,231.676 303.742 C 233.765 305.030,236.776 307.239,238.366 308.651 C 240.034 310.132,242.353 311.715,243.845 312.391 C 245.268 313.036,247.459 314.488,248.716 315.616 C 249.972 316.745,252.380 318.368,254.068 319.222 C 255.755 320.077,258.365 321.874,259.868 323.215 C 261.370 324.556,264.386 326.767,266.570 328.127 C 268.753 329.487,271.758 331.715,273.246 333.077 C 274.925 334.613,277.064 336.074,278.877 336.921 C 280.485 337.672,282.854 339.220,284.141 340.359 C 285.429 341.499,287.691 343.040,289.167 343.783 C 290.644 344.527,293.292 346.378,295.052 347.896 C 296.811 349.414,299.774 351.576,301.634 352.700 C 303.495 353.824,306.273 355.859,307.808 357.223 C 314.825 363.457,318.642 360.750,314.890 352.200 C 314.214 350.660,313.376 348.166,313.027 346.658 C 312.678 345.150,311.868 342.720,311.227 341.258 C 310.586 339.796,309.779 337.381,309.435 335.891 C 309.090 334.402,308.439 332.461,307.989 331.578 C 307.539 330.696,306.738 328.315,306.210 326.287 C 305.682 324.259,304.794 321.573,304.238 320.318 C 303.681 319.062,302.948 316.838,302.609 315.375 C 302.270 313.913,301.470 311.520,300.832 310.058 C 299.838 307.782,298.347 302.242,297.372 297.200 C 297.223 296.430,296.666 294.937,296.134 293.881 C 295.603 292.826,294.723 290.251,294.179 288.159 C 293.636 286.067,292.768 283.511,292.250 282.478 C 291.733 281.445,291.077 279.610,290.792 278.400 C 290.172 275.764,288.492 273.885,286.181 273.243 C 284.256 272.709,137.475 272.659,136.155 273.192 " stroke="none" fill="#f8e24a" fill-rule="evenodd"></path><path id="path1" d="M207.912 33.820 C 203.771 35.976,201.924 38.879,199.828 46.525 C 199.091 49.214,198.027 52.511,197.463 53.851 C 196.899 55.191,196.127 57.528,195.748 59.044 C 195.370 60.560,194.663 62.701,194.178 63.802 C 193.693 64.903,192.894 67.243,192.402 69.002 C 191.910 70.761,190.982 73.526,190.339 75.146 C 189.697 76.766,188.976 79.004,188.737 80.118 C 188.498 81.233,187.795 83.337,187.176 84.793 C 186.556 86.250,185.740 88.692,185.362 90.221 C 184.985 91.749,184.241 93.990,183.709 95.200 C 183.178 96.410,182.316 98.930,181.795 100.800 C 181.273 102.670,180.314 105.640,179.662 107.400 C 178.146 111.495,176.162 117.422,175.109 121.000 C 174.656 122.540,173.686 125.343,172.954 127.228 C 172.222 129.113,171.414 131.633,171.159 132.828 C 170.904 134.023,170.256 135.990,169.719 137.200 C 169.182 138.410,168.315 140.988,167.792 142.929 C 165.305 152.167,169.220 151.342,126.200 151.699 C 44.096 152.382,47.290 152.248,43.041 155.172 C 36.684 159.545,37.914 163.615,48.847 174.400 C 59.607 185.014,59.307 185.904,44.942 185.968 C 28.166 186.042,26.311 188.787,30.460 207.400 C 30.902 209.380,31.410 213.340,31.590 216.200 C 31.913 221.328,32.577 225.738,34.029 232.400 C 34.437 234.270,34.965 237.960,35.204 240.600 C 35.791 247.099,36.704 253.540,37.586 257.400 C 37.988 259.160,38.441 261.590,38.592 262.800 C 38.988 265.964,40.114 268.059,42.239 269.585 C 45.708 272.077,44.458 272.000,81.644 272.000 C 104.438 272.000,116.222 272.142,117.577 272.432 C 122.160 273.415,122.203 275.907,117.850 288.200 C 117.071 290.400,115.973 294.029,115.411 296.264 C 114.848 298.499,113.949 301.320,113.413 302.532 C 112.877 303.744,112.148 305.875,111.792 307.268 C 111.437 308.660,110.618 311.351,109.973 313.247 C 109.328 315.144,108.800 316.992,108.800 317.356 C 108.800 317.720,108.187 319.588,107.438 321.509 C 106.688 323.429,105.944 325.900,105.784 327.000 C 105.623 328.100,104.978 330.402,104.350 332.116 C 103.722 333.830,102.503 337.790,101.642 340.916 C 100.780 344.042,99.701 347.464,99.244 348.519 C 98.786 349.575,98.131 351.555,97.788 352.919 C 97.444 354.284,96.552 356.950,95.805 358.845 C 91.275 370.332,92.665 377.067,100.067 379.497 C 103.839 380.736,103.961 380.692,112.662 374.925 C 119.760 370.219,122.418 368.304,124.603 366.318 C 125.742 365.282,128.367 363.293,130.437 361.897 C 134.699 359.022,142.245 353.518,147.000 349.816 C 148.760 348.445,151.730 346.306,153.600 345.063 C 155.470 343.819,158.620 341.444,160.600 339.785 C 162.580 338.127,165.849 335.771,167.864 334.552 C 169.879 333.332,173.012 330.993,174.825 329.353 C 176.639 327.714,179.760 325.362,181.761 324.127 C 185.909 321.567,189.358 319.028,192.072 316.538 C 193.102 315.593,195.262 313.969,196.872 312.929 C 198.483 311.890,201.577 309.719,203.749 308.105 C 210.158 303.341,211.952 302.962,215.476 305.622 C 216.658 306.514,218.761 307.754,220.150 308.377 C 221.647 309.049,223.719 310.478,225.238 311.886 C 228.599 315.002,232.831 318.200,235.147 319.373 C 236.169 319.891,238.282 321.460,239.843 322.859 C 241.403 324.258,244.235 326.353,246.137 327.515 C 248.039 328.678,250.901 330.798,252.497 332.228 C 254.203 333.755,256.598 335.402,258.304 336.221 C 259.901 336.987,262.192 338.506,263.395 339.595 C 267.117 342.967,271.606 346.390,273.687 347.444 C 274.781 347.998,276.784 349.479,278.138 350.734 C 279.492 351.989,282.400 354.126,284.600 355.483 C 286.800 356.840,289.927 359.146,291.550 360.608 C 293.425 362.298,295.537 363.740,297.350 364.568 C 299.534 365.567,301.135 366.760,304.200 369.672 C 310.028 375.209,319.123 379.754,322.943 379.037 C 326.493 378.371,330.404 374.165,330.396 371.022 C 330.391 368.591,328.956 361.969,327.841 359.224 C 327.300 357.893,326.648 355.768,326.392 354.502 C 326.136 353.236,325.327 350.850,324.593 349.200 C 323.860 347.550,323.135 345.480,322.981 344.600 C 322.198 340.131,318.778 328.070,317.026 323.600 C 316.293 321.730,315.489 319.234,315.241 318.054 C 314.992 316.874,314.266 314.714,313.627 313.254 C 312.988 311.794,312.098 309.121,311.649 307.313 C 311.201 305.505,310.557 303.490,310.219 302.836 C 309.880 302.182,309.243 300.101,308.803 298.212 C 308.362 296.323,307.538 293.861,306.970 292.741 C 306.403 291.621,305.698 289.601,305.405 288.252 C 305.112 286.904,304.405 283.866,303.836 281.503 C 301.375 271.296,297.601 272.246,341.600 272.000 C 375.575 271.810,377.471 271.762,378.800 271.053 C 383.349 268.625,384.583 266.393,385.406 259.107 C 385.711 256.408,386.150 253.230,386.380 252.045 C 386.611 250.860,386.800 248.803,386.800 247.474 C 386.800 246.144,387.231 243.154,387.758 240.828 C 388.284 238.503,388.926 234.890,389.183 232.800 C 389.440 230.710,389.885 227.470,390.172 225.600 C 390.458 223.730,391.083 219.410,391.561 216.000 C 392.038 212.590,392.823 207.280,393.304 204.200 C 395.694 188.906,393.064 186.003,376.816 185.998 C 366.719 185.995,364.303 185.131,365.605 181.989 C 366.189 180.577,372.220 174.985,376.094 172.262 C 384.880 166.086,385.662 157.531,377.800 153.600 L 374.200 151.800 318.000 151.600 C 265.321 151.413,261.719 151.356,260.512 150.696 C 257.834 149.232,256.054 146.309,254.767 141.262 C 254.338 139.578,253.463 136.940,252.824 135.400 C 252.185 133.860,251.380 131.381,251.035 129.891 C 250.690 128.402,250.041 126.464,249.593 125.586 C 249.145 124.708,248.313 122.236,247.744 120.094 C 247.175 117.952,246.359 115.510,245.930 114.668 C 245.501 113.825,244.806 111.788,244.385 110.141 C 243.964 108.495,242.998 105.584,242.238 103.674 C 241.479 101.763,240.730 99.480,240.575 98.600 C 240.419 97.720,239.701 95.560,238.978 93.799 C 238.255 92.039,237.381 89.380,237.036 87.891 C 236.690 86.402,236.041 84.464,235.593 83.586 C 235.145 82.708,234.313 80.236,233.744 78.094 C 233.175 75.952,232.363 73.519,231.940 72.687 C 231.517 71.855,230.725 69.458,230.179 67.360 C 229.634 65.262,228.820 62.823,228.370 61.940 C 227.919 61.058,227.199 58.955,226.768 57.268 C 226.338 55.580,225.460 52.934,224.818 51.387 C 224.175 49.839,223.364 47.319,223.015 45.785 C 220.976 36.820,213.510 30.906,207.912 33.820 M212.698 54.900 C 212.916 55.175,213.410 56.390,213.795 57.600 C 214.181 58.810,215.000 60.970,215.616 62.400 C 216.232 63.830,217.122 66.514,217.593 68.365 C 218.065 70.216,218.806 72.427,219.240 73.278 C 219.674 74.130,220.474 76.537,221.017 78.628 C 221.561 80.720,222.611 83.639,223.352 85.115 C 224.093 86.592,224.985 89.065,225.334 90.610 C 225.683 92.156,226.494 94.586,227.136 96.010 C 227.778 97.435,228.589 99.870,228.939 101.423 C 229.288 102.975,230.580 106.386,231.809 109.002 C 233.039 111.618,234.294 114.938,234.599 116.379 C 234.903 117.821,235.683 120.170,236.331 121.600 C 236.979 123.030,237.727 125.280,237.994 126.600 C 238.261 127.920,239.064 130.350,239.780 132.000 C 240.495 133.650,241.371 136.296,241.725 137.881 C 242.079 139.465,242.906 141.825,243.561 143.124 C 244.217 144.423,245.130 146.960,245.590 148.762 C 246.050 150.564,246.935 153.155,247.556 154.519 C 248.177 155.884,248.896 157.649,249.154 158.441 C 249.412 159.234,250.082 160.314,250.644 160.841 L 251.664 161.800 308.332 162.000 C 369.897 162.217,366.800 162.089,366.800 164.428 C 366.800 166.209,365.871 167.329,362.492 169.622 C 359.479 171.666,358.188 172.723,350.981 179.048 C 348.945 180.834,346.227 182.904,344.940 183.648 L 342.600 185.000 212.263 185.102 C 65.318 185.218,80.708 185.557,76.728 182.112 C 75.699 181.220,73.809 179.900,72.528 179.178 C 65.411 175.163,56.886 166.609,57.276 163.873 C 57.532 162.075,57.779 162.067,115.000 162.023 C 179.353 161.975,172.458 162.846,175.034 154.438 C 175.600 152.589,176.674 149.879,177.420 148.416 C 178.165 146.952,179.057 144.542,179.401 143.060 C 179.744 141.578,180.474 139.350,181.023 138.110 C 181.571 136.870,182.371 134.481,182.800 132.800 C 183.229 131.119,184.029 128.730,184.577 127.491 C 185.125 126.251,185.934 123.826,186.374 122.102 C 186.814 120.378,187.750 117.715,188.454 116.184 C 189.158 114.653,190.318 111.510,191.031 109.200 C 192.461 104.570,193.856 100.370,195.681 95.200 C 196.341 93.330,197.302 90.367,197.816 88.616 C 198.330 86.865,199.281 83.985,199.929 82.216 C 201.442 78.090,203.317 72.512,204.977 67.200 C 208.068 57.314,209.536 54.400,211.427 54.400 C 211.908 54.400,212.480 54.625,212.698 54.900 M210.000 202.411 C 216.956 203.924,221.778 206.893,223.769 210.887 C 227.529 218.433,219.526 221.769,213.442 215.193 C 207.958 209.266,196.184 211.227,196.921 217.945 C 197.207 220.560,201.057 222.949,206.400 223.828 C 219.969 226.059,223.960 228.880,226.373 237.944 C 229.688 250.395,218.248 258.910,201.000 256.828 C 194.559 256.051,188.469 252.309,186.347 247.823 C 182.565 239.829,189.600 236.275,195.569 243.164 C 198.239 246.246,200.056 247.206,203.752 247.484 C 215.471 248.369,220.287 238.047,209.600 234.954 C 208.390 234.604,206.320 233.961,205.000 233.526 C 203.680 233.091,201.062 232.327,199.182 231.830 C 194.846 230.683,189.549 227.951,187.973 226.048 C 184.044 221.308,185.187 212.598,190.538 206.504 C 193.488 203.144,203.596 201.018,210.000 202.411 M98.118 203.754 C 101.628 205.498,101.566 209.888,98.000 212.123 C 96.683 212.948,96.012 213.012,86.708 213.200 L 76.816 213.400 75.711 214.506 C 74.427 215.792,73.912 220.795,74.770 223.658 C 75.492 226.068,76.302 226.290,85.000 226.470 C 93.017 226.635,93.590 226.756,95.695 228.719 C 97.088 230.018,97.443 231.844,96.664 233.709 C 95.623 236.201,94.446 236.529,86.000 236.688 C 74.042 236.912,74.725 236.378,74.354 245.800 C 74.006 254.614,72.847 256.518,68.248 255.828 C 63.238 255.077,63.200 254.870,63.200 228.610 C 63.200 205.627,63.248 205.045,65.215 203.992 C 67.888 202.562,95.318 202.363,98.118 203.754 M162.288 203.704 C 163.928 204.600,164.400 205.503,164.400 207.743 C 164.400 211.207,161.270 213.199,155.827 213.201 C 153.039 213.201,151.076 214.028,149.828 215.729 C 149.027 216.821,148.994 217.443,148.800 235.022 L 148.600 253.186 147.307 254.479 C 144.801 256.983,140.512 256.069,138.677 252.639 C 137.822 251.042,137.795 250.552,137.600 233.507 L 137.400 216.014 136.105 214.720 C 134.840 213.456,134.709 213.421,130.419 213.201 C 125.282 212.938,124.135 212.365,123.249 209.623 C 122.172 206.289,123.628 203.958,127.248 203.218 C 130.798 202.492,160.833 202.909,162.288 203.704 M267.963 203.332 C 272.210 204.460,272.591 209.230,268.668 212.159 C 267.804 212.804,266.731 213.015,263.384 213.201 C 259.496 213.417,259.103 213.515,258.092 214.525 L 257.000 215.617 256.789 233.908 C 256.570 252.892,256.517 253.457,254.803 255.000 C 253.638 256.049,249.818 256.097,248.271 255.083 C 245.816 253.475,245.819 253.500,245.600 234.000 C 245.354 212.068,245.868 213.567,238.453 213.181 C 231.771 212.833,230.400 211.890,230.400 207.640 C 230.400 205.501,231.559 203.798,233.266 203.432 C 233.780 203.321,234.560 203.155,235.000 203.062 C 236.974 202.645,266.277 202.885,267.963 203.332 M352.600 203.887 C 363.242 206.872,368.140 218.579,363.433 229.776 C 363.150 230.449,361.811 232.219,360.459 233.708 C 359.107 235.197,357.973 236.817,357.940 237.308 C 357.759 239.980,358.465 241.977,360.802 245.400 C 364.635 251.017,365.222 254.101,362.693 255.337 C 358.254 257.505,353.116 254.057,348.481 245.800 C 344.953 239.516,343.740 238.578,339.528 238.883 C 335.597 239.167,334.806 240.626,334.802 247.600 C 334.797 253.939,332.920 256.496,328.783 255.797 C 323.731 254.944,323.600 254.257,323.600 228.716 C 323.600 203.571,323.510 204.037,328.552 203.150 C 332.179 202.513,349.605 203.046,352.600 203.887 M115.028 204.181 C 117.234 205.627,117.235 205.646,117.113 230.388 C 117.002 252.773,116.986 253.160,116.162 254.271 C 114.372 256.682,109.884 256.957,107.475 254.805 L 106.200 253.666 106.088 230.650 C 105.960 204.543,105.872 205.380,108.885 203.974 C 110.880 203.043,113.421 203.129,115.028 204.181 M295.760 203.758 C 298.313 204.824,303.979 215.231,305.779 222.159 C 306.392 224.515,307.734 227.875,309.359 231.118 C 310.856 234.105,312.316 237.703,312.799 239.596 C 313.261 241.405,314.362 244.492,315.247 246.456 C 317.837 252.208,317.849 254.403,315.297 255.469 C 311.410 257.093,307.608 255.225,305.421 250.618 C 303.373 246.302,303.746 246.431,293.149 246.369 C 282.758 246.307,282.369 246.404,280.583 249.487 C 277.533 254.751,275.287 256.286,271.242 255.869 C 266.256 255.355,266.324 254.341,272.264 240.600 C 273.025 238.840,274.190 235.870,274.853 234.000 C 275.516 232.130,277.043 228.638,278.247 226.241 C 279.450 223.844,280.800 220.514,281.246 218.841 C 283.247 211.344,287.008 204.430,289.600 203.482 C 290.789 203.048,294.453 203.212,295.760 203.758 M338.533 213.639 C 333.744 215.026,333.196 226.880,337.850 228.416 C 339.422 228.935,344.204 228.713,347.579 227.964 C 355.695 226.162,356.257 215.853,348.362 213.589 C 346.687 213.109,340.252 213.141,338.533 213.639 M291.532 222.700 C 290.625 223.773,287.200 232.998,287.200 234.369 C 287.200 237.884,296.980 238.008,297.860 234.505 C 299.094 229.587,293.901 219.899,291.532 222.700 M286.181 273.243 C 288.492 273.885,290.172 275.764,290.792 278.400 C 291.077 279.610,291.733 281.445,292.250 282.478 C 292.768 283.511,293.636 286.067,294.179 288.159 C 294.723 290.251,295.603 292.826,296.134 293.881 C 296.666 294.937,297.223 296.430,297.372 297.200 C 298.347 302.242,299.838 307.782,300.832 310.058 C 301.470 311.520,302.270 313.913,302.609 315.375 C 302.948 316.838,303.681 319.062,304.238 320.318 C 304.794 321.573,305.682 324.259,306.210 326.287 C 306.738 328.315,307.539 330.696,307.989 331.578 C 308.439 332.461,309.090 334.402,309.435 335.891 C 309.779 337.381,310.586 339.796,311.227 341.258 C 311.868 342.720,312.678 345.150,313.027 346.658 C 313.376 348.166,314.214 350.660,314.890 352.200 C 318.642 360.750,314.825 363.457,307.808 357.223 C 306.273 355.859,303.495 353.824,301.634 352.700 C 299.774 351.576,296.811 349.414,295.052 347.896 C 293.292 346.378,290.644 344.527,289.167 343.783 C 287.691 343.040,285.429 341.499,284.141 340.359 C 282.854 339.220,280.485 337.672,278.877 336.921 C 277.064 336.074,274.925 334.613,273.246 333.077 C 271.758 331.715,268.753 329.487,266.570 328.127 C 264.386 326.767,261.370 324.556,259.868 323.215 C 258.365 321.874,255.755 320.077,254.068 319.222 C 252.380 318.368,249.972 316.745,248.716 315.616 C 247.459 314.488,245.268 313.036,243.845 312.391 C 242.353 311.715,240.034 310.132,238.366 308.651 C 236.776 307.239,233.765 305.030,231.676 303.742 C 229.587 302.454,226.569 300.214,224.969 298.765 C 223.253 297.210,220.941 295.600,219.330 294.837 C 217.829 294.126,215.970 293.046,215.200 292.437 C 211.327 289.374,210.671 289.524,203.626 295.080 C 201.617 296.663,198.585 298.819,196.887 299.871 C 193.759 301.807,187.479 306.335,180.200 311.902 C 178.000 313.584,174.490 316.037,172.400 317.351 C 170.310 318.666,164.640 322.713,159.800 326.344 C 154.960 329.976,149.290 334.015,147.200 335.320 C 143.073 337.897,141.448 339.090,137.851 342.181 C 135.216 344.445,128.555 349.110,122.732 352.769 C 120.604 354.106,117.580 356.378,116.011 357.818 C 108.090 365.086,106.709 360.703,112.160 345.600 C 113.640 341.500,114.923 337.217,117.844 326.633 C 118.871 322.911,120.117 318.861,120.614 317.633 C 121.111 316.405,122.180 313.060,122.990 310.200 C 123.800 307.340,125.153 303.020,125.997 300.600 C 127.520 296.233,130.131 287.702,130.649 285.400 C 130.797 284.740,131.327 283.267,131.825 282.127 C 132.324 280.987,132.938 279.063,133.189 277.851 C 133.679 275.490,134.792 273.743,136.155 273.192 C 137.475 272.659,284.256 272.709,286.181 273.243 " stroke="none" fill="#bc3027" fill-rule="evenodd"></path><path id="path2" d="M215.121 32.236 C 219.186 34.261,223.857 40.823,224.767 45.785 C 225.008 47.097,225.755 49.347,226.428 50.785 C 227.102 52.223,227.916 54.660,228.239 56.200 C 228.561 57.740,229.363 60.152,230.020 61.560 C 230.677 62.969,231.475 65.371,231.794 66.900 C 232.113 68.428,232.914 70.876,233.576 72.339 C 234.237 73.803,235.050 76.211,235.381 77.692 C 235.713 79.173,236.521 81.566,237.175 83.010 C 237.830 84.454,238.548 86.619,238.770 87.821 C 238.992 89.023,239.749 91.310,240.452 92.903 C 241.154 94.497,241.975 96.970,242.277 98.400 C 242.578 99.830,243.364 102.155,244.023 103.567 C 244.682 104.979,245.500 107.487,245.842 109.141 C 246.183 110.794,246.967 113.149,247.584 114.374 C 248.201 115.598,248.925 117.680,249.192 119.000 C 249.460 120.320,250.270 122.757,250.993 124.415 C 251.716 126.072,252.525 128.502,252.791 129.815 C 253.056 131.127,253.873 133.550,254.606 135.200 C 255.338 136.850,256.118 139.190,256.338 140.400 C 256.854 143.226,257.373 144.565,258.843 146.863 C 261.026 150.274,255.976 149.999,316.660 150.008 C 375.826 150.017,374.228 149.954,379.165 152.479 C 387.946 156.970,386.464 167.240,376.000 174.406 C 372.390 176.878,368.400 180.937,368.400 182.137 C 368.400 183.843,369.548 184.117,378.000 184.430 C 394.889 185.056,398.657 189.630,394.794 204.813 C 394.372 206.470,393.834 209.980,393.598 212.613 C 392.970 219.612,392.048 226.184,391.215 229.600 C 390.813 231.250,390.273 234.572,390.015 236.982 C 389.757 239.392,389.454 241.512,389.342 241.694 C 389.229 241.876,388.978 244.224,388.784 246.913 C 388.590 249.601,388.150 252.735,387.806 253.879 C 387.463 255.022,386.930 258.115,386.622 260.751 C 385.773 268.019,384.612 269.875,379.159 272.687 L 377.000 273.800 342.200 273.906 C 305.461 274.017,305.411 274.020,304.947 275.870 C 304.489 277.695,306.820 288.200,308.625 292.440 C 309.336 294.112,310.136 296.526,310.401 297.804 C 310.666 299.082,311.201 300.869,311.589 301.775 C 311.978 302.681,312.582 304.682,312.932 306.221 C 313.282 307.761,314.095 310.186,314.739 311.610 C 315.382 313.035,316.127 315.280,316.394 316.600 C 316.661 317.920,317.470 320.357,318.193 322.015 C 318.916 323.672,319.728 326.102,319.997 327.415 C 320.267 328.727,320.904 330.799,321.414 332.019 C 321.925 333.240,322.897 336.719,323.574 339.750 C 324.252 342.781,325.413 346.733,326.154 348.531 C 326.895 350.329,327.702 352.748,327.948 353.906 C 328.193 355.064,328.676 356.684,329.021 357.506 C 329.791 359.339,332.400 370.110,332.400 371.453 C 332.400 375.675,325.896 381.062,321.208 380.723 C 316.987 380.418,307.881 375.492,303.119 370.939 C 300.218 368.165,298.426 366.820,296.026 365.613 C 294.231 364.710,291.667 362.959,290.215 361.643 C 288.785 360.347,285.853 358.204,283.698 356.880 C 281.543 355.555,278.437 353.268,276.795 351.796 C 275.154 350.324,273.089 348.759,272.206 348.318 C 270.339 347.386,267.033 344.899,262.813 341.252 C 261.171 339.833,258.712 338.166,257.349 337.548 C 255.986 336.930,253.550 335.275,251.935 333.871 C 250.321 332.467,247.110 330.101,244.800 328.614 C 242.490 327.126,239.610 324.973,238.400 323.828 C 237.190 322.683,235.048 321.074,233.641 320.251 C 230.610 318.480,227.078 315.815,223.895 312.898 C 222.628 311.736,220.378 310.188,218.895 309.457 C 217.413 308.726,215.263 307.538,214.119 306.816 C 211.188 304.968,210.315 305.224,204.201 309.717 C 201.445 311.743,197.977 314.258,196.495 315.306 C 195.013 316.354,192.720 318.126,191.400 319.244 C 188.876 321.380,183.050 325.443,180.981 326.509 C 180.311 326.854,178.241 328.515,176.381 330.200 C 174.522 331.886,171.380 334.260,169.400 335.476 C 165.512 337.864,162.382 340.170,158.600 343.431 C 157.280 344.569,155.120 346.180,153.800 347.011 C 151.564 348.419,149.802 349.701,137.600 358.804 C 135.070 360.692,132.012 362.858,130.805 363.618 C 129.598 364.378,127.599 365.900,126.361 367.000 C 123.023 369.968,115.132 375.510,107.352 380.350 C 102.187 383.564,94.972 380.681,91.961 374.200 C 90.767 371.631,91.430 365.505,93.412 360.780 C 93.924 359.559,94.817 356.873,95.397 354.811 C 95.977 352.748,96.699 350.581,97.003 349.995 C 97.546 348.943,99.673 342.083,101.416 335.762 C 101.906 333.980,102.700 331.640,103.178 330.562 C 103.656 329.483,104.306 327.250,104.621 325.600 C 104.936 323.950,105.557 321.700,106.001 320.600 C 106.444 319.500,107.603 315.810,108.576 312.400 C 109.549 308.990,110.879 304.670,111.532 302.800 C 112.185 300.930,113.264 297.600,113.929 295.400 C 115.613 289.831,116.929 285.813,117.989 283.000 C 119.477 279.053,119.556 275.938,118.195 274.868 L 117.092 274.000 84.246 273.978 C 66.181 273.967,50.046 273.815,48.391 273.640 C 41.977 272.966,37.810 269.215,36.998 263.385 C 36.846 262.293,36.382 260.029,35.966 258.354 C 35.551 256.679,34.945 252.539,34.620 249.154 C 33.871 241.363,33.389 237.911,32.418 233.400 C 31.405 228.697,30.435 221.738,29.991 216.000 C 29.796 213.470,29.359 210.500,29.021 209.400 C 28.268 206.949,27.005 197.420,27.029 194.360 C 27.084 187.075,30.726 184.887,43.600 184.399 C 54.915 183.971,55.503 183.053,48.664 176.500 C 39.685 167.897,38.461 166.259,38.084 162.338 C 37.665 157.974,39.546 155.042,44.480 152.367 L 47.000 151.000 69.200 150.693 C 81.410 150.524,107.390 150.254,126.933 150.093 L 162.466 149.800 163.619 148.509 C 164.260 147.792,165.053 146.193,165.404 144.909 C 165.752 143.639,166.563 141.208,167.205 139.507 C 167.848 137.806,168.667 135.286,169.024 133.908 C 169.381 132.530,170.094 130.402,170.608 129.181 C 171.122 127.959,172.017 125.273,172.597 123.211 C 173.177 121.148,173.899 118.982,174.202 118.396 C 174.505 117.810,175.384 115.276,176.156 112.765 C 177.992 106.792,179.358 102.660,181.038 98.000 C 181.791 95.910,182.772 92.873,183.218 91.251 C 183.665 89.630,184.282 87.814,184.591 87.217 C 184.900 86.619,185.779 84.076,186.544 81.565 C 188.159 76.264,190.000 70.741,191.671 66.184 C 192.319 64.415,193.270 61.535,193.784 59.784 C 194.298 58.033,195.257 55.070,195.915 53.200 C 196.573 51.330,197.790 47.640,198.620 45.000 C 202.230 33.515,208.287 28.830,215.121 32.236 M200.214 204.045 C 192.548 205.162,186.940 211.270,187.034 218.400 C 187.122 224.980,190.429 227.675,202.594 231.077 C 214.061 234.283,216.749 235.850,217.103 239.535 C 217.659 245.319,213.003 249.200,205.506 249.200 C 199.950 249.200,198.808 248.764,195.027 245.203 C 190.417 240.861,187.552 240.518,187.278 244.276 C 186.488 255.130,210.218 259.791,221.112 250.921 C 225.436 247.400,226.373 239.416,223.190 233.200 C 221.216 229.345,217.084 227.552,203.400 224.613 C 197.419 223.329,195.200 221.439,195.200 217.633 C 195.200 209.423,207.860 207.142,214.801 214.101 C 219.355 218.667,224.522 217.578,222.569 212.464 C 220.165 206.169,210.533 202.542,200.214 204.045 M66.926 205.046 C 64.832 206.079,64.800 206.427,64.800 228.483 C 64.800 253.299,64.922 254.000,69.254 254.000 C 72.278 254.000,72.651 253.023,72.945 244.349 C 73.254 235.209,73.385 235.103,84.804 234.812 C 94.504 234.564,95.856 234.001,94.702 230.690 C 94.033 228.770,92.905 228.513,84.343 228.322 C 73.635 228.085,73.054 227.657,73.046 220.000 C 73.037 211.712,73.405 211.466,86.181 211.200 C 96.136 210.993,97.130 210.826,97.991 209.217 C 98.840 207.630,98.488 206.042,97.100 205.196 C 95.312 204.105,69.098 203.976,66.926 205.046 M126.812 204.912 C 122.599 207.044,125.098 211.193,130.600 211.201 C 139.411 211.212,139.600 211.680,139.600 233.462 C 139.600 249.641,139.610 249.851,140.500 251.615 C 142.023 254.634,145.080 254.828,146.499 251.996 C 147.132 250.734,147.199 249.004,147.199 233.997 C 147.200 211.959,147.157 212.070,155.986 211.239 C 162.480 210.628,165.499 206.854,160.999 204.974 C 159.121 204.189,128.350 204.133,126.812 204.912 M233.728 204.875 C 231.876 205.771,231.615 208.766,233.260 210.254 C 233.885 210.820,235.061 211.021,238.952 211.228 C 247.489 211.681,246.952 210.288,247.200 232.600 C 247.427 252.987,247.428 252.996,250.465 253.757 C 254.974 254.887,254.963 254.936,255.213 233.800 C 255.485 210.931,255.239 211.667,262.716 211.292 C 264.852 211.184,267.070 210.858,267.644 210.567 C 269.900 209.422,270.113 205.987,267.993 204.914 C 266.703 204.262,235.072 204.226,233.728 204.875 M289.800 205.139 C 288.326 206.043,285.151 211.626,284.192 215.000 C 282.807 219.877,281.873 222.312,279.589 227.000 C 278.303 229.640,276.973 232.893,276.633 234.229 C 276.293 235.565,274.958 238.895,273.665 241.629 C 269.126 251.233,268.824 253.502,271.988 254.197 C 274.077 254.656,275.913 253.393,278.599 249.647 C 282.136 244.717,281.261 245.000,292.977 245.000 C 304.653 245.000,304.453 244.941,306.355 248.968 C 307.951 252.345,309.870 254.000,312.191 254.000 C 315.578 254.000,315.982 251.985,313.629 246.837 C 312.765 244.947,311.839 242.262,311.572 240.872 C 311.268 239.295,309.994 236.117,308.187 232.426 C 306.514 229.011,305.022 225.333,304.657 223.731 C 304.026 220.955,299.870 211.652,297.501 207.713 C 295.641 204.618,292.410 203.538,289.800 205.139 M327.644 204.958 C 325.614 206.084,325.629 205.901,325.614 228.615 L 325.600 249.830 326.500 251.615 C 327.482 253.561,328.795 254.289,330.539 253.851 C 332.481 253.364,332.934 252.026,333.200 246.000 C 333.536 238.369,334.424 237.137,339.572 237.153 C 344.738 237.169,346.125 238.205,349.809 244.796 C 353.917 252.146,359.008 255.844,361.392 253.208 C 362.351 252.150,361.681 249.668,359.545 246.363 C 355.160 239.579,354.948 237.211,358.386 233.416 C 367.589 223.253,364.579 209.728,352.208 205.664 L 348.360 204.400 338.480 204.414 C 331.049 204.425,328.363 204.560,327.644 204.958 M110.000 205.316 C 108.116 206.267,108.047 207.132,108.023 230.120 C 107.996 255.510,107.863 254.776,112.405 254.329 C 115.459 254.029,115.385 254.583,115.522 231.071 C 115.589 219.592,115.530 209.412,115.390 208.450 C 114.943 205.371,112.596 204.006,110.000 205.316 M349.895 212.139 C 356.155 215.409,357.686 222.252,353.169 226.769 C 349.821 230.118,338.361 232.020,335.301 229.736 C 331.868 227.172,332.417 215.415,336.099 212.666 C 338.224 211.079,347.209 210.736,349.895 212.139 M294.940 220.402 C 297.499 223.443,300.574 233.260,299.859 236.107 C 299.132 239.004,288.346 239.982,285.750 237.386 C 284.473 236.109,284.538 235.418,286.383 230.672 C 287.254 228.432,288.249 225.566,288.594 224.302 C 289.845 219.718,292.824 217.887,294.940 220.402 " stroke="none" fill="#fcfcfc" fill-rule="evenodd"></path></g></svg>