<svg id="svg" version="1.1" xmlns="http://www.w3.org/2000/svg" xmlns:xlink="http://www.w3.org/1999/xlink" width="400" height="119.68503937007874" viewBox="0, 0, 400,119.68503937007874"><g id="svgg"><path id="path0" d="M99.268 6.176 C 98.839 6.339,98.192 6.739,97.831 7.065 C 97.470 7.391,96.967 7.700,96.713 7.752 C 96.458 7.803,95.462 8.102,94.500 8.417 C 93.537 8.732,91.925 9.146,90.917 9.338 C 89.908 9.530,88.406 9.902,87.577 10.165 C 86.749 10.427,85.399 10.765,84.577 10.916 C 83.756 11.066,82.604 11.416,82.018 11.694 C 81.433 11.972,80.233 12.342,79.352 12.517 C 78.471 12.692,77.323 13.025,76.801 13.256 C 76.279 13.488,74.886 13.862,73.706 14.088 C 72.526 14.314,71.024 14.682,70.368 14.905 C 69.711 15.128,68.371 15.474,67.388 15.672 C 66.406 15.871,65.200 16.218,64.707 16.443 C 64.215 16.668,63.123 17.000,62.281 17.179 C 61.439 17.359,60.262 17.725,59.667 17.993 C 59.071 18.260,57.747 18.635,56.725 18.826 C 55.704 19.017,54.429 19.326,53.892 19.514 C 51.847 20.230,49.999 20.542,47.583 20.580 C 43.951 20.638,43.259 21.260,43.124 24.593 C 43.033 26.814,42.317 30.747,41.654 32.663 C 41.385 33.439,41.010 34.896,40.821 35.898 C 40.613 37.003,40.287 38.098,39.995 38.677 C 39.677 39.306,39.420 40.212,39.244 41.324 C 39.096 42.253,38.794 43.531,38.573 44.164 C 38.352 44.796,37.954 46.542,37.688 48.044 C 37.422 49.547,37.090 50.998,36.950 51.269 C 36.685 51.782,36.281 53.584,36.077 55.167 C 36.010 55.691,35.716 56.549,35.391 57.170 C 34.981 57.953,34.732 58.771,34.497 60.103 C 34.317 61.119,33.984 62.446,33.756 63.053 C 33.500 63.731,33.210 65.131,33.002 66.691 C 32.786 68.312,32.573 69.327,32.412 69.506 C 32.155 69.789,31.675 71.734,31.670 72.511 C 31.661 73.754,31.199 74.604,30.086 75.421 C 27.250 77.503,28.279 81.326,31.678 81.335 C 32.296 81.337,34.000 82.213,34.000 82.529 C 34.000 82.633,35.557 84.300,37.459 86.234 C 39.362 88.168,41.668 90.538,42.584 91.502 C 45.096 94.144,53.273 102.570,55.917 105.241 C 57.200 106.537,58.816 108.194,59.508 108.924 C 60.201 109.653,60.951 110.409,61.175 110.603 C 61.400 110.797,62.589 111.995,63.817 113.265 L 66.051 115.575 66.279 116.888 C 66.404 117.611,66.580 118.339,66.670 118.507 C 66.760 118.674,66.833 119.004,66.833 119.239 L 66.833 119.667 70.739 119.667 L 74.645 119.667 74.697 119.212 C 74.757 118.696,75.471 118.436,78.226 117.927 C 79.039 117.778,79.976 117.519,80.310 117.352 C 80.644 117.185,82.021 116.847,83.370 116.601 C 84.720 116.354,86.257 116.000,86.787 115.814 C 87.317 115.628,88.677 115.295,89.811 115.074 C 90.945 114.853,92.287 114.476,92.794 114.237 C 93.301 113.997,94.560 113.625,95.593 113.411 C 96.625 113.197,97.796 112.878,98.193 112.702 C 99.282 112.221,99.380 112.195,101.128 111.917 C 102.020 111.776,103.688 111.402,104.833 111.086 C 105.979 110.771,107.592 110.391,108.417 110.241 C 109.242 110.092,110.427 109.747,111.050 109.475 C 111.674 109.203,112.837 108.866,113.634 108.728 C 114.431 108.589,115.571 108.261,116.167 108.000 C 116.763 107.739,117.925 107.403,118.750 107.253 C 119.575 107.103,120.962 106.789,121.833 106.556 C 123.082 106.222,123.645 106.153,124.500 106.229 C 126.704 106.424,127.843 105.800,128.503 104.038 L 128.838 103.142 128.502 102.383 C 128.046 101.352,128.072 100.342,128.581 99.338 C 128.857 98.794,129.061 97.981,129.194 96.903 C 129.363 95.525,129.474 95.166,129.941 94.487 C 130.393 93.831,130.537 93.387,130.760 91.970 C 130.921 90.948,131.190 89.946,131.423 89.500 C 131.638 89.087,131.974 87.962,132.169 87.000 C 132.823 83.777,133.146 82.423,133.493 81.457 C 133.683 80.929,133.902 79.865,133.981 79.093 C 134.078 78.136,134.236 77.513,134.477 77.136 C 135.116 76.137,135.334 75.521,135.510 74.210 C 135.624 73.362,135.877 72.515,136.245 71.750 C 136.566 71.083,136.883 70.084,136.984 69.417 C 137.172 68.182,137.741 65.854,138.329 63.917 C 138.524 63.275,138.744 62.177,138.819 61.478 C 138.897 60.743,139.100 59.933,139.300 59.561 C 140.049 58.166,140.192 57.752,140.322 56.606 C 140.460 55.387,140.821 54.297,141.153 54.092 C 141.256 54.028,141.526 53.608,141.754 53.158 C 141.983 52.708,142.360 52.214,142.593 52.062 C 143.246 51.634,143.533 50.897,143.626 49.407 C 143.777 46.981,142.795 45.615,140.398 44.918 C 139.442 44.640,137.847 43.739,137.593 43.334 C 137.441 43.090,136.083 41.732,133.735 39.476 C 133.102 38.867,132.047 37.817,131.391 37.143 C 130.735 36.468,129.385 35.106,128.391 34.116 C 127.397 33.126,126.312 32.038,125.979 31.700 C 125.647 31.361,124.511 30.221,123.454 29.167 C 122.397 28.113,121.356 27.074,121.141 26.858 C 120.926 26.643,119.850 25.572,118.750 24.479 C 117.650 23.386,116.638 22.374,116.500 22.231 C 116.362 22.088,114.000 19.761,111.250 17.060 C 108.500 14.360,106.175 12.073,106.083 11.978 C 105.992 11.883,105.565 11.447,105.136 11.008 C 104.469 10.326,104.329 10.063,104.172 9.193 C 103.674 6.451,101.717 5.247,99.268 6.176 M94.792 12.964 C 95.098 13.356,95.067 13.420,94.292 14.017 C 93.485 14.637,92.619 15.424,91.586 16.475 C 91.194 16.873,90.696 17.288,90.479 17.396 C 90.262 17.504,89.934 17.826,89.750 18.112 C 89.567 18.398,89.140 18.804,88.802 19.015 C 88.464 19.226,88.096 19.570,87.984 19.780 C 87.872 19.990,87.647 20.203,87.484 20.255 C 87.321 20.307,86.944 20.627,86.648 20.966 C 86.351 21.306,85.864 21.733,85.565 21.917 C 85.266 22.100,84.799 22.558,84.527 22.935 C 84.254 23.312,83.780 23.776,83.472 23.966 C 83.164 24.156,82.743 24.541,82.536 24.820 C 81.998 25.549,81.445 25.778,79.546 26.061 C 78.597 26.202,77.551 26.470,77.147 26.677 C 76.115 27.203,71.116 26.807,67.667 25.926 C 66.796 25.703,64.396 25.325,62.333 25.085 C 57.245 24.494,54.000 23.618,54.000 22.836 C 54.000 22.647,55.288 22.274,56.917 21.992 C 57.558 21.881,58.514 21.612,59.041 21.393 C 59.568 21.175,61.031 20.807,62.291 20.577 C 63.552 20.346,65.146 19.978,65.833 19.759 C 67.149 19.340,68.055 19.128,69.823 18.825 C 70.413 18.723,71.271 18.451,71.729 18.219 C 72.187 17.986,73.429 17.623,74.489 17.410 C 75.549 17.198,76.829 16.835,77.333 16.604 C 77.837 16.373,79.112 16.030,80.167 15.843 C 81.221 15.656,82.847 15.282,83.781 15.011 C 84.715 14.740,85.952 14.437,86.531 14.338 C 88.417 14.015,89.237 13.794,90.040 13.392 C 91.578 12.621,94.330 12.374,94.792 12.964 M98.997 17.667 C 99.002 20.640,98.831 23.343,98.412 26.917 C 98.282 28.017,98.132 29.629,98.077 30.500 C 97.914 33.091,97.297 34.311,96.435 33.747 C 96.200 33.593,95.332 33.295,94.504 33.084 C 93.658 32.869,92.654 32.480,92.209 32.195 C 91.755 31.904,90.883 31.569,90.167 31.409 C 89.479 31.256,88.560 30.954,88.125 30.739 C 87.689 30.523,86.520 30.149,85.525 29.908 C 82.219 29.105,80.690 27.286,82.567 26.391 C 82.856 26.253,83.218 25.921,83.372 25.654 C 83.542 25.356,83.789 25.167,84.005 25.167 C 84.200 25.167,84.587 24.939,84.865 24.660 C 85.144 24.382,85.656 24.009,86.004 23.832 C 86.351 23.654,86.811 23.287,87.026 23.015 C 87.580 22.314,89.683 20.584,90.466 20.184 C 90.829 19.999,91.167 19.740,91.218 19.608 C 91.268 19.476,91.599 19.206,91.952 19.007 C 92.306 18.808,92.736 18.436,92.908 18.179 C 93.081 17.923,93.463 17.583,93.758 17.424 C 94.052 17.265,94.454 16.919,94.650 16.654 C 94.846 16.389,95.248 16.050,95.545 15.900 C 95.841 15.751,96.271 15.460,96.500 15.255 C 96.729 15.049,97.254 14.684,97.667 14.443 L 98.417 14.006 98.705 14.378 C 98.952 14.697,98.993 15.163,98.997 17.667 M104.020 15.125 C 104.462 15.560,104.941 16.029,105.083 16.167 C 105.226 16.304,106.802 17.917,108.585 19.750 C 110.367 21.583,112.656 23.908,113.670 24.917 C 114.684 25.925,115.717 26.955,115.965 27.205 C 116.214 27.455,117.317 28.558,118.417 29.655 C 120.911 32.143,120.797 32.028,123.057 34.333 C 124.090 35.387,125.118 36.414,125.343 36.615 C 125.567 36.815,126.162 37.431,126.667 37.983 C 127.171 38.535,128.027 39.421,128.568 39.952 C 129.110 40.482,130.133 41.517,130.842 42.250 C 131.550 42.983,132.406 43.865,132.744 44.210 C 133.749 45.236,133.562 45.417,131.492 45.417 C 129.930 45.417,129.690 45.376,129.266 45.042 C 128.702 44.599,128.037 44.404,126.245 44.158 C 125.164 44.009,124.824 43.888,124.417 43.508 C 123.753 42.887,123.436 42.741,122.250 42.508 C 121.700 42.399,120.650 42.020,119.917 41.664 C 119.183 41.308,118.016 40.903,117.323 40.763 C 116.629 40.624,115.641 40.317,115.126 40.081 C 114.611 39.845,113.565 39.539,112.803 39.401 C 111.321 39.132,110.500 38.871,110.500 38.667 C 110.500 38.468,108.991 37.875,108.167 37.750 C 107.450 37.642,107.207 37.540,105.730 36.728 C 105.374 36.532,104.633 36.281,104.083 36.171 C 102.253 35.802,101.317 34.613,101.654 33.083 C 101.759 32.608,101.909 28.773,102.003 24.167 C 102.170 15.965,102.253 14.926,102.773 14.546 C 103.167 14.258,103.116 14.234,104.020 15.125 M53.750 26.097 C 54.680 26.324,56.683 26.616,58.284 26.758 C 61.050 27.002,61.504 27.094,63.500 27.812 C 64.024 28.001,65.703 28.292,67.417 28.491 C 69.067 28.683,71.166 29.026,72.083 29.253 C 72.999 29.481,73.992 29.667,74.289 29.667 C 74.646 29.667,75.007 29.827,75.360 30.142 L 75.892 30.617 75.508 31.563 C 75.297 32.084,74.960 32.638,74.760 32.796 C 74.396 33.083,73.547 34.278,72.558 35.892 C 72.270 36.364,71.812 37.012,71.541 37.333 C 71.270 37.654,70.952 38.104,70.834 38.333 C 70.716 38.563,70.312 39.090,69.935 39.506 C 69.095 40.432,68.220 41.655,67.667 42.677 C 67.229 43.484,66.747 44.120,65.488 45.551 C 65.069 46.027,64.524 46.754,64.277 47.167 C 63.815 47.938,63.003 49.140,62.250 50.167 C 62.015 50.487,61.581 51.100,61.286 51.528 C 60.991 51.956,60.376 52.800,59.919 53.403 L 59.087 54.500 58.228 54.500 C 57.250 54.500,56.997 54.129,56.642 52.176 C 56.549 51.667,56.244 50.889,55.963 50.449 C 55.620 49.909,55.351 49.147,55.140 48.115 C 54.968 47.273,54.643 46.208,54.419 45.750 C 54.194 45.292,53.815 44.030,53.577 42.946 C 53.339 41.863,53.009 40.660,52.843 40.274 C 52.678 39.887,52.340 38.749,52.094 37.745 C 51.847 36.741,51.433 35.544,51.173 35.085 C 50.913 34.626,50.579 33.654,50.430 32.926 C 50.282 32.198,49.970 31.278,49.737 30.880 C 48.851 29.367,48.528 26.239,49.208 25.749 C 49.697 25.397,51.426 25.529,53.750 26.097 M46.810 29.208 C 46.903 29.506,47.105 30.387,47.259 31.166 C 47.413 31.945,47.746 33.145,47.999 33.833 C 48.252 34.521,48.583 35.683,48.733 36.417 C 48.883 37.150,49.260 38.275,49.570 38.917 C 49.880 39.558,50.213 40.557,50.310 41.136 C 50.408 41.716,50.719 42.616,51.001 43.136 C 51.314 43.713,51.671 44.801,51.912 45.917 C 52.131 46.925,52.460 48.101,52.644 48.530 C 52.828 48.959,53.173 50.178,53.411 51.239 C 53.649 52.300,54.029 53.516,54.255 53.942 C 54.828 55.020,54.798 55.846,54.152 56.745 C 52.707 58.757,53.649 62.118,55.962 63.205 C 57.137 63.758,57.536 64.925,58.397 70.334 C 58.536 71.205,58.794 72.255,58.972 72.667 C 59.150 73.079,59.373 73.904,59.469 74.500 C 59.565 75.096,59.732 76.135,59.840 76.810 C 59.948 77.484,60.242 78.425,60.492 78.901 C 61.056 79.973,61.103 80.164,61.421 82.608 C 61.563 83.694,61.748 84.841,61.834 85.156 C 62.244 86.660,59.996 86.957,57.282 85.757 C 56.386 85.361,55.320 85.126,53.475 84.919 C 52.838 84.848,52.435 84.704,52.227 84.475 C 51.771 83.971,51.476 83.851,49.815 83.496 C 48.665 83.250,48.167 83.056,47.746 82.686 C 47.189 82.196,45.432 81.667,44.365 81.667 C 44.097 81.667,43.683 81.513,43.444 81.325 C 42.388 80.494,39.077 80.221,38.500 80.917 C 38.303 81.154,38.577 81.229,41.332 81.704 C 42.428 81.893,42.606 81.974,42.798 82.375 C 43.075 82.951,43.361 83.101,44.947 83.497 C 45.653 83.674,46.422 83.959,46.657 84.132 C 47.402 84.680,47.789 84.832,49.118 85.095 C 49.832 85.237,50.867 85.571,51.417 85.838 C 51.985 86.113,53.056 86.431,53.899 86.574 C 54.715 86.712,55.540 86.940,55.733 87.080 C 55.926 87.221,56.250 87.455,56.453 87.600 C 56.656 87.746,57.406 88.014,58.120 88.196 C 58.833 88.378,59.751 88.747,60.159 89.017 C 60.567 89.286,61.171 89.588,61.502 89.687 C 62.598 90.015,62.802 90.290,63.093 91.829 C 63.240 92.605,63.533 93.655,63.743 94.162 C 63.958 94.678,64.242 95.941,64.389 97.034 C 64.644 98.924,64.808 99.402,65.671 100.763 C 65.887 101.103,66.051 101.800,66.158 102.835 C 66.422 105.389,66.820 106.833,67.259 106.833 C 68.101 106.833,67.968 101.007,67.067 98.453 C 66.383 96.514,65.822 92.332,66.187 91.892 C 66.748 91.217,68.239 91.349,69.961 92.228 C 70.444 92.474,71.419 92.794,72.128 92.939 C 72.915 93.101,73.774 93.417,74.333 93.752 C 74.837 94.053,75.813 94.429,76.500 94.587 C 77.188 94.745,78.242 95.087,78.844 95.346 C 79.445 95.606,80.739 96.007,81.718 96.239 C 82.698 96.470,83.791 96.808,84.148 96.991 C 84.505 97.173,85.452 97.450,86.253 97.608 C 87.086 97.771,87.947 98.055,88.265 98.271 C 89.182 98.893,89.512 99.034,90.811 99.359 C 92.406 99.757,92.500 99.845,92.500 100.934 C 92.500 101.892,92.133 102.240,90.783 102.565 C 90.496 102.634,90.184 102.900,89.976 103.253 C 89.729 103.672,89.455 103.878,88.967 104.009 C 88.578 104.114,88.041 104.452,87.682 104.818 C 87.228 105.281,86.871 105.478,86.330 105.565 C 85.925 105.629,85.345 105.872,85.041 106.104 C 84.736 106.337,84.004 106.746,83.414 107.013 C 82.824 107.281,82.221 107.684,82.074 107.908 C 81.926 108.133,81.531 108.405,81.195 108.512 C 80.858 108.620,80.208 108.987,79.750 109.329 C 79.292 109.670,78.579 110.080,78.167 110.239 C 77.754 110.398,77.182 110.706,76.895 110.924 C 76.608 111.142,75.933 111.515,75.395 111.752 C 74.857 111.990,74.229 112.363,74.000 112.581 C 72.499 114.008,69.183 113.691,69.162 112.119 C 69.114 108.718,68.723 106.833,68.063 106.833 L 67.618 106.833 67.708 108.917 C 67.800 111.034,67.599 111.833,66.976 111.833 C 66.688 111.833,63.776 109.403,63.193 108.676 C 62.887 108.294,62.024 107.406,61.276 106.702 C 60.529 105.998,58.030 103.546,55.724 101.253 C 53.418 98.960,50.053 95.658,48.247 93.917 C 46.441 92.175,43.903 89.699,42.607 88.414 C 41.311 87.129,39.459 85.329,38.492 84.414 C 37.526 83.499,36.634 82.503,36.510 82.200 C 36.373 81.863,36.057 81.533,35.693 81.346 L 35.099 81.041 35.841 80.666 C 37.746 79.701,37.802 79.508,36.296 79.089 C 34.928 78.708,34.962 78.744,33.928 76.599 L 33.037 74.750 33.171 73.018 C 33.271 71.730,33.387 71.175,33.624 70.852 C 34.099 70.204,34.319 69.440,34.590 67.500 C 34.760 66.281,34.935 65.624,35.166 65.333 C 35.793 64.546,36.007 64.001,36.337 62.354 C 36.519 61.447,36.850 60.302,37.073 59.810 C 37.296 59.319,37.674 57.904,37.913 56.667 C 38.151 55.429,38.530 53.958,38.753 53.397 C 38.977 52.836,39.276 51.604,39.418 50.659 C 39.610 49.380,39.803 48.719,40.174 48.070 C 40.470 47.553,40.807 46.566,41.002 45.641 C 41.184 44.784,41.517 43.669,41.742 43.162 C 41.968 42.655,42.346 41.325,42.582 40.205 C 42.818 39.086,43.225 37.475,43.485 36.626 C 43.746 35.778,44.048 34.521,44.158 33.833 C 44.419 32.192,44.635 31.525,45.104 30.907 C 45.316 30.627,45.639 30.062,45.820 29.652 C 46.342 28.473,46.551 28.379,46.810 29.208 M83.771 31.839 C 84.034 31.938,84.512 32.199,84.833 32.419 C 85.154 32.639,86.075 32.972,86.880 33.159 C 87.684 33.346,88.717 33.689,89.174 33.920 C 89.631 34.152,90.803 34.530,91.778 34.760 C 92.753 34.991,93.896 35.323,94.317 35.499 C 94.739 35.675,95.512 35.939,96.036 36.086 C 97.997 36.637,98.043 37.121,97.437 50.833 C 97.290 54.179,97.088 59.729,96.990 63.167 C 96.803 69.745,96.637 73.570,96.337 78.250 C 96.237 79.808,96.099 84.240,96.031 88.099 C 95.919 94.372,95.875 95.161,95.614 95.560 C 95.156 96.259,95.333 96.409,89.621 90.492 C 85.956 86.694,86.588 87.335,84.000 84.787 C 82.854 83.659,81.785 82.589,81.624 82.409 C 81.463 82.230,80.926 81.720,80.432 81.275 C 79.938 80.830,79.298 80.230,79.011 79.942 C 78.723 79.653,78.228 79.154,77.910 78.833 C 77.591 78.512,77.331 78.164,77.332 78.059 C 77.333 77.954,77.052 77.634,76.708 77.349 C 76.365 77.063,75.971 76.705,75.833 76.552 C 75.696 76.400,75.411 76.120,75.201 75.929 C 74.136 74.965,72.933 73.681,72.562 73.111 C 72.332 72.759,71.931 72.349,71.670 72.200 C 71.409 72.050,71.070 71.714,70.916 71.454 C 70.762 71.193,70.381 70.858,70.070 70.710 C 69.758 70.561,69.460 70.303,69.407 70.135 C 69.353 69.967,69.015 69.593,68.655 69.304 C 68.295 69.014,68.000 68.697,68.000 68.599 C 68.000 68.352,66.340 66.644,64.582 65.083 C 62.197 62.965,61.497 61.532,61.978 59.748 C 62.117 59.231,62.104 58.902,61.921 58.292 C 61.478 56.820,61.540 55.756,62.109 55.042 C 62.384 54.698,62.824 54.042,63.086 53.583 C 63.348 53.125,63.773 52.504,64.031 52.203 C 64.289 51.901,64.500 51.583,64.500 51.496 C 64.500 51.408,64.856 50.930,65.292 50.432 C 66.193 49.400,67.246 47.980,68.040 46.722 C 69.104 45.036,69.546 44.409,70.074 43.833 C 70.369 43.512,70.852 42.862,71.147 42.388 C 71.443 41.914,71.799 41.431,71.938 41.316 C 72.077 41.200,72.329 40.838,72.498 40.511 C 72.666 40.184,72.961 39.751,73.153 39.548 C 73.344 39.345,73.721 38.806,73.990 38.350 C 74.456 37.560,75.416 36.266,76.475 35.000 C 76.743 34.679,77.121 34.148,77.315 33.820 C 78.441 31.909,81.476 30.978,83.771 31.839 M103.839 38.671 C 104.100 38.856,104.824 39.126,105.448 39.269 C 106.716 39.561,108.127 39.982,109.500 40.476 C 110.004 40.658,111.015 40.889,111.746 40.990 C 112.665 41.117,113.258 41.300,113.664 41.581 C 114.352 42.058,114.792 42.211,116.543 42.582 C 117.344 42.752,118.011 43.005,118.299 43.247 C 118.774 43.646,119.594 43.937,121.500 44.382 C 122.096 44.521,123.061 44.836,123.644 45.082 C 124.359 45.383,125.216 45.577,126.273 45.677 C 127.777 45.819,128.500 46.026,128.500 46.312 C 128.500 46.549,129.346 46.842,130.971 47.169 C 132.249 47.426,132.654 47.583,133.069 47.979 C 133.352 48.249,133.859 48.583,134.195 48.721 C 134.929 49.022,135.261 49.500,135.419 50.482 C 135.503 51.001,135.726 51.420,136.185 51.918 C 136.627 52.397,136.833 52.774,136.833 53.102 C 136.831 54.175,136.307 56.713,135.907 57.589 C 135.672 58.102,135.376 59.213,135.250 60.059 C 134.997 61.738,134.844 62.200,134.328 62.841 C 134.085 63.143,133.915 63.766,133.743 64.992 C 133.597 66.030,133.334 67.082,133.082 67.633 C 132.851 68.137,132.618 68.856,132.563 69.233 C 132.344 70.734,131.466 74.924,131.337 75.082 C 131.094 75.382,130.685 76.979,130.494 78.381 C 130.357 79.388,130.197 79.895,129.890 80.298 C 129.377 80.972,129.205 81.536,128.986 83.250 C 128.892 83.983,128.633 84.985,128.409 85.477 C 128.185 85.968,127.918 86.868,127.815 87.477 C 127.463 89.570,126.822 92.419,126.423 93.667 C 126.203 94.354,125.974 95.292,125.915 95.750 C 125.748 97.037,125.337 98.382,124.997 98.750 C 124.828 98.933,124.540 99.431,124.358 99.857 C 123.576 101.686,122.216 102.138,119.373 101.513 C 117.568 101.117,115.853 100.911,111.583 100.582 C 109.538 100.424,107.799 100.198,107.083 99.999 C 105.899 99.668,102.163 99.167,100.885 99.167 C 99.362 99.167,98.337 96.929,98.687 94.366 C 98.980 92.219,99.195 87.479,99.339 80.000 C 99.422 75.646,99.567 71.408,99.661 70.583 C 99.754 69.758,99.902 68.483,99.988 67.750 C 100.074 67.017,100.258 65.442,100.397 64.250 C 100.569 62.774,100.707 58.844,100.829 51.917 C 100.996 42.459,101.150 38.931,101.413 38.506 C 101.611 38.186,103.322 38.302,103.839 38.671 M365.083 44.851 C 362.139 45.273,361.467 45.513,359.475 46.848 C 357.861 47.930,356.346 49.964,355.912 51.629 C 355.395 53.613,355.720 57.392,356.481 58.248 C 356.645 58.432,356.941 58.855,357.140 59.186 C 357.338 59.518,357.800 59.987,358.167 60.230 C 358.533 60.473,358.833 60.733,358.833 60.809 C 358.833 60.885,359.227 61.160,359.708 61.420 C 360.190 61.680,360.947 62.141,361.390 62.444 C 361.834 62.747,362.479 63.071,362.823 63.164 C 363.167 63.256,363.779 63.556,364.182 63.830 C 364.586 64.103,365.292 64.449,365.750 64.597 C 367.533 65.175,370.734 66.856,371.475 67.602 C 371.873 68.004,372.258 68.333,372.330 68.333 C 372.402 68.333,372.636 68.764,372.850 69.290 C 373.646 71.252,373.229 74.459,372.086 75.165 C 371.806 75.338,371.391 75.679,371.164 75.922 C 369.404 77.806,361.328 77.992,358.361 76.217 C 355.926 74.760,354.225 75.047,354.043 76.944 C 353.936 78.061,354.174 78.448,355.265 78.931 C 355.762 79.150,356.450 79.515,356.793 79.742 C 359.349 81.429,369.558 81.518,371.822 79.873 C 372.057 79.703,372.662 79.328,373.167 79.042 C 378.544 75.986,378.585 66.963,373.233 64.352 C 372.784 64.133,372.226 63.778,371.994 63.563 C 371.761 63.348,371.086 62.977,370.494 62.738 C 369.901 62.499,369.262 62.160,369.074 61.986 C 368.885 61.811,368.185 61.483,367.519 61.256 C 366.852 61.030,366.062 60.693,365.762 60.508 C 365.463 60.322,364.703 59.977,364.075 59.741 C 362.666 59.211,361.074 57.962,360.465 56.910 C 360.307 56.639,360.009 56.207,359.801 55.950 C 359.392 55.446,359.185 53.595,359.405 52.421 C 359.529 51.758,361.131 49.706,361.804 49.349 C 363.945 48.213,367.309 47.738,369.097 48.321 C 369.640 48.498,370.670 48.792,371.388 48.974 C 372.105 49.157,372.983 49.507,373.338 49.754 L 373.984 50.201 375.075 49.226 C 376.394 48.047,376.398 47.992,375.272 46.810 C 373.843 45.311,368.728 44.328,365.083 44.851 M230.667 45.344 C 228.478 45.814,226.448 47.192,224.914 49.250 C 224.640 49.616,224.284 50.063,224.122 50.243 C 223.469 50.966,223.194 53.502,223.499 55.991 L 223.707 57.688 224.525 58.552 C 226.409 60.543,226.959 61.035,227.750 61.442 C 228.208 61.678,228.832 62.057,229.136 62.285 C 229.439 62.513,230.148 62.880,230.711 63.101 C 231.274 63.321,232.001 63.681,232.326 63.899 C 232.651 64.118,233.329 64.427,233.833 64.585 C 235.324 65.055,238.543 66.675,239.092 67.233 C 239.372 67.517,239.839 67.938,240.129 68.167 C 241.324 69.111,241.631 72.002,240.761 74.111 C 239.256 77.760,230.827 78.953,225.634 76.252 C 223.285 75.030,221.833 75.378,221.833 77.162 C 221.833 80.533,235.498 82.320,239.734 79.503 C 240.109 79.253,240.735 78.841,241.124 78.586 C 241.808 78.138,243.378 76.351,243.836 75.500 C 244.646 73.992,244.703 69.168,243.928 67.698 C 243.507 66.900,241.480 64.830,240.772 64.475 C 240.393 64.285,239.893 63.952,239.660 63.734 C 239.428 63.517,238.759 63.144,238.174 62.907 C 237.590 62.669,236.876 62.295,236.587 62.075 C 236.299 61.855,235.560 61.520,234.944 61.330 C 234.329 61.140,233.212 60.688,232.463 60.325 C 231.714 59.963,231.003 59.667,230.884 59.667 C 230.765 59.667,230.386 59.419,230.042 59.117 C 229.698 58.815,229.212 58.440,228.963 58.283 C 228.383 57.919,227.355 56.332,226.985 55.230 C 226.126 52.674,227.777 49.709,230.592 48.749 C 231.397 48.474,232.286 48.160,232.569 48.051 C 233.440 47.714,235.704 47.786,236.880 48.187 C 237.450 48.381,238.667 48.745,239.583 48.995 C 240.500 49.244,241.371 49.502,241.520 49.567 C 241.708 49.650,242.051 49.444,242.657 48.884 L 243.525 48.083 242.861 47.159 C 242.495 46.650,241.983 46.136,241.723 46.018 C 239.666 45.078,233.621 44.710,230.667 45.344 M302.583 45.244 C 299.845 45.679,298.166 46.467,296.184 48.250 C 291.495 52.468,290.471 56.136,290.995 66.833 C 291.289 72.841,293.059 76.273,297.394 79.240 C 300.620 81.449,310.522 81.635,314.128 79.554 C 314.745 79.198,315.475 78.794,315.750 78.655 C 316.764 78.147,316.772 78.070,316.708 69.367 L 316.667 63.652 316.277 63.262 C 315.623 62.608,314.207 62.503,313.717 63.072 C 313.333 63.519,313.333 63.520,313.333 68.981 C 313.333 77.365,313.777 76.726,307.167 77.860 C 306.035 78.054,301.670 77.354,300.211 76.744 C 298.710 76.117,296.441 73.838,296.079 72.594 C 295.937 72.105,295.600 71.371,295.329 70.962 C 293.910 68.819,293.899 57.089,295.315 55.083 C 295.574 54.717,295.916 54.019,296.075 53.534 C 296.421 52.483,297.740 50.896,298.858 50.187 C 299.281 49.919,299.677 49.618,299.739 49.519 C 299.800 49.419,300.390 49.181,301.050 48.989 C 301.710 48.798,302.761 48.459,303.385 48.237 C 305.681 47.420,310.703 48.110,313.280 49.598 C 314.219 50.141,314.223 50.139,315.374 48.999 L 316.385 47.998 315.401 47.020 C 313.632 45.261,307.678 44.436,302.583 45.244 M161.877 45.353 C 161.000 45.606,160.741 46.301,161.155 47.292 C 161.337 47.727,161.725 49.058,162.019 50.250 C 162.312 51.442,162.760 52.792,163.013 53.250 C 163.267 53.708,163.528 54.458,163.592 54.917 C 163.729 55.882,163.989 56.433,164.557 56.957 C 164.855 57.233,164.991 57.583,165.076 58.291 C 165.139 58.818,165.411 59.737,165.679 60.333 C 166.188 61.462,167.000 64.023,167.000 64.501 C 167.000 64.653,167.192 65.146,167.427 65.597 C 167.662 66.048,168.031 67.112,168.247 67.962 C 168.480 68.877,168.845 69.817,169.145 70.269 C 169.422 70.688,169.736 71.455,169.843 71.974 C 170.080 73.132,170.418 73.972,170.824 74.414 C 170.993 74.599,171.182 75.087,171.244 75.500 C 171.375 76.372,172.079 78.683,172.444 79.435 C 172.881 80.340,173.717 80.667,175.595 80.667 C 178.301 80.667,179.235 79.956,179.750 77.503 C 179.920 76.693,180.148 76.109,180.402 75.836 C 180.959 75.238,181.167 74.771,181.167 74.119 C 181.167 73.446,181.440 72.580,181.835 72.000 C 182.145 71.545,182.935 68.918,183.100 67.790 C 183.157 67.401,183.381 66.807,183.597 66.470 C 183.973 65.882,184.201 65.136,184.415 63.797 C 184.469 63.456,184.687 62.968,184.900 62.713 C 185.461 62.041,185.748 61.398,186.067 60.098 C 186.223 59.465,186.526 58.640,186.740 58.265 C 186.954 57.890,187.179 57.283,187.239 56.917 C 187.421 55.811,188.170 53.307,188.598 52.370 C 188.819 51.886,189.000 51.421,189.000 51.337 C 189.000 50.578,189.426 49.455,189.900 48.968 C 190.995 47.840,190.794 45.501,189.591 45.361 C 188.242 45.205,187.324 45.792,186.995 47.023 C 186.888 47.423,186.618 48.138,186.394 48.613 C 186.170 49.088,185.874 50.016,185.737 50.676 C 185.480 51.909,185.255 52.428,184.650 53.186 C 184.459 53.425,184.194 54.136,184.062 54.765 C 183.931 55.393,183.694 56.085,183.536 56.303 C 182.975 57.076,182.667 57.757,182.667 58.224 C 182.667 58.787,181.748 61.833,181.325 62.674 C 181.162 63.000,180.979 63.562,180.919 63.924 C 180.860 64.287,180.772 64.790,180.726 65.042 C 180.679 65.294,180.389 65.801,180.082 66.168 C 179.654 66.680,179.496 67.058,179.406 67.781 C 179.332 68.367,179.053 69.171,178.668 69.904 C 178.326 70.553,177.930 71.609,177.788 72.250 C 177.524 73.436,176.406 75.959,175.895 76.524 C 175.520 76.939,175.282 76.612,175.012 75.307 C 174.904 74.789,174.605 74.039,174.347 73.641 C 174.050 73.183,173.707 72.211,173.416 71.000 C 173.162 69.946,172.773 68.644,172.551 68.107 C 172.329 67.569,172.009 66.576,171.839 65.899 C 171.670 65.222,171.375 64.425,171.184 64.126 C 170.601 63.217,170.316 62.495,170.136 61.475 C 170.024 60.841,169.798 60.291,169.487 59.900 C 169.224 59.569,168.964 59.025,168.910 58.691 C 168.690 57.337,168.592 56.997,167.826 54.898 C 167.387 53.696,166.975 52.365,166.911 51.940 C 166.848 51.515,166.581 50.843,166.318 50.446 C 165.948 49.887,165.333 47.884,165.333 47.235 C 165.333 47.043,163.885 45.616,163.475 45.404 C 162.959 45.137,162.657 45.127,161.877 45.353 M333.734 45.565 C 332.804 45.998,332.600 46.338,332.091 48.303 C 331.946 48.862,331.571 49.993,331.256 50.817 C 330.942 51.641,330.601 52.788,330.498 53.366 C 330.395 53.944,330.118 54.712,329.882 55.074 C 329.646 55.436,329.313 56.289,329.143 56.971 C 328.972 57.652,328.613 58.595,328.344 59.066 C 328.074 59.536,327.691 60.520,327.492 61.252 C 327.292 61.984,326.945 63.026,326.719 63.567 C 326.493 64.108,326.092 65.400,325.828 66.439 C 325.563 67.478,325.197 68.535,325.014 68.789 C 324.831 69.043,324.527 69.812,324.340 70.498 C 324.152 71.185,323.784 72.047,323.521 72.415 C 323.242 72.806,322.933 73.571,322.777 74.258 C 322.631 74.904,322.318 75.870,322.082 76.403 C 321.125 78.567,321.082 80.148,321.973 80.398 C 324.024 80.973,325.236 79.806,326.093 76.428 C 326.312 75.565,326.677 74.384,326.904 73.804 C 327.130 73.225,327.395 72.450,327.492 72.083 C 328.095 69.792,327.802 69.870,335.898 69.850 C 344.228 69.829,344.201 69.822,344.759 72.287 C 344.909 72.950,345.181 73.775,345.363 74.121 C 345.545 74.467,345.939 75.660,346.237 76.772 C 347.092 79.959,347.784 80.778,349.479 80.609 C 351.211 80.436,351.731 78.823,350.586 77.171 C 350.360 76.845,350.054 76.040,349.905 75.384 C 349.748 74.686,349.408 73.838,349.087 73.339 C 348.752 72.819,348.401 71.926,348.186 71.047 C 347.993 70.255,347.679 69.286,347.489 68.895 C 347.300 68.503,346.927 67.352,346.661 66.338 C 346.394 65.323,345.995 64.176,345.774 63.788 C 345.552 63.400,345.278 62.671,345.164 62.167 C 344.894 60.970,344.562 60.171,344.153 59.736 C 343.972 59.542,343.639 58.697,343.414 57.858 C 343.190 57.019,342.850 56.027,342.660 55.654 C 342.470 55.281,342.090 54.117,341.815 53.068 C 341.541 52.019,341.141 50.806,340.926 50.372 C 340.711 49.938,340.481 49.246,340.415 48.833 C 339.915 45.689,336.771 44.151,333.734 45.565 M198.252 45.585 C 196.895 46.068,196.974 44.890,197.033 63.608 C 197.081 78.604,197.100 79.483,197.383 79.797 C 197.999 80.477,198.664 80.519,207.774 80.467 C 217.844 80.409,217.167 80.528,217.167 78.811 C 217.167 77.184,217.583 77.264,208.650 77.167 C 201.460 77.088,201.015 77.066,200.684 76.766 C 200.258 76.380,200.133 65.527,200.549 64.981 C 200.948 64.456,202.376 64.333,208.071 64.333 C 214.345 64.333,213.965 64.419,214.112 62.970 C 214.187 62.227,214.143 62.009,213.839 61.625 L 213.476 61.167 207.780 61.163 C 202.280 61.159,201.005 61.072,200.605 60.672 C 200.190 60.257,200.253 49.458,200.672 49.078 C 201.018 48.765,201.370 48.746,208.226 48.667 C 216.483 48.571,216.439 48.579,216.730 47.209 C 216.925 46.291,216.803 46.046,215.961 45.663 C 215.018 45.235,199.427 45.166,198.252 45.585 M248.750 45.535 C 247.724 45.894,247.531 46.282,247.775 47.498 C 247.963 48.441,248.511 48.562,253.030 48.662 C 256.710 48.744,257.009 48.774,257.447 49.101 L 257.917 49.453 258.000 64.574 L 258.083 79.696 258.557 80.103 C 259.027 80.507,259.430 80.531,260.557 80.219 C 261.330 80.006,261.333 79.942,261.333 64.278 C 261.333 49.713,261.337 49.540,261.672 49.114 L 262.012 48.683 266.244 48.633 C 271.087 48.576,271.222 48.539,271.620 47.165 C 271.864 46.322,271.767 46.143,270.809 45.654 C 270.075 45.280,249.791 45.170,248.750 45.535 M278.497 45.708 C 277.448 46.239,277.487 45.527,277.538 63.463 L 277.583 79.530 277.975 79.846 C 279.000 80.676,280.840 80.549,281.377 79.610 C 281.538 79.329,281.571 75.663,281.529 62.833 C 281.467 44.321,281.594 45.947,280.183 45.525 C 279.347 45.274,279.357 45.273,278.497 45.708 M337.000 50.917 C 337.210 51.558,337.591 52.478,337.846 52.960 C 338.102 53.443,338.394 54.237,338.495 54.726 C 338.596 55.215,338.932 56.007,339.242 56.487 C 339.611 57.060,339.868 57.731,339.992 58.444 C 340.096 59.040,340.397 60.072,340.661 60.736 C 342.895 66.358,342.779 66.500,335.957 66.500 C 329.926 66.500,329.119 66.234,330.222 64.609 C 330.445 64.281,330.679 63.653,330.743 63.214 C 330.807 62.776,331.114 61.779,331.426 61.000 C 331.737 60.221,332.190 58.833,332.431 57.917 C 332.673 57.000,333.049 55.945,333.266 55.573 C 333.484 55.201,333.806 54.319,333.982 53.614 C 334.180 52.821,334.534 51.982,334.909 51.417 C 335.243 50.914,335.618 50.259,335.743 49.960 C 336.191 48.891,336.386 49.040,337.000 50.917 M61.238 63.429 C 61.382 63.573,61.500 63.765,61.500 63.856 C 61.500 63.946,62.119 64.653,62.875 65.426 C 63.631 66.199,64.430 67.063,64.650 67.347 C 64.870 67.631,65.225 67.943,65.439 68.040 C 65.652 68.138,65.866 68.339,65.913 68.489 C 65.960 68.638,66.431 69.211,66.958 69.761 C 67.485 70.312,68.667 71.617,69.583 72.660 C 70.500 73.703,71.587 74.912,72.000 75.347 C 72.412 75.783,73.033 76.464,73.378 76.861 C 73.724 77.258,74.753 78.371,75.665 79.333 C 76.578 80.296,77.588 81.383,77.909 81.750 C 78.231 82.117,78.890 82.837,79.372 83.350 C 79.855 83.863,80.408 84.463,80.602 84.683 C 80.795 84.903,81.133 85.247,81.352 85.446 C 81.571 85.646,82.425 86.531,83.250 87.413 C 84.075 88.295,85.716 90.007,86.898 91.217 C 88.079 92.427,89.222 93.696,89.438 94.037 C 89.655 94.378,90.057 94.774,90.332 94.916 C 90.946 95.233,90.968 95.457,90.406 95.671 C 89.534 96.002,87.770 95.740,86.521 95.094 C 86.212 94.934,85.138 94.630,84.134 94.417 C 83.131 94.205,82.184 93.920,82.030 93.785 C 81.536 93.353,80.781 93.048,79.500 92.762 C 78.813 92.609,77.837 92.273,77.333 92.016 C 76.829 91.760,75.667 91.380,74.750 91.172 C 73.833 90.964,72.596 90.610,72.000 90.385 C 71.404 90.160,70.197 89.837,69.318 89.667 C 68.202 89.452,67.479 89.207,66.925 88.855 C 66.488 88.579,65.915 88.304,65.651 88.246 C 65.001 88.104,64.501 87.426,64.498 86.686 C 64.497 86.354,64.271 85.446,63.997 84.667 C 63.715 83.865,63.428 82.599,63.337 81.750 C 63.116 79.712,62.552 76.637,62.169 75.391 C 61.996 74.827,61.698 73.342,61.507 72.091 C 61.231 70.280,61.039 69.565,60.569 68.587 C 59.269 65.885,59.777 61.968,61.238 63.429 M101.333 101.669 C 103.701 102.023,108.071 102.330,110.917 102.342 C 116.333 102.366,118.793 102.853,116.770 103.500 C 116.414 103.614,115.852 103.952,115.520 104.251 C 114.852 104.854,114.401 105.005,111.819 105.495 C 110.848 105.679,109.489 106.014,108.799 106.239 C 108.108 106.465,106.769 106.804,105.824 106.994 C 104.878 107.183,103.647 107.555,103.087 107.819 C 102.527 108.084,101.397 108.426,100.576 108.580 C 99.755 108.733,98.596 109.072,98.000 109.332 C 97.404 109.592,96.204 109.933,95.333 110.089 C 94.462 110.245,93.075 110.585,92.250 110.844 C 91.425 111.104,89.925 111.477,88.917 111.674 C 87.908 111.871,86.596 112.243,86.000 112.500 C 85.404 112.757,84.279 113.094,83.500 113.249 C 82.721 113.403,81.521 113.779,80.833 114.085 C 77.995 115.344,75.372 114.827,77.542 113.435 C 78.023 113.126,78.566 112.707,78.750 112.503 C 78.933 112.299,79.308 112.019,79.583 111.881 C 80.491 111.425,82.530 110.093,83.229 109.500 C 83.607 109.179,84.212 108.767,84.573 108.583 C 84.933 108.400,85.346 108.045,85.489 107.794 C 85.659 107.496,86.111 107.184,86.788 106.895 C 87.359 106.652,87.942 106.276,88.083 106.060 C 88.225 105.844,88.454 105.667,88.593 105.667 C 89.012 105.667,90.546 104.820,90.868 104.410 C 91.035 104.199,91.414 103.973,91.710 103.909 C 92.022 103.841,92.506 103.516,92.858 103.137 L 93.465 102.482 95.217 102.686 C 97.096 102.905,98.379 102.645,99.500 101.818 C 99.989 101.457,99.943 101.461,101.333 101.669 " stroke="none" fill="#d9d9d9" fill-rule="evenodd"></path><path id="path1" d="M92.207 12.763 C 91.450 12.891,90.475 13.174,90.040 13.392 C 89.237 13.794,88.417 14.015,86.531 14.338 C 85.952 14.437,84.715 14.740,83.781 15.011 C 82.847 15.282,81.221 15.656,80.167 15.843 C 79.112 16.030,77.837 16.373,77.333 16.604 C 76.829 16.835,75.549 17.198,74.489 17.410 C 73.429 17.623,72.187 17.986,71.729 18.219 C 71.271 18.451,70.413 18.723,69.823 18.825 C 68.055 19.128,67.149 19.340,65.833 19.759 C 65.146 19.978,63.552 20.346,62.291 20.577 C 61.031 20.807,59.568 21.175,59.041 21.393 C 58.514 21.612,57.558 21.881,56.917 21.992 C 55.288 22.274,54.000 22.647,54.000 22.836 C 54.000 23.618,57.245 24.494,62.333 25.085 C 64.396 25.325,66.796 25.703,67.667 25.926 C 71.116 26.807,76.115 27.203,77.147 26.677 C 77.551 26.470,78.597 26.202,79.546 26.061 C 81.445 25.778,81.998 25.549,82.536 24.820 C 82.743 24.541,83.164 24.156,83.472 23.966 C 83.780 23.776,84.254 23.312,84.527 22.935 C 84.799 22.558,85.266 22.100,85.565 21.917 C 85.864 21.733,86.351 21.306,86.648 20.966 C 86.944 20.627,87.321 20.307,87.484 20.255 C 87.647 20.203,87.872 19.990,87.984 19.780 C 88.096 19.570,88.464 19.226,88.802 19.015 C 89.140 18.804,89.567 18.398,89.750 18.112 C 89.934 17.826,90.262 17.504,90.479 17.396 C 90.696 17.288,91.194 16.873,91.586 16.475 C 92.619 15.424,93.485 14.637,94.292 14.017 C 95.067 13.420,95.098 13.356,94.792 12.964 C 94.478 12.563,93.732 12.506,92.207 12.763 M97.667 14.443 C 97.254 14.684,96.729 15.049,96.500 15.255 C 96.271 15.460,95.841 15.751,95.545 15.900 C 95.248 16.050,94.846 16.389,94.650 16.654 C 94.454 16.919,94.052 17.265,93.758 17.424 C 93.463 17.583,93.081 17.923,92.908 18.179 C 92.736 18.436,92.306 18.808,91.952 19.007 C 91.599 19.206,91.268 19.476,91.218 19.608 C 91.167 19.740,90.829 19.999,90.466 20.184 C 89.683 20.584,87.580 22.314,87.026 23.015 C 86.811 23.287,86.351 23.654,86.004 23.832 C 85.656 24.009,85.144 24.382,84.865 24.660 C 84.587 24.939,84.200 25.167,84.005 25.167 C 83.789 25.167,83.542 25.356,83.372 25.654 C 83.218 25.921,82.856 26.253,82.567 26.391 C 80.690 27.286,82.219 29.105,85.525 29.908 C 86.520 30.149,87.689 30.523,88.125 30.739 C 88.560 30.954,89.479 31.256,90.167 31.409 C 90.883 31.569,91.755 31.904,92.209 32.195 C 92.654 32.480,93.658 32.869,94.504 33.084 C 95.332 33.295,96.200 33.593,96.435 33.747 C 97.297 34.311,97.914 33.091,98.077 30.500 C 98.132 29.629,98.282 28.017,98.412 26.917 C 99.085 21.181,99.228 15.055,98.705 14.378 L 98.417 14.006 97.667 14.443 M102.773 14.546 C 102.253 14.926,102.170 15.965,102.003 24.167 C 101.909 28.773,101.759 32.608,101.654 33.083 C 101.317 34.613,102.253 35.802,104.083 36.171 C 104.633 36.281,105.374 36.532,105.730 36.728 C 107.207 37.540,107.450 37.642,108.167 37.750 C 108.991 37.875,110.500 38.468,110.500 38.667 C 110.500 38.871,111.321 39.132,112.803 39.401 C 113.565 39.539,114.611 39.845,115.126 40.081 C 115.641 40.317,116.629 40.624,117.323 40.763 C 118.016 40.903,119.183 41.308,119.917 41.664 C 120.650 42.020,121.700 42.399,122.250 42.508 C 123.436 42.741,123.753 42.887,124.417 43.508 C 124.824 43.888,125.164 44.009,126.245 44.158 C 128.037 44.404,128.702 44.599,129.266 45.042 C 129.690 45.376,129.930 45.417,131.492 45.417 C 133.562 45.417,133.749 45.236,132.744 44.210 C 132.406 43.865,131.550 42.983,130.842 42.250 C 130.133 41.517,129.110 40.482,128.568 39.952 C 128.027 39.421,127.171 38.535,126.667 37.983 C 126.162 37.431,125.567 36.815,125.343 36.615 C 125.118 36.414,124.090 35.387,123.057 34.333 C 120.797 32.028,120.911 32.143,118.417 29.655 C 117.317 28.558,116.214 27.455,115.965 27.205 C 115.717 26.955,114.684 25.925,113.670 24.917 C 112.656 23.908,110.367 21.583,108.585 19.750 C 106.802 17.917,105.226 16.304,105.083 16.167 C 104.941 16.029,104.462 15.560,104.020 15.125 C 103.116 14.234,103.167 14.258,102.773 14.546 M49.208 25.749 C 48.528 26.239,48.851 29.367,49.737 30.880 C 49.970 31.278,50.282 32.198,50.430 32.926 C 50.579 33.654,50.913 34.626,51.173 35.085 C 51.433 35.544,51.847 36.741,52.094 37.745 C 52.340 38.749,52.678 39.887,52.843 40.274 C 53.009 40.660,53.339 41.863,53.577 42.946 C 53.815 44.030,54.194 45.292,54.419 45.750 C 54.643 46.208,54.968 47.273,55.140 48.115 C 55.351 49.147,55.620 49.909,55.963 50.449 C 56.244 50.889,56.549 51.667,56.642 52.176 C 56.997 54.129,57.250 54.500,58.228 54.500 L 59.087 54.500 59.919 53.403 C 60.376 52.800,60.991 51.956,61.286 51.528 C 61.581 51.100,62.015 50.487,62.250 50.167 C 63.003 49.140,63.815 47.938,64.277 47.167 C 64.524 46.754,65.069 46.027,65.488 45.551 C 66.747 44.120,67.229 43.484,67.667 42.677 C 68.220 41.655,69.095 40.432,69.935 39.506 C 70.312 39.090,70.716 38.563,70.834 38.333 C 70.952 38.104,71.270 37.654,71.541 37.333 C 71.812 37.012,72.270 36.364,72.558 35.892 C 73.547 34.278,74.396 33.083,74.760 32.796 C 74.960 32.638,75.297 32.084,75.508 31.563 L 75.892 30.617 75.360 30.142 C 75.007 29.827,74.646 29.667,74.289 29.667 C 73.992 29.667,72.999 29.481,72.083 29.253 C 71.166 29.026,69.067 28.683,67.417 28.491 C 65.703 28.292,64.024 28.001,63.500 27.812 C 61.504 27.094,61.050 27.002,58.284 26.758 C 56.683 26.616,54.680 26.324,53.750 26.097 C 51.426 25.529,49.697 25.397,49.208 25.749 M46.270 28.786 C 46.204 28.851,46.002 29.241,45.820 29.652 C 45.639 30.062,45.316 30.627,45.104 30.907 C 44.635 31.525,44.419 32.192,44.158 33.833 C 44.048 34.521,43.746 35.778,43.485 36.626 C 43.225 37.475,42.818 39.086,42.582 40.205 C 42.346 41.325,41.968 42.655,41.742 43.162 C 41.517 43.669,41.184 44.784,41.002 45.641 C 40.807 46.566,40.470 47.553,40.174 48.070 C 39.803 48.719,39.610 49.380,39.418 50.659 C 39.276 51.604,38.977 52.836,38.753 53.397 C 38.530 53.958,38.151 55.429,37.913 56.667 C 37.674 57.904,37.296 59.319,37.073 59.810 C 36.850 60.302,36.519 61.447,36.337 62.354 C 36.007 64.001,35.793 64.546,35.166 65.333 C 34.935 65.624,34.760 66.281,34.590 67.500 C 34.319 69.440,34.099 70.204,33.624 70.852 C 33.387 71.175,33.271 71.730,33.171 73.018 L 33.037 74.750 33.928 76.599 C 34.962 78.744,34.928 78.708,36.296 79.089 C 37.802 79.508,37.746 79.701,35.841 80.666 L 35.099 81.041 35.693 81.346 C 36.057 81.533,36.373 81.863,36.510 82.200 C 36.634 82.503,37.526 83.499,38.492 84.414 C 39.459 85.329,41.311 87.129,42.607 88.414 C 43.903 89.699,46.441 92.175,48.247 93.917 C 50.053 95.658,53.418 98.960,55.724 101.253 C 58.030 103.546,60.529 105.998,61.276 106.702 C 62.024 107.406,62.887 108.294,63.193 108.676 C 63.776 109.403,66.688 111.833,66.976 111.833 C 67.599 111.833,67.800 111.034,67.708 108.917 L 67.618 106.833 68.063 106.833 C 68.723 106.833,69.114 108.718,69.162 112.119 C 69.183 113.691,72.499 114.008,74.000 112.581 C 74.229 112.363,74.857 111.990,75.395 111.752 C 75.933 111.515,76.608 111.142,76.895 110.924 C 77.182 110.706,77.754 110.398,78.167 110.239 C 78.579 110.080,79.292 109.670,79.750 109.329 C 80.208 108.987,80.858 108.620,81.195 108.512 C 81.531 108.405,81.926 108.133,82.074 107.908 C 82.221 107.684,82.824 107.281,83.414 107.013 C 84.004 106.746,84.736 106.337,85.041 106.104 C 85.345 105.872,85.925 105.629,86.330 105.565 C 86.871 105.478,87.228 105.281,87.682 104.818 C 88.041 104.452,88.578 104.114,88.967 104.009 C 89.455 103.878,89.729 103.672,89.976 103.253 C 90.184 102.900,90.496 102.634,90.783 102.565 C 92.133 102.240,92.500 101.892,92.500 100.934 C 92.500 99.845,92.406 99.757,90.811 99.359 C 89.512 99.034,89.182 98.893,88.265 98.271 C 87.947 98.055,87.086 97.771,86.253 97.608 C 85.452 97.450,84.505 97.173,84.148 96.991 C 83.791 96.808,82.698 96.470,81.718 96.239 C 80.739 96.007,79.445 95.606,78.844 95.346 C 78.242 95.087,77.188 94.745,76.500 94.587 C 75.813 94.429,74.837 94.053,74.333 93.752 C 73.774 93.417,72.915 93.101,72.128 92.939 C 71.419 92.794,70.444 92.474,69.961 92.228 C 68.239 91.349,66.748 91.217,66.187 91.892 C 65.822 92.332,66.383 96.514,67.067 98.453 C 67.968 101.007,68.101 106.833,67.259 106.833 C 66.820 106.833,66.422 105.389,66.158 102.835 C 66.051 101.800,65.887 101.103,65.671 100.763 C 64.808 99.402,64.644 98.924,64.389 97.034 C 64.242 95.941,63.958 94.678,63.743 94.162 C 63.533 93.655,63.240 92.605,63.093 91.829 C 62.802 90.290,62.598 90.015,61.502 89.687 C 61.171 89.588,60.567 89.286,60.159 89.017 C 59.751 88.747,58.833 88.378,58.120 88.196 C 57.406 88.014,56.656 87.746,56.453 87.600 C 56.250 87.455,55.926 87.221,55.733 87.080 C 55.540 86.940,54.715 86.712,53.899 86.574 C 53.056 86.431,51.985 86.113,51.417 85.838 C 50.867 85.571,49.832 85.237,49.118 85.095 C 47.789 84.832,47.402 84.680,46.657 84.132 C 46.422 83.959,45.653 83.674,44.947 83.497 C 43.361 83.101,43.075 82.951,42.798 82.375 C 42.606 81.974,42.428 81.893,41.332 81.704 C 38.577 81.229,38.303 81.154,38.500 80.917 C 39.077 80.221,42.388 80.494,43.444 81.325 C 43.683 81.513,44.097 81.667,44.365 81.667 C 45.432 81.667,47.189 82.196,47.746 82.686 C 48.167 83.056,48.665 83.250,49.815 83.496 C 51.476 83.851,51.771 83.971,52.227 84.475 C 52.435 84.704,52.838 84.848,53.475 84.919 C 55.320 85.126,56.386 85.361,57.282 85.757 C 59.996 86.957,62.244 86.660,61.834 85.156 C 61.748 84.841,61.563 83.694,61.421 82.608 C 61.103 80.164,61.056 79.973,60.492 78.901 C 60.242 78.425,59.948 77.484,59.840 76.810 C 59.732 76.135,59.565 75.096,59.469 74.500 C 59.373 73.904,59.150 73.079,58.972 72.667 C 58.794 72.255,58.536 71.205,58.397 70.334 C 57.536 64.925,57.137 63.758,55.962 63.205 C 53.649 62.118,52.707 58.757,54.152 56.745 C 54.798 55.846,54.828 55.020,54.255 53.942 C 54.029 53.516,53.649 52.300,53.411 51.239 C 53.173 50.178,52.828 48.959,52.644 48.530 C 52.460 48.101,52.131 46.925,51.912 45.917 C 51.671 44.801,51.314 43.713,51.001 43.136 C 50.719 42.616,50.408 41.716,50.310 41.136 C 50.213 40.557,49.880 39.558,49.570 38.917 C 49.260 38.275,48.883 37.150,48.733 36.417 C 48.583 35.683,48.252 34.521,47.999 33.833 C 47.746 33.145,47.413 31.945,47.259 31.166 C 46.808 28.883,46.621 28.434,46.270 28.786 M80.282 31.672 C 79.103 31.969,77.887 32.849,77.315 33.820 C 77.121 34.148,76.743 34.679,76.475 35.000 C 75.416 36.266,74.456 37.560,73.990 38.350 C 73.721 38.806,73.344 39.345,73.153 39.548 C 72.961 39.751,72.666 40.184,72.498 40.511 C 72.329 40.838,72.077 41.200,71.938 41.316 C 71.799 41.431,71.443 41.914,71.147 42.388 C 70.852 42.862,70.369 43.512,70.074 43.833 C 69.546 44.409,69.104 45.036,68.040 46.722 C 67.246 47.980,66.193 49.400,65.292 50.432 C 64.856 50.930,64.500 51.408,64.500 51.496 C 64.500 51.583,64.289 51.901,64.031 52.203 C 63.773 52.504,63.348 53.125,63.086 53.583 C 62.824 54.042,62.384 54.698,62.109 55.042 C 61.540 55.756,61.478 56.820,61.921 58.292 C 62.104 58.902,62.117 59.231,61.978 59.748 C 61.668 60.897,61.912 62.062,62.670 63.050 C 63.502 64.132,63.454 64.082,64.582 65.083 C 66.340 66.644,68.000 68.352,68.000 68.599 C 68.000 68.697,68.295 69.014,68.655 69.304 C 69.015 69.593,69.353 69.967,69.407 70.135 C 69.460 70.303,69.758 70.561,70.070 70.710 C 70.381 70.858,70.762 71.193,70.916 71.454 C 71.070 71.714,71.409 72.050,71.670 72.200 C 71.931 72.349,72.332 72.759,72.562 73.111 C 72.933 73.681,74.136 74.965,75.201 75.929 C 75.411 76.120,75.696 76.400,75.833 76.552 C 75.971 76.705,76.365 77.063,76.708 77.349 C 77.052 77.634,77.333 77.954,77.332 78.059 C 77.331 78.164,77.591 78.512,77.910 78.833 C 78.228 79.154,78.723 79.653,79.011 79.942 C 79.298 80.230,79.938 80.830,80.432 81.275 C 80.926 81.720,81.463 82.230,81.624 82.409 C 81.785 82.589,82.854 83.659,84.000 84.787 C 86.588 87.335,85.956 86.694,89.621 90.492 C 95.333 96.409,95.156 96.259,95.614 95.560 C 95.875 95.161,95.919 94.372,96.031 88.099 C 96.099 84.240,96.237 79.808,96.337 78.250 C 96.637 73.570,96.803 69.745,96.990 63.167 C 97.088 59.729,97.290 54.179,97.437 50.833 C 98.043 37.121,97.997 36.637,96.036 36.086 C 95.512 35.939,94.739 35.675,94.317 35.499 C 93.896 35.323,92.753 34.991,91.778 34.760 C 90.803 34.530,89.631 34.152,89.174 33.920 C 88.717 33.689,87.684 33.346,86.880 33.159 C 86.075 32.972,85.154 32.639,84.833 32.419 C 83.719 31.654,81.680 31.320,80.282 31.672 M101.413 38.506 C 101.150 38.931,100.996 42.459,100.829 51.917 C 100.707 58.844,100.569 62.774,100.397 64.250 C 100.258 65.442,100.074 67.017,99.988 67.750 C 99.902 68.483,99.754 69.758,99.661 70.583 C 99.567 71.408,99.422 75.646,99.339 80.000 C 99.195 87.479,98.980 92.219,98.687 94.366 C 98.337 96.929,99.362 99.167,100.885 99.167 C 102.163 99.167,105.899 99.668,107.083 99.999 C 107.799 100.198,109.538 100.424,111.583 100.582 C 115.853 100.911,117.568 101.117,119.373 101.513 C 122.216 102.138,123.576 101.686,124.358 99.857 C 124.540 99.431,124.828 98.933,124.997 98.750 C 125.337 98.382,125.748 97.037,125.915 95.750 C 125.974 95.292,126.203 94.354,126.423 93.667 C 126.822 92.419,127.463 89.570,127.815 87.477 C 127.918 86.868,128.185 85.968,128.409 85.477 C 128.633 84.985,128.892 83.983,128.986 83.250 C 129.205 81.536,129.377 80.972,129.890 80.298 C 130.197 79.895,130.357 79.388,130.494 78.381 C 130.685 76.979,131.094 75.382,131.337 75.082 C 131.466 74.924,132.344 70.734,132.563 69.233 C 132.618 68.856,132.851 68.137,133.082 67.633 C 133.334 67.082,133.597 66.030,133.743 64.992 C 133.915 63.766,134.085 63.143,134.328 62.841 C 134.844 62.200,134.997 61.738,135.250 60.059 C 135.376 59.213,135.672 58.102,135.907 57.589 C 136.307 56.713,136.831 54.175,136.833 53.102 C 136.833 52.774,136.627 52.397,136.185 51.918 C 135.726 51.420,135.503 51.001,135.419 50.482 C 135.261 49.500,134.929 49.022,134.195 48.721 C 133.859 48.583,133.352 48.249,133.069 47.979 C 132.654 47.583,132.249 47.426,130.971 47.169 C 129.346 46.842,128.500 46.549,128.500 46.312 C 128.500 46.026,127.777 45.819,126.273 45.677 C 125.216 45.577,124.359 45.383,123.644 45.082 C 123.061 44.836,122.096 44.521,121.500 44.382 C 119.594 43.937,118.774 43.646,118.299 43.247 C 118.011 43.005,117.344 42.752,116.543 42.582 C 114.792 42.211,114.352 42.058,113.664 41.581 C 113.258 41.300,112.665 41.117,111.746 40.990 C 111.015 40.889,110.004 40.658,109.500 40.476 C 108.127 39.982,106.716 39.561,105.448 39.269 C 104.824 39.126,104.100 38.856,103.839 38.671 C 103.322 38.302,101.611 38.186,101.413 38.506 M369.510 44.907 C 373.203 45.399,374.259 45.748,375.272 46.810 C 376.398 47.992,376.394 48.047,375.075 49.226 L 373.984 50.201 373.338 49.754 C 372.983 49.507,372.105 49.157,371.388 48.974 C 370.670 48.792,369.640 48.498,369.097 48.321 C 367.309 47.738,363.945 48.213,361.804 49.349 C 361.131 49.706,359.529 51.758,359.405 52.421 C 359.185 53.595,359.392 55.446,359.801 55.950 C 360.009 56.207,360.307 56.639,360.465 56.910 C 361.074 57.962,362.666 59.211,364.075 59.741 C 364.703 59.977,365.463 60.322,365.762 60.508 C 366.062 60.693,366.852 61.030,367.519 61.256 C 368.185 61.483,368.885 61.811,369.074 61.986 C 369.262 62.160,369.901 62.499,370.494 62.738 C 371.086 62.977,371.761 63.348,371.994 63.563 C 372.226 63.778,372.784 64.133,373.233 64.352 C 378.585 66.963,378.544 75.986,373.167 79.042 C 372.662 79.328,372.057 79.703,371.822 79.873 C 369.558 81.518,359.349 81.429,356.793 79.742 C 356.450 79.515,355.762 79.150,355.265 78.931 C 354.174 78.448,353.936 78.061,354.043 76.944 C 354.225 75.047,355.926 74.760,358.361 76.217 C 361.328 77.992,369.404 77.806,371.164 75.922 C 371.391 75.679,371.806 75.338,372.086 75.165 C 373.229 74.459,373.646 71.252,372.850 69.290 C 372.636 68.764,372.402 68.333,372.330 68.333 C 372.258 68.333,371.873 68.004,371.475 67.602 C 370.734 66.856,367.533 65.175,365.750 64.597 C 365.292 64.449,364.586 64.103,364.182 63.830 C 363.779 63.556,363.167 63.256,362.823 63.164 C 362.479 63.071,361.834 62.747,361.390 62.444 C 360.947 62.141,360.190 61.680,359.708 61.420 C 359.227 61.160,358.833 60.885,358.833 60.809 C 358.833 60.733,358.533 60.473,358.167 60.230 C 357.800 59.987,357.338 59.518,357.140 59.186 C 356.941 58.855,356.645 58.432,356.481 58.248 C 355.720 57.392,355.395 53.613,355.912 51.629 C 356.476 49.462,358.073 47.645,360.950 45.896 C 362.485 44.962,366.466 44.502,369.510 44.907 M239.833 45.469 C 241.791 45.928,242.101 46.101,242.861 47.159 L 243.525 48.083 242.657 48.884 C 242.051 49.444,241.708 49.650,241.520 49.567 C 241.371 49.502,240.500 49.244,239.583 48.995 C 238.667 48.745,237.450 48.381,236.880 48.187 C 235.704 47.786,233.440 47.714,232.569 48.051 C 232.286 48.160,231.397 48.474,230.592 48.749 C 227.777 49.709,226.126 52.674,226.985 55.230 C 227.355 56.332,228.383 57.919,228.963 58.283 C 229.212 58.440,229.698 58.815,230.042 59.117 C 230.386 59.419,230.765 59.667,230.884 59.667 C 231.003 59.667,231.714 59.963,232.463 60.325 C 233.212 60.688,234.329 61.140,234.944 61.330 C 235.560 61.520,236.299 61.855,236.587 62.075 C 236.876 62.295,237.590 62.669,238.174 62.907 C 238.759 63.144,239.428 63.517,239.660 63.734 C 239.893 63.952,240.393 64.285,240.772 64.475 C 241.480 64.830,243.507 66.900,243.928 67.698 C 244.703 69.168,244.646 73.992,243.836 75.500 C 243.378 76.351,241.808 78.138,241.124 78.586 C 240.735 78.841,240.109 79.253,239.734 79.503 C 235.498 82.320,221.833 80.533,221.833 77.162 C 221.833 75.378,223.285 75.030,225.634 76.252 C 230.827 78.953,239.256 77.760,240.761 74.111 C 241.631 72.002,241.324 69.111,240.129 68.167 C 239.839 67.938,239.372 67.517,239.092 67.233 C 238.543 66.675,235.324 65.055,233.833 64.585 C 233.329 64.427,232.651 64.118,232.326 63.899 C 232.001 63.681,231.274 63.321,230.711 63.101 C 230.148 62.880,229.439 62.513,229.136 62.285 C 228.832 62.057,228.208 61.678,227.750 61.442 C 226.959 61.035,226.409 60.543,224.525 58.552 L 223.707 57.688 223.499 55.991 C 223.194 53.502,223.469 50.966,224.122 50.243 C 224.284 50.063,224.640 49.616,224.914 49.250 C 226.448 47.192,228.478 45.814,230.667 45.344 C 232.789 44.888,237.640 44.955,239.833 45.469 M310.879 45.248 C 313.663 45.667,314.285 45.911,315.401 47.020 L 316.385 47.998 315.374 48.999 C 314.223 50.139,314.219 50.141,313.280 49.598 C 310.703 48.110,305.681 47.420,303.385 48.237 C 302.761 48.459,301.710 48.798,301.050 48.989 C 300.390 49.181,299.800 49.419,299.739 49.519 C 299.677 49.618,299.281 49.919,298.858 50.187 C 297.740 50.896,296.421 52.483,296.075 53.534 C 295.916 54.019,295.574 54.717,295.315 55.083 C 293.899 57.089,293.910 68.819,295.329 70.962 C 295.600 71.371,295.937 72.105,296.079 72.594 C 296.441 73.838,298.710 76.117,300.211 76.744 C 301.670 77.354,306.035 78.054,307.167 77.860 C 313.777 76.726,313.333 77.365,313.333 68.981 C 313.333 63.520,313.333 63.519,313.717 63.072 C 314.207 62.503,315.623 62.608,316.277 63.262 L 316.667 63.652 316.708 69.367 C 316.772 78.070,316.764 78.147,315.750 78.655 C 315.475 78.794,314.745 79.198,314.128 79.554 C 310.522 81.635,300.620 81.449,297.394 79.240 C 292.026 75.566,290.573 71.365,290.937 60.583 C 291.171 53.651,293.460 49.419,298.523 46.556 C 301.054 45.125,306.348 44.565,310.879 45.248 M163.475 45.404 C 163.885 45.616,165.333 47.043,165.333 47.235 C 165.333 47.884,165.948 49.887,166.318 50.446 C 166.581 50.843,166.848 51.515,166.911 51.940 C 166.975 52.365,167.387 53.696,167.826 54.898 C 168.592 56.997,168.690 57.337,168.910 58.691 C 168.964 59.025,169.224 59.569,169.487 59.900 C 169.798 60.291,170.024 60.841,170.136 61.475 C 170.316 62.495,170.601 63.217,171.184 64.126 C 171.375 64.425,171.670 65.222,171.839 65.899 C 172.009 66.576,172.329 67.569,172.551 68.107 C 172.773 68.644,173.162 69.946,173.416 71.000 C 173.707 72.211,174.050 73.183,174.347 73.641 C 174.605 74.039,174.904 74.789,175.012 75.307 C 175.282 76.612,175.520 76.939,175.895 76.524 C 176.406 75.959,177.524 73.436,177.788 72.250 C 177.930 71.609,178.326 70.553,178.668 69.904 C 179.053 69.171,179.332 68.367,179.406 67.781 C 179.496 67.058,179.654 66.680,180.082 66.168 C 180.389 65.801,180.679 65.294,180.726 65.042 C 180.772 64.790,180.860 64.287,180.919 63.924 C 180.979 63.562,181.162 63.000,181.325 62.674 C 181.748 61.833,182.667 58.787,182.667 58.224 C 182.667 57.757,182.975 57.076,183.536 56.303 C 183.694 56.085,183.931 55.393,184.062 54.765 C 184.194 54.136,184.459 53.425,184.650 53.186 C 185.255 52.428,185.480 51.909,185.737 50.676 C 185.874 50.016,186.170 49.088,186.394 48.613 C 186.618 48.138,186.888 47.423,186.995 47.023 C 187.324 45.792,188.242 45.205,189.591 45.361 C 190.794 45.501,190.995 47.840,189.900 48.968 C 189.426 49.455,189.000 50.578,189.000 51.337 C 189.000 51.421,188.819 51.886,188.598 52.370 C 188.170 53.307,187.421 55.811,187.239 56.917 C 187.179 57.283,186.954 57.890,186.740 58.265 C 186.526 58.640,186.223 59.465,186.067 60.098 C 185.748 61.398,185.461 62.041,184.900 62.713 C 184.687 62.968,184.469 63.456,184.415 63.797 C 184.201 65.136,183.973 65.882,183.597 66.470 C 183.381 66.807,183.157 67.401,183.100 67.790 C 182.935 68.918,182.145 71.545,181.835 72.000 C 181.440 72.580,181.167 73.446,181.167 74.119 C 181.167 74.771,180.959 75.238,180.402 75.836 C 180.148 76.109,179.920 76.693,179.750 77.503 C 179.235 79.956,178.301 80.667,175.595 80.667 C 173.717 80.667,172.881 80.340,172.444 79.435 C 172.079 78.683,171.375 76.372,171.244 75.500 C 171.182 75.087,170.993 74.599,170.824 74.414 C 170.418 73.972,170.080 73.132,169.843 71.974 C 169.736 71.455,169.422 70.688,169.145 70.269 C 168.845 69.817,168.480 68.877,168.247 67.962 C 168.031 67.112,167.662 66.048,167.427 65.597 C 167.192 65.146,167.000 64.653,167.000 64.501 C 167.000 64.023,166.188 61.462,165.679 60.333 C 165.411 59.737,165.139 58.818,165.076 58.291 C 164.991 57.583,164.855 57.233,164.557 56.957 C 163.989 56.433,163.729 55.882,163.592 54.917 C 163.528 54.458,163.267 53.708,163.013 53.250 C 162.760 52.792,162.312 51.442,162.019 50.250 C 161.725 49.058,161.337 47.727,161.155 47.292 C 160.530 45.797,161.970 44.625,163.475 45.404 M338.133 45.403 C 339.291 46.011,340.178 47.345,340.415 48.833 C 340.481 49.246,340.711 49.938,340.926 50.372 C 341.141 50.806,341.541 52.019,341.815 53.068 C 342.090 54.117,342.470 55.281,342.660 55.654 C 342.850 56.027,343.190 57.019,343.414 57.858 C 343.639 58.697,343.972 59.542,344.153 59.736 C 344.562 60.171,344.894 60.970,345.164 62.167 C 345.278 62.671,345.552 63.400,345.774 63.788 C 345.995 64.176,346.394 65.323,346.661 66.338 C 346.927 67.352,347.300 68.503,347.489 68.895 C 347.679 69.286,347.993 70.255,348.186 71.047 C 348.401 71.926,348.752 72.819,349.087 73.339 C 349.408 73.838,349.748 74.686,349.905 75.384 C 350.054 76.040,350.360 76.845,350.586 77.171 C 351.731 78.823,351.211 80.436,349.479 80.609 C 347.784 80.778,347.092 79.959,346.237 76.772 C 345.939 75.660,345.545 74.467,345.363 74.121 C 345.181 73.775,344.909 72.950,344.759 72.287 C 344.201 69.822,344.228 69.829,335.898 69.850 C 327.802 69.870,328.095 69.792,327.492 72.083 C 327.395 72.450,327.130 73.225,326.904 73.804 C 326.677 74.384,326.312 75.565,326.093 76.428 C 325.236 79.806,324.024 80.973,321.973 80.398 C 321.082 80.148,321.125 78.567,322.082 76.403 C 322.318 75.870,322.631 74.904,322.777 74.258 C 322.933 73.571,323.242 72.806,323.521 72.415 C 323.784 72.047,324.152 71.185,324.340 70.498 C 324.527 69.812,324.831 69.043,325.014 68.789 C 325.197 68.535,325.563 67.478,325.828 66.439 C 326.092 65.400,326.493 64.108,326.719 63.567 C 326.945 63.026,327.292 61.984,327.492 61.252 C 327.691 60.520,328.074 59.536,328.344 59.066 C 328.613 58.595,328.972 57.652,329.143 56.971 C 329.313 56.289,329.646 55.436,329.882 55.074 C 330.118 54.712,330.395 53.944,330.498 53.366 C 330.601 52.788,330.942 51.641,331.256 50.817 C 331.571 49.993,331.946 48.862,332.091 48.303 C 332.600 46.338,332.804 45.998,333.734 45.565 C 334.758 45.089,337.352 44.993,338.133 45.403 M215.961 45.663 C 216.803 46.046,216.925 46.291,216.730 47.209 C 216.439 48.579,216.483 48.571,208.226 48.667 C 201.370 48.746,201.018 48.765,200.672 49.078 C 200.253 49.458,200.190 60.257,200.605 60.672 C 201.005 61.072,202.280 61.159,207.780 61.163 L 213.476 61.167 213.839 61.625 C 214.143 62.009,214.187 62.227,214.112 62.970 C 213.965 64.419,214.345 64.333,208.071 64.333 C 202.376 64.333,200.948 64.456,200.549 64.981 C 200.133 65.527,200.258 76.380,200.684 76.766 C 201.015 77.066,201.460 77.088,208.650 77.167 C 217.583 77.264,217.167 77.184,217.167 78.811 C 217.167 80.528,217.844 80.409,207.774 80.467 C 198.664 80.519,197.999 80.477,197.383 79.797 C 197.080 79.461,196.800 49.030,197.082 47.064 C 197.329 45.341,197.284 45.349,207.083 45.344 C 214.808 45.341,215.288 45.358,215.961 45.663 M270.809 45.654 C 271.767 46.143,271.864 46.322,271.620 47.165 C 271.222 48.539,271.087 48.576,266.244 48.633 L 262.012 48.683 261.672 49.114 C 261.337 49.540,261.333 49.713,261.333 64.278 C 261.333 79.942,261.330 80.006,260.557 80.219 C 259.430 80.531,259.027 80.507,258.557 80.103 L 258.083 79.696 258.000 64.574 L 257.917 49.453 257.447 49.101 C 257.009 48.774,256.710 48.744,253.030 48.662 C 248.511 48.562,247.963 48.441,247.775 47.498 C 247.531 46.282,247.724 45.894,248.750 45.535 C 249.791 45.170,270.075 45.280,270.809 45.654 M280.183 45.525 C 281.594 45.947,281.467 44.321,281.529 62.833 C 281.571 75.663,281.538 79.329,281.377 79.610 C 280.840 80.549,279.000 80.676,277.975 79.846 L 277.583 79.530 277.538 63.463 C 277.513 54.627,277.552 47.101,277.624 46.740 C 277.830 45.719,278.991 45.168,280.183 45.525 M336.095 49.293 C 336.027 49.361,335.868 49.661,335.743 49.960 C 335.618 50.259,335.243 50.914,334.909 51.417 C 334.534 51.982,334.180 52.821,333.982 53.614 C 333.806 54.319,333.484 55.201,333.266 55.573 C 333.049 55.945,332.673 57.000,332.431 57.917 C 332.190 58.833,331.737 60.221,331.426 61.000 C 331.114 61.779,330.807 62.776,330.743 63.214 C 330.679 63.653,330.445 64.281,330.222 64.609 C 329.119 66.234,329.926 66.500,335.957 66.500 C 342.779 66.500,342.895 66.358,340.661 60.736 C 340.397 60.072,340.096 59.040,339.992 58.444 C 339.868 57.731,339.611 57.060,339.242 56.487 C 338.932 56.007,338.596 55.215,338.495 54.726 C 338.394 54.237,338.102 53.443,337.846 52.960 C 337.591 52.478,337.210 51.558,337.000 50.917 C 336.579 49.631,336.286 49.104,336.095 49.293 M60.180 63.443 C 59.526 63.901,59.752 66.888,60.569 68.587 C 61.039 69.565,61.231 70.280,61.507 72.091 C 61.698 73.342,61.996 74.827,62.169 75.391 C 62.552 76.637,63.116 79.712,63.337 81.750 C 63.428 82.599,63.715 83.865,63.997 84.667 C 64.271 85.446,64.497 86.354,64.498 86.686 C 64.501 87.426,65.001 88.104,65.651 88.246 C 65.915 88.304,66.488 88.579,66.925 88.855 C 67.479 89.207,68.202 89.452,69.318 89.667 C 70.197 89.837,71.404 90.160,72.000 90.385 C 72.596 90.610,73.833 90.964,74.750 91.172 C 75.667 91.380,76.829 91.760,77.333 92.016 C 77.837 92.273,78.813 92.609,79.500 92.762 C 80.781 93.048,81.536 93.353,82.030 93.785 C 82.184 93.920,83.131 94.205,84.134 94.417 C 85.138 94.630,86.212 94.934,86.521 95.094 C 87.770 95.740,89.534 96.002,90.406 95.671 C 90.968 95.457,90.946 95.233,90.332 94.916 C 90.057 94.774,89.655 94.378,89.438 94.037 C 89.222 93.696,88.079 92.427,86.898 91.217 C 85.716 90.007,84.075 88.295,83.250 87.413 C 82.425 86.531,81.571 85.646,81.352 85.446 C 81.133 85.247,80.795 84.903,80.602 84.683 C 80.408 84.463,79.855 83.863,79.372 83.350 C 78.890 82.837,78.231 82.117,77.909 81.750 C 77.588 81.383,76.578 80.296,75.665 79.333 C 74.753 78.371,73.724 77.258,73.378 76.861 C 73.033 76.464,72.412 75.783,72.000 75.347 C 71.587 74.912,70.500 73.703,69.583 72.660 C 68.667 71.617,67.485 70.312,66.958 69.761 C 66.431 69.211,65.960 68.638,65.913 68.489 C 65.866 68.339,65.652 68.138,65.439 68.040 C 65.225 67.943,64.870 67.631,64.650 67.347 C 64.430 67.063,63.631 66.199,62.875 65.426 C 62.119 64.653,61.500 63.946,61.500 63.856 C 61.500 63.271,60.757 63.038,60.180 63.443 M99.500 101.818 C 98.379 102.645,97.096 102.905,95.217 102.686 L 93.465 102.482 92.858 103.137 C 92.506 103.516,92.022 103.841,91.710 103.909 C 91.414 103.973,91.035 104.199,90.868 104.410 C 90.546 104.820,89.012 105.667,88.593 105.667 C 88.454 105.667,88.225 105.844,88.083 106.060 C 87.942 106.276,87.359 106.652,86.788 106.895 C 86.111 107.184,85.659 107.496,85.489 107.794 C 85.346 108.045,84.933 108.400,84.573 108.583 C 84.212 108.767,83.607 109.179,83.229 109.500 C 82.530 110.093,80.491 111.425,79.583 111.881 C 79.308 112.019,78.933 112.299,78.750 112.503 C 78.566 112.707,78.023 113.126,77.542 113.435 C 75.372 114.827,77.995 115.344,80.833 114.085 C 81.521 113.779,82.721 113.403,83.500 113.249 C 84.279 113.094,85.404 112.757,86.000 112.500 C 86.596 112.243,87.908 111.871,88.917 111.674 C 89.925 111.477,91.425 111.104,92.250 110.844 C 93.075 110.585,94.462 110.245,95.333 110.089 C 96.204 109.933,97.404 109.592,98.000 109.332 C 98.596 109.072,99.755 108.733,100.576 108.580 C 101.397 108.426,102.527 108.084,103.087 107.819 C 103.647 107.555,104.878 107.183,105.824 106.994 C 106.769 106.804,108.108 106.465,108.799 106.239 C 109.489 106.014,110.848 105.679,111.819 105.495 C 114.401 105.005,114.852 104.854,115.520 104.251 C 115.852 103.952,116.414 103.614,116.770 103.500 C 118.793 102.853,116.333 102.366,110.917 102.342 C 108.071 102.330,103.701 102.023,101.333 101.669 C 99.943 101.461,99.989 101.457,99.500 101.818 " stroke="none" fill="#1b1d1e" fill-rule="evenodd"></path></g></svg>