<svg id="svg" version="1.1" xmlns="http://www.w3.org/2000/svg" xmlns:xlink="http://www.w3.org/1999/xlink" width="400" height="102.46305418719211" viewBox="0, 0, 400,102.46305418719211"><g id="svgg"><path id="path0" d="M21.917 20.838 C 20.136 21.104,17.073 23.184,16.672 24.400 C 16.574 24.698,16.233 25.194,15.914 25.503 C 15.495 25.909,15.333 26.210,15.333 26.586 C 15.333 26.873,15.219 27.443,15.079 27.854 C 14.855 28.512,14.830 31.467,14.871 52.842 L 14.917 77.083 15.525 78.220 C 15.860 78.845,16.254 79.445,16.402 79.553 C 16.549 79.661,16.951 80.157,17.295 80.653 C 17.695 81.230,18.101 81.615,18.419 81.717 C 18.693 81.805,19.032 81.977,19.174 82.100 C 19.315 82.222,20.103 82.606,20.924 82.953 L 22.417 83.583 59.417 83.582 C 94.869 83.581,97.932 83.542,98.500 83.089 C 98.638 82.980,99.105 82.759,99.540 82.598 C 99.974 82.438,100.371 82.240,100.422 82.158 C 100.473 82.076,100.768 81.888,101.079 81.741 C 101.832 81.384,103.290 79.823,103.428 79.226 C 103.489 78.964,103.729 78.467,103.962 78.120 C 104.750 76.948,104.750 76.929,104.744 52.667 C 104.737 27.653,104.714 26.922,103.881 25.543 C 102.521 23.290,100.055 21.333,98.578 21.333 C 98.335 21.333,97.945 21.183,97.712 21.000 C 97.272 20.653,24.199 20.497,21.917 20.838 M96.734 27.402 C 97.201 27.623,97.752 28.033,97.958 28.312 L 98.333 28.820 98.331 51.785 C 98.329 71.354,98.293 74.812,98.091 75.167 C 97.960 75.396,97.742 75.823,97.606 76.115 C 97.413 76.530,97.201 76.687,96.638 76.829 C 96.241 76.929,95.744 77.084,95.534 77.172 C 95.292 77.274,82.075 77.333,59.565 77.333 L 23.979 77.333 23.082 76.909 C 21.330 76.080,21.500 78.746,21.501 52.147 C 21.501 25.673,21.342 28.274,23.016 27.440 L 23.899 27.000 59.892 27.000 L 95.885 27.000 96.734 27.402 M27.542 31.751 L 27.167 32.019 27.167 52.172 L 27.167 72.326 27.564 72.586 C 28.357 73.105,45.812 72.755,46.358 72.208 C 46.473 72.094,46.848 72.000,47.192 72.000 C 47.854 72.000,48.477 71.784,49.172 71.314 C 49.405 71.157,49.892 70.974,50.256 70.907 C 50.619 70.840,51.162 70.573,51.461 70.312 C 51.761 70.051,52.195 69.791,52.426 69.733 C 52.656 69.675,52.950 69.425,53.078 69.177 C 53.206 68.930,53.913 68.112,54.650 67.361 C 55.579 66.412,56.040 65.803,56.157 65.368 C 56.250 65.023,56.506 64.498,56.725 64.200 C 56.958 63.885,57.173 63.295,57.240 62.790 C 57.303 62.311,57.518 61.657,57.718 61.335 C 58.091 60.732,58.171 60.218,58.524 56.167 C 58.883 52.039,58.660 46.945,58.002 44.218 C 57.909 43.834,57.833 43.314,57.833 43.064 C 57.833 42.814,57.733 42.491,57.611 42.346 C 57.488 42.202,57.288 41.821,57.165 41.500 C 57.042 41.179,56.817 40.729,56.665 40.500 C 56.513 40.271,56.281 39.821,56.150 39.500 C 55.330 37.491,51.906 33.690,50.701 33.448 C 50.399 33.388,49.911 33.157,49.617 32.936 C 49.286 32.686,48.766 32.499,48.250 32.445 C 46.901 32.303,45.619 32.048,45.083 31.814 C 44.248 31.448,28.046 31.391,27.542 31.751 M63.708 31.666 L 63.333 31.823 63.333 52.151 C 63.333 68.232,63.377 72.509,63.542 72.615 C 63.656 72.689,67.387 72.774,71.833 72.804 C 79.967 72.858,81.124 72.801,83.098 72.241 C 83.564 72.108,84.247 72.000,84.614 72.000 C 85.108 72.000,85.846 71.714,87.433 70.908 C 90.798 69.199,92.633 67.234,93.007 64.937 C 93.083 64.467,93.268 63.671,93.417 63.167 C 93.850 61.707,93.694 59.140,93.112 58.148 C 92.867 57.730,92.667 57.199,92.667 56.970 C 92.667 56.453,91.414 54.554,90.840 54.202 C 90.607 54.059,90.042 53.585,89.583 53.148 C 88.719 52.325,87.656 51.840,86.708 51.836 C 85.699 51.831,85.904 50.614,86.975 50.258 C 87.910 49.948,90.667 47.299,90.667 46.711 C 90.667 46.529,90.857 46.099,91.091 45.755 C 91.371 45.341,91.600 44.643,91.766 43.690 C 91.904 42.898,92.089 41.912,92.176 41.500 C 92.396 40.456,90.819 35.981,90.129 35.693 C 90.054 35.662,89.877 35.412,89.735 35.138 C 89.586 34.849,89.220 34.533,88.864 34.385 C 88.526 34.244,88.016 33.889,87.729 33.595 C 87.115 32.963,85.502 32.332,84.083 32.167 C 83.533 32.103,82.858 31.948,82.583 31.822 C 81.978 31.545,64.347 31.399,63.708 31.666 M140.000 37.000 C 139.801 37.130,139.836 37.163,140.167 37.163 C 140.396 37.162,141.071 37.195,141.667 37.236 L 142.750 37.311 141.750 37.176 C 141.200 37.102,140.637 36.995,140.500 36.939 C 140.362 36.883,140.137 36.910,140.000 37.000 M171.517 36.986 C 171.358 37.086,171.486 37.133,171.917 37.133 C 172.348 37.133,172.475 37.086,172.316 36.986 C 172.188 36.905,172.008 36.838,171.917 36.838 C 171.825 36.838,171.645 36.905,171.517 36.986 M137.796 37.289 C 138.188 37.324,138.788 37.324,139.129 37.288 C 139.471 37.252,139.150 37.223,138.417 37.224 C 137.683 37.224,137.404 37.254,137.796 37.289 M168.625 37.290 C 169.106 37.323,169.894 37.323,170.375 37.290 C 170.856 37.256,170.462 37.228,169.500 37.228 C 168.537 37.228,168.144 37.256,168.625 37.290 M173.296 37.289 C 173.688 37.324,174.288 37.324,174.629 37.288 C 174.971 37.252,174.650 37.223,173.917 37.224 C 173.183 37.224,172.904 37.254,173.296 37.289 M143.461 37.454 C 143.761 37.491,144.211 37.490,144.461 37.452 C 144.712 37.414,144.467 37.384,143.917 37.385 C 143.367 37.386,143.162 37.417,143.461 37.454 M176.349 37.483 C 176.862 37.538,177.387 37.668,177.516 37.772 C 177.645 37.876,178.012 37.995,178.333 38.038 C 178.654 38.081,179.067 38.175,179.250 38.247 L 179.583 38.378 179.250 38.111 C 179.067 37.964,178.692 37.839,178.417 37.833 C 178.142 37.827,177.729 37.714,177.500 37.583 C 177.271 37.452,176.708 37.354,176.250 37.364 L 175.417 37.382 176.349 37.483 M133.981 37.807 C 133.762 37.975,133.330 38.200,133.021 38.305 C 132.197 38.586,130.315 39.870,129.700 40.571 C 128.862 41.525,129.077 41.582,129.958 40.639 C 130.792 39.747,132.229 38.740,133.079 38.453 C 133.356 38.359,133.775 38.149,134.009 37.987 C 134.243 37.824,134.730 37.660,135.092 37.623 L 135.750 37.556 135.064 37.528 C 134.618 37.510,134.239 37.607,133.981 37.807 M146.083 37.919 C 146.725 38.146,147.362 38.331,147.500 38.329 C 147.637 38.328,147.225 38.141,146.583 37.914 C 145.942 37.687,145.304 37.503,145.167 37.504 C 145.029 37.506,145.442 37.693,146.083 37.919 M165.338 37.925 C 165.020 38.150,164.841 38.333,164.941 38.333 C 165.040 38.333,165.306 38.189,165.530 38.012 C 165.755 37.835,166.234 37.660,166.595 37.623 L 167.250 37.556 166.583 37.536 C 166.121 37.522,165.739 37.641,165.338 37.925 M79.023 38.285 C 83.484 39.613,83.496 46.014,79.040 47.557 C 77.508 48.088,74.025 48.215,73.407 47.764 C 73.014 47.476,72.805 39.539,73.168 38.664 C 73.545 37.752,76.576 37.556,79.023 38.285 M186.345 38.272 C 185.989 38.725,185.773 72.340,186.125 72.558 C 186.194 72.600,186.231 65.017,186.207 55.707 C 186.168 40.629,186.192 38.736,186.423 38.384 L 186.682 37.989 190.742 38.036 C 192.975 38.062,194.767 38.027,194.724 37.958 C 194.682 37.890,192.857 37.833,190.669 37.833 L 186.691 37.833 186.345 38.272 M207.775 38.271 L 207.337 38.708 207.294 44.807 L 207.250 50.907 206.833 51.118 C 206.548 51.262,206.505 51.329,206.696 51.331 C 207.482 51.338,207.500 51.195,207.500 44.814 L 207.500 38.818 207.909 38.409 L 208.318 38.000 212.117 38.003 C 214.220 38.004,216.028 38.076,216.167 38.163 C 216.512 38.381,216.637 72.041,216.294 72.480 C 216.107 72.720,216.116 72.725,216.375 72.521 C 216.732 72.242,216.836 39.370,216.484 38.358 L 216.301 37.833 212.256 37.833 L 208.212 37.833 207.775 38.271 M223.586 38.208 L 223.154 38.583 223.155 55.466 C 223.157 72.210,223.168 72.679,223.552 72.654 C 223.695 72.644,223.692 72.617,223.542 72.556 C 223.377 72.490,223.333 68.942,223.333 55.598 L 223.333 38.725 223.719 38.362 L 224.105 38.000 235.443 38.000 C 246.216 38.000,246.795 38.015,247.058 38.305 C 247.454 38.742,247.467 43.735,247.074 44.296 L 246.814 44.667 239.830 44.667 L 232.845 44.667 232.648 45.042 C 232.457 45.406,232.461 45.408,232.781 45.125 C 233.083 44.857,233.672 44.833,239.959 44.833 L 246.809 44.833 247.155 44.394 C 247.615 43.808,247.684 38.837,247.241 38.204 L 246.981 37.833 235.500 37.833 L 224.019 37.833 223.586 38.208 M254.076 38.242 L 253.667 38.652 253.667 55.558 C 253.667 71.506,253.683 72.471,253.958 72.575 C 254.192 72.664,254.209 72.645,254.042 72.477 C 253.878 72.311,253.833 68.689,253.833 55.496 L 253.833 38.725 254.219 38.362 C 254.772 37.843,260.381 37.805,261.380 38.314 C 261.719 38.487,261.950 38.555,261.894 38.464 C 261.408 37.677,254.827 37.491,254.076 38.242 M276.093 38.204 C 275.865 38.529,275.838 39.617,275.872 47.162 L 275.911 55.750 275.997 47.083 C 276.045 42.317,276.144 38.323,276.218 38.208 C 276.383 37.954,282.770 37.913,283.167 38.163 C 283.512 38.381,283.637 72.041,283.294 72.480 C 283.107 72.720,283.116 72.725,283.375 72.521 C 283.732 72.242,283.836 39.370,283.484 38.358 L 283.301 37.833 279.826 37.833 C 276.425 37.833,276.347 37.841,276.093 38.204 M290.487 38.321 L 290.000 38.808 290.000 55.550 C 290.000 72.832,290.014 73.209,290.615 72.607 C 290.674 72.548,290.635 72.500,290.528 72.500 C 290.381 72.500,290.333 68.368,290.333 55.612 L 290.333 38.725 290.719 38.362 C 291.496 37.632,299.167 37.863,299.167 38.617 C 299.167 38.767,299.208 38.848,299.258 38.797 C 299.308 38.747,299.300 38.510,299.240 38.270 L 299.131 37.833 295.052 37.833 L 290.974 37.833 290.487 38.321 M311.463 37.970 C 311.305 38.032,312.879 38.059,314.960 38.030 C 318.680 37.977,318.749 37.983,319.039 38.340 C 319.201 38.540,319.333 38.626,319.333 38.530 C 319.333 37.907,318.893 37.833,315.280 37.845 C 313.338 37.851,311.621 37.908,311.463 37.970 M324.931 38.346 L 324.500 38.859 324.500 55.576 C 324.500 72.830,324.514 73.209,325.115 72.607 C 325.174 72.548,325.135 72.500,325.028 72.500 C 324.881 72.500,324.833 68.368,324.833 55.612 L 324.833 38.725 325.219 38.362 L 325.605 38.000 336.961 38.000 C 347.600 38.000,348.327 38.018,348.487 38.292 C 348.580 38.452,348.659 38.505,348.662 38.408 C 348.678 37.847,348.394 37.833,336.815 37.833 L 325.363 37.833 324.931 38.346 M355.537 38.127 C 355.236 38.276,354.953 38.553,354.908 38.741 C 354.701 39.598,354.917 72.556,355.129 72.599 C 355.246 72.622,355.265 72.604,355.171 72.557 C 355.056 72.500,355.000 66.946,355.000 55.567 L 355.000 38.662 355.542 38.329 C 356.097 37.988,371.500 37.893,372.917 38.222 C 373.192 38.286,373.079 38.226,372.667 38.089 C 371.500 37.699,356.328 37.733,355.537 38.127 M42.167 38.500 C 42.671 38.677,43.249 38.825,43.451 38.828 C 43.955 38.835,44.941 39.516,46.045 40.621 C 47.380 41.956,48.106 43.434,48.349 45.312 C 48.452 46.103,48.603 46.922,48.684 47.133 C 48.902 47.693,48.874 56.539,48.653 57.114 C 48.554 57.372,48.361 58.221,48.224 59.000 C 48.087 59.779,47.870 60.533,47.742 60.675 C 47.614 60.817,47.392 61.265,47.249 61.670 C 47.106 62.076,46.850 62.559,46.681 62.745 C 46.511 62.931,46.259 63.309,46.120 63.584 C 45.772 64.274,45.359 64.614,44.500 64.917 C 44.097 65.059,43.636 65.294,43.476 65.439 C 42.699 66.142,38.342 66.425,37.375 65.835 L 36.833 65.505 36.833 52.095 L 36.833 38.686 37.204 38.426 C 37.773 38.027,40.958 38.075,42.167 38.500 M310.268 38.487 C 310.002 38.662,309.637 39.055,309.455 39.361 L 309.125 39.917 309.589 39.356 C 309.845 39.048,310.285 38.655,310.568 38.482 C 310.852 38.309,311.008 38.168,310.917 38.168 C 310.825 38.169,310.533 38.312,310.268 38.487 M148.333 38.549 L 148.750 38.760 148.796 41.820 C 148.843 44.990,148.649 46.049,148.118 45.518 C 148.016 45.416,147.857 45.333,147.763 45.333 C 147.669 45.333,147.766 45.455,147.978 45.604 C 148.781 46.166,148.910 45.715,148.969 42.144 C 149.024 38.780,148.930 38.329,148.183 38.336 C 148.017 38.337,148.073 38.417,148.333 38.549 M179.958 38.537 C 180.407 38.753,180.556 44.683,180.125 45.167 C 179.948 45.366,179.960 45.368,180.208 45.180 C 180.677 44.825,180.649 38.758,180.178 38.506 C 180.000 38.411,179.794 38.338,179.719 38.345 C 179.645 38.351,179.752 38.437,179.958 38.537 M163.674 38.741 C 163.564 38.874,163.198 39.071,162.862 39.179 C 161.463 39.628,156.665 43.755,156.667 44.507 C 156.668 44.641,156.808 44.525,156.980 44.250 C 157.858 42.843,161.364 39.879,162.719 39.399 C 163.365 39.170,164.352 38.500,164.043 38.500 C 163.950 38.500,163.784 38.609,163.674 38.741 M348.735 41.333 C 348.735 42.846,348.760 43.465,348.791 42.708 C 348.822 41.952,348.822 40.715,348.791 39.958 C 348.760 39.202,348.735 39.821,348.735 41.333 M374.763 38.854 C 374.801 38.915,375.125 38.993,375.485 39.027 C 375.844 39.061,376.108 39.040,376.070 38.979 C 376.033 38.918,375.708 38.840,375.348 38.806 C 374.989 38.772,374.725 38.794,374.763 38.854 M195.075 44.833 C 195.075 48.179,195.098 49.548,195.125 47.875 C 195.152 46.202,195.152 43.465,195.125 41.792 C 195.098 40.119,195.075 41.487,195.075 44.833 M317.833 40.532 C 317.054 41.357,316.355 42.140,316.280 42.273 C 316.204 42.405,316.804 41.828,317.613 40.990 C 318.867 39.692,319.499 38.952,319.300 39.016 C 319.272 39.025,318.612 39.707,317.833 40.532 M263.002 40.268 C 263.938 41.492,264.315 41.925,264.073 41.500 C 263.817 41.049,262.487 39.345,262.303 39.231 C 262.204 39.170,262.519 39.637,263.002 40.268 M378.122 40.238 C 378.602 40.671,379.296 41.368,379.664 41.786 C 380.032 42.205,380.333 42.491,380.333 42.422 C 380.333 42.235,377.967 39.829,377.583 39.626 C 377.400 39.529,377.643 39.804,378.122 40.238 M306.875 42.671 C 306.119 43.478,305.500 44.238,305.501 44.361 C 305.501 44.483,305.642 44.358,305.814 44.083 C 305.986 43.808,306.623 43.111,307.230 42.533 C 307.837 41.956,308.333 41.412,308.333 41.325 C 308.333 41.106,308.402 41.043,306.875 42.671 M264.512 42.201 C 264.747 42.411,265.310 43.138,265.762 43.815 C 267.219 46.000,267.337 46.167,267.422 46.167 C 267.467 46.167,267.335 45.916,267.127 45.609 C 266.920 45.302,266.326 44.421,265.808 43.650 C 265.289 42.880,264.689 42.153,264.474 42.034 C 264.108 41.832,264.110 41.842,264.512 42.201 M128.538 42.729 C 128.334 43.027,128.167 43.340,128.167 43.424 C 128.167 43.508,128.361 43.292,128.598 42.942 C 128.835 42.593,129.003 42.280,128.969 42.247 C 128.936 42.214,128.742 42.431,128.538 42.729 M315.726 43.218 C 315.308 43.855,315.075 44.283,315.214 44.162 C 315.411 43.990,316.182 42.793,316.130 42.741 C 316.100 42.711,315.919 42.926,315.726 43.218 M380.666 43.222 C 380.994 43.656,381.177 44.894,381.323 47.667 L 381.451 50.083 381.408 47.667 C 381.359 44.828,381.176 43.594,380.746 43.202 C 380.450 42.931,380.446 42.932,380.666 43.222 M139.375 44.124 C 139.994 44.156,141.006 44.156,141.625 44.124 C 142.244 44.092,141.737 44.065,140.500 44.065 C 139.262 44.065,138.756 44.092,139.375 44.124 M170.875 44.124 C 171.494 44.156,172.506 44.156,173.125 44.124 C 173.744 44.092,173.237 44.065,172.000 44.065 C 170.762 44.065,170.256 44.092,170.875 44.124 M127.704 44.542 C 127.602 44.748,127.488 45.442,127.452 46.083 C 127.415 46.725,127.334 47.400,127.273 47.583 C 127.212 47.767,127.272 47.692,127.407 47.417 C 127.543 47.139,127.655 46.432,127.659 45.825 C 127.663 45.217,127.754 44.646,127.864 44.536 C 127.972 44.428,128.022 44.300,127.975 44.253 C 127.928 44.206,127.806 44.336,127.704 44.542 M143.208 44.286 C 143.460 44.324,143.873 44.324,144.125 44.286 C 144.377 44.248,144.171 44.217,143.667 44.217 C 143.162 44.217,142.956 44.248,143.208 44.286 M174.708 44.286 C 174.960 44.324,175.373 44.324,175.625 44.286 C 175.877 44.248,175.671 44.217,175.167 44.217 C 174.662 44.217,174.456 44.248,174.708 44.286 M348.442 44.409 C 348.356 44.636,347.497 44.667,341.326 44.667 L 334.308 44.667 333.821 45.154 L 333.333 45.641 333.333 48.224 L 333.333 50.808 333.846 51.321 L 334.359 51.833 339.843 51.833 L 345.327 51.833 345.419 52.208 C 345.470 52.415,345.491 53.780,345.464 55.243 L 345.417 57.902 345.000 58.018 C 344.651 58.115,344.639 58.136,344.925 58.150 C 345.597 58.183,345.667 57.896,345.664 55.092 C 345.663 53.620,345.617 52.248,345.562 52.042 L 345.461 51.667 339.968 51.667 L 334.474 51.667 333.987 51.179 L 333.500 50.692 333.500 48.211 L 333.500 45.729 333.967 45.281 L 334.435 44.833 341.364 44.833 C 348.299 44.833,349.152 44.763,348.628 44.239 C 348.580 44.191,348.497 44.268,348.442 44.409 M136.700 44.848 C 136.315 45.131,136.000 45.402,136.000 45.451 C 136.000 45.501,136.094 45.465,136.208 45.373 C 136.323 45.280,136.708 45.009,137.065 44.769 C 137.421 44.529,137.642 44.333,137.556 44.333 C 137.470 44.333,137.084 44.565,136.700 44.848 M144.921 44.562 C 145.102 44.687,145.512 44.826,145.833 44.870 C 146.154 44.913,146.567 45.008,146.750 45.080 L 147.083 45.212 146.750 44.944 C 146.567 44.797,146.140 44.675,145.802 44.672 C 145.463 44.669,145.140 44.592,145.083 44.500 C 145.027 44.408,144.893 44.333,144.786 44.333 C 144.680 44.333,144.740 44.436,144.921 44.562 M168.035 44.688 C 167.641 44.882,167.358 45.080,167.406 45.128 C 167.453 45.175,167.595 45.128,167.722 45.023 C 167.848 44.918,168.244 44.726,168.601 44.595 C 168.958 44.464,169.137 44.352,169.000 44.345 C 168.862 44.339,168.428 44.493,168.035 44.688 M176.500 44.566 C 176.729 44.706,177.156 44.824,177.448 44.827 C 177.741 44.831,178.027 44.908,178.083 45.000 C 178.140 45.092,178.274 45.167,178.380 45.167 C 178.787 45.167,177.889 44.706,177.333 44.630 C 177.012 44.587,176.600 44.497,176.417 44.431 C 176.203 44.353,176.233 44.402,176.500 44.566 M313.655 45.798 C 312.882 46.603,312.025 47.668,311.750 48.163 C 311.475 48.659,310.575 49.789,309.750 50.674 C 308.385 52.139,307.396 53.452,307.546 53.601 C 307.578 53.633,307.787 53.348,308.010 52.967 C 308.234 52.586,309.092 51.552,309.917 50.669 C 310.742 49.787,311.642 48.659,311.917 48.163 C 312.192 47.668,313.049 46.603,313.822 45.798 C 314.595 44.992,315.189 44.333,315.144 44.333 C 315.098 44.333,314.428 44.992,313.655 45.798 M364.333 44.542 L 363.917 44.760 363.876 48.171 C 363.833 51.735,364.036 52.782,364.796 52.933 C 364.913 52.956,364.930 52.936,364.834 52.889 C 364.275 52.614,364.167 51.866,364.167 48.266 L 364.167 44.682 364.737 44.575 C 365.269 44.475,366.978 44.539,369.770 44.764 C 371.775 44.925,372.674 46.191,372.707 48.897 C 372.711 49.286,372.742 49.324,372.869 49.096 C 372.970 48.916,372.962 48.630,372.847 48.300 C 372.748 48.016,372.667 47.490,372.667 47.132 C 372.667 45.921,371.300 44.720,369.780 44.595 C 366.721 44.344,364.748 44.325,364.333 44.542 M304.917 45.367 C 304.642 45.730,304.004 46.490,303.500 47.055 C 302.996 47.621,302.321 48.527,302.000 49.070 C 301.679 49.612,301.097 50.400,300.706 50.820 L 299.995 51.583 299.664 51.190 C 299.444 50.928,299.333 50.877,299.333 51.039 C 299.333 52.363,300.837 51.318,302.167 49.070 C 302.487 48.527,303.162 47.617,303.667 47.048 C 304.924 45.627,305.555 44.832,305.480 44.764 C 305.445 44.732,305.192 45.003,304.917 45.367 M267.783 46.375 C 267.869 46.490,268.228 47.033,268.580 47.583 C 268.932 48.133,269.602 49.001,270.069 49.512 C 270.535 50.023,271.178 50.886,271.497 51.429 C 271.817 51.972,272.464 52.829,272.935 53.333 C 273.406 53.837,273.907 54.475,274.050 54.750 C 274.622 55.854,275.279 56.448,275.571 56.126 C 275.716 55.966,275.744 55.909,275.634 56.001 C 275.288 56.287,275.180 56.198,274.383 54.965 C 273.956 54.305,273.226 53.345,272.761 52.833 C 272.297 52.320,271.729 51.573,271.500 51.173 C 271.271 50.773,270.701 50.026,270.233 49.514 C 269.766 49.002,269.032 48.040,268.603 47.375 C 268.173 46.710,267.778 46.167,267.724 46.167 C 267.670 46.167,267.696 46.260,267.783 46.375 M165.205 47.317 C 165.009 47.582,164.807 48.014,164.756 48.275 L 164.665 48.750 164.854 48.250 C 164.958 47.975,165.135 47.637,165.246 47.500 C 165.509 47.177,165.703 46.833,165.625 46.833 C 165.591 46.833,165.402 47.051,165.205 47.317 M155.272 48.208 C 155.216 48.415,155.170 48.795,155.169 49.053 C 155.168 49.311,155.083 49.686,154.981 49.886 C 154.815 50.209,154.822 50.222,155.044 50.000 C 155.181 49.862,155.334 49.319,155.384 48.792 C 155.480 47.786,155.440 47.579,155.272 48.208 M127.343 48.136 C 127.338 48.257,127.420 48.517,127.526 48.715 C 127.632 48.913,127.772 49.489,127.837 49.996 C 127.956 50.917,127.956 50.917,127.969 50.167 C 127.980 49.521,127.368 47.537,127.343 48.136 M136.005 48.129 C 135.994 48.608,137.330 49.798,137.964 49.873 C 138.305 49.913,138.733 50.001,138.917 50.068 C 139.128 50.145,139.097 50.096,138.833 49.934 C 138.604 49.794,138.188 49.676,137.908 49.673 C 137.399 49.667,136.616 49.017,136.194 48.250 C 136.093 48.067,136.008 48.012,136.005 48.129 M140.183 50.664 C 140.587 50.937,140.984 51.162,141.067 51.164 C 141.149 51.165,140.887 50.943,140.483 50.670 C 140.080 50.396,139.682 50.171,139.600 50.170 C 139.517 50.168,139.780 50.390,140.183 50.664 M372.346 50.534 C 372.323 51.043,371.989 51.588,371.499 51.917 C 371.234 52.095,371.047 52.270,371.083 52.305 C 371.403 52.625,372.642 50.955,372.447 50.467 C 372.389 50.324,372.355 50.347,372.346 50.534 M381.186 50.593 C 381.175 50.782,381.057 51.082,380.922 51.260 C 380.787 51.438,380.675 51.810,380.672 52.087 C 380.667 52.585,378.007 55.478,377.333 55.718 C 377.113 55.796,377.114 55.809,377.337 55.820 C 377.801 55.844,380.833 52.755,380.833 52.258 C 380.833 52.015,380.950 51.590,381.093 51.314 C 381.236 51.037,381.320 50.685,381.279 50.530 C 381.222 50.314,381.201 50.329,381.186 50.593 M164.027 51.405 C 163.693 52.329,163.716 58.082,164.058 58.917 L 164.330 59.583 164.235 58.667 C 164.183 58.163,164.064 57.549,163.972 57.303 C 163.878 57.056,163.848 56.385,163.904 55.803 C 164.024 54.547,164.279 50.932,164.250 50.879 C 164.240 50.859,164.139 51.095,164.027 51.405 M232.333 51.035 C 232.333 51.796,232.618 51.833,238.460 51.833 C 243.898 51.833,243.979 51.838,244.087 52.179 C 244.148 52.369,244.234 52.488,244.279 52.444 C 244.324 52.399,244.277 52.205,244.174 52.014 C 243.992 51.673,243.893 51.667,238.506 51.667 L 233.024 51.667 232.679 51.228 C 232.461 50.950,232.333 50.879,232.333 51.035 M128.102 51.309 C 128.207 51.730,129.000 52.981,129.000 52.727 C 129.000 52.643,128.869 52.390,128.708 52.166 C 128.548 51.941,128.324 51.568,128.210 51.337 C 128.013 50.937,128.008 50.935,128.102 51.309 M195.312 51.208 C 195.523 51.477,195.970 51.497,200.979 51.461 L 206.417 51.421 201.014 51.375 C 197.039 51.341,195.542 51.274,195.348 51.123 C 195.114 50.941,195.110 50.951,195.312 51.208 M142.183 51.664 C 142.587 51.937,142.984 52.162,143.067 52.164 C 143.149 52.165,142.887 51.943,142.483 51.670 C 142.080 51.396,141.682 51.171,141.600 51.170 C 141.517 51.168,141.780 51.390,142.183 51.664 M154.571 55.583 C 154.571 57.600,154.595 58.402,154.625 57.366 C 154.654 56.329,154.654 54.679,154.624 53.699 C 154.595 52.719,154.571 53.567,154.571 55.583 M144.183 52.664 C 144.587 52.937,145.029 53.157,145.167 53.153 C 145.304 53.149,145.241 53.075,145.026 52.989 C 144.810 52.903,144.444 52.682,144.211 52.499 C 143.979 52.316,143.712 52.167,143.619 52.167 C 143.526 52.167,143.780 52.390,144.183 52.664 M261.359 52.374 C 261.218 52.515,261.167 55.195,261.167 62.395 C 261.167 71.513,261.146 72.249,260.875 72.570 C 260.584 72.916,260.584 72.916,260.958 72.599 L 261.333 72.282 261.333 62.401 C 261.333 56.711,261.397 52.480,261.484 52.427 C 261.647 52.326,262.833 53.435,262.833 53.688 C 262.833 53.772,263.265 54.309,263.792 54.879 C 264.319 55.450,265.012 56.360,265.333 56.901 C 265.654 57.442,266.367 58.387,266.917 59.000 C 267.467 59.613,268.170 60.539,268.480 61.057 C 268.789 61.576,269.072 62.000,269.109 62.000 C 269.177 62.000,268.939 61.564,268.277 60.469 C 268.072 60.132,267.495 59.414,266.994 58.874 C 266.493 58.335,265.858 57.493,265.583 57.003 C 265.308 56.514,264.615 55.603,264.042 54.980 C 263.469 54.357,263.000 53.774,263.000 53.686 C 263.000 53.135,261.665 52.068,261.359 52.374 M369.583 52.504 C 368.215 52.715,367.724 52.989,368.917 52.875 C 369.467 52.823,370.142 52.682,370.417 52.563 C 370.970 52.323,370.819 52.313,369.583 52.504 M145.750 53.363 C 146.066 53.539,147.513 54.787,148.566 55.790 C 148.990 56.194,149.025 56.204,148.852 55.875 C 148.744 55.669,148.451 55.373,148.202 55.217 C 147.954 55.062,147.324 54.537,146.804 54.051 C 146.284 53.564,145.759 53.169,145.637 53.172 C 145.516 53.175,145.567 53.261,145.750 53.363 M130.040 54.347 C 130.567 54.844,131.429 55.619,131.957 56.069 L 132.917 56.889 131.960 55.986 C 131.433 55.490,130.571 54.715,130.043 54.264 L 129.083 53.445 130.040 54.347 M307.177 54.505 C 307.171 54.645,307.292 54.945,307.445 55.171 C 307.848 55.769,309.500 57.502,309.500 57.327 C 309.500 57.246,309.052 56.700,308.504 56.114 C 307.956 55.528,307.435 54.869,307.348 54.649 C 307.259 54.428,307.183 54.364,307.177 54.505 M79.667 55.895 C 81.014 56.271,82.278 57.116,83.017 58.136 L 83.583 58.917 83.583 61.035 L 83.583 63.152 82.833 63.918 C 81.078 65.709,79.680 66.167,75.958 66.167 C 72.745 66.167,73.000 66.606,73.000 61.072 C 73.000 56.392,73.032 56.177,73.796 55.755 C 74.448 55.394,78.190 55.484,79.667 55.895 M375.568 57.000 C 375.614 57.229,376.030 57.826,376.492 58.325 C 376.954 58.825,377.369 59.350,377.414 59.492 C 377.459 59.634,377.647 59.845,377.831 59.960 C 378.209 60.196,376.919 58.441,376.329 57.917 C 376.123 57.733,375.848 57.358,375.719 57.083 C 375.515 56.650,375.495 56.639,375.568 57.000 M244.002 57.914 C 243.829 58.123,242.918 58.170,238.273 58.208 L 232.750 58.255 238.266 58.294 C 243.596 58.332,243.792 58.322,244.083 58.000 C 244.249 57.817,244.345 57.667,244.296 57.667 C 244.247 57.667,244.115 57.778,244.002 57.914 M310.000 58.417 C 310.284 58.829,310.554 59.167,310.599 59.167 C 310.645 59.167,310.450 58.829,310.167 58.417 C 309.883 58.004,309.613 57.667,309.567 57.667 C 309.521 57.667,309.716 58.004,310.000 58.417 M150.202 58.084 C 150.267 58.185,150.393 58.451,150.483 58.676 C 150.586 58.933,150.649 58.983,150.656 58.810 C 150.662 58.660,150.535 58.394,150.375 58.219 C 150.215 58.044,150.137 57.984,150.202 58.084 M136.117 58.338 C 136.418 58.658,137.894 58.857,137.633 58.543 C 137.517 58.403,137.264 58.340,137.012 58.388 C 136.778 58.432,136.436 58.392,136.252 58.297 C 135.983 58.160,135.956 58.168,136.117 58.338 M195.244 58.342 C 195.183 58.441,195.178 58.567,195.233 58.622 C 195.288 58.677,195.333 58.635,195.333 58.528 C 195.333 58.383,196.794 58.333,201.002 58.333 L 206.672 58.333 207.002 58.875 C 207.316 59.390,207.332 59.731,207.333 65.866 L 207.333 72.314 207.704 72.574 C 207.935 72.736,208.388 72.824,208.912 72.809 L 209.750 72.784 208.833 72.682 C 207.392 72.521,207.500 73.076,207.500 65.848 C 207.500 59.386,207.500 59.382,207.118 58.816 L 206.737 58.250 201.046 58.206 C 197.108 58.176,195.321 58.218,195.244 58.342 M333.708 58.339 C 332.916 58.657,333.281 65.667,334.090 65.667 C 334.136 65.667,334.016 65.358,333.823 64.980 C 333.456 64.261,333.372 58.905,333.722 58.555 C 333.798 58.479,336.273 58.377,339.222 58.329 L 344.583 58.241 339.333 58.214 C 336.446 58.200,333.915 58.256,333.708 58.339 M232.397 58.574 C 232.347 58.706,232.335 58.949,232.370 59.115 C 232.411 59.303,232.468 59.213,232.522 58.875 C 232.613 58.307,232.554 58.165,232.397 58.574 M195.076 65.667 C 195.076 69.379,195.098 70.898,195.125 69.042 C 195.152 67.185,195.152 64.148,195.125 62.292 C 195.098 60.435,195.076 61.954,195.076 65.667 M299.495 59.342 C 299.395 59.530,299.344 59.849,299.384 60.050 C 299.445 60.368,299.458 60.359,299.477 59.979 C 299.511 59.326,299.940 59.029,300.264 59.434 C 300.505 59.734,300.509 59.731,300.337 59.375 C 300.110 58.907,299.736 58.893,299.495 59.342 M366.734 59.417 C 367.165 59.646,367.600 59.833,367.700 59.833 C 367.801 59.833,367.530 59.646,367.099 59.417 C 366.668 59.188,366.233 59.000,366.133 59.000 C 366.033 59.000,366.303 59.188,366.734 59.417 M139.494 59.673 C 139.811 59.945,140.140 60.167,140.225 60.167 C 140.310 60.167,140.096 59.942,139.750 59.667 C 138.939 59.022,138.738 59.028,139.494 59.673 M364.033 59.367 C 363.885 59.515,363.833 61.226,363.833 66.033 C 363.833 70.849,363.784 72.500,363.639 72.500 C 363.532 72.500,363.493 72.548,363.552 72.607 C 364.093 73.149,364.167 72.338,364.167 65.827 C 364.167 60.810,364.213 59.342,364.375 59.277 C 364.490 59.231,364.505 59.187,364.408 59.180 C 364.312 59.173,364.143 59.257,364.033 59.367 M311.316 59.917 C 311.415 60.100,311.691 60.475,311.929 60.750 C 312.168 61.025,312.282 61.100,312.184 60.917 C 312.085 60.733,311.809 60.358,311.571 60.083 C 311.332 59.808,311.218 59.733,311.316 59.917 M300.917 60.287 C 301.192 60.566,301.642 61.104,301.917 61.484 C 302.734 62.613,303.500 63.541,303.500 63.402 C 303.500 63.330,303.355 63.117,303.178 62.927 C 302.838 62.565,302.290 61.830,301.591 60.799 C 301.360 60.459,301.002 60.091,300.794 59.981 C 300.488 59.820,300.512 59.878,300.917 60.287 M140.573 60.316 C 140.635 60.416,140.840 60.581,141.029 60.682 C 141.276 60.814,141.342 60.815,141.261 60.684 C 141.199 60.584,140.993 60.419,140.804 60.318 C 140.557 60.186,140.492 60.185,140.573 60.316 M150.942 61.333 C 151.069 62.983,151.069 63.530,150.943 64.167 C 150.871 64.527,150.929 64.436,151.095 63.927 C 151.254 63.435,151.318 62.898,151.254 62.593 C 151.194 62.313,151.081 61.671,151.003 61.167 L 150.859 60.250 150.942 61.333 M154.866 61.167 C 154.854 61.798,155.463 63.800,155.491 63.219 C 155.496 63.111,155.413 62.811,155.306 62.553 C 155.199 62.294,155.060 61.708,154.996 61.250 L 154.880 60.417 154.866 61.167 M378.833 61.625 C 379.051 61.923,379.255 62.167,379.287 62.167 C 379.414 62.167,379.001 61.542,378.727 61.320 C 378.547 61.173,378.587 61.290,378.833 61.625 M142.097 61.667 C 142.163 61.804,142.321 62.037,142.447 62.185 C 142.620 62.388,142.634 62.564,142.505 62.904 C 142.410 63.152,142.333 63.603,142.333 63.906 C 142.333 64.346,142.182 64.597,141.587 65.145 C 141.177 65.524,140.898 65.833,140.969 65.833 C 141.401 65.833,142.466 64.369,142.545 63.667 C 142.592 63.254,142.676 62.804,142.732 62.667 C 142.791 62.522,142.652 62.205,142.405 61.917 C 142.169 61.642,142.030 61.529,142.097 61.667 M269.823 62.684 C 270.099 63.106,270.456 63.556,270.617 63.684 C 270.907 63.914,270.466 63.281,269.703 62.371 C 269.479 62.104,269.529 62.233,269.823 62.684 M369.500 62.234 C 369.500 62.422,370.300 63.700,370.917 64.497 C 371.192 64.852,371.599 65.447,371.823 65.818 C 372.046 66.189,372.256 66.466,372.290 66.433 C 372.356 66.366,371.752 65.402,371.079 64.500 C 370.839 64.179,370.386 63.507,370.072 63.006 C 369.757 62.505,369.500 62.157,369.500 62.234 M165.507 63.715 C 165.490 64.484,168.022 66.367,168.470 65.919 C 168.505 65.884,168.225 65.772,167.848 65.671 C 167.038 65.453,166.040 64.627,165.732 63.920 C 165.592 63.598,165.511 63.525,165.507 63.715 M303.937 64.200 C 304.201 64.538,304.625 65.101,304.880 65.450 C 305.135 65.798,305.494 66.271,305.678 66.500 L 306.012 66.917 305.714 66.406 C 305.342 65.767,304.749 64.993,304.021 64.198 L 303.458 63.583 303.937 64.200 M380.318 63.972 C 380.408 64.140,380.613 64.384,380.773 64.514 C 380.953 64.660,380.913 64.544,380.667 64.208 C 380.229 63.610,380.065 63.499,380.318 63.972 M127.183 64.230 C 127.051 64.389,127.008 65.399,127.042 67.522 L 127.091 70.583 127.129 67.492 C 127.155 65.354,127.228 64.338,127.367 64.200 C 127.477 64.090,127.523 64.000,127.470 64.000 C 127.417 64.000,127.288 64.104,127.183 64.230 M128.331 64.415 C 128.955 64.875,129.473 65.082,129.624 64.932 C 129.678 64.878,129.615 64.833,129.483 64.833 C 129.352 64.833,128.968 64.646,128.631 64.417 C 127.836 63.876,127.599 63.875,128.331 64.415 M270.929 64.208 C 271.342 64.954,272.127 65.982,272.489 66.253 C 272.746 66.445,272.627 66.242,272.192 65.744 C 271.793 65.289,271.360 64.710,271.229 64.458 C 271.098 64.206,270.951 64.000,270.903 64.000 C 270.854 64.000,270.866 64.094,270.929 64.208 M315.247 65.000 C 315.789 65.596,316.266 66.121,316.306 66.167 C 316.346 66.212,316.299 66.100,316.202 65.917 C 316.105 65.733,315.628 65.208,315.143 64.750 L 314.260 63.917 315.247 65.000 M155.984 64.804 C 156.086 64.993,156.251 65.199,156.351 65.261 C 156.482 65.342,156.481 65.276,156.349 65.029 C 156.248 64.840,156.083 64.635,155.982 64.573 C 155.852 64.492,155.852 64.557,155.984 64.804 M232.358 65.036 C 232.315 65.821,232.472 65.836,240.447 65.795 L 247.917 65.757 240.250 65.666 C 236.033 65.616,232.570 65.558,232.553 65.537 C 232.536 65.517,232.491 65.294,232.453 65.042 L 232.383 64.583 232.358 65.036 M130.093 65.245 C 130.271 65.379,130.642 65.494,130.917 65.501 C 131.192 65.507,131.604 65.619,131.833 65.750 C 132.063 65.881,132.362 65.989,132.500 65.990 C 132.637 65.992,132.423 65.844,132.023 65.663 C 131.624 65.482,131.085 65.333,130.825 65.333 C 130.565 65.333,130.307 65.258,130.250 65.167 C 130.193 65.075,130.062 65.000,129.958 65.000 C 129.855 65.000,129.915 65.110,130.093 65.245 M179.567 65.176 C 180.017 65.251,180.447 65.411,180.523 65.532 C 180.757 65.901,180.699 71.234,180.458 71.477 C 180.291 71.645,180.308 71.664,180.542 71.575 C 180.805 71.475,180.833 71.166,180.833 68.415 L 180.833 65.366 180.308 65.183 C 180.020 65.082,179.551 65.009,179.267 65.020 C 178.880 65.034,178.956 65.074,179.567 65.176 M178.083 65.511 C 177.808 65.687,177.669 65.832,177.773 65.832 C 177.878 65.833,178.140 65.686,178.357 65.506 C 178.852 65.093,178.733 65.095,178.083 65.511 M341.739 65.792 C 350.461 65.844,349.815 65.703,349.866 67.567 L 349.899 68.750 349.957 67.603 C 350.009 66.600,349.970 66.406,349.646 66.061 L 349.275 65.667 341.763 65.707 L 334.250 65.746 341.739 65.792 M381.622 66.008 C 381.826 66.241,382.078 66.675,382.183 66.974 C 382.287 67.273,382.405 67.484,382.446 67.443 C 382.590 67.298,382.039 66.244,381.648 65.918 L 381.250 65.586 381.622 66.008 M248.317 66.125 C 248.674 66.420,248.706 66.547,248.613 67.270 C 248.535 67.871,248.553 68.006,248.680 67.789 C 248.986 67.268,248.797 66.316,248.333 66.040 L 247.917 65.792 248.317 66.125 M133.917 66.186 C 135.960 66.514,138.215 66.546,139.093 66.261 C 139.546 66.114,139.654 66.050,139.333 66.118 C 138.679 66.258,135.651 66.257,134.000 66.118 L 132.917 66.026 133.917 66.186 M150.519 66.256 C 150.509 66.443,150.351 66.888,150.169 67.245 C 149.987 67.602,149.866 67.922,149.900 67.956 C 150.033 68.088,150.688 66.491,150.616 66.212 C 150.551 65.963,150.536 65.970,150.519 66.256 M169.250 66.256 C 169.985 66.545,173.477 66.507,175.417 66.190 L 176.417 66.026 175.333 66.119 C 173.659 66.263,169.641 66.265,169.083 66.122 C 168.782 66.046,168.848 66.099,169.250 66.256 M316.339 66.426 C 316.346 66.593,317.164 67.648,317.166 67.491 C 317.166 67.440,316.979 67.144,316.750 66.833 C 316.521 66.523,316.336 66.339,316.339 66.426 M156.984 66.804 C 157.086 66.993,157.251 67.199,157.351 67.261 C 157.482 67.342,157.481 67.276,157.349 67.029 C 157.248 66.840,157.083 66.635,156.982 66.573 C 156.852 66.492,156.852 66.557,156.984 66.804 M272.964 66.919 C 273.059 67.103,273.311 67.402,273.526 67.584 C 273.903 67.903,273.902 67.897,273.502 67.415 C 272.839 66.616,272.783 66.565,272.964 66.919 M372.500 67.248 C 372.500 67.413,373.297 68.687,373.875 69.445 C 374.612 70.411,374.405 69.986,373.417 68.500 C 372.912 67.742,372.500 67.179,372.500 67.248 M306.501 67.343 C 306.500 67.394,306.688 67.689,306.917 68.000 C 307.146 68.311,307.331 68.494,307.327 68.407 C 307.321 68.240,306.502 67.185,306.501 67.343 M317.583 68.121 C 317.858 68.399,318.308 68.941,318.583 69.326 C 318.858 69.711,319.308 70.268,319.583 70.563 C 319.858 70.859,319.957 70.947,319.803 70.759 C 319.457 70.338,318.814 69.454,318.257 68.632 C 318.027 68.292,317.668 67.924,317.461 67.815 C 317.155 67.653,317.178 67.711,317.583 68.121 M157.667 67.885 C 157.667 67.914,157.910 68.158,158.208 68.427 L 158.750 68.917 158.260 68.375 C 157.804 67.870,157.667 67.757,157.667 67.885 M273.964 68.252 C 274.059 68.436,274.311 68.736,274.526 68.917 C 274.903 69.236,274.902 69.230,274.502 68.749 C 273.839 67.949,273.783 67.898,273.964 68.252 M248.381 68.917 C 248.382 69.375,248.415 69.543,248.453 69.289 C 248.491 69.036,248.490 68.661,248.451 68.456 C 248.411 68.251,248.380 68.458,248.381 68.917 M307.427 68.854 C 307.513 69.003,308.028 69.603,308.573 70.187 C 309.117 70.772,309.492 71.128,309.406 70.979 C 309.320 70.830,308.805 70.230,308.261 69.646 C 307.717 69.061,307.342 68.705,307.427 68.854 M383.318 68.972 C 383.408 69.140,383.613 69.384,383.773 69.514 C 383.953 69.660,383.913 69.544,383.667 69.208 C 383.229 68.610,383.065 68.499,383.318 68.972 M349.726 70.250 C 349.725 71.075,349.754 71.434,349.788 71.047 C 349.823 70.660,349.824 69.985,349.789 69.547 C 349.755 69.109,349.726 69.425,349.726 70.250 M148.449 69.755 C 148.192 69.982,148.048 70.167,148.128 70.167 C 148.209 70.167,148.451 69.979,148.667 69.750 C 149.165 69.220,149.055 69.222,148.449 69.755 M161.250 70.659 C 161.617 71.045,162.067 71.438,162.250 71.534 C 162.433 71.629,162.283 71.392,161.917 71.007 C 161.550 70.622,161.100 70.229,160.917 70.133 C 160.733 70.037,160.883 70.274,161.250 70.659 M248.200 71.175 C 248.182 71.867,248.092 72.524,248.001 72.634 C 247.909 72.744,247.950 72.734,248.092 72.612 C 248.292 72.439,248.336 72.113,248.291 71.153 L 248.233 69.917 248.200 71.175 M127.172 70.777 C 127.166 71.011,128.113 71.834,128.388 71.833 C 128.495 71.832,128.346 71.687,128.056 71.511 C 127.766 71.334,127.450 71.053,127.353 70.886 C 127.256 70.720,127.175 70.670,127.172 70.777 M275.983 70.917 C 276.082 71.100,276.357 71.475,276.596 71.750 C 276.834 72.025,276.949 72.100,276.850 71.917 C 276.752 71.733,276.476 71.358,276.237 71.083 C 275.999 70.808,275.884 70.733,275.983 70.917 M384.604 71.000 C 384.798 71.229,384.999 71.529,385.049 71.667 C 385.127 71.881,385.142 71.879,385.154 71.654 C 385.161 71.510,384.960 71.210,384.708 70.987 L 384.250 70.583 384.604 71.000 M320.167 71.461 C 320.167 71.546,320.319 71.753,320.506 71.922 C 320.702 72.099,320.803 72.339,320.746 72.489 C 320.669 72.691,320.692 72.705,320.847 72.552 C 321.002 72.398,320.948 72.236,320.607 71.831 C 320.365 71.543,320.167 71.377,320.167 71.461 M375.180 71.380 C 375.148 71.691,375.669 72.666,375.866 72.664 C 376.021 72.662,376.029 72.627,375.892 72.539 C 375.787 72.472,375.587 72.154,375.447 71.833 C 375.308 71.512,375.188 71.309,375.180 71.380 M129.583 72.065 C 129.950 72.181,130.438 72.376,130.667 72.498 C 131.047 72.702,131.064 72.697,130.857 72.447 C 130.732 72.296,130.357 72.097,130.024 72.004 C 129.156 71.763,128.786 71.815,129.583 72.065 M163.776 72.208 C 163.818 72.277,164.079 72.333,164.354 72.333 C 164.630 72.333,165.019 72.421,165.219 72.527 C 165.541 72.699,165.558 72.691,165.368 72.460 C 165.157 72.205,163.624 71.962,163.776 72.208 M178.083 72.345 C 177.808 72.521,177.669 72.665,177.773 72.666 C 177.878 72.666,178.140 72.519,178.357 72.339 C 178.852 71.926,178.733 71.929,178.083 72.345 M187.958 72.789 C 188.348 72.824,188.985 72.824,189.375 72.789 C 189.765 72.754,189.446 72.725,188.667 72.725 C 187.887 72.725,187.569 72.754,187.958 72.789 M215.127 72.785 C 215.334 72.824,215.634 72.823,215.794 72.781 C 215.953 72.739,215.783 72.707,215.417 72.709 C 215.050 72.711,214.920 72.745,215.127 72.785 M224.208 72.786 C 224.460 72.824,224.873 72.824,225.125 72.786 C 225.377 72.748,225.171 72.717,224.667 72.717 C 224.162 72.717,223.956 72.748,224.208 72.786 M254.958 72.789 C 255.348 72.824,255.985 72.824,256.375 72.789 C 256.765 72.754,256.446 72.725,255.667 72.725 C 254.887 72.725,254.569 72.754,254.958 72.789 M278.121 72.787 C 278.417 72.824,278.942 72.824,279.288 72.788 C 279.634 72.752,279.392 72.722,278.750 72.721 C 278.108 72.721,277.825 72.750,278.121 72.787 M291.208 72.786 C 291.460 72.824,291.873 72.824,292.125 72.786 C 292.377 72.748,292.171 72.717,291.667 72.717 C 291.162 72.717,290.956 72.748,291.208 72.786 M297.794 72.785 C 298.001 72.824,298.301 72.823,298.460 72.781 C 298.620 72.739,298.450 72.707,298.083 72.709 C 297.717 72.711,297.586 72.745,297.794 72.785 M311.044 72.786 C 311.297 72.825,311.672 72.824,311.877 72.784 C 312.082 72.744,311.875 72.713,311.417 72.714 C 310.958 72.716,310.791 72.748,311.044 72.786 M325.958 72.789 C 326.348 72.824,326.985 72.824,327.375 72.789 C 327.765 72.754,327.446 72.725,326.667 72.725 C 325.887 72.725,325.569 72.754,325.958 72.789 M347.458 72.787 C 347.756 72.824,348.244 72.824,348.542 72.787 C 348.840 72.750,348.596 72.720,348.000 72.720 C 347.404 72.720,347.160 72.750,347.458 72.787 M355.958 72.787 C 356.256 72.824,356.744 72.824,357.042 72.787 C 357.340 72.750,357.096 72.720,356.500 72.720 C 355.904 72.720,355.660 72.750,355.958 72.787 M377.625 72.787 C 377.923 72.824,378.410 72.824,378.708 72.787 C 379.006 72.750,378.762 72.720,378.167 72.720 C 377.571 72.720,377.327 72.750,377.625 72.787 M382.795 72.787 C 383.094 72.825,383.544 72.824,383.795 72.786 C 384.045 72.748,383.800 72.717,383.250 72.718 C 382.700 72.719,382.495 72.750,382.795 72.787 M132.917 73.011 C 137.123 73.649,140.542 73.680,141.136 73.086 C 141.264 72.959,139.976 73.129,139.055 73.361 C 138.673 73.457,137.998 73.488,137.555 73.429 C 136.066 73.232,134.091 73.020,133.000 72.939 L 131.917 72.859 132.917 73.011 M141.711 72.953 C 141.964 72.991,142.339 72.990,142.544 72.951 C 142.749 72.911,142.542 72.880,142.083 72.881 C 141.625 72.882,141.457 72.915,141.711 72.953 M167.167 73.078 C 167.597 73.222,168.527 73.329,169.350 73.331 C 170.139 73.332,171.032 73.420,171.335 73.526 C 171.853 73.706,173.834 73.279,173.594 73.038 C 173.553 72.998,173.176 73.096,172.754 73.257 C 172.122 73.499,171.880 73.517,171.369 73.361 C 171.029 73.257,170.000 73.141,169.083 73.103 C 168.167 73.065,167.192 72.988,166.917 72.931 C 166.642 72.874,166.754 72.941,167.167 73.078 M174.463 72.956 C 174.855 72.991,175.455 72.990,175.796 72.954 C 176.137 72.919,175.817 72.890,175.083 72.890 C 174.350 72.891,174.071 72.920,174.463 72.956 " stroke="none" fill="#ec0717" fill-rule="evenodd"></path><path id="path1" d="M140.000 37.177 C 139.771 37.245,139.104 37.308,138.519 37.317 C 136.788 37.344,134.451 37.701,134.000 38.007 C 133.771 38.162,133.396 38.345,133.167 38.413 C 131.863 38.798,129.471 40.827,129.142 41.826 C 129.035 42.151,128.777 42.679,128.567 43.000 C 128.358 43.321,128.137 43.790,128.075 44.043 C 128.013 44.296,127.896 44.544,127.815 44.595 C 127.733 44.645,127.667 45.158,127.667 45.735 C 127.667 46.312,127.588 47.008,127.492 47.283 C 127.353 47.685,127.385 47.953,127.659 48.648 C 127.847 49.123,128.000 49.800,128.000 50.152 C 128.000 50.815,128.372 51.901,128.660 52.079 C 128.750 52.135,128.913 52.477,129.022 52.840 C 129.154 53.280,129.502 53.752,130.068 54.256 C 130.535 54.671,131.421 55.459,132.037 56.006 C 132.654 56.553,133.300 57.000,133.473 57.000 C 133.645 57.000,134.068 57.191,134.411 57.424 C 135.244 57.989,136.299 58.378,136.939 58.355 C 137.227 58.345,137.554 58.448,137.667 58.584 C 137.780 58.720,138.153 58.907,138.497 58.999 C 138.841 59.092,139.391 59.374,139.719 59.625 C 140.048 59.877,140.627 60.271,141.007 60.500 C 142.047 61.128,142.885 62.343,142.669 62.911 C 142.576 63.155,142.500 63.597,142.500 63.893 C 142.500 65.411,139.772 66.598,136.623 66.451 C 134.500 66.351,132.401 66.043,131.829 65.748 C 131.565 65.611,131.140 65.498,130.883 65.495 C 130.627 65.492,130.271 65.379,130.093 65.245 C 129.915 65.110,129.647 65.000,129.497 65.000 C 129.347 65.000,128.872 64.767,128.442 64.482 C 127.211 63.667,127.167 63.771,127.167 67.498 C 127.167 71.398,127.282 71.614,129.530 71.913 C 129.959 71.970,130.512 72.176,130.759 72.371 C 131.088 72.629,131.596 72.764,132.646 72.874 C 133.437 72.956,134.721 73.098,135.500 73.188 C 137.472 73.417,138.749 73.420,139.917 73.197 C 140.467 73.091,141.652 72.927,142.551 72.832 C 143.800 72.700,144.331 72.564,144.801 72.256 C 145.140 72.035,145.625 71.803,145.879 71.741 C 146.133 71.679,146.433 71.499,146.546 71.341 C 146.658 71.182,146.938 70.955,147.167 70.836 C 147.635 70.593,149.659 68.657,149.664 68.448 C 149.665 68.374,149.849 67.924,150.071 67.448 C 151.733 63.896,151.024 57.879,148.708 55.877 C 148.364 55.580,147.585 54.892,146.976 54.348 C 146.367 53.804,145.617 53.289,145.310 53.204 C 145.002 53.118,144.458 52.850,144.102 52.608 C 143.745 52.365,143.333 52.165,143.185 52.164 C 143.037 52.162,142.587 51.937,142.183 51.664 C 141.780 51.390,141.321 51.167,141.164 51.167 C 141.007 51.167,140.678 51.009,140.434 50.817 C 139.889 50.388,138.411 49.833,137.815 49.833 C 136.925 49.833,135.907 48.356,135.804 46.917 C 135.709 45.585,136.370 44.736,137.896 44.229 C 138.996 43.864,144.036 43.994,144.869 44.409 C 145.153 44.551,145.574 44.667,145.806 44.667 C 146.175 44.667,147.137 45.030,148.034 45.509 C 148.679 45.852,148.833 45.156,148.833 41.900 C 148.833 38.585,148.833 38.582,147.817 38.400 C 147.505 38.345,146.725 38.126,146.083 37.915 C 145.307 37.660,144.275 37.491,143.000 37.412 C 141.946 37.346,140.933 37.239,140.750 37.174 C 140.567 37.108,140.229 37.110,140.000 37.177 M171.756 37.133 C 171.702 37.187,170.703 37.291,169.537 37.362 C 166.796 37.531,165.975 37.651,165.658 37.930 C 165.516 38.055,165.070 38.274,164.667 38.417 C 164.263 38.559,163.813 38.784,163.667 38.917 C 163.520 39.049,163.104 39.263,162.742 39.391 C 161.009 40.005,157.429 43.238,156.714 44.833 C 156.489 45.337,156.203 45.863,156.079 46.001 C 155.835 46.274,155.334 48.450,155.333 49.237 C 155.333 49.505,155.202 49.869,155.042 50.046 C 153.987 51.210,154.869 63.255,156.114 64.690 C 156.245 64.840,156.482 65.290,156.642 65.690 C 157.243 67.192,157.609 67.671,159.417 69.323 C 159.600 69.491,160.050 69.752,160.417 69.905 C 160.783 70.057,161.421 70.504,161.833 70.898 C 162.613 71.642,163.747 72.167,164.576 72.167 C 164.840 72.167,165.185 72.282,165.341 72.423 C 165.715 72.762,166.986 72.997,169.333 73.162 C 170.387 73.236,171.444 73.348,171.680 73.412 C 171.951 73.485,172.352 73.423,172.763 73.245 C 173.176 73.067,174.167 72.915,175.454 72.833 C 177.171 72.724,177.603 72.639,178.204 72.292 C 178.596 72.066,179.205 71.836,179.557 71.782 C 180.663 71.611,180.667 71.600,180.664 68.521 C 180.663 66.997,180.597 65.648,180.518 65.524 C 180.250 65.101,178.933 65.083,178.377 65.494 C 178.035 65.747,177.475 65.909,176.566 66.018 C 175.842 66.105,174.930 66.249,174.539 66.338 C 170.990 67.147,166.005 65.758,165.555 63.833 C 165.501 63.604,165.287 63.229,165.079 63.000 C 164.871 62.771,164.659 62.283,164.609 61.917 C 164.323 59.851,164.163 58.972,164.026 58.710 C 163.582 57.867,163.705 52.580,164.212 50.667 C 164.346 50.163,164.533 49.336,164.628 48.829 C 165.039 46.630,166.759 44.959,169.361 44.229 C 170.638 43.870,175.429 43.993,176.427 44.410 C 176.765 44.551,177.222 44.667,177.443 44.667 C 177.664 44.667,178.011 44.771,178.214 44.898 C 179.999 46.016,180.333 45.533,180.333 41.835 L 180.333 38.711 179.478 38.356 C 179.007 38.160,178.442 38.000,178.222 38.000 C 178.002 38.000,177.655 37.891,177.451 37.757 C 177.204 37.595,176.385 37.478,174.998 37.408 C 173.853 37.349,172.678 37.241,172.386 37.167 C 172.095 37.093,171.811 37.078,171.756 37.133 M186.426 38.370 C 186.003 38.975,186.034 72.428,186.458 72.621 C 186.842 72.795,194.522 72.790,194.792 72.615 C 194.952 72.511,195.004 70.943,195.017 65.782 C 195.026 62.098,195.085 58.896,195.149 58.667 L 195.265 58.250 201.001 58.250 L 206.737 58.250 207.118 58.816 C 207.500 59.382,207.500 59.386,207.500 65.852 L 207.500 72.322 207.875 72.533 C 208.438 72.851,215.842 72.839,216.227 72.519 C 216.630 72.185,216.571 38.419,216.167 38.163 C 216.028 38.076,214.220 38.004,212.117 38.003 L 208.318 38.000 207.909 38.409 L 207.500 38.818 207.497 44.784 C 207.496 48.065,207.435 50.845,207.361 50.961 C 206.920 51.656,195.737 51.811,195.259 51.130 C 195.036 50.811,195.000 49.924,195.000 44.807 C 195.000 41.343,194.932 38.676,194.837 38.428 L 194.675 38.000 190.680 38.000 C 186.741 38.000,186.682 38.005,186.426 38.370 M223.696 38.386 L 223.333 38.771 223.333 55.618 C 223.333 71.498,223.350 72.472,223.625 72.603 C 224.120 72.837,247.647 72.890,247.928 72.657 C 248.085 72.527,248.170 72.112,248.176 71.438 C 248.184 70.451,248.359 68.700,248.600 67.186 C 248.821 65.801,249.064 65.841,240.447 65.837 C 235.624 65.835,232.864 65.772,232.656 65.661 C 232.157 65.394,232.157 58.606,232.656 58.339 C 232.859 58.230,234.975 58.167,238.380 58.167 C 243.401 58.167,243.801 58.145,244.058 57.862 C 244.399 57.485,244.465 52.971,244.140 52.258 L 243.946 51.833 238.416 51.833 C 233.269 51.833,232.866 51.812,232.609 51.529 C 232.218 51.096,232.201 45.907,232.588 45.158 L 232.842 44.667 239.828 44.667 L 246.814 44.667 247.074 44.296 C 247.490 43.701,247.453 38.660,247.029 38.276 C 246.751 38.025,245.702 38.000,235.391 38.000 L 224.058 38.000 223.696 38.386 M254.196 38.386 L 253.833 38.771 253.833 55.532 C 253.833 68.737,253.878 72.329,254.042 72.465 C 254.467 72.818,260.461 72.921,260.836 72.581 C 261.159 72.289,261.167 72.047,261.167 62.411 C 261.167 51.483,261.140 51.745,262.154 52.598 C 262.443 52.841,262.798 53.275,262.944 53.562 C 263.089 53.849,263.630 54.538,264.146 55.094 C 264.662 55.649,265.308 56.505,265.583 56.995 C 265.858 57.485,266.533 58.389,267.083 59.003 C 267.633 59.616,268.271 60.442,268.500 60.836 C 268.729 61.231,269.179 61.829,269.500 62.164 C 269.821 62.500,270.346 63.164,270.667 63.639 C 270.987 64.114,271.494 64.821,271.793 65.210 C 273.498 67.429,274.781 69.119,275.000 69.436 C 275.506 70.168,276.925 72.046,277.184 72.328 C 277.704 72.892,282.874 72.970,283.330 72.420 C 283.640 72.047,283.479 38.361,283.167 38.163 C 282.626 37.821,276.364 37.964,276.173 38.322 C 276.060 38.532,276.000 41.602,276.000 47.137 C 276.000 55.401,275.991 55.640,275.665 56.023 L 275.330 56.417 274.820 55.833 C 274.539 55.512,274.192 55.025,274.050 54.750 C 273.907 54.475,273.406 53.837,272.935 53.333 C 272.464 52.829,271.817 51.972,271.497 51.429 C 271.178 50.886,270.534 50.023,270.067 49.512 C 269.599 49.001,268.865 48.040,268.436 47.375 C 268.006 46.710,267.584 46.167,267.497 46.167 C 267.337 46.167,267.253 46.052,265.763 43.815 C 265.312 43.138,264.813 42.471,264.653 42.333 C 264.318 42.046,262.276 39.348,261.994 38.823 C 261.496 37.891,255.003 37.527,254.196 38.386 M290.696 38.386 L 290.333 38.771 290.333 55.633 L 290.333 72.494 290.792 72.621 C 291.658 72.862,298.750 72.776,299.058 72.521 C 299.305 72.316,299.333 71.648,299.333 65.969 C 299.333 61.928,299.396 59.528,299.506 59.322 C 299.735 58.894,300.109 58.914,300.351 59.367 C 300.459 59.569,300.781 59.971,301.066 60.260 C 301.350 60.550,301.808 61.101,302.083 61.485 C 302.358 61.870,302.790 62.434,303.042 62.739 C 303.294 63.044,303.500 63.350,303.500 63.418 C 303.500 63.487,303.744 63.828,304.042 64.177 C 304.340 64.525,304.808 65.125,305.083 65.509 C 305.358 65.893,305.771 66.404,306.001 66.645 C 306.606 67.281,307.333 68.284,307.333 68.483 C 307.333 68.577,307.766 69.126,308.296 69.702 C 308.825 70.279,309.533 71.174,309.870 71.692 L 310.481 72.633 312.215 72.751 C 313.168 72.816,315.419 72.843,317.216 72.810 C 320.813 72.744,321.186 72.647,320.531 71.950 C 320.331 71.736,320.167 71.501,320.167 71.426 C 320.167 71.351,319.923 71.005,319.625 70.657 C 319.327 70.308,318.858 69.709,318.583 69.325 C 318.308 68.941,317.896 68.429,317.666 68.188 C 317.060 67.552,316.333 66.550,316.333 66.351 C 316.333 66.256,315.899 65.707,315.368 65.131 C 314.838 64.555,314.274 63.896,314.117 63.667 C 313.959 63.438,313.587 62.934,313.290 62.547 C 312.993 62.160,312.412 61.377,312.000 60.806 C 311.587 60.236,311.015 59.539,310.728 59.259 C 310.441 58.979,309.943 58.337,309.620 57.833 C 309.297 57.329,308.758 56.654,308.422 56.333 C 306.647 54.638,306.845 53.791,309.750 50.674 C 310.575 49.789,311.475 48.661,311.750 48.167 C 312.025 47.673,312.925 46.548,313.750 45.667 C 314.575 44.786,315.475 43.662,315.750 43.170 C 316.025 42.678,316.944 41.540,317.792 40.640 C 319.476 38.852,319.447 38.903,319.074 38.370 C 318.820 38.008,318.741 38.000,315.366 38.001 C 311.383 38.002,310.840 38.105,309.971 39.027 C 308.671 40.406,308.524 40.597,308.409 41.053 C 308.343 41.319,307.787 42.004,307.125 42.636 C 306.484 43.249,305.837 44.016,305.688 44.340 C 305.366 45.042,304.902 45.664,303.667 47.053 C 303.162 47.620,302.487 48.527,302.167 49.070 C 301.846 49.612,301.215 50.457,300.765 50.947 C 299.349 52.490,299.354 52.509,299.297 44.882 C 299.252 38.759,299.236 38.462,298.926 38.236 C 298.292 37.773,291.150 37.902,290.696 38.386 M325.196 38.386 L 324.833 38.771 324.833 55.618 C 324.833 71.502,324.850 72.472,325.125 72.593 C 325.947 72.955,348.748 72.862,349.343 72.494 C 349.748 72.243,349.957 66.580,349.577 66.159 C 349.292 65.845,349.014 65.833,341.904 65.833 C 337.847 65.833,334.405 65.787,334.257 65.729 C 333.536 65.453,333.333 64.507,333.333 61.419 L 333.333 58.492 333.761 58.329 C 334.002 58.238,336.457 58.159,339.386 58.150 C 342.244 58.141,344.771 58.081,345.000 58.018 L 345.417 57.902 345.464 55.243 C 345.491 53.780,345.470 52.415,345.419 52.208 L 345.327 51.833 339.843 51.833 L 334.359 51.833 333.846 51.321 L 333.333 50.808 333.333 48.224 L 333.333 45.641 333.821 45.154 L 334.308 44.667 341.315 44.667 C 349.608 44.667,348.667 45.093,348.667 41.333 C 348.667 39.799,348.593 38.506,348.494 38.322 C 348.326 38.008,348.022 38.000,336.940 38.000 L 325.558 38.000 325.196 38.386 M355.542 38.329 L 355.000 38.662 355.000 55.578 L 355.000 72.494 355.458 72.609 C 356.092 72.769,362.811 72.780,363.375 72.622 L 363.833 72.494 363.833 66.017 C 363.833 58.668,363.732 59.161,365.264 59.034 C 366.268 58.950,368.251 59.742,368.456 60.308 C 368.511 60.459,368.769 60.830,369.028 61.131 C 369.288 61.432,369.500 61.772,369.500 61.886 C 369.500 62.110,370.370 63.551,371.079 64.500 C 371.842 65.522,372.326 66.330,372.435 66.763 C 372.493 66.994,372.945 67.792,373.441 68.536 C 373.936 69.280,374.383 70.056,374.434 70.259 C 374.485 70.463,374.700 70.780,374.911 70.964 C 375.123 71.148,375.384 71.565,375.492 71.891 C 375.759 72.703,375.845 72.717,380.500 72.751 C 385.500 72.787,385.948 72.592,384.584 70.971 C 384.355 70.698,384.167 70.378,384.167 70.260 C 384.167 70.142,383.998 69.833,383.792 69.574 C 383.252 68.898,382.733 68.043,382.262 67.057 C 382.036 66.584,381.766 66.145,381.662 66.080 C 381.558 66.016,381.330 65.653,381.156 65.273 C 380.982 64.894,380.696 64.396,380.520 64.167 C 379.898 63.357,378.333 60.863,378.333 60.681 C 378.333 60.580,378.108 60.262,377.833 59.974 C 377.558 59.686,377.333 59.402,377.333 59.343 C 377.333 59.284,376.950 58.826,376.480 58.326 C 375.192 56.953,375.225 56.406,376.622 55.934 C 377.951 55.485,380.667 52.926,380.667 52.123 C 380.667 51.865,380.798 51.455,380.958 51.210 C 381.299 50.691,381.374 46.147,381.069 44.500 C 380.634 42.154,377.353 39.000,375.347 39.000 C 375.150 39.000,374.822 38.893,374.619 38.762 C 373.426 37.994,356.705 37.614,355.542 38.329 M369.769 44.595 C 372.513 44.821,373.798 48.451,372.195 51.447 C 371.663 52.441,370.124 52.880,367.102 52.900 L 364.598 52.917 364.217 52.250 C 363.849 51.607,363.837 51.460,363.876 48.171 L 363.917 44.760 364.333 44.542 C 364.747 44.325,366.731 44.345,369.769 44.595 " stroke="none" fill="#040404" fill-rule="evenodd"></path><path id="path2" d="M97.712 21.000 C 97.945 21.183,98.335 21.333,98.578 21.333 C 100.055 21.333,102.521 23.290,103.881 25.543 C 104.714 26.922,104.737 27.653,104.744 52.667 C 104.750 76.929,104.750 76.948,103.962 78.120 C 103.729 78.467,103.489 78.964,103.428 79.226 C 103.290 79.823,101.832 81.384,101.079 81.741 C 100.768 81.888,100.473 82.076,100.422 82.158 C 100.371 82.240,99.974 82.438,99.540 82.598 C 99.105 82.759,98.638 82.980,98.500 83.089 C 97.932 83.542,94.869 83.581,59.417 83.582 L 22.417 83.583 20.924 82.953 C 20.103 82.606,19.315 82.222,19.174 82.100 C 19.032 81.977,18.693 81.805,18.419 81.717 C 18.101 81.615,17.695 81.230,17.295 80.653 C 16.951 80.157,16.549 79.661,16.402 79.553 C 16.254 79.445,15.860 78.845,15.525 78.220 L 14.917 77.083 14.871 52.842 C 14.830 31.467,14.855 28.512,15.079 27.854 C 15.219 27.443,15.333 26.873,15.333 26.586 C 15.333 26.210,15.495 25.909,15.914 25.503 C 16.233 25.194,16.574 24.698,16.672 24.400 C 17.073 23.184,20.136 21.104,21.917 20.838 C 24.199 20.497,97.272 20.653,97.712 21.000 M23.016 27.440 C 21.342 28.274,21.501 25.673,21.501 52.147 C 21.500 78.746,21.330 76.080,23.082 76.909 L 23.979 77.333 59.565 77.333 C 82.075 77.333,95.292 77.274,95.534 77.172 C 95.744 77.084,96.241 76.929,96.638 76.829 C 97.201 76.687,97.413 76.530,97.606 76.115 C 97.742 75.823,97.960 75.396,98.091 75.167 C 98.293 74.812,98.329 71.354,98.331 51.785 L 98.333 28.820 97.958 28.312 C 97.752 28.033,97.201 27.623,96.734 27.402 L 95.885 27.000 59.892 27.000 L 23.899 27.000 23.016 27.440 M45.083 31.814 C 45.619 32.048,46.901 32.303,48.250 32.445 C 48.766 32.499,49.286 32.686,49.617 32.936 C 49.911 33.157,50.399 33.388,50.701 33.448 C 51.906 33.690,55.330 37.491,56.150 39.500 C 56.281 39.821,56.513 40.271,56.665 40.500 C 56.817 40.729,57.042 41.179,57.165 41.500 C 57.288 41.821,57.488 42.202,57.611 42.346 C 57.733 42.491,57.833 42.814,57.833 43.064 C 57.833 43.314,57.909 43.834,58.002 44.218 C 58.660 46.945,58.883 52.039,58.524 56.167 C 58.171 60.218,58.091 60.732,57.718 61.335 C 57.518 61.657,57.303 62.311,57.240 62.790 C 57.173 63.295,56.958 63.885,56.725 64.200 C 56.506 64.498,56.250 65.023,56.157 65.368 C 56.040 65.803,55.579 66.412,54.650 67.361 C 53.913 68.112,53.206 68.930,53.078 69.177 C 52.950 69.425,52.656 69.675,52.426 69.733 C 52.195 69.791,51.761 70.051,51.461 70.312 C 51.162 70.573,50.619 70.840,50.256 70.907 C 49.892 70.974,49.405 71.157,49.172 71.314 C 48.477 71.784,47.854 72.000,47.192 72.000 C 46.848 72.000,46.473 72.094,46.358 72.208 C 45.812 72.755,28.357 73.105,27.564 72.586 L 27.167 72.326 27.167 52.172 L 27.167 32.019 27.542 31.751 C 28.046 31.391,44.248 31.448,45.083 31.814 M82.583 31.822 C 82.858 31.948,83.533 32.103,84.083 32.167 C 85.502 32.332,87.115 32.963,87.729 33.595 C 88.016 33.889,88.526 34.244,88.864 34.385 C 89.220 34.533,89.586 34.849,89.735 35.138 C 89.877 35.412,90.054 35.662,90.129 35.693 C 90.819 35.981,92.396 40.456,92.176 41.500 C 92.089 41.912,91.904 42.898,91.766 43.690 C 91.600 44.643,91.371 45.341,91.091 45.755 C 90.857 46.099,90.667 46.529,90.667 46.711 C 90.667 47.299,87.910 49.948,86.975 50.258 C 85.904 50.614,85.699 51.831,86.708 51.836 C 87.656 51.840,88.719 52.325,89.583 53.148 C 90.042 53.585,90.607 54.059,90.840 54.202 C 91.414 54.554,92.667 56.453,92.667 56.970 C 92.667 57.199,92.867 57.730,93.112 58.148 C 93.694 59.140,93.850 61.707,93.417 63.167 C 93.268 63.671,93.083 64.467,93.007 64.937 C 92.633 67.234,90.798 69.199,87.433 70.908 C 85.846 71.714,85.108 72.000,84.614 72.000 C 84.247 72.000,83.564 72.108,83.098 72.241 C 81.124 72.801,79.967 72.858,71.833 72.804 C 67.387 72.774,63.656 72.689,63.542 72.615 C 63.377 72.509,63.333 68.232,63.333 52.151 L 63.333 31.823 63.708 31.666 C 64.347 31.399,81.978 31.545,82.583 31.822 M142.667 37.209 C 144.482 37.362,144.991 37.461,147.441 38.145 C 149.103 38.609,149.027 38.411,148.968 42.106 C 148.914 45.481,148.744 46.214,148.133 45.709 C 147.802 45.435,146.132 44.834,145.702 44.833 C 145.493 44.833,145.143 44.716,144.925 44.573 C 143.598 43.704,137.770 44.103,136.510 45.150 C 135.140 46.288,136.173 49.452,138.000 49.714 C 138.815 49.831,139.854 50.244,140.589 50.743 C 140.932 50.976,141.334 51.168,141.482 51.170 C 141.629 51.171,142.080 51.396,142.483 51.670 C 142.887 51.943,143.345 52.167,143.503 52.167 C 143.660 52.167,143.981 52.318,144.217 52.504 C 144.452 52.689,144.963 52.953,145.352 53.090 C 145.741 53.227,146.515 53.752,147.072 54.256 C 147.628 54.760,148.429 55.485,148.852 55.866 C 149.275 56.247,149.718 56.827,149.836 57.154 C 149.955 57.482,150.187 57.938,150.353 58.167 C 150.539 58.424,150.726 59.156,150.841 60.083 C 150.944 60.908,151.111 61.869,151.211 62.218 C 151.355 62.720,151.335 63.084,151.117 63.968 C 150.965 64.581,150.769 65.496,150.682 66.000 C 150.400 67.629,148.230 70.821,147.398 70.831 C 147.296 70.832,147.024 71.021,146.794 71.251 C 146.565 71.481,146.123 71.756,145.813 71.863 C 145.503 71.970,145.055 72.201,144.816 72.375 C 144.546 72.573,143.885 72.754,143.066 72.854 C 141.689 73.023,140.612 73.205,139.097 73.523 C 138.571 73.634,137.859 73.662,137.389 73.591 C 136.946 73.524,136.021 73.409,135.333 73.334 C 132.471 73.025,131.276 72.811,130.661 72.497 C 130.303 72.315,129.545 72.057,128.975 71.924 C 127.136 71.495,127.093 71.400,127.031 67.651 C 126.968 63.759,127.131 63.427,128.629 64.407 C 128.970 64.630,129.457 64.863,129.710 64.925 C 129.963 64.987,130.211 65.104,130.261 65.185 C 130.312 65.267,130.577 65.333,130.851 65.333 C 131.126 65.333,131.590 65.458,131.883 65.611 C 133.002 66.192,137.807 66.435,139.820 66.012 C 141.203 65.722,142.333 64.775,142.333 63.906 C 142.333 63.603,142.406 63.163,142.495 62.929 C 142.791 62.151,141.837 61.046,140.000 60.040 C 139.771 59.914,139.433 59.679,139.250 59.517 C 138.852 59.165,137.554 58.667,137.035 58.667 C 136.832 58.667,136.386 58.517,136.044 58.333 C 135.701 58.150,135.344 58.000,135.249 58.000 C 135.155 58.000,134.816 57.824,134.497 57.609 C 134.178 57.394,133.707 57.167,133.452 57.104 C 133.196 57.042,132.521 56.583,131.952 56.084 C 131.382 55.586,130.551 54.857,130.105 54.464 C 129.658 54.071,129.112 53.375,128.891 52.917 C 128.670 52.458,128.371 51.868,128.226 51.605 C 128.081 51.342,127.900 50.667,127.823 50.105 C 127.747 49.543,127.569 48.767,127.428 48.380 C 127.241 47.865,127.216 47.559,127.336 47.244 C 127.426 47.006,127.500 46.333,127.500 45.749 C 127.500 45.165,127.569 44.644,127.654 44.591 C 127.739 44.539,127.930 44.128,128.080 43.678 C 128.229 43.227,128.456 42.772,128.583 42.667 C 128.711 42.561,128.933 42.119,129.077 41.685 C 129.459 40.536,131.439 38.840,133.018 38.309 C 133.329 38.205,133.720 38.001,133.887 37.856 C 134.213 37.574,135.235 37.420,138.000 37.238 C 138.962 37.174,139.862 37.059,140.000 36.982 C 140.137 36.905,140.362 36.889,140.500 36.945 C 140.637 37.002,141.612 37.120,142.667 37.209 M174.667 37.190 C 175.979 37.277,177.145 37.443,177.464 37.587 C 177.765 37.722,178.170 37.833,178.365 37.833 C 178.559 37.833,179.119 38.023,179.609 38.255 L 180.500 38.676 180.500 41.834 C 180.500 44.925,180.492 44.998,180.125 45.238 C 179.732 45.495,178.442 45.338,178.092 44.990 C 178.005 44.904,177.720 44.833,177.458 44.833 C 177.197 44.833,176.756 44.716,176.479 44.572 C 175.641 44.139,170.343 44.026,169.168 44.416 C 165.593 45.604,164.597 47.302,164.137 53.000 C 163.913 55.769,163.934 57.027,164.235 59.000 C 164.383 59.962,164.549 61.125,164.604 61.583 C 164.669 62.113,164.845 62.569,165.087 62.833 C 165.297 63.063,165.577 63.514,165.710 63.836 C 166.390 65.492,168.752 66.393,172.123 66.282 C 175.477 66.171,177.455 65.891,178.274 65.412 C 179.046 64.959,179.515 64.906,180.308 65.183 L 180.833 65.366 180.833 68.406 L 180.833 71.446 180.432 71.630 C 180.211 71.730,179.742 71.867,179.390 71.932 C 179.038 71.998,178.561 72.192,178.331 72.362 C 177.843 72.722,176.355 72.998,174.890 72.999 C 174.243 73.000,173.517 73.132,172.927 73.358 C 172.122 73.666,171.901 73.690,171.351 73.525 C 170.999 73.420,170.113 73.333,169.382 73.333 C 168.117 73.333,165.915 72.901,165.181 72.508 C 165.002 72.412,164.640 72.333,164.378 72.333 C 164.115 72.333,163.829 72.267,163.742 72.187 C 163.655 72.106,163.286 71.945,162.922 71.829 C 162.558 71.712,161.883 71.263,161.422 70.829 C 160.961 70.396,160.423 69.993,160.228 69.933 C 160.032 69.872,159.646 69.619,159.370 69.370 C 159.094 69.121,158.676 68.784,158.441 68.623 C 157.934 68.273,156.912 66.777,156.638 65.982 C 156.530 65.671,156.308 65.229,156.145 65.000 C 154.687 62.961,153.783 52.191,154.891 50.050 C 155.043 49.757,155.167 49.335,155.167 49.113 C 155.167 48.397,155.787 46.200,156.125 45.718 C 156.306 45.460,156.541 44.982,156.647 44.655 C 157.051 43.407,161.270 39.690,162.862 39.179 C 163.198 39.071,163.557 38.882,163.660 38.758 C 163.763 38.634,164.050 38.483,164.299 38.423 C 164.547 38.362,165.016 38.139,165.342 37.926 C 165.998 37.497,166.662 37.383,169.528 37.204 C 170.598 37.138,171.534 37.023,171.607 36.949 C 171.681 36.875,171.893 36.865,172.079 36.927 C 172.265 36.989,173.429 37.108,174.667 37.190 M73.720 38.024 C 73.043 38.365,72.976 38.881,73.031 43.324 C 73.094 48.403,72.860 47.999,75.740 48.002 C 78.747 48.005,80.019 47.536,81.130 46.014 C 83.441 42.849,82.477 39.313,79.023 38.285 C 77.726 37.898,74.305 37.730,73.720 38.024 M194.925 38.411 C 195.121 38.880,195.167 40.125,195.167 44.974 C 195.167 49.899,195.208 50.993,195.400 51.153 C 195.762 51.454,206.686 51.330,207.058 51.021 C 207.305 50.816,207.333 50.165,207.333 44.752 L 207.333 38.712 207.773 38.273 L 208.212 37.833 212.256 37.833 L 216.301 37.833 216.484 38.358 C 216.612 38.726,216.667 43.892,216.667 55.599 L 216.667 72.314 216.296 72.574 C 215.986 72.791,215.283 72.833,212.000 72.833 C 208.717 72.833,208.014 72.791,207.704 72.574 L 207.333 72.314 207.333 65.866 C 207.332 59.731,207.316 59.390,207.002 58.875 L 206.672 58.333 201.020 58.333 C 196.021 58.333,195.357 58.364,195.268 58.597 C 195.212 58.742,195.167 61.859,195.167 65.525 C 195.167 69.800,195.105 72.304,194.994 72.511 C 194.795 72.883,186.989 73.018,186.322 72.661 C 185.797 72.380,185.819 38.941,186.345 38.272 L 186.691 37.833 190.687 37.833 L 194.684 37.833 194.925 38.411 M247.241 38.204 C 247.684 38.837,247.615 43.808,247.155 44.394 L 246.809 44.833 239.917 44.833 L 233.024 44.833 232.679 45.272 C 232.364 45.673,232.333 45.934,232.333 48.250 C 232.333 50.566,232.364 50.827,232.679 51.228 L 233.024 51.667 238.506 51.667 C 245.029 51.667,244.333 51.267,244.333 55.018 C 244.333 58.709,245.025 58.333,238.219 58.333 C 233.078 58.333,232.647 58.355,232.536 58.625 C 232.282 59.245,232.397 65.333,232.667 65.504 C 232.814 65.597,235.954 65.663,240.333 65.665 C 247.431 65.668,247.773 65.682,248.292 65.998 C 248.868 66.350,249.033 67.148,248.670 67.827 C 248.581 67.994,248.458 69.096,248.398 70.274 C 248.337 71.452,248.214 72.510,248.124 72.625 C 247.886 72.927,224.095 72.924,223.532 72.623 L 223.148 72.417 223.151 55.500 L 223.154 38.583 223.586 38.208 L 224.019 37.833 235.500 37.833 L 246.981 37.833 247.241 38.204 M261.152 38.020 C 261.446 38.122,261.851 38.451,262.052 38.750 C 262.853 39.943,264.111 41.587,264.594 42.071 C 264.875 42.353,265.475 43.138,265.928 43.815 C 266.380 44.493,266.920 45.299,267.127 45.607 C 267.335 45.915,267.576 46.167,267.663 46.167 C 267.750 46.167,268.173 46.710,268.603 47.375 C 269.032 48.040,269.766 49.002,270.233 49.514 C 270.701 50.026,271.271 50.773,271.500 51.173 C 271.729 51.573,272.297 52.320,272.761 52.833 C 273.226 53.345,273.956 54.305,274.383 54.965 C 275.842 57.221,275.833 57.268,275.833 47.170 C 275.833 39.660,275.866 38.527,276.093 38.204 C 276.347 37.841,276.425 37.833,279.826 37.833 L 283.301 37.833 283.484 38.358 C 283.612 38.726,283.667 43.892,283.667 55.599 L 283.667 72.314 283.296 72.574 C 282.907 72.846,278.085 72.948,277.475 72.697 C 277.324 72.634,276.899 72.171,276.530 71.667 C 275.803 70.674,275.199 69.864,274.417 68.833 C 274.142 68.471,273.692 67.865,273.417 67.486 C 273.142 67.107,272.702 66.566,272.439 66.283 C 272.176 66.000,271.710 65.390,271.403 64.926 C 270.495 63.556,269.952 62.835,269.333 62.175 C 269.012 61.833,268.563 61.231,268.333 60.836 C 268.104 60.442,267.467 59.616,266.917 59.002 C 266.367 58.388,265.654 57.442,265.333 56.901 C 265.012 56.360,264.319 55.450,263.792 54.879 C 263.265 54.309,262.833 53.772,262.833 53.688 C 262.833 53.435,261.647 52.326,261.484 52.427 C 261.397 52.480,261.333 56.699,261.333 62.372 C 261.333 71.305,261.308 72.252,261.058 72.529 C 260.721 72.900,254.867 72.993,254.091 72.640 L 253.667 72.446 253.667 55.549 L 253.667 38.652 254.076 38.242 C 254.539 37.779,259.971 37.608,261.152 38.020 M299.228 38.208 C 299.284 38.415,299.330 41.331,299.331 44.690 C 299.333 50.535,299.347 50.813,299.664 51.190 L 299.995 51.583 300.706 50.820 C 301.097 50.400,301.679 49.612,302.000 49.070 C 302.321 48.527,302.996 47.620,303.500 47.054 C 304.835 45.555,305.500 44.665,305.500 44.378 C 305.500 44.239,306.093 43.516,306.817 42.771 C 307.541 42.026,308.250 41.135,308.392 40.792 C 308.534 40.448,308.721 40.167,308.809 40.167 C 308.897 40.167,309.162 39.836,309.398 39.433 C 310.188 38.086,310.771 37.925,315.104 37.866 C 320.199 37.797,320.423 38.049,317.750 40.842 C 316.879 41.752,316.167 42.568,316.167 42.657 C 316.167 43.002,315.047 44.485,313.764 45.839 C 313.023 46.622,312.192 47.668,311.917 48.163 C 311.642 48.659,310.742 49.788,309.917 50.672 C 307.041 53.755,306.876 54.333,308.400 55.994 C 309.005 56.653,309.500 57.262,309.500 57.346 C 309.500 57.549,310.666 59.167,310.812 59.167 C 310.875 59.167,311.224 59.587,311.588 60.100 C 311.952 60.614,312.475 61.325,312.750 61.680 C 313.025 62.035,313.475 62.634,313.750 63.011 C 314.025 63.388,314.700 64.204,315.250 64.824 C 315.800 65.445,316.438 66.275,316.667 66.670 C 316.896 67.064,317.346 67.667,317.667 68.009 C 317.987 68.350,318.475 68.940,318.750 69.319 C 319.287 70.059,320.008 71.018,320.647 71.843 C 321.321 72.714,321.167 72.745,315.867 72.799 C 310.203 72.858,310.528 72.915,309.740 71.709 C 309.395 71.182,308.731 70.331,308.265 69.819 C 307.798 69.307,307.229 68.560,307.000 68.159 C 306.771 67.758,306.321 67.152,306.000 66.813 C 305.679 66.474,305.192 65.888,304.917 65.511 C 304.642 65.134,304.192 64.529,303.917 64.167 C 303.642 63.804,303.192 63.204,302.917 62.833 C 301.852 61.397,301.329 60.728,300.829 60.167 C 300.544 59.846,300.244 59.471,300.162 59.333 C 300.031 59.116,299.974 59.122,299.714 59.381 C 299.441 59.654,299.413 60.196,299.366 66.097 L 299.315 72.515 298.875 72.682 C 298.175 72.949,290.619 72.807,290.275 72.521 C 290.023 72.311,290.000 70.911,290.000 55.550 L 290.000 38.808 290.487 38.321 L 290.974 37.833 295.051 37.833 L 299.128 37.833 299.228 38.208 M348.521 38.109 C 348.696 38.320,348.750 39.079,348.750 41.333 C 348.750 45.279,349.693 44.833,341.344 44.833 L 334.396 44.833 333.948 45.301 C 333.503 45.765,333.500 45.785,333.500 48.230 L 333.500 50.692 333.987 51.179 L 334.474 51.667 339.968 51.667 L 345.461 51.667 345.562 52.042 C 345.811 52.974,345.674 57.786,345.391 58.021 C 345.175 58.201,343.918 58.268,339.488 58.333 C 336.393 58.379,333.798 58.479,333.722 58.555 C 333.372 58.905,333.456 64.261,333.823 64.980 L 334.173 65.667 341.724 65.667 L 349.275 65.667 349.652 66.068 C 350.472 66.941,349.883 72.583,348.954 72.750 C 347.717 72.974,325.062 72.759,324.776 72.521 C 324.523 72.311,324.500 70.920,324.500 55.576 L 324.500 38.859 324.931 38.346 L 325.363 37.833 336.828 37.833 C 347.289 37.833,348.313 37.857,348.521 38.109 M373.053 38.159 C 373.754 38.338,374.473 38.563,374.652 38.659 C 374.831 38.755,375.193 38.833,375.456 38.833 C 375.718 38.833,376.005 38.896,376.092 38.972 C 376.179 39.049,376.595 39.238,377.017 39.393 C 378.534 39.951,380.991 42.954,381.263 44.583 C 381.535 46.213,381.439 50.689,381.120 51.283 C 380.962 51.577,380.833 52.015,380.833 52.258 C 380.833 52.825,377.874 55.750,377.154 55.894 C 375.370 56.251,375.219 56.736,376.473 58.083 C 377.351 59.026,378.149 60.089,378.383 60.628 C 378.493 60.882,378.718 61.275,378.882 61.503 C 379.668 62.592,381.333 65.254,381.333 65.421 C 381.333 65.524,381.519 65.783,381.745 65.995 C 381.972 66.208,382.245 66.649,382.352 66.974 C 382.460 67.300,382.877 68.048,383.279 68.635 C 383.682 69.223,384.111 69.939,384.233 70.227 C 384.354 70.515,384.614 70.893,384.810 71.067 C 385.250 71.460,385.312 72.575,384.903 72.732 C 384.473 72.897,376.392 72.847,375.944 72.677 C 375.677 72.575,375.460 72.298,375.326 71.885 C 375.212 71.536,375.011 71.186,374.877 71.108 C 374.744 71.030,374.522 70.695,374.384 70.363 C 374.245 70.032,373.986 69.571,373.807 69.339 C 373.184 68.530,372.624 67.586,372.417 67.000 C 372.206 66.402,371.702 65.563,370.917 64.500 C 370.147 63.459,369.624 62.594,369.454 62.084 C 369.363 61.808,369.124 61.396,368.924 61.167 C 368.724 60.938,368.433 60.544,368.277 60.292 C 368.120 60.040,367.886 59.833,367.755 59.833 C 367.624 59.833,367.165 59.646,366.734 59.417 C 365.868 58.956,365.472 58.911,364.692 59.183 L 364.167 59.366 364.167 65.829 C 364.167 71.634,364.139 72.316,363.891 72.521 C 363.544 72.810,355.991 72.949,355.282 72.679 L 354.833 72.508 354.836 55.629 C 354.837 46.346,354.894 38.667,354.961 38.566 C 355.422 37.873,355.746 37.847,363.932 37.840 C 371.186 37.834,371.876 37.858,373.053 38.159 M37.204 38.426 L 36.833 38.686 36.833 52.095 L 36.833 65.505 37.375 65.835 C 38.342 66.425,42.699 66.142,43.476 65.439 C 43.636 65.294,44.097 65.059,44.500 64.917 C 45.359 64.614,45.772 64.274,46.120 63.584 C 46.259 63.309,46.511 62.931,46.681 62.745 C 46.850 62.559,47.106 62.076,47.249 61.670 C 47.392 61.265,47.614 60.817,47.742 60.675 C 47.870 60.533,48.087 59.779,48.224 59.000 C 48.361 58.221,48.554 57.372,48.653 57.114 C 48.874 56.539,48.902 47.693,48.684 47.133 C 48.603 46.922,48.452 46.103,48.349 45.312 C 48.106 43.434,47.380 41.956,46.045 40.621 C 44.941 39.516,43.955 38.835,43.451 38.828 C 43.249 38.825,42.671 38.677,42.167 38.500 C 40.958 38.075,37.773 38.027,37.204 38.426 M364.458 44.608 C 363.687 44.827,364.124 52.589,364.924 52.896 C 365.373 53.069,367.779 53.013,368.281 52.818 C 368.539 52.718,369.236 52.566,369.830 52.480 C 371.029 52.307,371.905 51.812,372.154 51.167 C 372.575 50.077,372.822 48.657,372.663 48.240 C 372.573 48.004,372.500 47.513,372.500 47.149 C 372.500 45.938,371.302 44.886,369.781 44.762 C 367.892 44.607,364.779 44.517,364.458 44.608 M73.796 55.755 C 73.032 56.177,73.000 56.392,73.000 61.072 C 73.000 66.606,72.745 66.167,75.958 66.167 C 79.680 66.167,81.078 65.709,82.833 63.918 L 83.583 63.152 83.583 61.035 L 83.583 58.917 83.017 58.136 C 82.278 57.116,81.014 56.271,79.667 55.895 C 78.190 55.484,74.448 55.394,73.796 55.755 " stroke="none" fill="#fcfbfb" fill-rule="evenodd"></path></g></svg>