<svg id="svg" version="1.1" xmlns="http://www.w3.org/2000/svg" xmlns:xlink="http://www.w3.org/1999/xlink" width="400" height="118.57707509881422" viewBox="0, 0, 400,118.57707509881422"><g id="svgg"><path id="path0" d="M339.074 13.570 C 338.762 13.798,338.750 14.071,338.750 21.000 C 338.750 27.928,338.762 28.202,339.074 28.430 C 339.633 28.839,353.350 28.775,353.724 28.362 C 354.193 27.844,354.139 14.139,353.667 13.667 C 353.228 13.228,339.664 13.138,339.074 13.570 M29.704 22.593 C 29.218 22.933,29.223 23.594,29.725 25.273 C 31.366 30.762,32.753 35.515,33.416 37.917 C 34.141 40.546,35.176 44.123,37.443 51.833 C 37.942 53.529,38.989 57.204,39.769 60.000 C 40.550 62.796,41.629 66.546,42.167 68.333 C 42.706 70.121,43.670 73.421,44.310 75.667 C 49.881 95.216,49.695 94.625,50.457 95.125 C 50.935 95.438,60.500 95.580,61.540 95.289 C 62.399 95.048,62.710 94.053,66.680 78.833 C 68.395 72.256,69.047 69.835,70.808 63.500 C 71.178 62.171,72.653 56.440,74.086 50.765 C 76.876 39.716,77.149 38.795,77.753 38.400 C 78.808 37.708,78.949 38.058,81.019 46.479 C 81.935 50.203,83.237 55.200,83.913 57.583 C 84.590 59.967,85.829 64.467,86.667 67.583 C 87.505 70.700,88.855 75.575,89.667 78.417 C 90.479 81.258,91.715 85.721,92.413 88.333 C 94.004 94.285,94.085 94.532,94.602 95.018 L 95.027 95.417 100.555 95.417 C 107.599 95.417,106.808 95.885,108.161 90.917 C 108.636 89.175,109.813 85.012,110.778 81.667 C 111.742 78.321,113.239 72.996,114.105 69.833 C 114.971 66.671,116.173 62.396,116.776 60.333 C 118.067 55.919,118.594 54.046,120.743 46.250 C 121.627 43.042,122.755 39.067,123.250 37.417 C 124.727 32.496,127.000 24.004,127.000 23.408 C 127.000 22.365,126.838 22.333,121.557 22.333 C 116.683 22.333,116.184 22.394,115.771 23.034 C 115.492 23.468,113.555 30.586,110.748 41.500 C 109.698 45.579,108.347 50.717,107.746 52.917 C 105.755 60.198,104.043 67.185,103.010 72.250 C 101.501 79.650,101.236 80.467,100.396 80.306 C 99.859 80.202,99.479 79.203,98.901 76.377 C 97.034 67.249,96.070 63.445,93.443 54.833 C 92.842 52.862,91.553 48.438,90.578 45.000 C 89.604 41.563,88.329 37.175,87.746 35.250 C 87.162 33.325,86.156 29.912,85.509 27.667 C 84.196 23.104,84.115 22.901,83.473 22.569 C 82.803 22.223,73.859 22.225,73.189 22.572 C 72.468 22.945,72.054 24.181,69.081 34.833 C 68.377 37.354,67.319 41.067,66.728 43.083 C 61.967 59.336,59.336 69.031,58.426 73.667 C 57.444 78.669,57.332 79.123,56.972 79.581 C 56.130 80.651,55.505 79.735,54.889 76.531 C 53.598 69.809,53.206 68.012,52.177 64.083 C 50.261 56.772,47.395 46.196,46.434 42.890 C 45.427 39.428,44.693 36.755,42.667 29.185 C 41.088 23.282,40.953 22.904,40.321 22.577 C 39.602 22.205,30.238 22.219,29.704 22.593 M133.051 22.736 L 132.583 23.138 132.535 58.277 C 132.508 77.604,132.532 93.737,132.587 94.128 C 132.786 95.532,130.751 95.417,155.382 95.417 L 177.196 95.417 177.598 94.949 C 177.997 94.485,178.000 94.450,178.000 90.816 L 178.000 87.152 177.591 86.742 L 177.182 86.333 161.716 86.332 C 145.502 86.331,145.364 86.325,144.654 85.570 L 144.250 85.140 144.207 74.362 C 144.165 63.820,144.171 63.571,144.499 63.038 C 145.134 62.002,143.511 62.091,162.940 62.032 C 173.187 62.001,173.646 61.987,174.023 61.682 C 174.477 61.315,174.730 54.947,174.343 53.641 C 174.047 52.641,174.445 52.667,159.433 52.666 C 146.739 52.666,145.708 52.645,145.169 52.375 C 144.136 51.857,144.163 52.148,144.209 41.972 L 144.250 32.693 144.654 32.263 C 145.363 31.509,145.513 31.502,161.466 31.501 L 176.682 31.500 177.091 31.091 L 177.500 30.682 177.500 26.917 L 177.500 23.152 177.091 22.742 L 176.682 22.333 155.100 22.333 L 133.519 22.333 133.051 22.736 M187.244 22.492 C 186.360 22.850,186.417 20.389,186.417 58.651 C 186.417 95.050,186.413 94.843,187.044 95.204 C 187.673 95.563,196.464 95.504,197.026 95.136 C 197.668 94.716,197.667 94.746,197.667 81.213 C 197.667 67.263,197.626 67.795,198.746 67.263 C 199.208 67.044,200.046 67.000,203.782 67.000 C 209.404 67.000,209.284 66.959,210.684 69.333 C 212.048 71.646,215.725 77.996,217.537 81.167 C 225.772 95.583,225.446 95.074,226.598 95.341 C 227.354 95.516,236.269 95.537,237.232 95.365 C 238.622 95.118,238.456 94.583,235.619 90.167 C 234.766 88.837,233.313 86.513,232.392 85.000 C 231.470 83.487,230.165 81.387,229.491 80.333 C 228.818 79.279,227.319 76.879,226.162 75.000 C 225.004 73.121,223.351 70.461,222.487 69.090 C 220.205 65.466,220.238 65.243,223.321 63.490 C 232.997 57.985,236.969 48.926,234.411 38.196 C 232.306 29.369,225.854 24.011,215.695 22.654 C 213.132 22.311,188.042 22.169,187.244 22.492 M245.886 22.501 C 245.147 22.799,245.167 21.793,245.167 58.896 L 245.167 94.481 245.569 94.949 L 245.971 95.417 250.275 95.471 C 254.790 95.529,255.753 95.467,256.269 95.090 C 256.571 94.870,256.587 94.362,256.667 82.389 C 256.765 67.704,256.381 69.721,259.755 66.161 C 263.841 61.849,263.275 61.650,269.257 69.500 C 270.619 71.287,273.387 74.912,275.408 77.555 C 277.430 80.197,280.133 83.736,281.417 85.419 C 287.529 93.435,288.350 94.485,288.822 94.881 C 289.524 95.472,290.418 95.538,296.850 95.472 C 303.771 95.401,303.682 95.452,301.625 92.776 C 299.844 90.461,297.492 87.428,295.414 84.767 C 293.591 82.434,290.304 78.191,285.667 72.185 C 282.042 67.490,279.648 64.405,277.320 61.430 C 271.649 54.182,271.784 54.774,274.999 51.250 C 275.919 50.242,277.550 48.442,278.623 47.250 C 279.696 46.058,281.438 44.143,282.495 42.993 C 283.552 41.843,285.842 39.331,287.583 37.411 C 289.325 35.490,291.502 33.094,292.421 32.085 C 300.177 23.572,300.333 23.392,300.333 22.966 C 300.333 22.380,299.633 22.320,293.336 22.369 L 287.225 22.417 286.654 22.817 C 286.340 23.038,285.099 24.313,283.896 25.651 C 282.694 26.989,280.294 29.660,278.563 31.587 C 274.219 36.423,271.871 39.035,268.697 42.562 C 267.201 44.224,264.942 46.746,263.678 48.167 C 258.789 53.659,258.044 54.285,257.294 53.534 C 256.721 52.961,256.687 52.080,256.677 37.367 L 256.667 23.152 256.258 22.742 L 255.848 22.333 251.049 22.344 C 248.410 22.350,246.086 22.420,245.886 22.501 M211.132 31.507 C 218.472 32.296,222.607 36.554,222.947 43.677 C 223.434 53.839,217.310 58.189,202.826 57.973 C 197.059 57.887,197.648 59.446,197.705 44.436 C 197.755 31.131,197.662 32.121,198.917 31.567 C 199.545 31.290,208.692 31.245,211.132 31.507 M338.900 31.901 C 338.142 32.236,338.143 32.228,338.044 38.833 C 337.937 45.961,338.022 47.370,338.592 47.941 L 338.985 48.333 346.378 48.333 C 353.535 48.333,353.782 48.323,354.128 48.001 C 354.665 47.500,354.687 47.141,354.633 39.546 L 354.583 32.509 354.204 32.129 L 353.824 31.750 346.621 31.711 C 340.816 31.680,339.316 31.717,338.900 31.901 M339.150 51.313 L 338.750 51.637 338.750 58.749 C 338.750 65.596,338.762 65.869,339.074 66.097 C 339.580 66.467,353.099 66.446,353.630 66.074 L 354.000 65.814 354.000 58.772 C 354.000 52.955,353.959 51.674,353.764 51.407 C 353.393 50.900,339.768 50.813,339.150 51.313 M338.576 69.576 L 338.167 69.985 338.167 77.474 C 338.167 84.599,338.182 84.982,338.485 85.357 L 338.804 85.750 346.314 85.750 L 353.824 85.750 354.204 85.371 L 354.583 84.991 354.634 77.871 C 354.689 70.235,354.643 69.695,353.910 69.361 C 353.607 69.223,351.396 69.167,346.235 69.167 L 338.985 69.167 338.576 69.576 M339.293 88.282 C 338.330 88.436,338.333 88.406,338.333 96.269 C 338.333 103.104,338.349 103.483,338.652 103.857 L 338.971 104.250 346.314 104.250 L 353.657 104.250 354.037 103.870 L 354.417 103.491 354.417 96.250 L 354.417 89.009 354.037 88.630 L 353.658 88.250 346.704 88.230 C 342.879 88.219,339.545 88.243,339.293 88.282 " stroke="none" fill="#f4f4f5" fill-rule="evenodd"></path><path id="path1" d="M354.318 11.884 C 355.625 12.342,355.583 12.049,355.583 20.901 L 355.583 28.777 355.189 29.618 L 354.795 30.459 355.273 31.271 L 355.750 32.083 355.750 39.917 C 355.750 47.065,355.723 47.826,355.446 48.621 C 355.160 49.443,355.158 49.555,355.415 50.621 C 355.837 52.371,355.723 66.277,355.279 67.230 C 354.982 67.867,354.983 67.889,355.364 68.730 L 355.750 69.583 355.750 77.500 C 355.750 84.725,355.725 85.463,355.458 85.950 C 354.742 87.261,355.319 87.882,356.837 87.431 C 357.591 87.207,358.841 87.167,364.989 87.168 C 372.645 87.169,373.173 87.214,373.846 87.930 L 374.250 88.360 374.302 95.888 C 374.359 104.174,374.331 104.470,373.449 105.007 C 372.683 105.475,357.919 105.515,356.630 105.053 C 355.857 104.776,355.829 104.778,354.977 105.177 L 354.110 105.583 346.347 105.583 C 335.661 105.583,336.750 106.642,336.750 96.250 L 336.750 88.750 337.208 87.970 C 337.755 87.040,337.763 86.916,337.337 85.977 C 336.885 84.981,336.829 70.395,337.273 69.250 C 337.688 68.181,337.721 67.713,337.435 66.998 C 337.095 66.148,337.031 52.095,337.360 50.502 C 337.639 49.148,336.937 47.459,336.285 47.917 C 336.154 48.008,335.833 48.233,335.572 48.417 C 335.114 48.738,334.829 48.750,327.303 48.750 L 319.508 48.750 319.045 48.288 L 318.583 47.826 318.583 40.000 L 318.583 32.174 319.045 31.712 L 319.508 31.250 327.310 31.250 L 335.112 31.250 335.827 31.745 L 336.542 32.241 337.106 31.579 C 337.856 30.699,337.914 30.391,337.502 29.460 C 337.163 28.694,337.155 28.474,337.202 20.767 L 337.250 12.860 337.657 12.426 C 337.882 12.188,338.294 11.926,338.574 11.845 C 339.384 11.609,353.635 11.645,354.318 11.884 M40.538 21.341 C 41.808 21.694,42.225 22.854,45.417 34.917 C 46.121 37.575,47.473 42.487,48.422 45.833 C 51.501 56.688,54.094 66.712,55.235 72.167 C 56.244 76.995,56.492 77.032,57.493 72.500 C 58.605 67.466,61.983 55.045,64.497 46.750 C 64.941 45.283,65.982 41.646,66.811 38.667 C 68.224 33.586,69.580 28.888,70.886 24.552 C 71.935 21.070,71.528 21.250,78.355 21.250 C 85.600 21.250,84.646 20.372,87.231 29.417 C 88.278 33.083,89.524 37.350,89.998 38.898 C 90.473 40.445,91.784 44.945,92.913 48.898 C 94.042 52.850,95.503 57.846,96.160 60.000 C 97.530 64.495,97.830 65.679,99.069 71.508 C 100.532 78.395,100.561 78.393,101.986 71.394 C 102.933 66.738,103.703 63.544,105.074 58.583 C 105.581 56.750,106.930 51.612,108.073 47.167 C 109.216 42.721,110.646 37.283,111.251 35.083 C 111.855 32.883,112.799 29.294,113.348 27.107 C 114.928 20.807,114.324 21.269,121.083 21.197 C 129.119 21.113,129.040 21.051,127.598 26.260 C 126.483 30.290,125.381 34.151,124.580 36.833 C 124.183 38.162,123.143 41.875,122.268 45.083 C 121.394 48.292,120.224 52.454,119.668 54.333 C 119.112 56.212,117.906 60.487,116.988 63.833 C 116.069 67.179,114.602 72.392,113.727 75.417 C 112.852 78.442,111.550 83.054,110.833 85.667 C 107.450 98.003,108.772 96.583,100.667 96.583 C 92.718 96.583,93.637 97.328,91.409 89.083 C 89.497 82.006,88.300 77.670,86.784 72.323 C 86.094 69.888,84.884 65.500,84.097 62.573 C 83.309 59.645,82.362 56.163,81.992 54.833 C 81.622 53.504,80.728 50.068,80.005 47.198 C 78.010 39.274,78.061 39.266,75.993 47.877 C 74.606 53.651,73.479 57.997,71.835 63.917 C 71.300 65.842,70.182 70.049,69.350 73.266 C 68.517 76.483,67.310 81.021,66.667 83.349 C 66.024 85.678,65.079 89.196,64.566 91.167 C 63.047 97.011,63.710 96.583,56.167 96.583 C 48.622 96.583,49.260 96.951,47.759 91.733 C 47.261 90.001,46.329 86.821,45.689 84.667 C 45.049 82.512,43.876 78.425,43.083 75.583 C 42.289 72.742,41.202 68.954,40.666 67.167 C 39.163 62.154,38.982 61.529,37.017 54.554 C 36.006 50.963,34.694 46.426,34.104 44.471 C 33.513 42.516,32.266 38.179,31.332 34.833 C 30.399 31.488,29.301 27.670,28.894 26.349 C 27.743 22.619,27.764 21.971,29.054 21.410 C 29.713 21.123,39.543 21.065,40.538 21.341 M177.418 21.407 C 178.618 21.908,178.680 22.199,178.629 27.108 C 178.586 31.195,178.563 31.489,178.250 31.839 C 177.492 32.688,177.925 32.667,161.664 32.667 C 145.257 32.667,145.679 32.644,145.440 33.535 C 145.138 34.664,145.331 50.794,145.652 51.190 L 145.970 51.583 160.110 51.667 C 175.295 51.756,174.699 51.719,175.292 52.623 C 175.699 53.245,175.734 61.282,175.333 62.083 C 174.768 63.212,175.402 63.166,160.317 63.166 C 145.997 63.167,145.869 63.173,145.523 63.933 C 145.320 64.378,145.242 83.559,145.440 84.298 C 145.679 85.190,145.232 85.167,161.950 85.167 C 179.113 85.167,178.264 85.113,178.833 86.250 C 179.227 87.036,179.198 94.873,178.800 95.602 C 178.233 96.637,179.520 96.583,155.159 96.583 C 130.504 96.583,132.446 96.669,131.711 95.547 C 131.353 95.002,131.158 24.104,131.510 22.797 C 131.706 22.068,132.321 21.393,132.889 21.282 C 134.035 21.059,176.872 21.178,177.418 21.407 M216.750 21.557 C 227.724 23.433,234.593 30.156,235.989 40.387 C 237.392 50.672,233.390 58.824,224.303 64.184 C 221.555 65.805,221.558 65.840,225.000 71.000 C 225.519 71.779,227.093 74.292,228.497 76.583 C 229.901 78.875,231.255 81.052,231.507 81.421 C 231.758 81.790,232.809 83.477,233.840 85.171 C 234.872 86.864,236.484 89.455,237.422 90.928 C 241.056 96.635,241.022 96.672,232.186 96.659 C 224.464 96.648,225.388 97.212,221.336 90.051 C 220.205 88.052,218.592 85.254,217.751 83.833 C 216.910 82.412,215.484 79.938,214.582 78.333 C 211.813 73.408,209.217 69.104,208.751 68.667 L 208.307 68.250 204.015 68.201 C 199.961 68.154,199.700 68.169,199.320 68.477 L 198.917 68.804 198.833 81.951 C 198.741 96.452,198.810 95.571,197.713 96.289 C 197.030 96.737,186.970 96.737,186.287 96.289 C 185.154 95.547,185.255 98.973,185.201 59.591 C 185.143 18.457,185.015 21.983,186.590 21.412 C 187.652 21.027,214.403 21.155,216.750 21.557 M256.946 21.599 C 257.862 22.280,257.827 21.691,257.847 36.833 C 257.867 51.440,257.878 51.718,258.432 51.799 C 258.834 51.858,259.264 51.413,264.917 45.088 C 267.208 42.523,269.908 39.523,270.917 38.420 C 271.925 37.317,273.273 35.815,273.913 35.082 C 274.553 34.350,275.799 32.962,276.683 32.000 C 277.567 31.037,278.993 29.451,279.853 28.475 C 283.334 24.523,285.887 21.813,286.388 21.539 C 287.205 21.092,300.866 21.098,301.549 21.546 C 302.696 22.297,301.881 23.578,296.913 28.833 C 296.176 29.613,294.939 30.962,294.164 31.833 C 293.389 32.704,291.891 34.357,290.836 35.507 C 285.067 41.791,274.543 53.436,274.293 53.813 C 273.642 54.792,274.107 55.637,277.839 60.250 C 278.358 60.892,279.905 62.879,281.278 64.667 C 283.866 68.038,287.505 72.733,290.320 76.333 C 291.216 77.479,292.696 79.392,293.611 80.583 C 295.223 82.686,297.982 86.247,302.026 91.446 C 306.032 96.596,306.045 96.583,296.583 96.583 C 287.779 96.583,288.745 96.914,285.665 92.844 C 284.585 91.417,282.003 88.037,279.926 85.333 C 277.850 82.629,274.954 78.842,273.491 76.917 C 263.419 63.662,263.829 64.134,262.836 64.665 C 261.997 65.114,258.206 69.500,258.021 70.236 C 257.891 70.753,257.833 74.637,257.833 82.949 C 257.833 96.219,257.869 95.773,256.750 96.333 C 255.927 96.745,245.797 96.700,245.029 96.281 C 243.919 95.675,243.993 98.499,244.041 58.599 L 244.083 22.360 244.491 21.926 C 245.137 21.238,245.613 21.188,251.196 21.220 C 256.272 21.249,256.494 21.264,256.946 21.599 M199.509 32.738 C 198.855 33.100,198.857 33.065,198.845 44.699 L 198.833 55.815 199.235 56.282 L 199.637 56.750 203.131 56.801 C 216.532 56.996,222.121 53.189,221.788 44.093 C 221.535 37.195,217.939 33.387,211.008 32.675 C 208.407 32.409,200.021 32.454,199.509 32.738 M335.372 88.161 C 336.167 88.787,336.184 88.969,336.132 96.510 C 336.080 104.131,336.089 104.051,335.191 104.532 C 334.596 104.850,320.092 104.850,319.534 104.532 C 318.868 104.152,318.833 103.728,318.833 96.065 L 318.833 88.652 319.242 88.242 L 319.652 87.833 327.303 87.833 C 334.659 87.833,334.971 87.846,335.372 88.161 " stroke="none" fill="#2c3c44" fill-rule="evenodd"></path><path id="path2" d="M338.574 11.845 C 338.294 11.926,337.882 12.188,337.657 12.426 L 337.250 12.860 337.202 20.767 C 337.155 28.474,337.163 28.694,337.502 29.460 C 337.914 30.391,337.856 30.699,337.106 31.579 L 336.542 32.241 335.827 31.745 L 335.112 31.250 327.310 31.250 L 319.508 31.250 319.045 31.712 L 318.583 32.174 318.583 40.000 L 318.583 47.826 319.045 48.288 L 319.508 48.750 327.303 48.750 C 334.829 48.750,335.114 48.738,335.572 48.417 C 335.833 48.233,336.154 48.008,336.285 47.917 C 336.937 47.459,337.639 49.148,337.360 50.502 C 337.031 52.095,337.095 66.148,337.435 66.998 C 337.721 67.713,337.688 68.181,337.273 69.250 C 336.829 70.395,336.885 84.981,337.337 85.977 C 337.763 86.916,337.755 87.040,337.208 87.970 L 336.750 88.750 336.750 96.250 C 336.750 106.642,335.661 105.583,346.347 105.583 L 354.110 105.583 354.977 105.177 C 355.829 104.778,355.857 104.776,356.630 105.053 C 357.919 105.515,372.683 105.475,373.449 105.007 C 374.331 104.470,374.359 104.174,374.302 95.888 L 374.250 88.360 373.846 87.930 C 373.173 87.214,372.645 87.169,364.989 87.168 C 358.841 87.167,357.591 87.207,356.837 87.431 C 355.319 87.882,354.742 87.261,355.458 85.950 C 355.725 85.463,355.750 84.725,355.750 77.500 L 355.750 69.583 355.364 68.730 C 354.983 67.889,354.982 67.867,355.279 67.230 C 355.723 66.277,355.837 52.371,355.415 50.621 C 355.158 49.555,355.160 49.443,355.446 48.621 C 355.723 47.826,355.750 47.065,355.750 39.917 L 355.750 32.083 355.273 31.271 L 354.795 30.459 355.189 29.618 L 355.583 28.777 355.583 20.901 C 355.583 12.049,355.625 12.342,354.318 11.884 C 353.635 11.645,339.384 11.609,338.574 11.845 M353.667 13.667 C 354.139 14.139,354.193 27.844,353.724 28.362 C 353.350 28.775,339.633 28.839,339.074 28.430 C 338.762 28.202,338.750 27.928,338.750 21.000 C 338.750 14.071,338.762 13.798,339.074 13.570 C 339.664 13.138,353.228 13.228,353.667 13.667 M29.054 21.410 C 27.764 21.971,27.743 22.619,28.894 26.349 C 29.301 27.670,30.399 31.488,31.332 34.833 C 32.266 38.179,33.513 42.516,34.104 44.471 C 34.694 46.426,36.006 50.963,37.017 54.554 C 38.982 61.529,39.163 62.154,40.666 67.167 C 41.202 68.954,42.289 72.742,43.083 75.583 C 43.876 78.425,45.049 82.512,45.689 84.667 C 46.329 86.821,47.261 90.001,47.759 91.733 C 49.260 96.951,48.622 96.583,56.167 96.583 C 63.710 96.583,63.047 97.011,64.566 91.167 C 65.079 89.196,66.024 85.678,66.667 83.349 C 67.310 81.021,68.517 76.483,69.350 73.266 C 70.182 70.049,71.300 65.842,71.835 63.917 C 73.479 57.997,74.606 53.651,75.993 47.877 C 78.061 39.266,78.010 39.274,80.005 47.198 C 80.728 50.068,81.622 53.504,81.992 54.833 C 82.362 56.163,83.309 59.645,84.097 62.573 C 84.884 65.500,86.094 69.888,86.784 72.323 C 88.300 77.670,89.497 82.006,91.409 89.083 C 93.637 97.328,92.718 96.583,100.667 96.583 C 108.772 96.583,107.450 98.003,110.833 85.667 C 111.550 83.054,112.852 78.442,113.727 75.417 C 114.602 72.392,116.069 67.179,116.988 63.833 C 117.906 60.487,119.112 56.212,119.668 54.333 C 120.224 52.454,121.394 48.292,122.268 45.083 C 123.143 41.875,124.183 38.162,124.580 36.833 C 125.381 34.151,126.483 30.290,127.598 26.260 C 129.040 21.051,129.119 21.113,121.083 21.197 C 114.324 21.269,114.928 20.807,113.348 27.107 C 112.799 29.294,111.855 32.883,111.251 35.083 C 110.646 37.283,109.216 42.721,108.073 47.167 C 106.930 51.612,105.581 56.750,105.074 58.583 C 103.703 63.544,102.933 66.738,101.986 71.394 C 100.561 78.393,100.532 78.395,99.069 71.508 C 97.830 65.679,97.530 64.495,96.160 60.000 C 95.503 57.846,94.042 52.850,92.913 48.898 C 91.784 44.945,90.473 40.445,89.998 38.898 C 89.524 37.350,88.278 33.083,87.231 29.417 C 84.646 20.372,85.600 21.250,78.355 21.250 C 71.528 21.250,71.935 21.070,70.886 24.552 C 69.580 28.888,68.224 33.586,66.811 38.667 C 65.982 41.646,64.941 45.283,64.497 46.750 C 61.983 55.045,58.605 67.466,57.493 72.500 C 56.492 77.032,56.244 76.995,55.235 72.167 C 54.094 66.712,51.501 56.688,48.422 45.833 C 47.473 42.487,46.121 37.575,45.417 34.917 C 42.225 22.854,41.808 21.694,40.538 21.341 C 39.543 21.065,29.713 21.123,29.054 21.410 M132.889 21.282 C 132.321 21.393,131.706 22.068,131.510 22.797 C 131.158 24.104,131.353 95.002,131.711 95.547 C 132.446 96.669,130.504 96.583,155.159 96.583 C 179.520 96.583,178.233 96.637,178.800 95.602 C 179.198 94.873,179.227 87.036,178.833 86.250 C 178.264 85.113,179.113 85.167,161.950 85.167 C 145.232 85.167,145.679 85.190,145.440 84.298 C 145.242 83.559,145.320 64.378,145.523 63.933 C 145.869 63.173,145.997 63.167,160.317 63.166 C 175.402 63.166,174.768 63.212,175.333 62.083 C 175.734 61.282,175.699 53.245,175.292 52.623 C 174.699 51.719,175.295 51.756,160.110 51.667 L 145.970 51.583 145.652 51.190 C 145.331 50.794,145.138 34.664,145.440 33.535 C 145.679 32.644,145.257 32.667,161.664 32.667 C 177.925 32.667,177.492 32.688,178.250 31.839 C 178.776 31.250,178.847 23.030,178.333 22.198 C 177.658 21.104,179.050 21.164,155.047 21.189 C 143.059 21.202,133.087 21.244,132.889 21.282 M186.590 21.412 C 185.015 21.983,185.143 18.457,185.201 59.591 C 185.255 98.973,185.154 95.547,186.287 96.289 C 186.970 96.737,197.030 96.737,197.713 96.289 C 198.810 95.571,198.741 96.452,198.833 81.951 L 198.917 68.804 199.320 68.477 C 199.700 68.169,199.961 68.154,204.015 68.201 L 208.307 68.250 208.751 68.667 C 209.217 69.104,211.813 73.408,214.582 78.333 C 215.484 79.938,216.910 82.412,217.751 83.833 C 218.592 85.254,220.205 88.052,221.336 90.051 C 225.388 97.212,224.464 96.648,232.186 96.659 C 241.022 96.672,241.056 96.635,237.422 90.928 C 236.484 89.455,234.872 86.864,233.840 85.171 C 232.809 83.477,231.758 81.790,231.507 81.421 C 231.255 81.052,229.901 78.875,228.497 76.583 C 227.093 74.292,225.519 71.779,225.000 71.000 C 221.558 65.840,221.555 65.805,224.303 64.184 C 233.390 58.824,237.392 50.672,235.989 40.387 C 234.593 30.156,227.724 23.433,216.750 21.557 C 214.403 21.155,187.652 21.027,186.590 21.412 M245.407 21.341 C 245.127 21.425,244.715 21.688,244.491 21.926 L 244.083 22.360 244.041 58.599 C 243.993 98.499,243.919 95.675,245.029 96.281 C 245.797 96.700,255.927 96.745,256.750 96.333 C 257.869 95.773,257.833 96.219,257.833 82.949 C 257.833 74.637,257.891 70.753,258.021 70.236 C 258.206 69.500,261.997 65.114,262.836 64.665 C 263.829 64.134,263.419 63.662,273.491 76.917 C 274.954 78.842,277.850 82.629,279.926 85.333 C 282.003 88.037,284.585 91.417,285.665 92.844 C 288.745 96.914,287.779 96.583,296.583 96.583 C 306.045 96.583,306.032 96.596,302.026 91.446 C 297.982 86.247,295.223 82.686,293.611 80.583 C 292.696 79.392,291.216 77.479,290.320 76.333 C 287.505 72.733,283.866 68.038,281.278 64.667 C 279.905 62.879,278.358 60.892,277.839 60.250 C 274.107 55.637,273.642 54.792,274.293 53.813 C 274.543 53.436,285.067 41.791,290.836 35.507 C 291.891 34.357,293.389 32.704,294.164 31.833 C 294.939 30.962,296.176 29.613,296.913 28.833 C 301.881 23.578,302.696 22.297,301.549 21.546 C 300.866 21.098,287.205 21.092,286.388 21.539 C 285.887 21.813,283.334 24.523,279.853 28.475 C 278.993 29.451,277.567 31.037,276.683 32.000 C 275.799 32.962,274.553 34.350,273.913 35.082 C 273.273 35.815,271.925 37.317,270.917 38.420 C 269.908 39.523,267.208 42.523,264.917 45.088 C 259.264 51.413,258.834 51.858,258.432 51.799 C 257.878 51.718,257.867 51.440,257.847 36.833 C 257.827 21.691,257.862 22.280,256.946 21.599 C 256.430 21.216,246.571 20.996,245.407 21.341 M40.321 22.577 C 40.953 22.904,41.088 23.282,42.667 29.185 C 44.693 36.755,45.427 39.428,46.434 42.890 C 47.395 46.196,50.261 56.772,52.177 64.083 C 53.206 68.012,53.598 69.809,54.889 76.531 C 55.505 79.735,56.130 80.651,56.972 79.581 C 57.332 79.123,57.444 78.669,58.426 73.667 C 59.336 69.031,61.967 59.336,66.728 43.083 C 67.319 41.067,68.377 37.354,69.081 34.833 C 72.054 24.181,72.468 22.945,73.189 22.572 C 73.859 22.225,82.803 22.223,83.473 22.569 C 84.115 22.901,84.196 23.104,85.509 27.667 C 86.156 29.912,87.162 33.325,87.746 35.250 C 88.329 37.175,89.604 41.563,90.578 45.000 C 91.553 48.438,92.842 52.862,93.443 54.833 C 96.070 63.445,97.034 67.249,98.901 76.377 C 99.479 79.203,99.859 80.202,100.396 80.306 C 101.236 80.467,101.501 79.650,103.010 72.250 C 104.043 67.185,105.755 60.198,107.746 52.917 C 108.347 50.717,109.698 45.579,110.748 41.500 C 113.555 30.586,115.492 23.468,115.771 23.034 C 116.184 22.394,116.683 22.333,121.557 22.333 C 126.838 22.333,127.000 22.365,127.000 23.408 C 127.000 24.004,124.727 32.496,123.250 37.417 C 122.755 39.067,121.627 43.042,120.743 46.250 C 118.594 54.046,118.067 55.919,116.776 60.333 C 116.173 62.396,114.971 66.671,114.105 69.833 C 113.239 72.996,111.742 78.321,110.778 81.667 C 109.813 85.012,108.636 89.175,108.161 90.917 C 106.808 95.885,107.599 95.417,100.555 95.417 L 95.027 95.417 94.602 95.018 C 94.085 94.532,94.004 94.285,92.413 88.333 C 91.715 85.721,90.479 81.258,89.667 78.417 C 88.855 75.575,87.505 70.700,86.667 67.583 C 85.829 64.467,84.590 59.967,83.913 57.583 C 83.237 55.200,81.935 50.203,81.019 46.479 C 78.949 38.058,78.808 37.708,77.753 38.400 C 77.149 38.795,76.876 39.716,74.086 50.765 C 72.653 56.440,71.178 62.171,70.808 63.500 C 69.047 69.835,68.395 72.256,66.680 78.833 C 62.710 94.053,62.399 95.048,61.540 95.289 C 60.500 95.580,50.935 95.438,50.457 95.125 C 49.695 94.625,49.881 95.216,44.310 75.667 C 43.670 73.421,42.706 70.121,42.167 68.333 C 41.629 66.546,40.550 62.796,39.769 60.000 C 38.989 57.204,37.942 53.529,37.443 51.833 C 35.176 44.123,34.141 40.546,33.416 37.917 C 32.753 35.515,31.366 30.762,29.725 25.273 C 29.223 23.594,29.218 22.933,29.704 22.593 C 30.238 22.219,39.602 22.205,40.321 22.577 M177.091 22.742 L 177.500 23.152 177.500 26.917 L 177.500 30.682 177.091 31.091 L 176.682 31.500 161.466 31.501 C 145.513 31.502,145.363 31.509,144.654 32.263 L 144.250 32.693 144.209 41.972 C 144.163 52.148,144.136 51.857,145.169 52.375 C 145.708 52.645,146.739 52.666,159.433 52.666 C 174.445 52.667,174.047 52.641,174.343 53.641 C 174.730 54.947,174.477 61.315,174.023 61.682 C 173.646 61.987,173.187 62.001,162.940 62.032 C 143.511 62.091,145.134 62.002,144.499 63.038 C 144.171 63.571,144.165 63.820,144.207 74.362 L 144.250 85.140 144.654 85.570 C 145.364 86.325,145.502 86.331,161.716 86.332 L 177.182 86.333 177.591 86.742 L 178.000 87.152 178.000 90.816 C 178.000 94.450,177.997 94.485,177.598 94.949 L 177.196 95.417 155.382 95.417 C 130.751 95.417,132.786 95.532,132.587 94.128 C 132.532 93.737,132.508 77.604,132.535 58.277 L 132.583 23.138 133.051 22.736 L 133.519 22.333 155.100 22.333 L 176.682 22.333 177.091 22.742 M215.695 22.654 C 225.854 24.011,232.306 29.369,234.411 38.196 C 236.969 48.926,232.997 57.985,223.321 63.490 C 220.238 65.243,220.205 65.466,222.487 69.090 C 223.351 70.461,225.004 73.121,226.162 75.000 C 227.319 76.879,228.818 79.279,229.491 80.333 C 230.165 81.387,231.470 83.487,232.392 85.000 C 233.313 86.513,234.766 88.837,235.619 90.167 C 238.456 94.583,238.622 95.118,237.232 95.365 C 236.269 95.537,227.354 95.516,226.598 95.341 C 225.446 95.074,225.772 95.583,217.537 81.167 C 215.725 77.996,212.048 71.646,210.684 69.333 C 209.284 66.959,209.404 67.000,203.782 67.000 C 200.046 67.000,199.208 67.044,198.746 67.263 C 197.626 67.795,197.667 67.263,197.667 81.213 C 197.667 94.746,197.668 94.716,197.026 95.136 C 196.464 95.504,187.673 95.563,187.044 95.204 C 186.413 94.843,186.417 95.050,186.417 58.651 C 186.417 20.389,186.360 22.850,187.244 22.492 C 188.042 22.169,213.132 22.311,215.695 22.654 M256.258 22.742 L 256.667 23.152 256.677 37.367 C 256.687 52.080,256.721 52.961,257.294 53.534 C 258.044 54.285,258.789 53.659,263.678 48.167 C 264.942 46.746,267.201 44.224,268.697 42.562 C 271.871 39.035,274.219 36.423,278.563 31.587 C 280.294 29.660,282.694 26.989,283.896 25.651 C 285.099 24.313,286.340 23.038,286.654 22.817 L 287.225 22.417 293.336 22.369 C 299.633 22.320,300.333 22.380,300.333 22.966 C 300.333 23.392,300.177 23.572,292.421 32.085 C 291.502 33.094,289.325 35.490,287.583 37.411 C 285.842 39.331,283.552 41.843,282.495 42.993 C 281.438 44.143,279.696 46.058,278.623 47.250 C 277.550 48.442,275.919 50.242,274.999 51.250 C 271.784 54.774,271.649 54.182,277.320 61.430 C 279.648 64.405,282.042 67.490,285.667 72.185 C 290.304 78.191,293.591 82.434,295.414 84.767 C 297.492 87.428,299.844 90.461,301.625 92.776 C 303.682 95.452,303.771 95.401,296.850 95.472 C 290.418 95.538,289.524 95.472,288.822 94.881 C 288.350 94.485,287.529 93.435,281.417 85.419 C 280.133 83.736,277.430 80.197,275.408 77.555 C 273.387 74.912,270.619 71.287,269.257 69.500 C 263.275 61.650,263.841 61.849,259.755 66.161 C 256.381 69.721,256.765 67.704,256.667 82.389 C 256.587 94.362,256.571 94.870,256.269 95.090 C 255.753 95.467,254.790 95.529,250.275 95.471 L 245.971 95.417 245.569 94.949 L 245.167 94.481 245.167 58.896 C 245.167 34.036,245.220 23.211,245.344 22.980 C 245.650 22.408,246.126 22.355,251.049 22.344 L 255.848 22.333 256.258 22.742 M198.917 31.567 C 197.662 32.121,197.755 31.131,197.705 44.436 C 197.648 59.446,197.059 57.887,202.826 57.973 C 217.310 58.189,223.434 53.839,222.947 43.677 C 222.607 36.554,218.472 32.296,211.132 31.507 C 208.692 31.245,199.545 31.290,198.917 31.567 M354.204 32.129 L 354.583 32.509 354.633 39.546 C 354.687 47.141,354.665 47.500,354.128 48.001 C 353.782 48.323,353.535 48.333,346.378 48.333 L 338.985 48.333 338.592 47.941 C 338.276 47.625,338.176 47.292,338.076 46.232 C 337.927 44.646,338.083 32.879,338.259 32.440 C 338.551 31.710,339.001 31.670,346.621 31.711 L 353.824 31.750 354.204 32.129 M211.008 32.675 C 217.939 33.387,221.535 37.195,221.788 44.093 C 222.121 53.189,216.532 56.996,203.131 56.801 L 199.637 56.750 199.235 56.282 L 198.833 55.815 198.845 44.699 C 198.857 33.065,198.855 33.100,199.509 32.738 C 200.021 32.454,208.407 32.409,211.008 32.675 M353.764 51.407 C 353.959 51.674,354.000 52.955,354.000 58.772 L 354.000 65.814 353.630 66.074 C 353.099 66.446,339.580 66.467,339.074 66.097 C 338.762 65.869,338.750 65.596,338.750 58.749 L 338.750 51.637 339.150 51.313 C 339.768 50.813,353.393 50.900,353.764 51.407 M353.910 69.361 C 354.643 69.695,354.689 70.235,354.634 77.871 L 354.583 84.991 354.204 85.371 L 353.824 85.750 346.314 85.750 L 338.804 85.750 338.485 85.357 C 338.182 84.982,338.167 84.599,338.167 77.474 L 338.167 69.985 338.576 69.576 L 338.985 69.167 346.235 69.167 C 351.396 69.167,353.607 69.223,353.910 69.361 M319.242 88.242 L 318.833 88.652 318.833 96.065 C 318.833 100.355,318.900 103.654,318.992 103.896 C 319.315 104.745,319.367 104.750,327.350 104.750 C 335.245 104.750,335.314 104.743,335.841 103.948 C 336.166 103.459,336.297 89.717,335.984 88.962 C 335.500 87.794,335.805 87.833,327.303 87.833 L 319.652 87.833 319.242 88.242 M354.037 88.630 L 354.417 89.009 354.417 96.250 L 354.417 103.491 354.037 103.870 L 353.657 104.250 346.314 104.250 L 338.971 104.250 338.652 103.857 C 338.214 103.315,338.152 89.333,338.585 88.715 C 338.939 88.210,338.972 88.208,346.704 88.230 L 353.658 88.250 354.037 88.630 " stroke="none" fill="#949ca4" fill-rule="evenodd"></path></g></svg>