<svg id="svg" version="1.1" xmlns="http://www.w3.org/2000/svg" xmlns:xlink="http://www.w3.org/1999/xlink" width="400" height="148.63387978142075" viewBox="0, 0, 400,148.63387978142075"><g id="svgg"><path id="path0" d="M37.917 18.991 C 36.818 19.441,36.922 15.553,36.868 58.059 C 36.814 99.448,36.768 97.350,37.755 97.763 C 39.386 98.444,43.829 97.972,44.168 97.081 C 44.418 96.423,44.394 20.315,44.144 19.766 C 43.765 18.934,39.387 18.389,37.917 18.991 M61.558 39.847 C 58.229 40.412,55.887 42.466,54.731 45.833 C 54.241 47.262,54.241 90.738,54.731 92.167 C 55.744 95.118,57.593 96.916,60.667 97.941 C 61.977 98.377,96.741 98.508,99.231 98.085 C 102.897 97.463,105.511 94.993,106.236 91.465 C 106.611 89.643,106.633 48.238,106.260 46.480 C 105.612 43.421,103.350 40.983,100.272 40.027 C 99.301 39.725,63.260 39.557,61.558 39.847 M240.229 39.780 C 240.034 39.819,239.697 40.041,239.479 40.272 L 239.083 40.693 239.034 68.222 C 238.982 97.456,238.964 96.750,239.791 97.292 C 240.270 97.606,244.403 97.727,245.373 97.456 C 246.493 97.142,246.408 99.081,246.500 71.833 C 246.578 48.719,246.601 47.208,246.877 46.788 C 247.529 45.792,247.118 45.822,259.303 45.872 L 270.443 45.917 271.248 46.417 C 272.897 47.441,272.738 44.844,272.833 72.341 C 272.926 99.024,272.841 97.143,273.960 97.456 C 274.748 97.676,279.203 97.597,279.639 97.356 C 280.537 96.858,280.500 97.940,280.500 71.880 C 280.501 45.132,280.420 47.094,281.554 46.262 C 282.016 45.923,282.207 45.916,292.206 45.871 C 304.014 45.819,303.639 45.779,305.068 47.219 C 306.517 48.680,306.397 46.506,306.496 73.000 C 306.592 99.032,306.501 97.185,307.711 97.513 C 308.743 97.792,311.848 97.638,312.394 97.280 C 313.185 96.762,313.176 97.095,313.128 71.054 L 313.083 46.417 312.722 45.471 C 311.741 42.906,309.947 41.158,307.237 40.126 L 306.250 39.750 273.417 39.730 C 255.358 39.719,240.424 39.741,240.229 39.780 M330.917 39.771 C 329.118 40.125,328.620 40.272,327.765 40.703 C 325.905 41.639,324.283 43.555,323.563 45.667 C 323.104 47.011,323.073 90.467,323.529 92.055 C 324.490 95.396,327.112 97.585,330.758 98.089 C 333.778 98.506,367.697 98.375,369.000 97.940 C 372.154 96.889,374.146 94.869,375.111 91.741 C 375.512 90.441,375.593 48.081,375.197 46.590 C 374.235 42.967,371.758 40.583,368.263 39.914 C 367.054 39.683,332.046 39.549,330.917 39.771 M115.167 40.376 C 114.506 40.717,114.542 41.406,115.284 42.604 C 116.431 44.454,120.043 50.115,122.500 53.913 C 123.829 55.967,126.154 59.567,127.667 61.912 C 129.179 64.257,131.359 67.617,132.512 69.380 C 133.664 71.142,135.426 73.887,136.428 75.481 C 139.413 80.229,144.699 88.466,146.495 91.167 C 150.542 97.251,150.518 96.578,146.886 102.333 C 143.015 108.468,138.836 115.163,136.587 118.833 C 133.246 124.283,128.539 131.799,126.228 135.371 C 123.985 138.839,124.021 139.037,127.221 140.802 C 130.154 142.419,130.075 142.468,133.604 136.833 C 134.953 134.679,136.954 131.492,138.050 129.750 C 139.146 128.008,141.321 124.521,142.883 122.000 C 144.446 119.479,146.261 116.554,146.919 115.500 C 147.576 114.446,148.509 112.946,148.993 112.167 C 149.476 111.388,150.641 109.550,151.582 108.083 C 154.784 103.090,157.107 99.420,158.332 97.417 C 159.005 96.317,160.097 94.554,160.759 93.500 C 162.111 91.349,166.414 84.462,169.246 79.917 C 170.274 78.267,171.737 75.942,172.497 74.750 C 173.257 73.558,174.106 72.208,174.385 71.750 C 174.663 71.292,175.730 69.604,176.756 68.000 C 179.330 63.974,181.326 60.776,182.729 58.432 C 184.298 55.809,185.084 54.933,185.869 54.933 C 186.980 54.933,186.583 54.434,194.284 65.500 C 195.655 67.471,197.389 69.946,198.135 71.000 C 200.771 74.722,205.615 81.616,207.421 84.216 C 208.427 85.663,210.098 88.063,211.135 89.549 C 212.172 91.034,213.535 93.000,214.165 93.917 C 216.744 97.668,216.585 97.583,221.000 97.583 C 226.427 97.583,226.390 97.828,221.930 91.512 C 220.534 89.534,218.392 86.492,217.170 84.750 C 215.947 83.008,214.257 80.608,213.413 79.417 C 212.569 78.225,210.446 75.225,208.694 72.750 C 206.943 70.275,205.286 67.938,205.012 67.557 C 204.456 66.785,204.207 66.431,198.588 58.417 C 196.403 55.300,194.303 52.337,193.922 51.833 C 193.540 51.329,192.822 50.317,192.325 49.583 C 187.983 43.173,186.516 41.333,185.748 41.333 C 184.890 41.333,184.909 41.308,179.293 50.333 C 178.010 52.396,176.603 54.646,176.168 55.333 C 175.732 56.021,174.403 58.158,173.215 60.083 C 169.072 66.793,167.954 68.593,167.004 70.083 C 166.479 70.908,164.713 73.721,163.080 76.333 C 161.448 78.946,159.537 81.983,158.834 83.083 C 158.131 84.183,157.165 85.737,156.687 86.535 C 154.768 89.744,153.933 89.543,151.201 85.215 C 150.495 84.096,148.838 81.508,147.519 79.465 C 146.200 77.422,144.513 74.790,143.769 73.616 C 142.489 71.597,141.560 70.152,136.652 62.544 C 135.514 60.780,133.833 58.160,132.917 56.721 C 132.000 55.282,130.462 52.883,129.500 51.390 C 128.537 49.897,127.000 47.496,126.083 46.055 C 123.458 41.929,122.783 40.960,122.280 40.593 C 121.689 40.162,115.922 39.986,115.167 40.376 M96.890 46.563 C 97.917 46.960,98.758 47.801,99.313 48.986 L 99.750 49.917 99.750 68.917 C 99.750 87.154,99.737 87.949,99.435 88.734 C 99.051 89.728,98.173 90.732,97.261 91.220 L 96.583 91.583 80.846 91.628 C 62.065 91.682,62.906 91.795,61.552 89.037 L 61.083 88.083 61.083 68.905 L 61.083 49.726 61.583 48.755 C 62.232 47.494,63.048 46.848,64.460 46.477 C 66.229 46.012,95.669 46.090,96.890 46.563 M364.588 46.348 C 366.524 46.706,367.799 47.703,368.366 49.305 C 368.540 49.794,368.583 53.755,368.583 69.000 L 368.583 88.083 368.115 89.037 C 366.761 91.795,367.601 91.682,348.821 91.628 L 333.083 91.583 332.417 91.223 C 331.510 90.733,330.760 89.915,330.300 88.917 L 329.917 88.083 329.917 69.000 L 329.917 49.917 330.301 49.083 C 330.953 47.667,331.940 46.810,333.358 46.429 C 334.502 46.121,362.961 46.048,364.588 46.348 " stroke="none" fill="#283056" fill-rule="evenodd"></path><path id="path1" d="M43.652 17.512 C 44.644 17.725,45.411 18.483,45.617 19.455 C 45.963 21.088,45.769 97.213,45.417 97.912 C 44.802 99.132,44.384 99.250,40.667 99.250 C 37.118 99.250,36.761 99.174,36.098 98.279 L 35.750 97.809 35.705 58.696 C 35.655 15.786,35.594 18.550,36.604 17.888 C 37.433 17.345,41.789 17.113,43.652 17.512 M99.583 38.416 C 103.351 39.087,106.552 42.117,107.621 46.023 C 108.117 47.836,108.030 90.188,107.527 92.052 C 106.528 95.748,103.879 98.347,100.167 99.272 C 98.983 99.567,97.922 99.583,80.167 99.583 L 61.417 99.583 60.083 99.131 C 56.699 97.983,54.336 95.671,53.390 92.583 C 53.099 91.633,53.083 90.447,53.083 68.917 L 53.083 46.250 53.524 45.045 C 54.887 41.314,57.680 39.003,61.626 38.339 C 63.168 38.079,98.091 38.150,99.583 38.416 M307.461 38.699 C 310.857 39.959,312.824 41.853,314.057 45.051 L 314.583 46.417 314.635 71.167 C 314.690 97.607,314.700 97.265,313.869 98.036 C 312.944 98.893,307.897 99.239,306.500 98.541 C 305.205 97.895,305.303 99.851,305.252 73.533 C 305.202 48.308,305.240 49.308,304.309 48.247 C 303.370 47.178,303.247 47.167,292.562 47.167 L 283.019 47.167 282.551 47.569 L 282.083 47.971 282.000 72.527 C 281.907 99.889,282.005 97.791,280.789 98.456 C 279.966 98.905,273.293 98.897,272.604 98.445 C 271.520 97.735,271.592 99.411,271.500 72.638 L 271.417 48.360 271.010 47.927 C 270.292 47.163,270.025 47.147,258.964 47.200 C 249.191 47.247,248.492 47.269,248.214 47.548 C 247.932 47.830,247.912 49.118,247.833 72.464 C 247.755 95.595,247.732 97.116,247.456 97.622 C 246.894 98.650,246.476 98.750,242.750 98.750 C 239.111 98.750,238.763 98.677,238.098 97.779 L 237.750 97.309 237.706 69.054 C 237.661 39.616,237.654 39.917,238.381 39.079 C 239.206 38.126,237.226 38.176,273.167 38.214 L 306.250 38.250 307.461 38.699 M369.788 38.787 C 373.116 39.950,375.216 42.151,376.278 45.593 C 376.672 46.872,376.760 90.500,376.371 92.151 C 375.576 95.527,372.959 98.085,369.083 99.276 C 367.547 99.748,331.867 99.751,329.667 99.280 C 326.199 98.537,323.621 96.245,322.354 92.779 L 321.917 91.583 321.866 69.500 C 321.830 53.679,321.869 47.133,322.003 46.417 C 322.605 43.201,325.466 39.845,328.456 38.845 C 330.323 38.221,331.042 38.200,349.750 38.225 L 368.250 38.250 369.788 38.787 M122.017 38.856 C 122.984 39.180,123.666 39.822,124.642 41.329 C 125.160 42.127,126.558 44.296,127.750 46.147 C 128.942 47.998,130.732 50.767,131.728 52.298 C 132.724 53.830,133.953 55.721,134.460 56.500 C 135.425 57.985,137.507 61.313,139.674 64.833 C 140.379 65.979,142.185 68.770,143.686 71.034 C 145.188 73.299,147.049 76.149,147.823 77.368 C 148.596 78.586,149.838 80.521,150.583 81.667 C 151.328 82.813,152.338 84.372,152.828 85.133 C 154.238 87.321,154.584 87.327,155.952 85.193 C 156.460 84.399,157.343 83.037,157.915 82.167 C 158.486 81.296,159.854 79.083,160.955 77.250 C 162.953 73.923,163.601 72.874,166.665 68.000 C 167.558 66.579,169.287 63.804,170.506 61.833 C 172.581 58.481,173.297 57.347,176.717 52.000 C 177.992 50.005,180.661 45.666,182.646 42.359 C 185.412 37.750,185.981 38.001,191.698 46.333 C 194.245 50.046,195.588 51.948,198.116 55.417 C 198.450 55.875,200.222 58.387,202.053 61.000 C 203.885 63.612,205.621 66.050,205.912 66.417 C 206.203 66.783,206.868 67.721,207.390 68.500 C 207.912 69.279,208.935 70.742,209.662 71.750 C 210.389 72.758,211.674 74.596,212.518 75.833 C 213.361 77.071,214.376 78.533,214.773 79.083 C 215.170 79.633,216.303 81.224,217.289 82.618 C 218.276 84.013,220.201 86.713,221.567 88.618 C 226.857 95.998,227.000 96.224,227.000 97.206 C 227.000 98.644,226.357 98.831,221.417 98.831 C 216.230 98.831,215.865 98.681,213.813 95.699 C 213.328 94.994,211.696 92.692,210.186 90.583 C 208.677 88.475,206.492 85.362,205.332 83.667 C 204.172 81.971,202.445 79.496,201.494 78.167 C 200.543 76.837,198.970 74.587,197.997 73.167 C 194.117 67.497,192.393 65.023,191.428 63.734 C 190.872 62.992,189.608 61.257,188.619 59.879 C 185.915 56.112,185.884 56.102,184.363 58.515 C 183.843 59.341,182.702 61.119,181.829 62.467 C 179.473 66.102,176.741 70.438,175.087 73.167 C 173.733 75.399,172.587 77.235,169.832 81.583 C 169.251 82.500,168.127 84.300,167.335 85.583 C 165.042 89.300,163.362 91.956,162.170 93.750 C 161.561 94.667,160.325 96.617,159.423 98.083 C 156.639 102.609,154.360 106.290,152.432 109.369 C 151.415 110.993,150.058 113.164,149.417 114.192 C 148.775 115.220,147.537 117.168,146.667 118.520 C 145.796 119.872,144.521 121.901,143.833 123.030 C 143.146 124.158,142.092 125.832,141.491 126.749 C 140.891 127.666,139.884 129.279,139.254 130.333 C 138.624 131.387,137.806 132.700,137.437 133.249 C 137.068 133.799,136.308 134.999,135.748 135.916 C 130.393 144.691,130.823 144.401,126.590 142.083 C 122.603 139.901,122.356 139.012,124.714 135.326 C 125.386 134.276,126.189 132.967,126.499 132.417 C 126.809 131.867,127.469 130.782,127.967 130.006 C 128.464 129.231,129.771 127.131,130.871 125.340 C 131.971 123.549,133.528 121.071,134.332 119.833 C 135.135 118.596,136.486 116.458,137.335 115.083 C 138.183 113.708,139.486 111.630,140.230 110.465 C 140.974 109.301,142.254 107.238,143.073 105.882 C 143.892 104.526,145.138 102.517,145.843 101.417 C 148.872 96.687,148.976 97.493,144.424 90.500 C 143.677 89.354,142.644 87.704,142.127 86.833 C 141.610 85.962,139.964 83.396,138.469 81.129 C 135.332 76.376,130.378 68.715,128.793 66.167 C 127.534 64.143,124.103 58.808,121.139 54.265 C 120.009 52.532,118.740 50.544,118.321 49.848 C 117.901 49.153,116.572 47.113,115.368 45.316 C 112.479 41.008,112.228 40.192,113.486 39.210 C 114.169 38.677,120.674 38.407,122.017 38.856 M64.583 47.750 C 63.751 48.045,62.913 48.936,62.680 49.776 C 62.426 50.690,62.432 87.165,62.686 88.080 C 62.961 89.069,63.894 89.914,64.967 90.144 C 66.141 90.396,94.741 90.404,95.830 90.153 C 96.790 89.932,97.573 89.329,98.043 88.449 L 98.417 87.750 98.417 69.000 L 98.417 50.250 97.976 49.417 C 97.444 48.409,97.057 48.040,96.219 47.741 C 95.258 47.399,65.555 47.407,64.583 47.750 M333.447 47.741 C 332.597 48.045,332.245 48.389,331.747 49.407 L 331.329 50.262 331.373 69.185 L 331.417 88.108 331.875 88.801 C 332.127 89.182,332.652 89.664,333.042 89.872 L 333.750 90.250 349.250 90.250 L 364.750 90.250 365.443 89.880 C 366.359 89.390,366.774 88.830,367.001 87.781 C 367.346 86.182,367.155 49.880,366.798 49.228 C 366.410 48.520,365.618 47.882,364.870 47.674 C 363.847 47.390,334.255 47.453,333.447 47.741 " stroke="none" fill="#fbfbfb" fill-rule="evenodd"></path><path id="path2" d="M37.546 17.495 C 36.692 17.698,36.220 18.099,35.929 18.868 C 35.683 19.521,35.663 22.970,35.705 58.696 L 35.750 97.809 36.098 98.279 C 36.761 99.174,37.118 99.250,40.667 99.250 C 44.384 99.250,44.802 99.132,45.417 97.912 C 45.769 97.213,45.963 21.088,45.617 19.455 C 45.411 18.483,44.644 17.725,43.652 17.512 C 42.713 17.311,38.372 17.299,37.546 17.495 M43.410 19.091 C 43.709 19.233,44.039 19.537,44.144 19.766 C 44.394 20.315,44.418 96.423,44.168 97.081 C 43.893 97.803,43.125 98.000,40.583 98.000 C 37.823 98.000,37.276 97.830,37.003 96.888 C 36.612 95.537,36.853 19.939,37.250 19.498 C 37.893 18.783,42.166 18.501,43.410 19.091 M61.626 38.339 C 57.680 39.003,54.887 41.314,53.524 45.045 L 53.083 46.250 53.083 68.917 C 53.083 90.447,53.099 91.633,53.390 92.583 C 54.336 95.671,56.699 97.983,60.083 99.131 L 61.417 99.583 80.167 99.583 C 97.922 99.583,98.983 99.567,100.167 99.272 C 103.879 98.347,106.528 95.748,107.527 92.052 C 108.030 90.188,108.117 47.836,107.621 46.023 C 106.552 42.117,103.351 39.087,99.583 38.416 C 98.091 38.150,63.168 38.079,61.626 38.339 M239.417 38.416 C 238.603 38.705,238.069 39.293,237.837 40.153 C 237.718 40.594,237.677 49.786,237.706 69.054 L 237.750 97.309 238.098 97.779 C 238.763 98.677,239.111 98.750,242.750 98.750 C 246.476 98.750,246.894 98.650,247.456 97.622 C 247.732 97.116,247.755 95.595,247.833 72.464 C 247.912 49.118,247.932 47.830,248.214 47.548 C 248.492 47.269,249.191 47.247,258.964 47.200 C 270.025 47.147,270.292 47.163,271.010 47.927 L 271.417 48.360 271.500 72.638 C 271.592 99.411,271.520 97.735,272.604 98.445 C 273.293 98.897,279.966 98.905,280.789 98.456 C 282.005 97.791,281.907 99.889,282.000 72.527 L 282.083 47.971 282.551 47.569 L 283.019 47.167 292.562 47.167 C 303.247 47.167,303.370 47.178,304.309 48.247 C 305.240 49.308,305.202 48.308,305.252 73.533 C 305.303 99.851,305.205 97.895,306.500 98.541 C 307.897 99.239,312.944 98.893,313.869 98.036 C 314.700 97.265,314.690 97.607,314.635 71.167 L 314.583 46.417 314.057 45.051 C 312.824 41.853,310.857 39.959,307.461 38.699 L 306.250 38.250 273.167 38.214 C 244.916 38.184,239.986 38.213,239.417 38.416 M330.373 38.349 C 327.043 38.913,324.325 40.968,322.854 44.032 C 321.772 46.289,321.811 45.272,321.866 69.500 L 321.917 91.583 322.354 92.779 C 323.621 96.245,326.199 98.537,329.667 99.280 C 331.867 99.751,367.547 99.748,369.083 99.276 C 372.959 98.085,375.576 95.527,376.371 92.151 C 376.760 90.500,376.672 46.872,376.278 45.593 C 375.216 42.151,373.116 39.950,369.788 38.787 L 368.250 38.250 349.750 38.225 C 339.556 38.212,330.856 38.267,330.373 38.349 M114.250 38.850 C 112.036 39.530,112.226 40.631,115.368 45.316 C 116.572 47.113,117.901 49.153,118.321 49.848 C 118.740 50.544,120.009 52.532,121.139 54.265 C 124.103 58.808,127.534 64.143,128.793 66.167 C 130.378 68.715,135.332 76.376,138.469 81.129 C 139.964 83.396,141.610 85.962,142.127 86.833 C 142.644 87.704,143.677 89.354,144.424 90.500 C 148.976 97.493,148.872 96.687,145.843 101.417 C 145.138 102.517,143.892 104.526,143.073 105.882 C 142.254 107.238,140.974 109.301,140.230 110.465 C 139.486 111.630,138.183 113.708,137.335 115.083 C 136.486 116.458,135.135 118.596,134.332 119.833 C 133.528 121.071,131.971 123.549,130.871 125.340 C 129.771 127.131,128.464 129.231,127.967 130.006 C 127.469 130.782,126.809 131.867,126.499 132.417 C 126.189 132.967,125.386 134.276,124.714 135.326 C 122.356 139.012,122.603 139.901,126.590 142.083 C 130.823 144.401,130.393 144.691,135.748 135.916 C 136.308 134.999,137.068 133.799,137.437 133.249 C 137.806 132.700,138.624 131.387,139.254 130.333 C 139.884 129.279,140.891 127.666,141.491 126.749 C 142.092 125.832,143.146 124.158,143.833 123.030 C 144.521 121.901,145.796 119.872,146.667 118.520 C 147.537 117.168,148.775 115.220,149.417 114.192 C 150.058 113.164,151.415 110.993,152.432 109.369 C 154.360 106.290,156.639 102.609,159.423 98.083 C 160.325 96.617,161.561 94.667,162.170 93.750 C 163.362 91.956,165.042 89.300,167.335 85.583 C 168.127 84.300,169.251 82.500,169.832 81.583 C 172.587 77.235,173.733 75.399,175.087 73.167 C 176.741 70.438,179.473 66.102,181.829 62.467 C 182.702 61.119,183.843 59.341,184.363 58.515 C 185.884 56.102,185.915 56.112,188.619 59.879 C 189.608 61.257,190.872 62.992,191.428 63.734 C 192.393 65.023,194.117 67.497,197.997 73.167 C 198.970 74.587,200.543 76.837,201.494 78.167 C 202.445 79.496,204.172 81.971,205.332 83.667 C 206.492 85.362,208.677 88.475,210.186 90.583 C 211.696 92.692,213.328 94.994,213.813 95.699 C 215.865 98.681,216.230 98.831,221.417 98.831 C 226.357 98.831,227.000 98.644,227.000 97.206 C 227.000 96.224,226.857 95.998,221.567 88.618 C 220.201 86.713,218.276 84.013,217.289 82.618 C 216.303 81.224,215.170 79.633,214.773 79.083 C 214.376 78.533,213.361 77.071,212.518 75.833 C 211.674 74.596,210.389 72.758,209.662 71.750 C 208.935 70.742,207.912 69.279,207.390 68.500 C 206.868 67.721,206.203 66.783,205.912 66.417 C 205.621 66.050,203.885 63.612,202.053 61.000 C 200.222 58.387,198.450 55.875,198.116 55.417 C 195.588 51.948,194.245 50.046,191.698 46.333 C 185.981 38.001,185.412 37.750,182.646 42.359 C 180.661 45.666,177.992 50.005,176.717 52.000 C 173.297 57.347,172.581 58.481,170.506 61.833 C 169.287 63.804,167.558 66.579,166.665 68.000 C 163.601 72.874,162.953 73.923,160.955 77.250 C 159.854 79.083,158.486 81.296,157.915 82.167 C 157.343 83.037,156.460 84.399,155.952 85.193 C 154.584 87.327,154.238 87.321,152.828 85.133 C 152.338 84.372,151.328 82.813,150.583 81.667 C 149.838 80.521,148.596 78.586,147.823 77.368 C 147.049 76.149,145.188 73.299,143.686 71.034 C 142.185 68.770,140.379 65.979,139.674 64.833 C 137.507 61.313,135.425 57.985,134.460 56.500 C 133.953 55.721,132.724 53.830,131.728 52.298 C 130.732 50.767,128.942 47.998,127.750 46.147 C 126.558 44.296,125.160 42.127,124.642 41.329 C 123.666 39.822,122.984 39.180,122.017 38.856 C 121.333 38.628,114.991 38.623,114.250 38.850 M100.272 40.027 C 103.350 40.983,105.612 43.421,106.260 46.480 C 106.633 48.238,106.611 89.643,106.236 91.465 C 105.511 94.993,102.897 97.463,99.231 98.085 C 96.741 98.508,61.977 98.377,60.667 97.941 C 57.593 96.916,55.744 95.118,54.731 92.167 C 54.241 90.738,54.241 47.262,54.731 45.833 C 55.887 42.466,58.229 40.412,61.558 39.847 C 63.260 39.557,99.301 39.725,100.272 40.027 M307.237 40.126 C 309.947 41.158,311.741 42.906,312.722 45.471 L 313.083 46.417 313.128 71.054 C 313.176 97.095,313.185 96.762,312.394 97.280 C 311.848 97.638,308.743 97.792,307.711 97.513 C 306.501 97.185,306.592 99.032,306.496 73.000 C 306.397 46.506,306.517 48.680,305.068 47.219 C 303.639 45.779,304.014 45.819,292.206 45.871 C 282.207 45.916,282.016 45.923,281.554 46.262 C 280.420 47.094,280.501 45.132,280.500 71.880 C 280.500 97.940,280.537 96.858,279.639 97.356 C 279.203 97.597,274.748 97.676,273.960 97.456 C 272.841 97.143,272.926 99.024,272.833 72.341 C 272.738 44.844,272.897 47.441,271.248 46.417 L 270.443 45.917 259.303 45.872 C 247.118 45.822,247.529 45.792,246.877 46.788 C 246.601 47.208,246.578 48.719,246.500 71.833 C 246.408 99.081,246.493 97.142,245.373 97.456 C 244.403 97.727,240.270 97.606,239.791 97.292 C 238.964 96.750,238.982 97.456,239.034 68.222 L 239.083 40.693 239.479 40.272 C 240.044 39.671,237.727 39.708,273.417 39.730 L 306.250 39.750 307.237 40.126 M368.263 39.914 C 371.758 40.583,374.235 42.967,375.197 46.590 C 375.593 48.081,375.512 90.441,375.111 91.741 C 374.146 94.869,372.154 96.889,369.000 97.940 C 367.697 98.375,333.778 98.506,330.758 98.089 C 327.112 97.585,324.490 95.396,323.529 92.055 C 323.073 90.467,323.104 47.011,323.563 45.667 C 324.283 43.555,325.905 41.639,327.765 40.703 C 328.620 40.272,329.118 40.125,330.917 39.771 C 332.046 39.549,367.054 39.683,368.263 39.914 M122.280 40.593 C 122.783 40.960,123.458 41.929,126.083 46.055 C 127.000 47.496,128.537 49.897,129.500 51.390 C 130.462 52.883,132.000 55.282,132.917 56.721 C 133.833 58.160,135.514 60.780,136.652 62.544 C 141.560 70.152,142.489 71.597,143.769 73.616 C 144.513 74.790,146.200 77.422,147.519 79.465 C 148.838 81.508,150.495 84.096,151.201 85.215 C 153.933 89.543,154.768 89.744,156.687 86.535 C 157.165 85.737,158.131 84.183,158.834 83.083 C 159.537 81.983,161.448 78.946,163.080 76.333 C 164.713 73.721,166.479 70.908,167.004 70.083 C 167.954 68.593,169.072 66.793,173.215 60.083 C 174.403 58.158,175.732 56.021,176.168 55.333 C 176.603 54.646,178.010 52.396,179.293 50.333 C 184.909 41.308,184.890 41.333,185.748 41.333 C 186.516 41.333,187.983 43.173,192.325 49.583 C 192.822 50.317,193.540 51.329,193.922 51.833 C 194.303 52.337,196.403 55.300,198.588 58.417 C 204.207 66.431,204.456 66.785,205.012 67.557 C 205.286 67.938,206.943 70.275,208.694 72.750 C 210.446 75.225,212.569 78.225,213.413 79.417 C 214.257 80.608,215.947 83.008,217.170 84.750 C 218.392 86.492,220.534 89.534,221.930 91.512 C 226.390 97.828,226.427 97.583,221.000 97.583 C 216.585 97.583,216.744 97.668,214.165 93.917 C 213.535 93.000,212.172 91.034,211.135 89.549 C 210.098 88.063,208.427 85.663,207.421 84.216 C 205.615 81.616,200.771 74.722,198.135 71.000 C 197.389 69.946,195.655 67.471,194.284 65.500 C 186.583 54.434,186.980 54.933,185.869 54.933 C 185.084 54.933,184.298 55.809,182.729 58.432 C 181.326 60.776,179.330 63.974,176.756 68.000 C 175.730 69.604,174.663 71.292,174.385 71.750 C 174.106 72.208,173.257 73.558,172.497 74.750 C 171.737 75.942,170.274 78.267,169.246 79.917 C 166.414 84.462,162.111 91.349,160.759 93.500 C 160.097 94.554,159.005 96.317,158.332 97.417 C 157.107 99.420,154.784 103.090,151.582 108.083 C 150.641 109.550,149.476 111.388,148.993 112.167 C 148.509 112.946,147.576 114.446,146.919 115.500 C 146.261 116.554,144.446 119.479,142.883 122.000 C 141.321 124.521,139.146 128.008,138.050 129.750 C 136.954 131.492,134.953 134.679,133.604 136.833 C 130.075 142.468,130.154 142.419,127.221 140.802 C 124.021 139.037,123.985 138.839,126.228 135.371 C 128.539 131.799,133.246 124.283,136.587 118.833 C 138.836 115.163,143.015 108.468,146.886 102.333 C 150.518 96.578,150.542 97.251,146.495 91.167 C 144.699 88.466,139.413 80.229,136.428 75.481 C 135.426 73.887,133.664 71.142,132.512 69.380 C 131.359 67.617,129.179 64.257,127.667 61.912 C 126.154 59.567,123.829 55.967,122.500 53.913 C 120.043 50.115,116.431 44.454,115.284 42.604 C 114.542 41.406,114.506 40.717,115.167 40.376 C 115.922 39.986,121.689 40.162,122.280 40.593 M64.460 46.477 C 63.048 46.848,62.232 47.494,61.583 48.755 L 61.083 49.726 61.083 68.905 L 61.083 88.083 61.552 89.037 C 62.906 91.795,62.065 91.682,80.846 91.628 L 96.583 91.583 97.261 91.220 C 98.173 90.732,99.051 89.728,99.435 88.734 C 99.737 87.949,99.750 87.154,99.750 68.917 L 99.750 49.917 99.313 48.986 C 98.758 47.801,97.917 46.960,96.890 46.563 C 95.669 46.090,66.229 46.012,64.460 46.477 M333.358 46.429 C 331.940 46.810,330.953 47.667,330.301 49.083 L 329.917 49.917 329.917 69.000 L 329.917 88.083 330.300 88.917 C 330.760 89.915,331.510 90.733,332.417 91.223 L 333.083 91.583 348.821 91.628 C 367.601 91.682,366.761 91.795,368.115 89.037 L 368.583 88.083 368.583 69.000 C 368.583 53.755,368.540 49.794,368.366 49.305 C 367.799 47.703,366.524 46.706,364.588 46.348 C 362.961 46.048,334.502 46.121,333.358 46.429 M96.219 47.741 C 97.057 48.040,97.444 48.409,97.976 49.417 L 98.417 50.250 98.417 69.000 L 98.417 87.750 98.043 88.449 C 97.573 89.329,96.790 89.932,95.830 90.153 C 94.741 90.404,66.141 90.396,64.967 90.144 C 63.894 89.914,62.961 89.069,62.686 88.080 C 62.432 87.165,62.426 50.690,62.680 49.776 C 62.913 48.936,63.751 48.045,64.583 47.750 C 65.555 47.407,95.258 47.399,96.219 47.741 M364.870 47.674 C 365.618 47.882,366.410 48.520,366.798 49.228 C 367.155 49.880,367.346 86.182,367.001 87.781 C 366.774 88.830,366.359 89.390,365.443 89.880 L 364.750 90.250 349.250 90.250 L 333.750 90.250 333.042 89.872 C 332.652 89.664,332.127 89.182,331.875 88.801 L 331.417 88.108 331.373 69.185 L 331.329 50.262 331.747 49.407 C 332.245 48.389,332.597 48.045,333.447 47.741 C 334.255 47.453,363.847 47.390,364.870 47.674 " stroke="none" fill="#acb0bd" fill-rule="evenodd"></path></g></svg>